<svg width="80" height="80" fill="none" xmlns="http://www.w3.org/2000/svg"><path d="M35.1 65.8c13 0 23.4-10.8 23.4-24.2a23.8 23.8 0 00-23.4-24.2c-12.9 0-23.4 10.9-23.4 24.2a23.8 23.8 0 0023.4 24.2z" fill="#fff"/><path d="M30.7 36c-2.6 2.7-4 6.7-2.5 10 .8 2 5.1 3 6.6 3a17 17 0 004-.5 5.6 5.6 0 003.5-2.9c.7-1.3 1-2.8.8-4.3 0-1-.3-2-.7-2.8-1-1.6-3-3.5-5-3.7-1.8-.3-4.4-1-6.7 1.3z" fill="#F68559"/><path d="M29.5 34.8c-3 3.3-5.7 9.7-1.9 13.4 3.2 3.1 9.6 3.4 13.3 1.4 4.6-2.5 5.3-9.4 2.1-13.3-3.3-4.1-9.5-5-13.5-1.4-1.8 1.5.8 4 2.5 2.5 2.4-2 6.4-1.2 8.3 1.1a5.3 5.3 0 01-3 8.5c-2.1.5-5 .4-6.7-1-2.8-2.2-.4-6.7 1.4-8.6 1.6-1.7-1-4.3-2.5-2.6z" fill="#F68559"/><path d="M61.3 28.2a25 25 0 00-12-11.3 35 35 0 00-18.5-1.4c-5.3 1-10.2 3.5-14.2 7.1a29.9 29.9 0 00-7 31.6 27 27 0 0011.1 13.2c5.3 2.8 12 2.4 17.8 1.6a31 31 0 0017.1-7.7 29.9 29.9 0 008-16.2c1-5.7.5-11.6-2.3-16.9zm-27.5-3.1c8.1-.4 12.7 2.6 15 4.7 2 2 6.5 8.2 4.4 15.9-1 4-3.3 11.5-14.4 13.2-2 .4-4 .6-6 .5-3.8-.3-6.8-.7-9.5-3.5a14.8 14.8 0 01-5.1-11.2 18 18 0 0115.6-19.6z" fill="#F68559"/><path d="M7.3 52c2.6 7.3 6.5 13.4 13.8 16.8 2 1 3.9-2.2 1.8-3.1-6.5-3-9.8-8.1-12.2-14.7-.7-2.1-4.2-1.2-3.4 1zM30.5 70.8c10.7.7 22-2.4 28.9-10.9 6.5-8 6.5-19.4 4-29-.5-2.2-4-1.2-3.4 1 2.2 8.7 2.4 19.1-3.8 26.3-6.3 7.3-16.3 9.7-25.7 9-2.3-.2-2.2 3.4 0 3.6zM9.5 44c.3-10.4 6-21.6 16.5-24.6a33.7 33.7 0 0117-1c4.2 1.1 9.3 3 12.4 6 1.6 1.6 4.2-.9 2.5-2.5a32.2 32.2 0 00-14-7 36.8 36.8 0 00-19.6 1.3C12.6 20 6.3 32.4 5.9 44c0 2.3 3.5 2.3 3.6 0z" fill="#fff"/><path d="M31.6 36.2c-.2 2.3-.8 5.1-1.1 7.6-.3 2.3 3.3 2.3 3.5 0 .3-2.3 1-5 1.2-7.6.3-2.3-3.3-2.2-3.6 0z" fill="#1E2882"/><path d="M32.3 45.7a47 47 0 018 0c2.3.2 2.3-3.4 0-3.5a47 47 0 00-8 0c-2.3.2-2.3 3.8 0 3.5z" fill="#1E2882"/><path d="M34.5 44.5c4-3.3 8.2-6.4 12.3-9.7 1.8-1.5-.7-4-2.5-2.6L32 42c-1.8 1.5.7 4 2.5 2.5z" fill="#1E2882"/><path d="M58.7 24.9l5-4.5c1.7-1.5-.8-4-2.5-2.5l-5 4.5c-1.7 1.4.8 4 2.5 2.5z" fill="#009AFA"/><path d="M52.1 30.6l6.7-5.7c1.7-1.6-.8-4-2.6-2.6L49.6 28c-1.7 1.6.8 4 2.5 2.6z" fill="#1E2882"/><path d="M64.3 19.2c.3-2.6.6-5.2.7-7.8 0-2.3-3.5-2.3-3.6 0a80 80 0 01-.6 7.8c-.1 1 .9 1.8 1.8 1.8a1.8 1.8 0 001.8-1.8h-.1z" fill="#009AFA"/><path d="M63 21l7.6 1.2c2.3.4 3.3-3 1-3.4-2.9-.5-5.7-1-8.6-1.3-2.3-.3-2.3 3.3 0 3.6zM71 13.6a46 46 0 011-6.4c.3-2.2-3.1-3.2-3.5-.9a53 53 0 00-1 7.3c-.1 2.3 3.4 2.3 3.5 0z" fill="#009AFA"/><path d="M69.2 15.6c2.5.2 4.9.6 7.3 1 2.3.2 2.2-3.4 0-3.7-2.4-.2-4.8-.7-7.3-.8-2.3-.2-2.2 3.4 0 3.5z" fill="#009AFA"/></svg>