<svg width="24" height="24" viewBox="0 0 24 24" fill="none" xmlns="http://www.w3.org/2000/svg"><path fill-rule="evenodd" clip-rule="evenodd" d="M3.8 3.8A6.14 6.14 0 0 1 8.14 2h7.72A6.14 6.14 0 0 1 22 8.14v7.72A6.14 6.14 0 0 1 15.86 22H8.14A6.14 6.14 0 0 1 2 15.86V8.14c0-1.63.65-3.19 1.8-4.34Zm4.34.2A4.14 4.14 0 0 0 4 8.14v7.72A4.14 4.14 0 0 0 8.14 20h7.72A4.14 4.14 0 0 0 20 15.86V8.14A4.14 4.14 0 0 0 15.86 4H8.14Z" fill="#fff"/><path fill-rule="evenodd" clip-rule="evenodd" d="M9.22 7.84a5 5 0 1 1 5.56 8.32 5 5 0 0 1-5.56-8.32ZM12 9a3 3 0 1 0 0 6 3 3 0 0 0 0-6Z" fill="#fff"/><path d="M17 6a1 1 0 1 0 0 2 1 1 0 0 0 0-2Z" fill="#fff"/></svg>