<svg xmlns="http://www.w3.org/2000/svg" xmlns:xlink="http://www.w3.org/1999/xlink" width="40" height="40"><defs><circle id="a" cx="20" cy="20" r="20"/></defs><g fill="none" fill-rule="evenodd"><mask id="b" fill="#fff"><use xlink:href="#a"/></mask><use fill="#262B33" xlink:href="#a"/><g mask="url(#b)"><g transform="translate(9 6)"><path fill="#FFE099" d="M11.853 1.396l9.788 16.017a1 1 0 0 1-.05 1.118C19.197 21.755 18 25.578 18 30H4c0-4.422-1.197-8.245-3.591-11.47a1 1 0 0 1-.05-1.117l9.788-16.017a1 1 0 0 1 1.706 0z"/><path fill="#D9A52B" d="M11 1c.31 0 .6.161.763.425l9.904 16.036a1 1 0 0 1-.006 1.06C19.221 22.376 18 26.535 18 31h-7V1z"/><rect width="18" height="8" x="2" y="28" fill="#CC8F00" rx="1"/><path fill="#FFBA19" d="M3 28h4a4 4 0 0 1 4 4v3a1 1 0 0 1-1 1H3a1 1 0 0 1-1-1v-6a1 1 0 0 1 1-1z"/><circle cx="11" cy="16" r="3" fill="#262B33"/></g></g><path fill="#CC8F00" d="M12.64 32.5h14.93c-.18.667-.27 1.167-.27 1.5H12.8c0-.333-.053-.833-.16-1.5z" mask="url(#b)"/><path fill="#664700" d="M20 32.5h7.57c-.18.667-.27 1.167-.27 1.5H20v-1.5z" mask="url(#b)"/><path fill="#FFF" d="M13.928 28.189c.829 0 .59-1.296.549-2.823-.041-1.527-.034-3.303-.863-3.303-.828 0-1.867 1.627-1.663 3.195.205 1.568 1.149 2.931 1.977 2.931z" mask="url(#b)" transform="rotate(-11 13.233 25.126)"/></g></svg>