<?xml version="1.0" encoding="UTF-8"?>
<svg width="25px" height="32px" viewBox="0 0 25 32" version="1.1" xmlns="http://www.w3.org/2000/svg" xmlns:xlink="http://www.w3.org/1999/xlink">
    <!-- Generator: Sketch 49 (51002) - http://www.bohemiancoding.com/sketch -->
    <title>Icons/ 01 Logo/ 05 American Express</title>
    <desc>Created with Sketch.</desc>
    <defs></defs>
    <g id="Icons/-01-Logo/-05-American-Express" stroke="none" stroke-width="1" fill="none" fill-rule="evenodd">
        <g id="AMEX" transform="translate(0.000000, 3.000000)" fill-rule="nonzero">
            <path d="M0,-1.7789849e-06 L25.1034476,-1.7789849e-06 L25.1034476,4.06697933 C23.8766943,4.068866 22.6489934,4.06414933 21.4222401,4.06980933 C21.1475231,4.837734 20.8803845,5.60754533 20.5952472,6.371696 C20.2911641,5.614149 20.0363403,4.837734 19.7625708,4.068866 C18.1720542,4.06509233 16.5815375,4.06697933 14.9919684,4.06792267 C14.9910212,5.09339433 15.0014415,6.118866 14.9862847,7.14433767 C14.5097928,6.126413 14.0664565,5.09339433 13.6060686,4.068866 C12.3205826,4.064149 11.0360439,4.068866 9.75055787,4.06697933 C8.41486497,7.071696 7.08106689,10.0792433 5.7482157,13.085847 C6.82340108,13.0867903 7.89953402,13.0839603 8.9747194,13.0867903 C8.96808807,15.7547147 8.97756111,18.4226393 8.96998288,21.0905637 C12.3044786,21.0971673 15.6389743,21.096224 18.9725225,21.091507 C19.4878538,20.5122617 20.0145526,19.943394 20.5384093,19.3726393 C21.0575295,19.948111 21.5757029,20.5254693 22.1033489,21.0943373 C23.1036975,21.093394 24.103099,21.0952807 25.1034476,21.093394 L25.1034476,24.9999977 L0,24.9999977 L0,-1.7789849e-06 Z" id="Path" fill="#016FD0"></path>
            <path d="M10.4401924,5.07546967 C11.2662378,5.06697933 12.0922832,5.076413 12.9183289,5.068866 C13.9650951,7.38207333 14.9616548,9.718866 16.0216834,12.0254697 C16.0377875,9.70848867 16.0254727,7.390564 16.0273672,5.07263967 C17.0296103,5.07169633 18.0318538,5.06980967 19.0340972,5.07452633 C19.5522702,6.51509233 20.0628646,7.95848867 20.5905107,9.39622433 C21.1437341,7.96603567 21.6420138,6.514149 22.167765,5.073583 C23.1463259,5.070753 24.1248867,5.07263967 25.1034476,5.07169633 L25.1034476,12.085847 C24.4791771,12.085847 23.8558538,12.085847 23.2315829,12.085847 C23.2221098,10.4660357 23.2467397,8.84622433 23.2192681,7.22735667 C22.5949973,8.83679033 22.0199864,10.4650923 21.4203457,12.08396 C20.8576495,12.08679 20.2959006,12.0896207 19.7332045,12.079243 C19.1326162,10.4613187 18.541501,8.83962067 17.9390185,7.22263967 C17.8992319,8.84245067 17.934282,10.4650923 17.9219669,12.085847 C16.567328,12.0782997 15.2126893,12.1018847 13.8589976,12.0735827 C13.6695375,11.6056583 13.4724992,11.140564 13.2716716,10.6782997 C12.1936445,10.6820733 11.1156171,10.679243 10.0375897,10.679243 C9.84339343,11.1452807 9.64635513,11.610375 9.45784229,12.0792427 C8.75115646,12.0924503 8.0454182,12.0839597 7.33873236,12.0858467 C8.37034183,9.74811067 9.41521362,7.41603533 10.4401924,5.07546933 L10.4401924,5.07546967 Z M10.7035417,9.10188433 C11.336338,9.10471433 11.9700816,9.10282767 12.6038252,9.10282767 C12.3016366,8.34528067 11.9776602,7.596224 11.6669457,6.84245067 C11.3098137,7.579243 11.0284656,8.34999767 10.7035417,9.10188433 Z" id="Path" fill="#016FD0"></path>
            <path d="M10.0328532,13.0896203 C11.9899749,13.0773563 13.9480439,13.1084883 15.904218,13.0735827 C15.9525304,13.1198093 15.9989481,13.166979 16.0463133,13.2150923 C16.0207362,13.712262 16.0292616,14.2103753 16.0302089,14.7084883 C14.674623,14.7094317 13.3180896,14.7047147 11.9615558,14.7113183 C11.9615558,15.075469 11.9615558,15.43962 11.9662923,15.8028277 C13.2877757,15.7971673 14.6102066,15.7952803 15.9316899,15.803771 C15.9288482,16.330186 15.9288482,16.8566013 15.9297954,17.3830163 C14.6064176,17.3839597 13.2830398,17.3830163 11.9606089,17.3830163 C11.9615561,17.7452803 11.9615561,18.106601 11.9606089,18.4688653 C13.3171423,18.467922 14.6736758,18.467922 16.0302092,18.4688653 C16.0302092,19.0056577 16.029262,19.5433937 16.0302092,20.080186 C17.137603,18.9235823 18.2298396,17.7518843 19.3362862,16.594337 C18.2743628,15.4735823 17.2275965,14.33679 16.1438853,13.2377333 C16.123992,13.1981107 16.0851526,13.119809 16.0652593,13.0811297 C16.8950943,13.0981107 17.7258762,13.082073 18.5566581,13.0905637 C19.2320831,13.83962 19.9094026,14.58679 20.5933531,15.327356 C21.2687777,14.5745257 21.9603068,13.834903 22.6442572,13.0886767 C23.4636716,13.08679 24.2830863,13.0905633 25.1034479,13.08679 L25.1034479,13.1188653 C23.9998435,14.2698087 22.89245,15.4169787 21.7954765,16.5745257 C22.899081,17.7415067 24.0150002,18.8971673 25.1034479,20.0773557 L25.1034479,20.1009407 C24.276455,20.1056577 23.4494624,20.1009407 22.6224695,20.1047143 C21.9243094,19.3528277 21.2365697,18.5924503 20.5497771,17.8311293 C19.8535119,18.5877333 19.1638774,19.3481107 18.4676121,20.103771 C15.6607624,20.100941 12.8539128,20.103771 10.0470631,20.1028277 C10.014855,17.766035 10.0423265,15.427356 10.0328535,13.08962 L10.0328532,13.0896203 Z" id="Path" fill="#016FD0"></path>
            <path d="M23.1917963,16.579243 C23.8170144,15.8905637 24.4905446,15.2462243 25.1034476,14.5471677 L25.1034476,18.6113183 C24.4772823,17.9235827 23.8359604,17.2499977 23.1917963,16.579243 Z" id="Path" fill="#016FD0"></path>
            <g id="#ffffffff" transform="translate(5.683799, 4.056602)" fill="#FFFFFF">
                <path d="M4.06675851,0.0103773582 C5.35224448,0.0122641506 6.63678316,0.0075471696 7.92226913,0.0122641506 C8.38265689,1.03679242 8.82599325,2.06981126 9.3024851,3.08773576 C9.3176419,2.06226409 9.3072216,1.03679242 9.3081689,0.0113207544 C10.8977381,0.0103773582 12.4882547,0.0084905658 14.0787712,0.0122641506 C14.3525409,0.781132054 14.6073646,1.55754713 14.9114479,2.31509427 C15.1965851,1.55094335 15.4637237,0.781132054 15.7384407,0.0132075468 C16.9651941,0.0075471696 18.1928947,0.0122641506 19.4196481,0.0103773582 L19.4196481,1.01509431 C18.4410873,1.01603771 17.4625265,1.01415092 16.4839657,1.0169811 C15.9582143,2.4575471 15.4599345,3.90943385 14.9067114,5.33962249 C14.3790653,3.90188668 13.8684707,2.4584905 13.3502976,1.0179245 C12.3480543,1.01320752 11.345811,1.01509431 10.3435677,1.01603771 C10.3416731,3.33396217 10.353988,5.65188663 10.3378839,7.9688677 C9.2778553,5.66226399 8.2812958,3.32547161 7.2345294,1.01226412 C6.40848388,1.01981129 5.58243836,1.01037733 4.75639284,1.0188679 C3.73141434,3.35943387 2.68654254,5.69150927 1.65493294,8.02924506 C2.36161867,8.02735827 3.0673571,8.03584883 3.77404284,8.02264128 C3.96255552,7.55377337 4.1595939,7.08867905 4.35379038,6.62264132 C5.43181767,6.62264132 6.50984497,6.62547151 7.58787227,6.62169793 C7.78869985,7.08396207 7.98573823,7.54905639 8.17519821,8.01698091 C9.52888978,8.04528279 10.8835286,8.02169789 12.2381675,8.02924506 C12.2504824,6.40849039 12.2154323,4.78584892 12.2552189,3.16603765 C12.8577017,4.78301873 13.4488168,6.4047168 14.0494049,8.02264128 C14.6121011,8.03301864 15.1738499,8.03018845 15.7365461,8.02735827 C16.3361869,6.40849039 16.911198,4.78018855 17.5354686,3.17075463 C17.5629403,4.78962251 17.5383105,6.40943378 17.5477835,8.02924506 C18.1720541,8.02924506 18.7953775,8.02924506 19.4196481,8.02924506 L19.4196481,9.03018843 C18.5992864,9.03396201 17.779872,9.03018843 16.9604576,9.03207522 C16.276507,9.77830161 15.5849781,10.5179242 14.9095533,11.2707544 C14.2256027,10.5301884 13.5482833,9.78301859 12.8728585,9.03396201 C12.0420764,9.02547145 11.2112944,9.04150918 10.3814597,9.02452805 C10.401353,9.06320729 10.4401923,9.14150918 10.4600856,9.18113182 C11.5437967,10.2801884 12.5905631,11.4169808 13.6524863,12.5377355 C12.54604,13.6952826 11.4538032,14.8669807 10.3464096,16.0235845 C10.3454623,15.486792 10.3464096,14.9490562 10.3464096,14.4122637 C8.98987613,14.4113204 7.63334266,14.4113204 6.27680919,14.4122637 C6.27775649,14.0499996 6.27775649,13.6886789 6.27680919,13.3264147 C7.59923987,13.3264147 8.92261784,13.3273581 10.2459958,13.3264147 C10.2450485,12.7999996 10.2450485,12.2735846 10.2478904,11.7471695 C8.92640704,11.7386789 7.60397636,11.7405657 6.28249299,11.7462261 C6.27775649,11.3830185 6.27775649,11.0188676 6.27775649,10.6547167 C7.63428996,10.6481129 8.99082343,10.6528299 10.3464096,10.6518865 C10.3454623,10.1537733 10.3369366,9.65566011 10.3625137,9.15849031 C10.3151487,9.1103771 10.268731,9.06320729 10.2204187,9.01698088 C8.2642444,9.05188654 6.30617549,9.02075446 4.34905388,9.03301862 C4.35852688,11.3707544 4.33105518,13.7094336 4.36326338,16.046226 C7.17011301,16.0471694 9.97696264,16.0443392 12.7838123,16.0471694 C13.4800777,15.291509 14.169712,14.5311317 14.8659775,13.7745279 C15.5527699,14.5358486 16.2405096,15.296226 16.9386697,16.0481128 C17.7656625,16.0443392 18.5926553,16.0490562 19.4196481,16.0443392 L19.4196481,17.036792 C18.4192994,17.0386788 17.419898,17.036792 16.4195493,17.0377354 C15.8919033,16.4688675 15.3737302,15.891509 14.8546099,15.3160373 C14.330753,15.886792 13.8040543,16.4556599 13.2887231,17.0349052 C9.95517474,17.0396222 6.62067906,17.0405656 3.28618338,17.0339618 C3.29376178,14.3660373 3.28428878,11.6981129 3.29091988,9.03018843 C2.21573449,9.02735824 1.13960179,9.03018843 0.0644163938,9.02924503 C1.39726736,6.02264134 2.73106564,3.01509426 4.06675851,0.0103773582 Z" id="Path"></path>
                <path d="M5.01974221,5.04528288 C5.34466608,4.29339611 5.62601416,3.52264141 5.98314622,2.78584898 C6.29386059,3.53962254 6.61783716,4.28867913 6.92002583,5.04622627 C6.28628219,5.04622627 5.65253855,5.04811307 5.01974221,5.04528288 Z" id="Path"></path>
                <path d="M16.1116768,12.5179242 C17.2086501,11.360377 18.3160437,10.2132073 19.4196481,9.0622639 L19.4196481,10.4905657 C18.8067451,11.1896223 18.1332148,11.8339619 17.5079969,12.5226412 C18.1521608,13.1933959 18.7934829,13.8669807 19.4196481,14.5547166 L19.4196481,16.0207543 C18.3312005,14.8405656 17.2152812,13.6849053 16.1116768,12.5179242 Z" id="Path"></path>
            </g>
        </g>
    </g>
</svg>