<svg width="20" height="20" viewBox="0 0 20 20" fill="none" xmlns="http://www.w3.org/2000/svg">
<path d="M3 16.6C3 17.3732 3.6268 18 4.4 18H15.6C16.3732 18 17 17.3732 17 16.6V9H3V16.6Z" fill="#F2F4F7"/>
<path d="M4 4C3.44772 4 3 4.44772 3 5V9H17V5C17 4.44772 16.5523 4 16 4H4Z" fill="#F25565"/>
<path d="M15 6C15 6.55229 14.5525 7 13.9996 7C13.4471 7 13 6.55229 13 6C13 5.44771 13.4475 5 13.9996 5C14.5525 5 15 5.44771 15 6" fill="white"/>
<path d="M7 6C7 6.55229 6.5518 7 5.99964 7C5.44747 7 5 6.55229 5 6C5 5.44771 5.44751 5 5.99964 5C6.55176 5 7 5.44771 7 6" fill="white"/>
<path d="M6.00535 3.00183V3.00183C5.62203 3.00183 5.31069 3.28249 5.31069 3.62949L5.3 5.66383C5.3 6.01049 5.61138 6.29149 5.99466 6.29149C6.3787 6.29149 6.68932 6.01049 6.68932 5.66383L6.7 3.62917C6.70004 3.28249 6.38939 3.00183 6.00535 3.00183" fill="#40596B"/>
<path d="M14.0053 3.00183V3.00183C13.622 3.00183 13.3107 3.28249 13.3107 3.62949L13.3 5.66383C13.3 6.01049 13.6114 6.29149 13.9947 6.29149C14.3787 6.29149 14.6893 6.01049 14.6893 5.66383L14.7 3.62917C14.7 3.28249 14.3894 3.00183 14.0053 3.00183" fill="#40596B"/>
</svg>
