<svg width="16px" height="16px" viewBox="0 0 16 16" version="1.1" xmlns="http://www.w3.org/2000/svg" xmlns:xlink="http://www.w3.org/1999/xlink">
  <path d="M0,10 L0,6 L1,6 L1,10 L0,10 Z M0,13 L1,13 C1,14.1045695 1.8954305,15 3,15 L3,16 C1.34314575,16 0,14.6568542 0,13 Z M0,3 C0,1.34314575 1.34314575,0 3,0 L3,1 C1.8954305,1 1,1.8954305 1,3 L0,3 Z M16,10 L15,10 L15,6 L16,6 L16,10 Z M16,13 C16,14.6568542 14.6568542,16 13,16 L13,15 C14.1045695,15 15,14.1045695 15,13 L16,13 Z M16,3 L15,3 C15,1.8954305 14.1045695,1 13,1 L13,0 C14.6568542,0 16,1.34314575 16,3 Z M10,16 L6,16 L6,15 L10,15 L10,16 Z M10,0 L10,1 L6,1 L6,0 L10,0 Z" id="Rectangle-2" fill="#cfd6e6" fill-rule="nonzero"></path>
</svg>