<svg width="246" height="216" fill="none" xmlns="http://www.w3.org/2000/svg">
  <path d="M23.1 153.8c28.3-7 43.8-14 72.1-19.6 7.9-1.5 32.1-7 36-9.9 4-2.8 2.7-17.9 0-22 15 9.4 31.8 24.3 45.4 35.4 6.6 5.3 20 11.5 21.7 17.4 3.2 10.7-5.2 17.6-11.7 20.8-5.3 2.6-17.2 7.2-23 9-31.2 10.4-87.4 25.4-89.1 26.9-.5.4-34.7-35.8-52.2-58" fill="#fff"/>
  <path d="M23.2 154.3C46 148.7 68 140.5 91 135.6c7.8-1.7 15.7-3.3 23.5-5.2a174 174 0 0015.2-4.7c1-.4 1.8-.8 2.5-1.6 1-1.2 1.4-2.8 1.7-4.4.3-2.1.4-4.3.3-6.5-.1-2.2-.4-4.3-.8-6.4-.4-1.6-.8-3.3-1.7-4.7l-.7.7c12.1 7.7 23.2 17 34.2 26.1 4.8 4 9.5 8.3 14.6 11.8 4.8 3.2 10 6 14.4 9.8 1.7 1.5 3.2 3.2 3.8 5.4.8 3 .6 6-.5 9a22 22 0 01-11 10.5 274.6 274.6 0 01-29.5 11.2 1473 1473 0 01-32.1 9.6l-30.9 9c-6 1.7-12.3 3.3-18.3 5.4l-1.4.7c-.4.3.4-.1.4 0 0 0-.2-.2-.1 0l-.6-.6a868.6 868.6 0 01-51.3-57.3c-.5-.5-1.2.2-.8.7 7 8.8 14.3 17.3 21.7 25.6a1079.8 1079.8 0 0028.2 30.4l1.8 1.7.5.4.4.1.3-.1c1.2-.6 2.8-1 4.2-1.5l9.7-3 29.6-8.4c11.2-3.3 22.4-6.5 33.5-10 10.4-3.2 20.7-6.7 30.7-11 4.6-1.9 9-4 12.4-7.8 4-4.1 5.6-9.6 4-15.1-.6-2-2-3.7-3.5-5.2-2-1.8-4.3-3.4-6.6-5-2.6-1.6-5.2-3.2-7.7-5a86.7 86.7 0 01-7-5.3c-11.3-9.2-22.4-18.8-34.2-27.3a164.2 164.2 0 00-8.7-5.7.5.5 0 00-.5.5l.1.3c1.7 2.8 2 6.6 2.3 9.8.2 3.3.4 7.5-1.3 10.4-1.1 1.9-4 2.5-5.8 3.2a460.2 460.2 0 01-32.9 8 377.3 377.3 0 00-33.1 8.6c-12.3 3.7-24.6 7.5-37 10.6-.7.1-.4 1.2.2 1z" fill="#fff"/>
  <path d="M22 154c5.6 8.5 12.7 15.9 19.6 23.5 3.3 3.7 6.3 7.6 9.6 11.3 3.3 3.9 7 7.3 10.6 10.8 4.2 4 8.4 8 12 12.4.4.4 1-.1.6-.5-6.4-7.8-14.4-14.1-21.2-21.6-3.4-3.7-6.3-7.7-9.6-11.4l-10-11c-4-4.5-7.7-9-11-14-.2-.4-1 0-.6.5z" fill="#0098FA"/>
  <path d="M144.7 111.8c3 2 6 4.2 9 6.5 2.7 2 5.2 4.5 8.4 5.6.4.2.6-.6.2-.7-3.2-1.2-5.8-3.8-8.5-5.9-2.8-2.1-5.7-4.2-8.7-6.2-.4-.2-.8.4-.4.7zM166.3 129l18.7 13.8c.4.3.8-.4.4-.7l-18.7-13.9c-.4-.3-.8.4-.4.7z" fill="#FFB507"/>
  <path d="M74.3 212.1a1887.8 1887.8 0 0079.5-22.3c.5-.1.3-.9-.2-.7A1534 1534 0 0174 211.4c-.4.1-.2.9.3.7z" fill="#0098FA"/>
  <path d="M64.6 150.5c10.8 11.4 20.8 23.4 31.6 34.7 2.7 2.8 5.4 5.6 8.3 8.2 1 1 2.5-.6 1.5-1.5-5.5-5-10.5-10.4-15.5-15.9-5.6-6-11-12.3-16.5-18.4a456 456 0 00-8-8.6c-.8-1-2.3.5-1.4 1.5zM76.6 145.9a273 273 0 0024.5 24.5c2.5 2.3 5.1 4.5 7.5 7 3.2 3.5 6.3 7 9.9 10.2 1 .9 2.5-.6 1.5-1.5-3.2-2.8-6-6-8.9-9-2.4-2.6-5-5-7.5-7.3A342.8 342.8 0 0178 144.4c-1-1-2.4.5-1.5 1.5zM118.2 170l14 13.3c1 1 2.5-.6 1.5-1.5l-14-13.4c-1-.9-2.4.6-1.5 1.5zM117.7 149.8c3.5 3 6.6 6.5 9.8 9.8a2417.8 2417.8 0 0117.3 18c1 1 2.4-.6 1.5-1.5-7.5-8-15-15.8-22.8-23.6l-4.3-4.2c-1-.9-2.5.6-1.5 1.5zM134.3 148.6a154 154 0 0113.9 11.7c4.4 4.2 9 8.2 14 11.8 1 .8 2.1-1 1-1.8-4.8-3.7-9.5-7.6-13.9-11.8-4.4-4.2-9-8-14-11.7-1-.8-2.1 1-1 1.8zM52.2 155.8a548.5 548.5 0 0038.1 43c1 1 2.5-.5 1.5-1.5a612.4 612.4 0 01-38.1-43c-.8-1-2.3.4-1.5 1.5z" fill="#FFD8CC"/>
  <path d="M91 159.7c-1.5.8-2.8 2-3.6 3.6-.6 1-.8 2-.5 3.1.4 1.2 1 2 1 3.3-.2 1.4-1.2 2.2-2.1 3.3-.8 1-1 1.8-.5 3 .4.8.6 1.8.8 2.7.1.9 0 1.2-.4 1.9s-.7 1.5-.9 2.4c0 .8.2 4.2 1 4.4 3.2.5 4.8-3.7 5.5-4.4 1.8-1.9.2-2.6 2-4.5 2.2-2.3 4.4-4.6 5.5-7.6 1-3 4-6.1 1.6-8-2-1.4-6.9-3.3-9.3-3.2" fill="#FF6B24"/>
  <path d="M90.9 159.4c-2 1-4 3-4.5 5.3-.3 1.7.9 2.8 1 4.4.2 1.8-1.4 2.7-2.3 4-.7 1.1-.4 2.2 0 3.3l.5 1.9c.2 1 0 1.6-.5 2.5a7.8 7.8 0 00-.2 6.1c.8 1.7 3 .7 4.1-.2.7-.6 1.3-1.4 1.8-2.2l1.5-2.1c.5-1 .3-2.2 1-3.2.9-1.4 2.3-2.5 3.4-3.8a16 16 0 002.3-4c.5-1.3 1.3-2.6 2-4 .4-1 1-2.3.6-3.4-.3-1.2-1.4-1.8-2.4-2.3a18.2 18.2 0 00-8.1-2.4c-.5 0-.5.8 0 .8 2.3 0 4.6.9 6.7 1.8.9.4 2 1 2.7 1.7.9 1 .2 2.5-.3 3.5l-1.6 3.2a19 19 0 01-4.6 6.9c-.8.9-1.8 1.7-2 3 0 .3 0 .7-.2 1 0 .7-.5 1.1-.8 1.6l-1.1 1.6c-.5.8-1 1.4-1.7 2-.7.5-2.1 1.1-2.6.1-.8-2-.3-4.2.6-6 .4-1 .3-1.7.1-2.7-.2-1.1-1.1-2.6-.8-3.7.5-1.3 1.9-2 2.5-3.3.5-1.3.1-2.4-.3-3.6-.7-1.6-.6-2.9.4-4.4a8.2 8.2 0 013.2-2.8c.4-.2 0-.9-.4-.7z" fill="#FF6B24"/>
  <path d="M114.9 153.1c9.2-1.4 18.3-4.8 27.6-6 4-.4 10.7 1 13.3 4.1 2 2.4 1.8 5 .7 8-1.2 3-3.3 4.3-6 6a53.6 53.6 0 01-11.4 5c-9.5 2.5-12 3.4-23.5 4.7-2.9.3-13.6 3.1-16.4 3.7-1.7.3-3-3.2-2.3-5.1.7-2-.6-7.6 1.3-8.5 3.4-1.6 3.6.8 6.7-1.3 1.1-.7 4.3-.2 4.5-1.5.3-1.3 4.2-3.3 4-4.7-.3-1.6-3-2.5-2-3.6" fill="#252A34"/>
  <path d="M115 153.6c7-1 13.8-3.2 20.8-4.7 3-.7 6.1-1.4 9.2-1.3 2.6.2 5.4.8 7.7 2 2.6 1.3 4.4 3.5 4 6.6-.4 3-1.9 5.4-4.4 7.2-4 3-9 5.1-13.9 6.4-4.5 1.2-9 2.5-13.6 3.3-4.5.8-9.2 1.1-13.7 2.1l-6.8 1.6c-1.6.4-3.4 1.1-5 1.2-1.2.1-1.7-1.2-2-2-.2-1.2.1-2 .3-3 .3-2-.2-4.2.2-6.2.2-1.2 1-1.6 2.2-1.8.8-.2 1.6.1 2.5.1 1.1 0 1.9-.5 2.9-1 .9-.4 2-.3 3-.5.6-.2 1.2-.4 1.5-1.1.4-1 1.2-1.5 1.9-2.1 1.2-1 2.9-2.3 1.7-4-.3-.4-2-1.7-1.6-2.2.4-.5-.4-1.2-.8-.7-1.6 2 2.3 2.7 1.7 4.4-.4 1-1.7 1.7-2.4 2.3l-1 1-.5 1c-.6.7-2.2.5-3 .7-1.2.2-2 1.1-3.2 1.2-1 0-1.8-.3-2.8-.2-1 .1-2.1.5-2.7 1.3-1 1.6-.6 4.2-.6 6 0 1-.2 1.9-.4 2.9-.1 1 0 2.2.5 3.2.4.8 1 1.6 2 1.8.6.1 1.4-.2 2-.3l6.6-1.6 6.7-1.5c2.6-.5 5.3-.7 8-1 4.8-.8 9.6-2 14.4-3.2a52.1 52.1 0 0015-6.2c2.4-1.5 4.5-3.2 5.5-5.8 1.1-2.8 1.5-5.8-.4-8.3-1.5-2-4-3-6.3-3.7-2.4-.7-5.1-1.1-7.7-.8-7.5.8-14.8 3.2-22.1 4.9l-5.7 1c-.6.1-.3 1.2.3 1z" fill="#252A34"/>
  <path d="M110 146.3c5.7-3.2 12-2.3 17.8-2.7 4.2-.3 9 0 11.8 0 2 0 7.3-.3 9.8 1.8 1.5 1.3 2.7 2.9 1.7 4.6-1 1.5-10.4 1.8-12 2.4l-19.4 6c-2.1.7-4.6 1.4-6.6.3a7.3 7.3 0 01-2.5-2.9c-.5-.8-1-1.7-1-2.7 0-1.9 1.8-3.2 3.3-4.3" fill="#252A34"/>
  <path d="M110.2 146.8a24 24 0 0110.8-2.5l10.3-.3 8.8.1c2.4 0 5 0 7.3.8 1.9.7 5.5 4.3 2.1 5.3-2 .7-4 .8-6.1 1-1.7.2-3.5.3-5.1.8l-11.7 3.7-6.4 2c-1.8.6-4 1.4-5.9.9-2-.5-3.3-2.6-4-4.4-.7-2.3 1.2-3.8 2.9-5 .5-.4 0-1.3-.6-.9-1.2 1-2.6 2-3.2 3.5-.6 1.6 0 3.2 1 4.7.8 1.4 1.9 2.6 3.5 3 1.8.6 3.6.2 5.3-.3l13.1-4.2c3-1 6-2.2 9.2-2.5 2.5-.3 5-.5 7.4-1 .7-.2 1.6-.4 2.3-.9.9-.7 1-2 .6-3-1.2-3-4.4-4-7.2-4.4-2.8-.3-5.6-.2-8.4-.2-4.5-.2-9 .1-13.4.2-4.6.1-9 .5-13.2 2.7-.5.3 0 1.2.6.9z" fill="#252A34"/>
  <path d="M132.9 114.9c-.2 0-.3 0-.3.2 0 .1.2 0 .2 0l1.6 3.6 2.6-.8h.4c-.2-1.5-.4-3-1.1-4.1-1.1.5-2.3.8-3.4 1z" fill="#F68559"/>
  <path d="M132.7 114.4a1 1 0 00-.6.4.5.5 0 000 .7h.2a.6.6 0 00.6.1h.1a.5.5 0 00.2-.7c-.3-.7-1.2-.2-1 .4l1.7 3.7a.5.5 0 00.6.2l3-.9a.5.5 0 00.3-.6c-.1-1.5-.3-2.9-1-4.2a.5.5 0 00-.7-.2c-1 .4-2.2.8-3.4 1-.6.2-.4 1.2.3 1 1.2-.2 2.3-.5 3.4-1l-.6-.2c.7 1.2.9 2.5 1 3.9l.4-.7-3 1 .6.2-1.6-3.7c-.3-.6-1.2 0-1 .5h.1l.2-.6h-.1l.6.1v.6c.6-.3.4-1.3-.3-1zM132.7 115v.1z" fill="#F68559"/>
  <path d="M132.3 115.4a.5.5 0 00.6.2l.2-.1a.5.5 0 00.2-.4l-.1-.3-.3-.2h-.4a.5.5 0 00-.2.8v-.3l1-.2h-.1a.5.5 0 10-1 .5zM154.6 126.9l-5.6-.2-.4 1c-.1-.4-.6 0-.6.4a8 8 0 00.3 3.7c0 .1 0 .2.2.3.2.2.4.2.6.2l4.7-.1h.4c.3-1.8.4-3.6.4-5.3z" fill="#F68559"/>
  <path d="M154.6 126.3H149a.5.5 0 00-.5.3l-.4 1 .9-.3c-.5-.5-1.2-.2-1.4.4-.5 1.1-.2 2.9.1 4 .3 1 1 1.1 2 1.1 1.5 0 3-.2 4.5 0a.5.5 0 00.6-.6l.3-5.3c0-.7-1-.7-1 0a40 40 0 01-.4 5.3l.5-.5H150c-.4 0-.9.2-1.1 0-.2-.3-.3-1-.3-1.2 0-.3-.3-2.4.1-2.5h-.5.1a.5.5 0 00.6.1.5.5 0 00.3-.3l.4-1-.5.5h5.6c.7.1.7-1 0-1zM89.2 113a8.4 8.4 0 007.8-1c2.1-1.6 3.4-3.6 3.3-6.3v-.7c2.1-1 3-1.4 5.5-2.9a63 63 0 00-5.5-1.8c-.9-10-13-13.2-16.3.4-1.3-.2-3.4 1.1-4.1 2.5-.5.8-.7 3.2 1.7 4.6.7.4 2.2 1.6 4 .6 0 0 1.6 2.6 2.7 3.3.3.1 0 .7.1 1v5h.5l5.8.5v-4.9" fill="#F68559"/>
  <path d="M89 113.6a9.1 9.1 0 0011.4-5.1c.5-1.2.4-2.3.5-3.5l-.3.4 5.5-2.8.2-.3a.5.5 0 000-.5l-.3-.2c-1.9-.7-3.7-1.3-5.6-1.8l.4.5c-.3-3.4-2-7-5.3-8.5-3-1.4-6.4-.5-8.6 1.8a15.2 15.2 0 00-3.4 7l.5-.4c-2.5-.3-5.2 2.3-4.9 4.9.4 2.7 4.1 5 6.7 3.8l-.7-.2a14 14 0 002.4 3c.2.2.3.2.4.5v1.1l-.1 4.4a.5.5 0 00.5.6c2.1-.1 4.3.3 6.4.4l.4-.1.1-.4v-4.9c.1-.7-1-.7-1 0v5l.5-.6c-2.1-.2-4.3-.6-6.4-.5l.5.5.2-4.4c0-.6.1-1.6-.3-2-.6-.6-1.2-1-1.8-1.8l-1-1.4a.5.5 0 00-.6-.1c-2 1-5.1-1.2-5.2-3.4 0-1.8 2.1-3.5 3.9-3.4a.5.5 0 00.5-.4c1-4 3.6-9 8.4-8.6 4.1.4 6.5 4.4 6.9 8.1a.5.5 0 00.3.5c2 .5 3.8 1.1 5.6 1.8l-.1-1c-1.8 1.1-3.7 2-5.5 3a.5.5 0 00-.3.4c0 .9 0 1.8-.2 2.7a8 8 0 01-10.2 5c-.7-.3-1 .7-.3.9z" fill="#F68559"/>
  <path d="M146 125.5c1 0 2.4 0 3.2.6.8.7.5 2.7.5 3.6 0 1 .2 2.6-.5 3.3-1 1-2.3.5-3.8.5" fill="#FFB507"/>
  <path d="M146 126c1 0 2.6 0 3 1 .4.7.2 1.8.2 2.6 0 1 .3 2.4-.5 3.1-.8.8-2.3.3-3.3.3-.7 0-.7 1 0 1 1.3 0 2.8.5 4-.4 1.1-1 .9-2.6.9-4 0-1 .2-2.5-.5-3.5-.8-1.1-2.6-1.2-3.8-1.1-.7 0-.7 1 0 1z" fill="#FFB507"/>
  <path d="M124.3 115l-5.2 1.4c-.8.3-5.6.3-6 1.3-.2.8 3.5 1.5 4 2 2.3 2.1 2 3.4 5 3.8 2.2.3 2.7.9 4.6-.2 1.2-.7 7.8-2.4 7.7-4 0-1-.6-1.7-1.3-2.4a8 8 0 00-4.2-2.4 11 11 0 00-4.6.5z" fill="#E1C732"/>
  <path d="M124.1 114.5c-2.2.6-4.4 1.4-6.7 1.6-1.3.1-3.1 0-4.2.8-1.2.8-.2 1.7.7 2 .7.4 1.4.6 2.2.9.8.3 1.3.9 1.9 1.6 1 1.3 2 2.2 3.7 2.5 1 .2 2 .5 3 .5.8 0 1.6-.3 2.4-.7l4.2-1.6c1-.4 2.7-1 3.4-2 1.1-1.7-1.4-3.9-2.6-4.7-2.5-1.9-5.1-1.6-8-.9-.6.2-.4 1.2.3 1 2.5-.6 4.7-1 7 .6.9.6 3.5 2.7 2 3.8-2 1.4-4.5 1.8-6.7 2.8-.6.3-1.1.7-1.9.7-.8 0-1.7-.3-2.5-.4-.8-.2-1.6-.3-2.2-.8-.5-.4-.8-1-1.2-1.4a6 6 0 00-2.8-2.2c-.7-.2-1.3-.3-1.9-.6l-.5-.4c.5.3-.3.3 0 .2l.4-.2c1.4-.4 2.9-.4 4.3-.5 2-.2 4-1 6-1.5.7-.2.4-1.2-.3-1z" fill="#E1C732"/>
  <path d="M129.4 115c1.2 0 2.5-.6 3.7-.2 1 .3 1.6 1.2 2.2 2 0 .1.4 2 .2 2.2-.9.4-2.4-.4-3.3-.2" fill="#E1C732"/>
  <path d="M129.4 115.5c1.1 0 2.5-.6 3.6-.2.8.3 1.6 1.2 1.9 2l.1 1.1v.3c.2-.3-.2-.1-.4-.1-1 0-1.7-.4-2.6-.3-.7.1-.4 1.1.3 1 1-.1 2.7 1 3.5 0 .5-.4.2-1.6 0-2.2-.1-1-1-2-1.9-2.5-1.4-.9-3-.2-4.5-.2-.7 0-.7 1.1 0 1z" fill="#E1C732"/>
  <path d="M113.6 135.3c1.3 1.8 2 4 2.2 6.2 0 .8 0 1.7.3 2.5.5 2.5 2.8 4.2 3.4 6.6.8 3.1-1.4 6.2-3.7 8.3a17.4 17.4 0 01-10.4 4.7c-3.4.2-6.8-1-9.6-3-2.8-1.9-5.1-4.5-7-7.3a47 47 0 01-5.7-10.6c-1.6-4.3-2.5-9-1.6-13.5l3-2.2c-2 1.8-2.2 7.7-4.4 9-2.2 1.3-4.8-.3-7.3-.8a6.1 6.1 0 01-4.8-5c-.4-1.8 1.5-5.7 4.5-7.7 2.5-1.6 5.4-1.7 9.4-2.7 2.7-.6 5.1-2.2 7.9-2.3a21.8 21.8 0 0111.9-2.9c7.6 0 15.2 2.6 22.1 5.7 1.7.8 3.4 1.7 5.3 2.1 1.5.4 3.2.5 4.8.6l5.5.3c2.1.1 4.6.4 6 2a6 6 0 011 3.6c.1 1.6 0 3.4-1.1 4.7-1.2 1.5-3.2 2-5.2 2.3-6 .9-12.2-.4-18.3-.5h-6.5c-3.5-.3-6.8-1.1-10-2.6" fill="#FFB507"/>
  <path d="M113.2 135.5c.8 1.2 1.4 2.6 1.8 4 .3 1.4.2 2.9.5 4.3.4 2.6 2.6 4.3 3.4 6.7 1 3-1.2 5.9-3.2 7.8-2.2 2-4.8 3.6-7.7 4.4-6.1 1.6-12-1.7-16-6.1a43 43 0 01-10.1-21c-.2-.8-.2-1.7-.2-2.6l.2-3c0-.5-.1-.2.2-.6l1-.7 1.6-1.2-.6-.8c-1.1 1.1-1.6 2.8-2 4.2-.5 1.5-.9 3.8-2.2 4.7-1.3.8-3 .3-4.2-.1l-3.7-1c-1.8-.7-3.7-2.9-3.5-5 .1-2 1.5-4 2.8-5.3 1.6-1.6 3.7-2.4 6-2.9 2.4-.5 4.9-1 7.3-1.8 1.2-.4 2.3-1 3.6-1.2.7-.2 1.5-.1 2.2-.5 10-5.4 22.3-1.8 32 2.5 2.6 1 5 2.4 7.7 2.9 3 .4 6 .4 8.8.6 2.4.1 5.4.3 6.5 2.7 1 2.3.8 5.9-1.3 7.5-2.3 1.8-6 1.7-8.8 1.7-3.3 0-6.7-.4-10-.7-3.3-.2-6.7 0-10-.2-3.4-.2-6.7-1-9.7-2.4-.6-.3-1.2.6-.6 1 2.8 1.2 5.7 2 8.8 2.4 3.3.4 6.7 0 10 .2 3.5.2 6.9.6 10.3.7 2.9.1 6.1.1 8.9-1a5.9 5.9 0 003.9-4.8c.3-2.4 0-5.3-2.2-6.8-2-1.4-5-1.3-7.4-1.4-3.5-.2-7-.2-10.2-1.5-2.9-1.2-5.7-2.5-8.6-3.6-3-1.2-6.2-2.1-9.4-2.8a29.4 29.4 0 00-17.6 1.2c-.6.3-1.3.9-2 1-.3.2-.9.1-1.3.2l-2.4.7-4 1.4-4.5 1a11.4 11.4 0 00-9.7 8.3c-.5 2 .5 4.2 2 5.6 1 .9 2.1 1.3 3.4 1.6 1.5.4 3 1 4.6 1.2 2.5.3 3.9-1.2 4.7-3.4.8-2 1-4.6 2.5-6.2.4-.4-.1-1.2-.6-.8l-1.6 1.1c-.4.4-1.1.7-1.5 1.2-.3.4-.3 1.3-.3 1.8l-.2 2.7A43.7 43.7 0 0090 156c4 4.9 10 8.9 16.5 8 3-.3 5.8-1.7 8.2-3.5 2.3-1.8 4.6-4 5.3-7 .3-1.3.2-2.8-.4-4.1-.7-1.5-1.8-2.7-2.5-4.2-.9-1.7-.6-3.5-1-5.3-.3-1.7-1-3.4-2-5-.4-.5-1.3 0-.9.6z" fill="#FFB507"/>
  <path d="M93.4 101.6c.4-.8 1-1.6 1.8-2 1.6-.6 2.3 1 2.4 2.2 0 .3 0 1.2-.3 1.4-1 1-1-.7-1-1-.1-.9 0-1.8.4-2.7.1-.5-.6-.7-.8-.2-.5 1.3-1 3.7.1 4.8 1.2 1.3 2.2-.8 2.3-1.7.2-1.3-.3-3-1.6-3.7-1.6-.6-3.3 1.2-4 2.5-.3.4.4.8.7.4zM97.6 107.5a3 3 0 002.7 1.5c.5 0 .5-.8 0-.8a2.2 2.2 0 01-2-1.1c-.3-.5-1 0-.7.4zM81.5 103.4l1.4.5c.3 0 1 .1 1.1.3v-.3l-.7 1.3-.7 1.3c-.3.5.4.9.7.4l1-2c.2-.4.5-.8.3-1.1-.1-.4-.6-.4-.9-.5l-2-.6c-.5-.2-.7.6-.2.7zM87.5 123.2c-1.4 2.2-3.3 3.9-4.6 6-1.2 2.2-2 4.6-2.6 7 0 .6.7.8.8.3a23 23 0 012.7-7.1c1.3-2 3-3.8 4.4-5.8.3-.4-.4-.8-.6-.4zM87.9 112.3c2 1.7 4.4 2.3 7 2 .4-.1.4-.9 0-.8a8 8 0 01-6.5-1.8c-.3-.3-.9.3-.5.6zM115.4 116.8c5.3 2 10.7 3.9 16 5.7.5.1.7-.6.2-.8l-16-5.6c-.5-.2-.7.6-.2.7zM145.6 125.5a31 31 0 01-.3 8c-.1.6.6.8.7.3l.6-4.2c0-1.3 0-2.7-.2-4.1 0-.5-.8-.5-.8 0zM130.4 114.7a7.5 7.5 0 014 5c0 .6.8.4.7-.1-.7-2.5-2-4.4-4.3-5.6-.4-.2-.8.5-.4.7zM115.3 135.4l-10.5-1c-.5 0-.5.8 0 .9l10.5 1c.5 0 .5-.8 0-.9z" fill="#1F2783"/>
  <path d="M103.3 174a6.2 6.2 0 015.4-1.7c1.1.2 1.8.6 2 1.5.1.5.2.8-.1 1.2-1.9 2.6-4.9 4-7.1 6.1a42 42 0 00-7.3 9.5c-.6 1.2-2.1 2.4-3.5 2.5-1.4 0-3.2-1.8-3.3-3.2a9 9 0 01.7-4.1c.3-.9 1.3-.6.5-1.8-.7-1-1.2-2.1-1.5-3.3-.9-2.7 4-4.7 3.2-7.4-.3-.9-1.2-1.5-1.7-2.3-1-1.6.3-3.6 1.6-4.9 2.5-2.5.5-1.6 2.2-2.5 1-.5 4.8.3 5.5.3 1.1 0 4 .5 5 .7.8.3.1 2-.3 2.8-.1.3-1.2 1-1.4 1.2-1.6 1.7-1.2 3.4.1 5.3" fill="#FF6B24"/>
  <path d="M103.6 174.2c1.4-1.2 3.3-2 5.2-1.5.8.2 1.7.6 1.6 1.6 0 .9-1.3 1.8-2 2.4l-4 3a41.3 41.3 0 00-6.8 7.8c-1 1.6-1.7 3.6-3.3 4.6-.8.5-1.7.8-2.6.3a4 4 0 01-1.8-2c-.3-1-.1-2 0-3l.4-1.2c.3-.6.4-.5.7-.9.8-.9-.6-2.2-1-3-.6-1.6-.9-2.6.1-4 1.2-1.5 3.4-3.3 2.4-5.5-.3-.7-1-1.1-1.3-1.7-.7-1-.5-2.2 0-3.2.8-1.2 2.2-2 2.7-3.2l.1-.5c-.2.3.5-.2.7-.3 1-.3 2.6 0 3.7.2l3 .3 2.3.4c.2 0 .7 0 .9.2.4.3.2.8 0 1.2-.2.9-.6 1.3-1.3 1.8-.6.5-1 1-1.3 1.6-.7 1.6 0 3.2 1 4.5.3.5 1 0 .7-.4-.7-1-1.4-2-1.1-3.3.2-1 1-1.6 1.8-2.3.8-.6 1.5-2.2 1.1-3.2-.3-1-2.1-1-3-1-1.2-.3-2.5-.3-3.7-.5-1.4-.2-4.8-1.1-5.6.7-.5 1.1-1.5 1.9-2.2 2.8-1 1.4-1.5 3-.5 4.6.5.7 1.5 1.4 1.5 2.4 0 .8-.5 1.4-1 2-.7 1-1.8 2-2.2 3.2-.5 1.4.2 3 .9 4.2.2.3.9 1.1.7 1.5 0 .2-.4.3-.5.5-.5.7-.7 1.9-.9 2.8-.2 1.6 0 3 1.3 4.2 1.1 1.1 2.5 1.5 4 .7 1.8-.9 2.5-2.7 3.6-4.4a40.4 40.4 0 0111.9-12c.5-.6 1.3-1.3 1.4-2 .2-1.8-1.3-2.6-2.8-2.8-2-.3-4 .5-5.3 1.8-.4.4.1 1 .5.6z" fill="#FF6B24"/>
  <path d="M94.7 160.6c-2.3.9-4.2 2.4-4.3 5 0 1.8.5 3.8 1 5.6.2.6.5 1.4.5 2.1 0 .8-.4 1.7-.7 2.5-.7 1.3-1.8 2.1-2 3.7-.2 1.4.4 2.6.8 4 .5 1.7-1 3.2-1.4 4.8-.6 2.6.4 5 3 5.5.6.1.8-.7.3-.8-3-.5-3-3.3-2.1-5.7.5-1.1 1.3-2.2 1-3.5-.1-1.3-1-2.4-.9-3.8 0-1.6 1.2-2.5 2-3.8.4-1 .9-2.2.7-3.3-.1-1.3-.7-2.6-1-4l-.3-1.8c-.5-2.8 1-4.7 3.6-5.7.4-.2.2-1-.2-.8z" fill="#1F2783"/>
  <path d="M101.7 180.6c.6.6 1.2 1 2 1.5l.2-.8h-.1c-.5-.1-.7.6-.2.8h.1c.5.1.7-.5.3-.7-.6-.4-1.2-.8-1.7-1.4-.3-.4-.9.2-.5.6zM100.3 182.7a21.5 21.5 0 001.8 1.7.4.4 0 00.4-.3v-.2l-.1-.1c-.2-.5-1 0-.7.4l.7-.4-1.5-1.6c-.4-.4-1 .2-.6.5zM98 184.7c.4.6 1 1 1.7 1.4.4.2.8-.4.4-.7-.6-.3-1.2-.7-1.6-1.3-.4-.4-1 .2-.6.6zM107.7 178c-.2-.1-.7-.4-.8-.7 0-.3.3-.6.6-.8.5-.5 1.1 0 1.5.5l.2.1a.4.4 0 00.4-.1l.1-.3a.5.5 0 00-.2-.3c-.4-.4-1 .2-.5.5v-.2l.6-.2c-.4-.5-.9-.9-1.4-1-.6-.1-1 .2-1.5.6-.3.3-.8.8-.7 1.4.1.5.9.9 1.3 1.2.4.3.8-.4.4-.7zM94 193.1c-1-.9-1.6-2.2-1.7-3.6-.1-1.5 1-2.6 1-4 .2-1.4-.6-2.5-.9-3.8-.3-1.5.5-2.6 1.3-3.7.6-1 1.2-1.8 1.2-3 .1-1-.1-2.2-.3-3.2-.3-1.6-.8-3.2-1-4.8-.2-2.4 2.4-3.5 4.3-4.3.4-.2 0-.9-.4-.7-1.7.8-4.3 1.8-4.6 4-.2 1.2.2 2.7.5 3.9.3 1.3.6 2.7.7 4 .1 1.5-.3 2.6-1.2 3.8-.6 1-1.4 2-1.4 3.2 0 1.7 1.4 3 1 4.7-.2 1.5-1.2 2.6-1 4.2.2 1.5 1 2.9 2 4 .4.2 1-.3.6-.7z" fill="#fff"/>
  <path d="M93.6 98.9a3.7 3.7 0 014.5-.5c.4.2.8-.5.4-.7a4.5 4.5 0 00-5.5.6c-.3.4.2 1 .6.6zM83.9 100c1.2.4 3.2.9 4 0 .8-1 .4-2.4-.2-3.5.3.3 1.5-.1 1.9-.2 1.3-.5 1.4-2.7 1-4 1.9 1.3 3.7.6 3.4-1.3 1.7.4 3.1 1.3 4.3 2.5.7-4.2-1.1-6-3.3-6.7-2-.7-3.8 0-5 1.8-1.5-1-3.1-1-5.1.3-1.4.9-1.8 2.5-1.3 4-1 .5-2.4.8-3.2 2.7-.9 2.1.4 3.8 1.2 4.5.8-.3 1.3-.4 2-.2" fill="#252A34"/>
  <path d="M83.7 100.5c1.3.4 3.2 1 4.3 0 1.4-1 .8-3 .2-4.2l-.7.7c.9.5 2.5-.1 3.2-.9.8-1 .8-2.7.4-4l-.7.7c1.8 1.1 4.4.8 4.2-1.8l-.7.5c1.5.4 3 1.2 4 2.3.3.3.9.2 1-.2.3-2.6 0-5.4-2.5-6.8-2.5-1.4-5.3-.8-7 1.6l.8-.2c-1.7-1.3-3.7-.9-5.4.2-1.7 1-2.2 2.8-1.7 4.7l.2-.6c-1.6.7-3 1.5-3.5 3.3-.6 1.7.1 3.5 1.4 4.7a.5.5 0 00.5.1 3 3 0 011.7-.2c.7 0 1-1 .3-1a4 4 0 00-2.2.2l.5.2c-1.2-1.2-1.7-2.7-1-4.3.6-1.2 1.7-1.6 2.8-2.1a.5.5 0 00.3-.6c-.4-1.6 0-3 1.6-3.7 1.3-.8 2.7-1 4 0 .2.1.6 0 .7-.2 1.4-2 3.6-2.3 5.7-1 1.8 1.1 2 3.4 1.7 5.4l1-.2a11.3 11.3 0 00-4.6-2.7c-.3 0-.7.2-.7.6.2 1.8-1.5 1.6-2.6.9-.4-.3-.9.1-.8.5.2.8.3 1.8 0 2.6a1.4 1.4 0 01-.8.8c-.3.1-1 .4-1.3.3a.5.5 0 00-.7.7c.5 1 1 2.8-.5 3.1-1 .2-2-.1-2.8-.4-.6-.2-.9.8-.2 1z" fill="#252A34"/>
  <path d="M91 159.3c-2.4.3-4.2 2-4.7 4.4-.3 1.3-.3 2.7.1 4l.5 1.3c.3.8-.1 1.7-.6 2.3-.7.9-1.5 1.5-1.7 2.6-.3 1.5.7 2.8 1 4.2.4 1.6-1.1 3-1.4 4.5-.3 1.6 0 3.3 1 4.7.2.4.9 0 .6-.4a5.7 5.7 0 01-.5-5.2c.5-1.1 1.3-2 1.2-3.2-.2-1.5-1.3-2.7-1.2-4.2.1-1.2 1-1.8 1.7-2.7.5-.7 1-1.7.8-2.6-.3-1-.8-2-.9-3.1-.1-2.8 1.2-5.4 4.2-5.8.5 0 .5-.9 0-.8zM103.2 172.7c-1.8 1.8-2.2 4.2-1.7 6.7 0 .5.8.3.7-.2-.4-2.2 0-4.3 1.6-6 .3-.3-.2-.9-.6-.5z" fill="#1F2783"/>
  <path d="M93.9 171c1.4 0 3.2-1.2 4.2-2.1 1.6-1.6 1.7-3.7 1.5-5.8 0-.5-.9-.5-.8 0 .2 1.9.2 3.8-1.3 5.2-.8.8-2.4 1.9-3.6 1.9-.5 0-.5.8 0 .8z" fill="#fff"/>
  <path d="M154.8 127c1.4-2.4 3.6-3.2 6.3-3.7.8-.2 4.4-.3 5.2 0 .8.2.3 1.9-.2 2.2-.7.4-2.3 0-3-.4a3.5 3.5 0 00-3.5.4c1.8-.8 3.8-1 5.7-.6.6.2 2.2.4 2.3 1 0 .6-1.5 1.1-2 1.2-.6.1-1.1 0-1.7-.1-1.3-.2-2.7 0-3.8.8a22 22 0 013.7-.6c1 0 4.1-1.1 3.8.9-.2.8-2.4.6-3.1.7-1.3 0-2.5.9-3.7 1.4-2 .8-1.7 1-3.9 2-1.1.5-3.3-.2-3.4-.4 0-.1.7-2.8.7-4.3" fill="#F68559"/>
  <path d="M155.3 127.2c2-3.1 5.8-3.6 9.2-3.6.4 0 1.5-.1 1.7.3.1.3-.2 1-.3 1.1-.4.3-1 .1-1.4 0-.9-.1-1.6-.6-2.4-.7a4.2 4.2 0 00-3 .9v.2a.5.5 0 00.8.6c1.5-.7 3.3-1 5-.6l1.2.2c.2 0 .5.1.7.3.2.2.2 0-.2.3-1 .7-2.2.2-3.3.2-1.3 0-2.5.3-3.5 1-.1 0-.2.1-.2.3a.5.5 0 00.2.6h.4l4.2-.6c.6-.1 1.6-.5 2.3-.3.5.2.5.5 0 .7-.4.2-1 .1-1.5.1-1.1 0-2.2.3-3.2.8l-3.2 1.6c-1 .6-2 1.3-3.3 1.2l-1.6-.4c.3 0 0 .6.2 0l.1-.6c.3-1 .5-2.2.5-3.3 0-.6-1-.6-1 0 0 1.2-.4 2.4-.6 3.6-.1.5-.2 1 .3 1.3 2.1 1.1 4.1.1 6-1l3.6-1.7c1.2-.5 2.2-.3 3.5-.5.8 0 1.5-.3 1.6-1.2a1.4 1.4 0 00-1-1.5c-.8-.3-1.8 0-2.6 0-1.5.4-3 .5-4.6.8l.4 1c1-.6 2-.9 3.1-.8.9 0 1.7.3 2.6 0 .8-.1 2.4-.8 2-1.8-.3-1-2-1.2-2.9-1.4-2-.3-4 0-5.8.8l.6.9c1.5-1 2.6-.3 4.1 0 .8.2 2 .4 2.6-.2a2.6 2.6 0 00.6-2.2c-.1-.7-.7-.9-1.4-1-4.1-.4-9 .3-11.5 4-.3.6.6 1.2 1 .6z" fill="#F68559"/>
  <path d="M152.7 127.2c.8-.7.8-1.3 1.1-2.3.3-1 1.5-2.7 2-3.6.2-.5.4-1.4 1-1.4.7-.1.8 1 .9 1.6 0 .7-.3 1.4-.6 2-.2.5.2 2.4 0 2.9" fill="#F68559"/>
  <path d="M153 127.5c1-.8 1-1.9 1.6-3l1.7-3.1.3-.7c.5-.3.5.4.5.7 0 .8-.3 1.3-.5 2.1-.2.9.3 1.9 0 2.7-.2.7.8 1 1 .3.2-.5 0-1.1 0-1.7v-1c0-.3.3-.7.4-1.1.3-1 .3-3.3-1-3.4-.7 0-1 .5-1.3 1l-1.1 2c-.5.7-.8 1.4-1.2 2.2-.3.8-.4 1.7-1.1 2.3-.5.5.2 1.2.7.8zM135.9 113.8l4.5-3.4c1-.8 3.8-1.7 5-1 .5.3 4.8 1.8 5 3.3 0 .4-1.7-.5-2-.6-1.3-.6-2-.5-3.3-.3l-2.4.7c1.2-.5 2.5-.8 3.8-.8a6 6 0 013.7 1.4c.2.2.5.5.4.9l-.3.4c-.4.3-1 .2-1.6 0l-1.5-.7c-.8-.2-1.6 0-2.3.2-1.8.4-3.4 1-5 2v.3a58.2 58.2 0 016.6 0 .7.7 0 01.5.3v.4c-.4 1-1 1-1.9 1-1 0-1.2.2-2.2 0-1.4-.2-2.5 1.2-5.2 0" fill="#F68559"/>
  <path d="M136.1 114.3l4.7-3.6c1.1-.7 2.9-1.3 4.2-1a17.3 17.3 0 014.5 2.6l.3.3.4-.3c-.3 0-1.2-.5-1.5-.6-.7-.4-1.4-.6-2.2-.6-1.4 0-2.8.4-4 1-.6.2-.2 1.2.3 1 1.7-.7 3.5-1.1 5.2-.6l1.4.7.4.3c0 .5-.2.7-.7.5-.8-.2-1.4-.7-2.2-.8-1.5-.3-3.3.4-4.7 1-1 .4-2.5.8-2.9 1.9a.5.5 0 00.1.4.5.5 0 00.4.2l5.2-.2c.4 0 2.1 0 1.2.7-.4.3-1.4.2-2 .3-.9 0-1.8-.1-2.7.1-1.4.4-2.4.4-3.7-.1-.6-.3-1 .7-.3 1 1.6.6 2.9.4 4.5 0 1.5-.2 3.2.4 4.6-.4 1-.5 1.3-2 0-2.5a68.2 68.2 0 00-6.8 0l.5.7c.2-.5 2-1 2.5-1.2 1.1-.4 2.4-1 3.6-1 1.3.1 3.7 2.1 4.6.3.7-1.5-1.6-2.5-2.6-2.8-2-.7-4-.3-5.9.4l.5 1a9 9 0 014-.8c1 .1 1.9 1 3 1.1.7 0 1-.5.7-1.1-.4-.9-1.3-1.4-2-1.8-1.5-.9-3.4-2-5.2-1.7-3.1.4-5.5 2.9-8 4.7-.5.4 0 1.3.6 1z" fill="#F68559"/>
  <path d="M150.4 133.1c2.1-.2 4.3.2 6.5-.1 1.8-.3 3.4-1.1 5-2l3-1.2c.9-.2 1.8-.2 2.5-.5 1-.5 1.6-1.8.7-2.7-.4-.4-1 .2-.5.5 1 1-1 1.7-1.6 1.8-.8 0-1.5.2-2.2.4-1.4.5-2.6 1.2-3.9 1.8-1.4.8-3 1.1-4.5 1.2-1.7 0-3.4-.2-5 0-.5.1-.5.9 0 .8z" fill="#1F2783"/>
  <path d="M167.7 126.5c-2.2-.5-4.7.3-6.7 1-.5.3-.3 1 .2.9 1.9-.7 4.3-1.6 6.3-1.2.5.1.7-.6.2-.7zM166.8 124.2c-2.4-.2-4.8.2-7 1.1-.4.2 0 1 .5.7a13 13 0 016.5-1c.5 0 .5-.7 0-.8zM157.4 123.4a7 7 0 00-2.4 1.5c-.4.3.2.9.5.6a6 6 0 012.1-1.3c.5-.2.3-1-.2-.8zM136.6 119c.8-.4 1.5 0 2.2.1h1.4l2-.4h2c1.7.1 4-.4 3.6-2.5-.1-.5-.9-.3-.8.2.5 2.3-4.6 1.4-5.8 1.6l-1.5.4-1.7-.2c-.6-.2-1.2-.2-1.8.2-.4.2 0 1 .4.7zM142 115.9l2.9-1c.7-.2 1.5-.4 2.3-.2.5 0 1 .3 1.5.5 1.2.3 3 0 2.9-1.7 0-.5-.9-.5-.8 0 0 1.7-2 .9-2.8.6-.6-.2-1.3-.3-2-.3-1.4.2-2.9.8-4.3 1.3-.5.2-.3 1 .2.8z" fill="#1F2783"/>
  <path d="M142.5 113c2.5-1 5.3-.9 7.7.2.5.3.9-.4.4-.6a11 11 0 00-8.3-.4c-.5.1-.3.9.2.7zM147.7 109.8a11 11 0 00-5.2 0c-.5.2-.3 1 .2.8 1.6-.4 3.2-.4 4.8 0 .5 0 .7-.7.2-.8z" fill="#1F2783"/>
</svg>
