<svg width="256" height="154" fill="none" xmlns="http://www.w3.org/2000/svg">
  <path d="M18.8 91c23-5.6 35.6-11.3 58.6-15.9 6.4-1.3 26.1-5.7 29.3-8 3.1-2.3 2.1-14.6 0-17.9 12.1 7.6 25.8 19.8 36.9 28.7 5.3 4.3 16.2 9.4 17.6 14.2 2.6 8.7-4.2 14.3-9.5 17-4.3 2-14 5.8-18.6 7.3-25.4 8.3-71.2 20.6-72.5 21.8-.4.3-28.3-29.1-42.5-47.2" fill="#fff"/>
  <path d="M18.9 91.4c18.5-4.5 36.4-11.2 55-15.1 6.5-1.4 12.8-2.7 19.2-4.3a141.4 141.4 0 0012.4-3.8c.7-.3 1.4-.6 2-1.3.8-1 1.1-2.3 1.3-3.6a32.2 32.2 0 00-.4-10.5 12 12 0 00-1.3-3.8l-.6.6c9.9 6.2 18.8 13.8 27.8 21.2 3.9 3.2 7.7 6.7 12 9.6 3.8 2.6 8 4.8 11.6 8a9 9 0 013 4.4c.7 2.4.6 4.9-.4 7.2a18 18 0 01-8.8 8.6 222.7 222.7 0 01-24 9.1l-26.2 7.9-25 7.2c-5 1.4-10 2.7-15 4.5-.3 0-.8.2-1.1.5-.3.2.3-.1.3 0 0 0-.1-.2 0 0a3 3 0 00-.5-.5c-1.5-1.3-2.8-2.8-4.2-4.2a707.3 707.3 0 01-37.6-42.4c-.3-.4-1 .2-.6.6a875.7 875.7 0 0040.6 45.5l1.5 1.4.4.3.2.1h.3c1-.6 2.3-1 3.4-1.3l8-2.4 24-6.9 27.2-8c8.5-2.7 16.9-5.5 25-9 3.7-1.6 7.3-3.4 10-6.3 3.2-3.4 4.6-7.9 3.3-12.4-.4-1.7-1.6-3-2.9-4.2a42 42 0 00-5.3-4l-6.3-4c-2-1.4-3.9-2.9-5.7-4.4-9.2-7.5-18.1-15.3-27.8-22.2a133.2 133.2 0 00-7-4.6.4.4 0 00-.4.3v.3c1.5 2.2 1.7 5.4 1.9 8 .2 2.6.3 6-1 8.4-1 1.6-3.3 2-4.8 2.6A374 374 0 0175.7 75c-9.1 1.8-18 4.3-27 7-10 3-19.9 6-30 8.5-.6.2-.3 1 .2.8z" fill="#fff"/>
  <path d="M17.9 91.2c4.6 6.9 10.3 12.9 15.9 19 2.7 3 5.2 6.3 7.8 9.3 2.7 3.1 5.7 6 8.6 8.8 3.5 3.2 6.9 6.5 9.9 10 .2.4.7 0 .4-.4-5.2-6.3-11.7-11.4-17.3-17.5-2.7-3-5.1-6.3-7.8-9.3l-8.1-9a104 104 0 01-8.9-11.3c-.2-.3-.8 0-.6.4z" fill="#0098FA"/>
  <path d="M117.6 57c2.5 1.6 5 3.3 7.4 5.2 2.1 1.6 4.2 3.6 6.8 4.6.3.1.5-.5.1-.7-2.6-1-4.7-3-6.8-4.7a123 123 0 00-7.1-5c-.4-.3-.7.3-.4.5zM135.2 70.8l15.2 11.3c.3.2.6-.4.3-.6l-15.2-11.2c-.3-.3-.6.3-.3.5z" fill="#FFB507"/>
  <path d="M60.4 138.5a1532.6 1532.6 0 0064.7-18.2c.3 0 .2-.7-.2-.6a1248.4 1248.4 0 01-64.7 18.1c-.4.2-.2.8.2.7z" fill="#0098FA"/>
  <path d="M52.5 88.3c8.8 9.3 16.9 19 25.7 28.3 2.2 2.3 4.4 4.5 6.7 6.6.9.8 2-.4 1.2-1.2-4.4-4-8.5-8.5-12.5-12.9L60 94.1l-6.4-7c-.7-.8-2 .4-1.2 1.2zM62.3 84.6a222 222 0 0019.9 20c2 1.8 4.1 3.6 6 5.7 2.7 2.7 5.2 5.6 8.1 8.2.8.7 2-.5 1.2-1.2-2.5-2.3-4.8-4.8-7.2-7.4l-6-5.8a279 279 0 01-20.8-20.7c-.7-.8-2 .4-1.2 1.2zM96.1 104.1l11.4 11c.8.7 2-.5 1.2-1.3l-11.4-10.9c-.8-.7-2 .5-1.2 1.3zM95.7 87.8c2.8 2.5 5.4 5.3 8 8a1961.7 1961.7 0 0114 14.5c.8.8 2-.4 1.2-1.2a1434 1434 0 00-18.5-19c-1.1-1.2-2.2-2.4-3.5-3.5-.8-.8-2 .5-1.2 1.2zM109.2 86.8c4 3 7.7 6.2 11.3 9.6 3.6 3.4 7.4 6.6 11.3 9.5 1 .7 1.8-.8.9-1.5-4-3-7.7-6.1-11.3-9.5-3.6-3.4-7.4-6.6-11.4-9.6-.9-.6-1.7.9-.8 1.5zM42.4 92.6a446.3 446.3 0 0031 35c.8.8 2-.4 1.2-1.2a498 498 0 01-31-35c-.6-.8-1.8.4-1.2 1.2z" fill="#FFD8CC"/>
  <path d="M74 95.8a6.8 6.8 0 00-3 3c-.4.7-.6 1.7-.3 2.5.3 1 .8 1.7.7 2.7 0 1.1-1 1.8-1.7 2.6-.6.8-.7 1.5-.3 2.4.3.8.5 1.5.6 2.3 0 .7 0 1-.3 1.5-.4.6-.6 1.3-.7 2-.1.6 0 3.4.8 3.5 2.5.5 3.9-3 4.4-3.5 1.5-1.5.2-2.1 1.7-3.7a18 18 0 004.4-6.1c.8-2.4 3.3-5 1.3-6.5a16.3 16.3 0 00-7.6-2.7" fill="#FF6B24"/>
  <path d="M73.9 95.6c-1.7.8-3.3 2.4-3.6 4.3-.3 1.3.6 2.3.8 3.6.1 1.5-1.2 2.2-1.9 3.3-.5.8-.3 1.7 0 2.6l.4 1.6c.2.8 0 1.3-.4 2a6.3 6.3 0 00-.1 5c.5 1.3 2.4.5 3.3-.2.5-.5 1-1.1 1.4-1.8.4-.6.9-1.1 1.2-1.7.5-.8.3-1.8.8-2.6.8-1.1 2-2 2.8-3.1.8-1 1.4-2 1.9-3.2.4-1.1 1-2.2 1.6-3.3.4-.9.8-1.9.5-2.8-.2-1-1.2-1.4-2-1.8-2-1-4.3-2-6.6-2-.4 0-.4.7 0 .7 1.9 0 3.8.7 5.5 1.4.7.4 1.7.8 2.2 1.4.7.8.2 2-.2 2.9-.5.8-1 1.6-1.3 2.5a15.4 15.4 0 01-3.8 5.7c-.6.7-1.4 1.3-1.6 2.3l-.1 1c-.1.5-.4.8-.8 1.2l-.8 1.3a6 6 0 01-1.4 1.6c-.6.4-1.7 1-2 .2-.8-1.7-.4-3.5.4-5 .3-.7.3-1.4 0-2.1-.1-1-.9-2.1-.6-3 .4-1.1 1.6-1.7 2-2.7.4-1 .2-2-.2-3-.6-1.3-.5-2.3.3-3.5.7-1 1.6-1.8 2.6-2.3.4-.2 0-.7-.3-.5z" fill="#FF6B24"/>
  <path d="M93.4 90.5c7.5-1.1 14.9-3.9 22.4-4.8 3.3-.4 8.7.7 10.9 3.3 1.7 1.9 1.4 4 .5 6.4-.9 2.4-2.7 3.6-4.8 5a43.6 43.6 0 01-9.3 4c-7.7 2-9.8 2.7-19.1 3.8-2.4.3-11 2.5-13.4 3-1.4.3-2.4-2.6-1.8-4.1.6-1.7-.5-6.2 1-7 2.8-1.3 3 .7 5.5-1 1-.6 3.5-.2 3.7-1.2.2-1.1 3.4-2.7 3.2-3.9-.2-1.2-2.5-2-1.6-3" fill="#252A34"/>
  <path d="M93.5 91c5.7-1 11.2-2.7 16.9-4 2.4-.5 5-1 7.5-1 2.1.1 4.4.6 6.3 1.6 2 1 3.6 2.9 3.2 5.4a8.4 8.4 0 01-3.5 5.9 35.2 35.2 0 01-11.4 5.2c-3.6 1-7.3 2-11 2.6-3.7.7-7.5 1-11.2 1.8l-5.5 1.3c-1.3.3-2.8.8-4.1 1-1 0-1.3-1-1.5-1.8-.2-.9 0-1.5.1-2.4.3-1.6-.1-3.3.2-5 .2-1 .8-1.3 1.8-1.5l2 .2c1 0 1.6-.5 2.4-.9.7-.3 1.6-.2 2.4-.4.6-.1 1-.4 1.3-1 .3-.6.9-1 1.5-1.6 1-.9 2.3-1.9 1.3-3.3-.2-.3-1.6-1.3-1.3-1.7.4-.4-.2-1-.6-.6-1.3 1.6 2 2.2 1.4 3.6-.3.7-1.4 1.4-2 1.8l-.7.8-.5 1c-.5.4-1.8.3-2.4.4-1 .2-1.7 1-2.6 1-.8 0-1.5-.2-2.3-.1-.7 0-1.7.3-2.1 1-1 1.3-.6 3.4-.6 4.9 0 .8-.2 1.5-.3 2.3 0 1 0 1.8.5 2.6.2.7.7 1.4 1.5 1.5.5.1 1.2-.1 1.7-.2l5.3-1.3 5.5-1.3c2.1-.4 4.3-.5 6.4-.8 4-.6 7.9-1.5 11.8-2.6 4.3-1.1 8.5-2.6 12.3-5 1.8-1.2 3.5-2.6 4.4-4.7.9-2.3 1.2-4.7-.4-6.8a9.8 9.8 0 00-5-3 16 16 0 00-6.4-.7c-6 .7-12 2.7-18 4-1.4.4-3 .7-4.5.9-.6 0-.3 1 .2.8z" fill="#252A34"/>
  <path d="M89.4 85c4.7-2.6 9.7-2 14.5-2.3 3.4-.2 7.4 0 9.6 0 1.6 0 6-.2 8 1.5 1.2 1 2.2 2.3 1.3 3.7-.7 1.3-8.4 1.5-9.8 2l-15.6 5c-1.8.5-3.8 1-5.4.1a6 6 0 01-2.1-2.3c-.4-.7-.8-1.4-.8-2.2 0-1.5 1.4-2.7 2.7-3.5" fill="#252A34"/>
  <path d="M89.6 85.3c2.7-1.4 5.7-1.9 8.8-2l8.4-.2h7.1c2 0 4 0 6 .7 1.5.6 4.4 3.5 1.7 4.4-1.6.4-3.4.6-5 .8-1.4.1-2.8.2-4.2.6l-9.4 3-5.3 1.7c-1.5.4-3.2 1-4.7.6-1.6-.4-2.8-2-3.3-3.6-.6-1.8 1-3 2.3-4 .4-.3 0-1-.4-.7-1 .7-2.2 1.6-2.7 2.8-.5 1.3.1 2.7.8 3.8.7 1.1 1.6 2.2 3 2.5 1.3.5 2.9.1 4.2-.3 3.6-1 7.1-2.3 10.7-3.4 2.5-.8 4.9-1.7 7.5-2 2-.3 4-.4 6-.8.5-.2 1.3-.3 1.8-.7.7-.6.8-1.8.5-2.6-1-2.3-3.5-3.2-5.8-3.5-2.3-.2-4.6-.1-6.9-.2l-10.9.2c-3.7.1-7.3.4-10.7 2.2-.4.3 0 1 .5.7z" fill="#252A34"/>
  <path d="M108 59.4s-.2 0-.2.2h.1l1.3 3 2.2-.7.3-.1c-.2-1.2-.3-2.3-1-3.3-.8.4-1.7.7-2.7.9z" fill="#F68559"/>
  <path d="M108 59c-.3 0-.5.2-.6.4a.4.4 0 000 .5h.1a.5.5 0 00.6.1.4.4 0 00.2-.6c-.2-.6-1-.1-.8.4l1.4 3a.4.4 0 00.5.1l2.4-.7a.4.4 0 00.3-.5c-.2-1.2-.3-2.4-1-3.4a.4.4 0 00-.4-.2l-2.8.9c-.5 0-.3 1 .2.8 1-.2 1.9-.5 2.8-.9l-.5-.2c.6 1 .7 2.1.8 3.2l.3-.5-2.4.7.5.2-1.3-3c-.2-.5-1 0-.7.5l.1-.6.4.1v.5c.5-.2.3-1-.2-.8zM108 59.6z" fill="#F68559"/>
  <path d="M107.6 59.8a.4.4 0 00.5.2h.1l.1-.2v-.2-.2l-.3-.2h-.3a.4.4 0 00-.1.6v-.2l.7-.2a.4.4 0 00-.5-.2.4.4 0 00-.3.3v.3zM125.7 69.1H121l-.3.7c-.1-.3-.4 0-.5.3-.1 1 0 2 .2 3l.2.3c.2.1.3.2.5.1h4.2l.3-4.4z" fill="#F68559"/>
  <path d="M125.7 68.7H121a.4.4 0 00-.4.2l-.3.8.7-.2c-.4-.4-1-.2-1.1.4-.4.9-.2 2.3 0 3.2.3.8.9.9 1.7.9 1.2 0 2.5-.2 3.7-.1a.4.4 0 00.4-.4l.3-4.4c0-.5-.9-.5-.9 0 0 1.5 0 3-.2 4.4l.4-.5-3.6.1c-.2 0-.6.1-.8-.1-.2-.1-.2-.7-.3-.9 0-.3-.2-2 .1-2l-.4-.1h.1a.4.4 0 00.7-.1l.3-.8-.4.4h4.6c.5 0 .5-.8 0-.8zM72.5 58a6.8 6.8 0 006.3-1c1.8-1.3 2.9-2.9 2.7-5v-.6c1.8-1 2.5-1.2 4.5-2.4-2.2-.8-4.5-1.4-4.5-1.4-.7-8.2-10.6-10.7-13.2.3-1-.2-2.8.9-3.3 2-.4.7-.6 2.6 1.3 3.7.6.4 1.9 1.4 3.2.5 0 0 1.4 2.2 2.3 2.7.2.1 0 .6 0 .8l.1.4-.1 3.7h.4l4.8.4v-4" fill="#F68559"/>
  <path d="M72.4 58.4a7.4 7.4 0 009.2-4.2c.4-1 .4-1.9.4-2.8l-.2.3 4.4-2.3a.4.4 0 000-.8l-4.6-1.4.3.4c-.2-2.8-1.6-5.7-4.2-7a6 6 0 00-7 1.5 12.3 12.3 0 00-2.8 5.7l.4-.4c-2-.1-4.3 2-4 4 .3 2.3 3.4 4.2 5.4 3.1l-.5-.1c.5.8 1.1 1.7 1.9 2.4.2.2.3.2.3.4v4.5a.4.4 0 00.4.4c1.7 0 3.5.3 5.2.4a.4.4 0 00.4-.4v-4c0-.5-.8-.5-.8 0v4l.4-.4c-1.7-.2-3.5-.5-5.2-.4l.4.4.1-3.5c0-.5.2-1.3-.2-1.7-.5-.5-1-.9-1.4-1.5l-.8-1a.4.4 0 00-.6-.2c-1.6.8-4.1-1-4.2-2.7 0-1.5 1.8-3 3.2-2.8a.4.4 0 00.4-.3c.8-3.3 2.9-7.4 6.9-7 3.3.2 5.2 3.5 5.5 6.6a.4.4 0 00.3.4l4.5 1.4v-.8L81.3 51a.4.4 0 00-.3.4l-.1 2.1c-.3 1-1 2-1.8 2.7a6.5 6.5 0 01-6.5 1.3c-.6-.2-.8.7-.3.9z" fill="#F68559"/>
  <path d="M118.7 68c.8 0 2 0 2.6.6.6.5.4 2 .4 2.9 0 .8.2 2-.4 2.6-.8 1-1.9.5-3.1.4" fill="#FFB507"/>
  <path d="M118.7 68.4c.8 0 2.1 0 2.5.8.3.7.1 1.5.1 2.2 0 .8.2 2-.4 2.5-.7.6-1.9.2-2.7.2-.6 0-.6.8 0 .9 1 0 2.3.4 3.2-.4 1-.8.8-2.1.8-3.2 0-1 .1-2-.4-2.9-.6-1-2-1-3-1-.6.1-.6 1 0 1z" fill="#FFB507"/>
  <path d="M101 59.5L97 60.7c-.7.1-4.6.2-4.9 1-.2.6 2.8 1.2 3.3 1.6 1.8 1.8 1.6 2.8 4 3 1.7.3 2.2.8 3.7 0 1-.6 6.3-2 6.3-3.3 0-.7-.5-1.4-1-2-1-1-2.2-1.7-3.5-2a9 9 0 00-3.8.5z" fill="#E1C732"/>
  <path d="M101 59.1c-1.9.5-3.7 1.1-5.5 1.3-1 0-2.6 0-3.5.6-1 .7-.1 1.4.6 1.7l1.8.7c.6.2 1 .7 1.5 1.3 1 1 1.6 1.8 3 2l2.4.5c.8 0 1.3-.3 2-.6 1-.6 2.3-.9 3.4-1.3 1-.4 2.2-.8 2.8-1.7 1-1.3-1.1-3.1-2-3.8-2.1-1.5-4.3-1.3-6.6-.7-.5.2-.3 1 .2.8 2-.5 3.9-.8 5.7.5.7.5 2.9 2.2 1.7 3-1.6 1.2-3.7 1.6-5.5 2.4-.5.2-1 .5-1.5.5-.7 0-1.4-.2-2-.3-.7-.1-1.3-.2-1.9-.7l-1-1a4.8 4.8 0 00-2.2-1.8l-1.5-.6c-.2 0-.3-.2-.5-.3.4.3-.2.2 0 .2l.4-.2c1-.3 2.3-.3 3.5-.4 1.6-.2 3.2-.8 4.8-1.3.6-.1.3-1-.2-.8z" fill="#E1C732"/>
  <path d="M105.2 59.5c1 0 2-.5 3-.2.8.3 1.3 1 1.8 1.6l.2 1.8c-.8.4-2-.3-2.7 0" fill="#E1C732"/>
  <path d="M105.2 59.9c1 0 2-.5 3-.2.6.3 1.3 1 1.5 1.7v1.1c.2-.2-.1 0-.3-.1-.7 0-1.3-.3-2-.2-.6 0-.4 1 .2.8.7-.1 2.1.7 2.8 0 .4-.4.2-1.3 0-1.8-.1-.8-.8-1.6-1.5-2-1.2-.8-2.5-.2-3.7-.2-.6 0-.6.9 0 .9z" fill="#E1C732"/>
  <path d="M92.4 76c1 1.5 1.6 3.2 1.8 5 0 .7 0 1.4.2 2.1.4 2 2.2 3.4 2.7 5.4.7 2.5-1 5-3 6.7-2.3 2-5.3 3.7-8.4 3.8-2.8.2-5.5-.8-7.8-2.4a23.2 23.2 0 01-5.8-6 38.2 38.2 0 01-4.5-8.6 20 20 0 01-1.3-11l2.3-1.7c-1.5 1.4-1.7 6.2-3.5 7.3-1.8 1-3.9-.3-6-.7a5 5 0 01-3.9-4c-.2-1.5 1.3-4.7 3.8-6.3 2-1.3 4.3-1.4 7.6-2.2 2.1-.5 4.1-1.8 6.4-1.8a17.7 17.7 0 019.7-2.4c6.1 0 12.3 2 18 4.6 1.4.6 2.7 1.3 4.2 1.7 1.3.3 2.6.4 4 .5l4.4.2c1.8.1 3.7.3 4.8 1.7a5 5 0 011 2.9c0 1.3-.2 2.7-1 3.8-1 1.2-2.6 1.7-4.2 1.9-4.9.7-9.9-.3-14.8-.4h-5.4c-2.8-.2-5.5-1-8-2.1" fill="#FFB507"/>
  <path d="M92 76.2c.7 1 1.2 2 1.5 3.2.3 1.2.2 2.4.4 3.5.4 2.1 2.1 3.5 2.8 5.4.7 2.5-1 4.8-2.7 6.4a15 15 0 01-6.2 3.6c-5 1.3-9.8-1.4-13-5a35 35 0 01-8.3-17V74v-2.3c0-.5 0-.3.2-.6l.8-.6 1.3-1-.5-.6c-.9.9-1.2 2.3-1.6 3.5-.3 1.2-.6 3-1.8 3.7-1 .7-2.3.3-3.4 0l-3-.9c-1.5-.5-3-2.3-2.8-4A7.5 7.5 0 0158 67c1.3-1.4 3-2 4.8-2.4 2-.4 4-.7 6-1.5l2.9-1c.6 0 1.2 0 1.8-.3 8.1-4.4 18.1-1.5 26 2 2.1.9 4 2 6.3 2.3 2.4.4 4.8.4 7.2.6 1.8 0 4.3.2 5.2 2.1.9 1.9.7 4.8-1 6.1-2 1.5-5 1.4-7.2 1.4-2.7 0-5.4-.3-8.1-.5-2.7-.2-5.4 0-8.2-.2-2.7-.2-5.4-.8-7.9-2-.5-.2-.9.6-.4.8a24 24 0 007.1 2c2.7.3 5.5 0 8.2.2 2.8.1 5.5.5 8.3.6 2.4 0 5 0 7.3-.8 1.7-.7 2.9-2 3.1-4 .3-1.9 0-4.3-1.7-5.5-1.7-1.2-4.1-1-6.1-1.2-2.8-.1-5.6-.1-8.3-1.2l-7-3a47 47 0 00-7.6-2.1 24 24 0 00-14.3 1l-1.6.8h-1l-2 .7c-1.1.4-2.2.8-3.3 1-1.2.4-2.5.6-3.7.8-1.9.4-3.6 1-5 2.3a9.2 9.2 0 00-2.9 4.5c-.4 1.7.4 3.5 1.7 4.6.8.7 1.7 1 2.7 1.3 1.3.3 2.5.8 3.8 1 2 .2 3.1-1 3.8-2.7.6-1.6.8-3.8 2-5.1.4-.4 0-1-.5-.7l-1.2 1c-.4.2-1 .5-1.2.9-.3.4-.3 1-.3 1.5a20.3 20.3 0 00.4 6.1 35.5 35.5 0 007.1 14.4c3.2 4 8 7.2 13.4 6.6 2.4-.4 4.7-1.5 6.6-3 2-1.3 3.8-3.2 4.3-5.6.3-1.1.2-2.3-.3-3.4-.5-1.2-1.4-2.2-2-3.3-.7-1.4-.5-2.9-.8-4.3-.2-1.5-.8-2.8-1.6-4-.3-.5-1 0-.8.4z" fill="#FFB507"/>
  <path d="M75.9 48.6c.4-.6.9-1.3 1.5-1.6 1.3-.5 1.9.7 2 1.8 0 .2-.1 1-.3 1.1-.8.8-.8-.6-.8-.8 0-.7 0-1.5.3-2.2.1-.4-.5-.6-.6-.2-.4 1-.8 3 0 4 1 1 1.8-.7 2-1.5 0-1-.3-2.5-1.4-3-1.3-.5-2.7 1-3.3 2-.2.4.4.7.6.4zM79.3 53.4c.4.7 1.4 1.3 2.2 1.2.4 0 .4-.7 0-.6a1.8 1.8 0 01-1.6-1c-.2-.3-.8 0-.6.4zM66.3 50.1l1 .3c.3.1.9.2 1 .4v-.4l-.6 1.1-.6 1c-.2.5.4.8.6.4l.9-1.7c.1-.2.4-.5.2-.8-.1-.3-.5-.4-.7-.4l-1.7-.5c-.4-.1-.5.5-.2.6zM71.2 66.2c-1.2 1.7-2.7 3.1-3.8 5-1 1.7-1.6 3.6-2.1 5.6 0 .4.5.6.6.2.5-2 1.1-4 2.3-5.8 1-1.7 2.4-3 3.5-4.7.3-.3-.3-.6-.5-.3zM71.5 57.3a7 7 0 005.6 1.6c.4 0 .4-.7 0-.7-1.9.3-3.7-.1-5.2-1.4-.3-.2-.8.2-.4.5zM93.8 61a512 512 0 0013 4.6c.4 0 .6-.5.2-.7l-13-4.5c-.4-.2-.6.4-.2.6zM118.4 68c.1 2.3.1 4.4-.3 6.6 0 .4.5.6.6.2.3-1.1.4-2.3.5-3.4 0-1.1 0-2.3-.2-3.4 0-.4-.6-.4-.6 0zM106 59.2a6 6 0 013.2 4.2c.1.4.7.2.6-.2-.5-2-1.6-3.5-3.4-4.5-.4-.2-.7.3-.4.5zM93.8 76.1l-8.6-.8c-.4 0-.4.6 0 .7l8.6.8c.4 0 .4-.6 0-.7z" fill="#1F2783"/>
  <path d="M84 107.4c1-1 3-1.7 4.4-1.3.9.2 1.5.4 1.6 1.2.1.4.1.7-.1 1-1.5 2-4 3.2-5.8 5a34 34 0 00-5.9 7.7c-.5 1-1.7 2-2.8 2-1.2 0-2.6-1.4-2.7-2.6-.2-1.1.1-2.3.5-3.4.3-.6 1.1-.4.5-1.4-.6-.8-1-1.7-1.3-2.7-.7-2.2 3.3-3.8 2.6-6-.2-.7-1-1.2-1.3-1.9-.8-1.3.2-2.9 1.3-4 2-2 .4-1.3 1.7-2 1-.4 4 .3 4.5.3 1 0 3.3.3 4 .5.7.3.2 1.6-.1 2.3l-1.2 1c-1.3 1.4-1 2.7.1 4.3" fill="#FF6B24"/>
  <path d="M84.2 107.6c1.1-1 2.7-1.6 4.2-1.2.7.2 1.4.5 1.4 1.3 0 .7-1.1 1.5-1.6 2l-3.3 2.4c-1 1-2.1 2-3 3.2-1 1-1.7 2-2.5 3.1-.8 1.3-1.5 3-2.8 3.8-.6.4-1.3.6-2 .2-.7-.3-1.3-1-1.5-1.7-.3-.7-.1-1.6 0-2.3l.4-1c.2-.5.3-.4.5-.7.6-.8-.5-1.8-.8-2.5-.5-1.3-.7-2.1 0-3.3 1-1.2 2.8-2.6 2-4.4l-1-1.4c-.7-.9-.5-1.8 0-2.6.6-1 1.7-1.6 2.1-2.6l.1-.4c-.1.2.4-.2.6-.2.9-.3 2 0 3 .1l2.4.3c.7 0 1.3.2 2 .3l.6.1c.4.3.2.7.1 1-.2.7-.6 1-1.1 1.5-.5.4-.8.8-1 1.3-.6 1.3 0 2.6.7 3.7.3.3.8 0 .6-.4-.5-.7-1.1-1.7-.9-2.6.2-1 .9-1.4 1.5-2 .7-.4 1.2-1.7 1-2.6-.4-.8-1.8-.7-2.5-.8l-3-.4c-1.2-.1-4-.8-4.6.6-.4 1-1.3 1.5-1.9 2.3-.8 1.1-1.2 2.5-.3 3.7.4.6 1.2 1.2 1.2 2 0 .6-.4 1.1-.7 1.6-.7.8-1.5 1.6-2 2.6-.4 1.1.3 2.4.8 3.4.2.3.7 1 .6 1.3l-.4.4c-.4.6-.6 1.5-.7 2.2-.2 1.3 0 2.5 1 3.5 1 .9 2 1.1 3.2.5 1.5-.7 2.1-2.2 3-3.5a32.8 32.8 0 019.6-9.9c.5-.4 1.1-1 1.2-1.6.2-1.4-1-2-2.2-2.2-1.6-.3-3.3.4-4.4 1.5-.3.3.1.7.4.4z" fill="#FF6B24"/>
  <path d="M77 96.6c-1.9.7-3.4 2-3.5 4 0 1.5.4 3.2.8 4.5.2.6.4 1.2.4 1.8 0 .7-.3 1.4-.6 2-.5 1-1.4 1.7-1.6 3-.2 1.2.3 2.2.7 3.3.4 1.3-.8 2.6-1.1 4-.6 2 .2 4 2.4 4.4.4 0 .6-.6.2-.7-2.4-.4-2.5-2.7-1.7-4.6.4-1 1-1.8.9-3-.2-1-.8-1.8-.8-3 0-1.3 1-2 1.6-3 .4-.9.7-1.8.6-2.7-.1-1.1-.6-2.1-.8-3.2l-.3-1.5c-.4-2.3.8-3.9 3-4.7.3-.1.1-.8-.2-.6z" fill="#1F2783"/>
  <path d="M82.7 112.8c.5.5 1 1 1.6 1.2l.2-.6h-.1c-.4-.1-.6.5-.2.6h.1c.4.1.6-.4.3-.5a5 5 0 01-1.4-1.1c-.3-.4-.8.1-.5.4zM81.5 114.6A17.4 17.4 0 0083 116a.3.3 0 00.3-.3v-.2c-.2-.5-.8-.1-.6.2v.1l.5-.4-1.2-1.3c-.3-.3-.7.2-.5.5zM79.6 116.1c.4.5.9 1 1.4 1.2.4.2.7-.4.4-.5-.5-.3-1-.7-1.3-1.1-.3-.3-.8.1-.5.4zM87.6 110.7c-.2-.1-.6-.3-.7-.5 0-.3.3-.6.5-.7.4-.4 1 0 1.2.4a.3.3 0 00.6-.2.4.4 0 00-.2-.3c-.3-.3-.7.2-.4.4v-.1l.5-.2c-.3-.4-.7-.7-1.1-.8-.5-.1-.9.1-1.2.4-.3.3-.7.7-.6 1.2 0 .5.7.7 1 1 .4.3.7-.3.4-.6zM76.5 123a4.5 4.5 0 01-1.5-3c0-1.1.8-2 1-3.2 0-1.1-.6-2-.9-3-.3-1.3.4-2.2 1-3.1.6-.7 1-1.5 1-2.4.1-.8 0-1.8-.2-2.6l-.8-4c-.2-1.9 2-2.8 3.5-3.4.3-.2 0-.7-.4-.6-1.4.6-3.4 1.5-3.7 3.2-.2 1 .2 2.2.4 3.2l.6 3.3c.1 1.2-.3 2-1 3-.5.8-1 1.7-1.1 2.7 0 1.3 1.1 2.5.9 3.8-.2 1.2-1 2.1-.9 3.4.2 1.3.7 2.4 1.6 3.2.4.3.8-.2.5-.5z" fill="#fff"/>
  <path d="M76 46.4a3 3 0 013.8-.4c.3.2.6-.4.3-.6a3.7 3.7 0 00-4.5.6c-.3.2.2.7.5.4zM68.2 47.3c1 .3 2.6.7 3.2 0 .7-.8.4-2 0-2.8.2.2 1.1-.1 1.4-.2 1.1-.4 1.2-2.2.9-3.2 1.5 1 3 .4 2.7-1.1 1.4.3 2.6 1 3.6 2 .5-3.4-1-4.9-2.7-5.4-1.8-.6-3.2 0-4.2 1.5-1.1-1-2.5-.8-4 .2-1.2.7-1.5 2-1.2 3.3-.8.4-1.9.6-2.5 2.1-.7 1.7.3 3.1 1 3.7.6-.3 1-.3 1.5-.2" fill="#252A34"/>
  <path d="M68 47.7c1.1.3 2.6.8 3.6 0 1-.9.6-2.4 0-3.4l-.5.5c.7.5 2.1 0 2.6-.7.7-.8.7-2.1.4-3.2l-.6.5c1.4 1 3.6.7 3.4-1.5l-.6.5c1.3.3 2.4 1 3.4 1.9.2.2.6.1.7-.2.3-2.1 0-4.4-2-5.5-2-1.2-4.3-.7-5.6 1.2l.5-.1c-1.3-1-3-.7-4.4.1-1.4.9-1.8 2.3-1.4 3.9l.2-.5c-1.3.6-2.4 1.2-2.8 2.7-.5 1.4.1 2.8 1.1 3.8a.4.4 0 00.5.1c.4-.2.8-.3 1.3-.2.5 0 .8-.8.2-.8-.6-.1-1.2 0-1.8.2l.4.1c-1-.9-1.3-2.2-.7-3.4.5-1 1.3-1.3 2.3-1.8a.4.4 0 00.2-.4c-.4-1.4 0-2.4 1.2-3 1.1-.7 2.3-.8 3.3 0 .2 0 .5 0 .6-.2 1.1-1.6 3-2 4.6-.9 1.5 1 1.7 2.8 1.4 4.5l.8-.2c-1-1-2.4-1.8-3.7-2.2-.3 0-.6.2-.6.4.2 1.5-1.2 1.4-2.1.8-.3-.2-.7.1-.6.5.1.6.2 1.4 0 2a1.1 1.1 0 01-.7.7c-.2 0-.8.3-1 .2a.4.4 0 00-.6.6c.4.8.8 2.3-.5 2.5-.7.2-1.5-.1-2.2-.3-.5-.2-.7.6-.2.8z" fill="#252A34"/>
  <path d="M74 95.5c-2 .3-3.5 1.6-3.9 3.6-.2 1-.2 2.2.1 3.2l.5 1.1c.2.6-.2 1.4-.6 1.9-.5.7-1.2 1.2-1.3 2.1-.2 1.2.5 2.3.8 3.4.3 1.3-1 2.4-1.2 3.7-.2 1.3 0 2.7.8 3.8.2.3.8 0 .6-.3-.8-1.3-1-2.9-.5-4.3.4-.9 1.1-1.6 1-2.6-.1-1.2-1-2.2-1-3.4.1-1 1-1.4 1.4-2.2.5-.5.8-1.4.7-2-.2-1-.7-1.7-.7-2.6-.2-2.3 1-4.4 3.3-4.7.5 0 .5-.7 0-.7zM84 106.4c-1.6 1.5-1.9 3.5-1.5 5.5 0 .4.7.2.6-.2-.3-1.8 0-3.5 1.3-4.9.3-.2-.2-.7-.5-.4z" fill="#1F2783"/>
  <path d="M76.3 105c1.2 0 2.7-1 3.5-1.7 1.2-1.3 1.3-3 1.2-4.7 0-.4-.7-.4-.7 0 .2 1.5.2 3-1 4.2-.7.7-2 1.6-3 1.6-.4 0-.4.6 0 .6z" fill="#fff"/>
  <path d="M125.9 69.2c1.1-2 2.9-2.6 5-3 .8-.1 3.7-.2 4.3 0 .7.2.2 1.6-.1 1.8-.6.4-2 0-2.6-.3a2.9 2.9 0 00-2.7.3 7 7 0 014.6-.4c.5 0 1.8.3 1.8.8 0 .4-1.1.9-1.6 1l-1.3-.2c-1.1-.1-2.2.1-3.2.7l3.1-.5c.8 0 3.3-1 3 .7 0 .7-1.9.5-2.5.6-1 0-2 .7-3 1.1-1.6.7-1.4.8-3.1 1.6-1 .5-2.7-.1-2.8-.3 0 0 .6-2.2.6-3.4" fill="#F68559"/>
  <path d="M126.2 69.4c1.7-2.5 4.8-2.9 7.5-2.9.4 0 1.3-.1 1.4.3.1.2-.1.7-.3.8-.2.3-.8.1-1 0-.8 0-1.4-.4-2-.5a3.4 3.4 0 00-2.4.7V68a.4.4 0 00.2.4.4.4 0 00.4 0c1.2-.7 2.6-.8 4-.6l1 .2.6.2c.2.2.2 0-.1.3-.9.6-1.8.2-2.8.2-1 0-2 .2-2.8.8a.4.4 0 00.4.7l3.3-.5c.6 0 1.4-.4 2-.2.3.1.3.4 0 .5-.4.2-1 .1-1.3.2a6 6 0 00-2.6.6l-2.6 1.3c-.9.5-1.7 1-2.7 1l-1.3-.4c.2 0 0 .5.2 0v-.4c.3-1 .4-1.8.5-2.7 0-.6-.8-.6-.9 0 0 1-.2 2-.4 2.9-.1.4-.2.8.3 1 1.6 1 3.3.1 4.8-.7l2.9-1.4c1-.4 1.8-.3 2.9-.5.6 0 1.2-.2 1.3-1a1.1 1.1 0 00-.8-1.2c-.7-.2-1.5 0-2.2.1l-3.7.6.4.8c.7-.5 1.6-.7 2.5-.7.7 0 1.3.3 2 .1.7-.1 2-.7 1.7-1.5-.3-.8-1.7-1-2.4-1.1a7.7 7.7 0 00-4.7.6l.5.7c1.2-.8 2.1-.2 3.4 0 .6.2 1.5.4 2-.2a2 2 0 00.6-1.7c-.2-.6-.7-.7-1.2-.8-3.4-.3-7.4.2-9.3 3.3-.3.4.4.9.7.4z" fill="#F68559"/>
  <path d="M124.1 69.4c.7-.5.7-1 1-1.8.2-.8 1.2-2.2 1.5-3 .2-.4.4-1 .9-1.1.6-.1.6.7.7 1.3 0 .6-.2 1.1-.5 1.6-.1.4.2 2 0 2.3" fill="#F68559"/>
  <path d="M124.4 69.7c.8-.7.8-1.6 1.3-2.5l1.4-2.5.2-.6c.5-.2.4.4.4.6 0 .7-.3 1.1-.4 1.7-.2.7.2 1.5 0 2.2-.1.5.7.8.9.2v-1.3-.8l.3-1c.2-.7.2-2.6-1-2.7-.4 0-.7.4-1 .8l-.8 1.6-1 1.8c-.2.7-.3 1.4-.9 1.9-.4.4.2 1 .6.6zM110.5 58.6l3.7-2.8c.8-.7 3-1.4 4-.9.4.3 3.9 1.5 4 2.7 0 .3-1.3-.3-1.6-.5-1-.4-1.5-.4-2.6-.2a7.2 7.2 0 011.1 0c1.1 0 2.2.4 3 1l.4.7c0 .2-.2.3-.3.4-.3.3-.9.2-1.3 0l-1.2-.5c-.7-.2-1.3 0-2 0-1.3.4-2.7 1-4 1.7v.3a47.5 47.5 0 015.7 0l.1.2v.4c-.3.7-.7.7-1.5.7s-1 .2-1.8.1c-1.1-.2-2 1-4.3 0" fill="#F68559"/>
  <path d="M110.7 59l3.8-3c.9-.5 2.3-1 3.4-.7a14.1 14.1 0 013.6 2l.3.3.3-.3c-.3 0-1-.4-1.2-.5a4 4 0 00-1.8-.4c-1.1 0-2.3.3-3.3.7-.5.2-.1 1 .3.8 1.4-.5 2.8-.8 4.2-.4l1.1.5.4.3c0 .4-.2.6-.6.4-.6-.2-1-.6-1.7-.7-1.3-.2-2.7.4-3.9.9-.8.3-2 .6-2.3 1.5a.4.4 0 00.2.5h.2l4.1-.2c.4 0 1.8 0 1 .6-.3.2-1.1.2-1.5.2l-2.3.1c-1 .3-2 .3-3-.1-.5-.2-.7.6-.2.8 1.3.6 2.3.4 3.7 0 1.1-.2 2.6.3 3.7-.2.8-.5 1-1.7 0-2a55.5 55.5 0 00-5.6 0l.5.5c.1-.5 1.5-.9 2-1 .9-.4 2-.8 3-.8s3 1.7 3.7.2c.5-1.2-1.3-2-2.1-2.3a7 7 0 00-4.8.4l.3.8c.9-.4 2.2-.8 3.2-.7 1 .1 1.6.8 2.5 1 .6 0 .8-.5.6-1-.3-.7-1-1.1-1.6-1.5-1.3-.7-2.8-1.5-4.2-1.3-2.6.3-4.5 2.3-6.5 3.8-.4.3 0 1 .5.7z" fill="#F68559"/>
  <path d="M122.3 74.2c1.7-.2 3.5.1 5.2-.1 1.5-.2 2.8-.9 4.1-1.6l2.5-1c.7-.1 1.4-.1 2-.4.8-.4 1.3-1.5.6-2.2-.3-.3-.8.2-.5.5.9.8-.8 1.3-1.3 1.4-.6 0-1.2.2-1.7.3-1.1.4-2.1 1-3.2 1.5-1.1.6-2.4 1-3.7 1-1.3 0-2.7-.2-4 0-.5 0-.5.7 0 .6z" fill="#1F2783"/>
  <path d="M136.4 68.8c-1.8-.4-3.8.3-5.5 1-.4 0-.3.7.1.6 1.6-.6 3.6-1.3 5.2-1 .4.1.6-.5.2-.6zM135.6 67c-2-.2-3.9.1-5.6.9-.4.2 0 .7.3.6 1.7-.8 3.5-1 5.3-.8.4 0 .4-.6 0-.7zM128 66.4c-.7.2-1.4.6-2 1.1-.3.3.2.8.5.5a5 5 0 011.7-1c.3-.2.2-.8-.2-.6zM111 62.8c.7-.3 1.3 0 1.9 0h1.1c.5 0 1-.3 1.6-.3h1.7c1.3.1 3.2-.3 2.9-2-.1-.5-.7-.3-.7.1.4 2-3.7 1.2-4.7 1.4l-1.2.2-1.4-.1a2 2 0 00-1.4.1c-.4.3 0 .8.3.6zM115.4 60.2l2.4-.8c.6-.1 1.2-.3 1.8-.2l1.3.4c1 .3 2.4 0 2.3-1.3 0-.4-.6-.4-.6 0 0 1.4-1.6.7-2.2.5-.6-.2-1.1-.3-1.6-.2-1.2 0-2.5.6-3.6 1-.4.1-.2.7.2.6z" fill="#1F2783"/>
  <path d="M115.8 57.8c2-.7 4.3-.6 6.3.3.4.1.7-.4.4-.6a9 9 0 00-6.8-.3c-.4.1-.3.7.1.6zM120.1 55.3a9 9 0 00-4.3 0c-.4.1-.2.7.2.6 1.3-.3 2.6-.3 4 0 .3 0 .5-.6.1-.6z" fill="#1F2783"/>
</svg>
