<svg width="30" height="30" viewBox="0 0 30 30" fill="none" xmlns="http://www.w3.org/2000/svg">
<path fill-rule="evenodd" clip-rule="evenodd" d="M5 0.0829584V1.10002C3.04087 1.4977 1.4977 3.04087 1.10002 5H0.0829584C0.504477 2.4875 2.4875 0.504477 5 0.0829584ZM0.0829584 25H1.10002C1.4977 26.9591 3.04087 28.5023 5 28.9V29.917C2.48749 29.4955 0.504477 27.5125 0.0829584 25ZM28.9 25H29.917C29.4955 27.5125 27.5125 29.4955 25 29.917V28.9C26.9591 28.5023 28.5023 26.9591 28.9 25ZM25 0.0829584C27.5125 0.504477 29.4955 2.4875 29.917 5H28.9C28.5023 3.04087 26.9591 1.4977 25 1.10002V0.0829584ZM18 1H12V0H18V1ZM29 11H30V19H29V11ZM18 29V30H12V29H18ZM1 19H0V11H1V19Z" fill="#CFD6E6"/>
</svg>
