<svg width="256" height="154" fill="none" xmlns="http://www.w3.org/2000/svg">
  <path d="M167.3 45.32c18.25-3.75 30.39-7.35 52.64-11.56.6-.12 3.75-.1 4.46-.13 1.53-.05 5.84-.54 6.76.09.12.08.47.51-1.2 1.52-1.33.8-2.4 1.54-3.76 2.25-1.37.7-1.88 1.21-3.7 1.95-1.54.6-3.12 1.12-4.71 1.56-3.1.82-6.2 1.58-9.3 2.3-6.3 1.48-12.62 2.8-18.93 4.15-6.4 1.37-12.95 2.6-19.3 4.2-.27.07-1.07.42-1.2.14a20.98 20.98 0 01-1.75-5.73c-.06-.41.1-.94.5-.92" fill="#D9E4F4"/>
  <path d="M167.36 45.57c8.14-1.68 16.23-3.6 24.32-5.5 8.88-2.07 17.8-4.04 26.76-5.77.87-.16 1.7-.33 2.59-.36.77-.03 1.55-.03 2.33-.04 1.36-.01 2.71-.13 4.08-.2.82-.06 1.65-.06 2.47-.02.28.01.57.06.85.13.07.03.22.06.27.13-.03-.05 0 0 0 0 0 .21-.31.44-.46.56-.49.41-1.08.72-1.62 1.06a57.87 57.87 0 01-3.15 1.85c-.78.43-1.52.92-2.31 1.31-.97.49-1.99.85-3.02 1.2-2.23.75-4.52 1.32-6.81 1.89a518.53 518.53 0 01-15.88 3.63c-5.33 1.15-10.67 2.27-16.01 3.38-2.65.55-5.3 1.1-7.94 1.71-1.25.3-2.52.54-3.75.91l-.48.15c-.38.1-.42-.14-.56-.44-.29-.67-.54-1.35-.76-2.04-.13-.42-1.16-3.65-.46-3.7.33-.03.33-.54 0-.52-1.08.1-.73 1.48-.6 2.17.28 1.35.68 2.67 1.21 3.94.14.33.26.92.6 1.1.31.16.74-.02 1.04-.11 1.27-.4 2.6-.66 3.9-.96 5.6-1.28 11.23-2.38 16.84-3.57 5.66-1.21 11.32-2.4 16.95-3.7 2.86-.67 5.7-1.36 8.55-2.1a48.72 48.72 0 006.26-1.96c.94-.4 1.85-.86 2.72-1.4 1.02-.6 2.08-1.14 3.08-1.77l1.7-1.06c.42-.25.85-.52 1.17-.89.23-.27.43-.67.15-.98-.3-.34-.93-.36-1.33-.4-.87-.08-1.76-.04-2.63 0-1.43.07-2.86.19-4.3.2-.83.01-1.67.02-2.5.06-.96.04-1.89.28-2.82.46a569.77 569.77 0 00-21.8 4.64c-8.47 1.95-16.91 4.01-25.42 5.82l-3.37.7c-.31.07-.18.56.14.5v-.01z" fill="#D9E4F4"/>
  <path d="M170.56 44.37c.35 1.49.86 3.22 1.23 4.71l.52 2.14s-4.57.92-5.29 1.08c-4.47.97-8.45 1.95-12.7 2.65-.34.05-.7.1-1.01-.04-.41-.18-.62-.62-.78-1.03-.2-.5-.36-1.03-.5-1.56-.07-.32-.79-2.35-.67-2.67.15-.43 1.74-.88 2.18-.99 1.28-.31 1.61-.37 2.58-.68 3.57-1.16 10.81-2.61 14.44-3.6" fill="#0098FA"/>
  <path d="M170.3 44.44c.56 2.29 1.2 4.56 1.76 6.84l.18-.31c-1.72.35-3.44.69-5.15 1.05-3.91.83-7.8 1.8-11.73 2.49-.48.08-1 .22-1.48.23-.7.02-.96-.52-1.18-1.1-.24-.64-.39-1.3-.6-1.94-.17-.56-.37-1.12-.48-1.7-.04-.23-.06-.27.14-.4.28-.2.61-.32.93-.42 1.24-.42 2.54-.66 3.8-1.05 1.35-.42 2.72-.77 4.1-1.1 3.34-.82 6.7-1.5 10.03-2.4.31-.1.18-.58-.14-.5-3.15.86-6.35 1.52-9.53 2.28-1.5.37-3.01.74-4.5 1.2-1.32.4-2.7.65-4.01 1.12-.42.15-1.18.36-1.34.85-.12.4.13.99.24 1.36.15.51.33 1.02.47 1.54.21.8.42 1.89 1.07 2.46.67.59 1.75.21 2.52.08 1.08-.19 2.16-.4 3.23-.61 2.18-.45 4.34-.95 6.5-1.43 2.41-.54 4.83-1.02 7.24-1.52a.26.26 0 00.18-.31c-.56-2.29-1.2-4.55-1.76-6.84-.07-.32-.56-.19-.49.13z" fill="#0098FA"/>
  <path d="M151.37 50.15c-1.43-.8-1.78-2.07-.73-2.59.45-.22 1.17-.43 1.64-.59 2.99-1 5.88-1.61 8.8-2.49 2.29-.68 3.32-1 6.14-1.46.14-.03 1.08-.29 1.19-.19.16.15.1.43-.05.58-.15.14-.38.2-.59.24a125.68 125.68 0 00-14.65 4c-.25.08-1.7.52-1.9.71-.18.19.42.62.75.85" fill="#0098FA"/>
  <path d="M151.5 49.93c-.5-.3-1.17-.78-1.2-1.42-.05-.63.68-.83 1.15-1 1.48-.5 2.98-.95 4.49-1.36 1.58-.43 3.18-.83 4.75-1.28 1.17-.34 2.34-.71 3.52-1 1.15-.28 2.33-.44 3.48-.7.1-.02.57-.18.64-.1.13.15-1.19.46-1.29.48l-2.31.52c-3.04.7-6.05 1.53-9.04 2.47-1.29.4-2.6.8-3.88 1.27-.26.1-.77.22-.86.54-.12.47.6.87.9 1.08.26.19.52-.25.25-.44a4.42 4.42 0 01-.56-.44c-.14-.08 0-.15-.1-.02.1-.14.46-.2.62-.26.43-.16.88-.3 1.32-.44a136.09 136.09 0 019.79-2.86l2.52-.6c.8-.18 1.69-.27 2.47-.55.41-.15.84-.69.47-1.11-.23-.28-.72-.1-1.02-.04-1.26.28-2.53.46-3.78.77-1.35.34-2.68.78-4.02 1.15-1.74.48-3.49.92-5.22 1.41-.93.26-1.84.56-2.76.86-.58.18-1.32.34-1.75.81-.89 1 .33 2.21 1.16 2.7.29.17.54-.27.26-.44zM232.45 33.7c-.53.38-1.08.71-1.65 1.02-.1-.41-.21-.96-.33-1.25.3.03 1.7.16 1.98.24z" fill="#0098FA"/>
  <path d="M232.32 33.49c-.52.37-1.08.7-1.65 1l.37.16c-.08-.42-.19-.84-.33-1.25l-.24.33c.63.05 1.3.07 1.91.22.32.09.46-.4.14-.49-.66-.16-1.38-.19-2.05-.24a.25.25 0 00-.2.1.26.26 0 00-.05.22c.14.4.25.82.33 1.24a.26.26 0 00.27.19 14.42 14.42 0 001.76-1.04c.27-.19.02-.63-.26-.44z" fill="#0098FA"/>
  <path d="M179.25 39.75c-.64.6-1.59 1.78-2.06 2.52a.88.88 0 00-.1.77c.1.26.79-.1 1.06-.15.27-.06.5-.25.7-.43.64-.55 1.27-1.12 1.87-1.71.07-.07.15-.16.13-.26a.3.3 0 00-.08-.14 2.47 2.47 0 00-1.22-.74c-.12-.03-.27-.04-.35.06" fill="#FFD8CC"/>
  <path d="M179.07 39.57c-.78.74-1.57 1.64-2.1 2.57-.18.3-.34.93.02 1.17.3.2.75-.03 1.05-.13.58-.2.97-.52 1.43-.92l.86-.8c.22-.2.56-.43.7-.7.4-.76-1.4-1.7-1.97-1.3-.27.17-.01.62.26.43.22-.15 1.04.28 1.15.53.12.24-.12.33-.29.48a36.22 36.22 0 01-1.51 1.38c-.27.21-.59.37-.92.47-.07.02-.32.15-.38.12-.2-.11.03-.46.1-.57a13.55 13.55 0 011.96-2.37c.23-.22-.13-.58-.36-.36zM202.54 33.25l.59 2.56c.01.08.04.18.12.2h.1c.28-.03.56-.11.82-.25a.72.72 0 00.32-.28c.1-.2.03-.44-.04-.66l-.52-1.66a.32.32 0 00-.11-.19.3.3 0 00-.15-.03c-.36-.02-.71.03-1.05.12a.1.1 0 00-.07.04c-.01.02 0 .06.02.06.03 0 .02-.05 0-.04" fill="#FFD8CC"/>
  <path d="M202.3 33.31l.42 1.88c.07.3.08.94.46 1.07.35.11.9-.14 1.18-.32a.82.82 0 00.42-.85c-.07-.54-.32-1.1-.49-1.63-.11-.36-.16-.72-.59-.77-.27-.04-1.98.13-1.25.7.1.08.28 0 .34-.1l.02-.03c.03-.05.04-.1.03-.16 0-.05-.03-.1-.07-.14l-.02-.02c-.25-.2-.62.16-.36.36l.02.02-.04-.3-.02.02.35-.1-.02-.02.12.23v-.04l-.12.22c.25-.12.53-.17.8-.13.22.04.17.04.26.21.05.13.09.25.12.38.16.5.68 1.47.05 1.81a.99.99 0 01-.38.13c-.2 0-.07.06-.18-.08-.12-.14-.14-.6-.19-.8l-.38-1.67c-.07-.32-.56-.18-.49.14z" fill="#FFD8CC"/>
  <path d="M179.93 20.6l.05.03.1-.02-.15-.01z" fill="#FFB599"/>
  <path d="M179.8 20.82l.05.03c.06.03.13.04.2.02l.1-.01a.25.25 0 00.18-.28.26.26 0 00-.25-.22l-.15-.02a.25.25 0 00-.25.26.26.26 0 00.25.25l.15.02-.07-.5-.1.01.2.03-.05-.03a.25.25 0 00-.2-.03.26.26 0 00-.15.12.28.28 0 00-.03.1v.1a.25.25 0 00.12.15zM180.9 20.63c-1.28.4-3.83 1.5-5.14 1.78.13.5.32.47.43.96 1.75-.37 3.92-.37 5.58-1.04-.53-.33-.27-1.49-.87-1.7z" fill="#FFB599"/>
  <path d="M180.84 20.38c-1.72.57-3.38 1.4-5.15 1.79a.25.25 0 00-.15.12.26.26 0 00-.03.19c.11.34.34.61.43.96a.26.26 0 00.19.17.26.26 0 00.24-.06c.24-.23-.12-.59-.36-.36-.2.19.01.47.25.43 1.85-.38 3.8-.35 5.57-1.05a.26.26 0 00.18-.21.26.26 0 00-.12-.25c-.28-.21-.26-.74-.36-1.05-.09-.28-.23-.52-.5-.65-.3-.14-.55.3-.26.44.34.16.33.66.42.98.06.28.22.54.45.72l.06-.47c-1.78.7-3.73.66-5.58 1.04l.25.43c.24-.23-.12-.59-.36-.36l.43.11c-.1-.35-.33-.61-.44-.96l-.18.32c1.78-.4 3.43-1.22 5.15-1.78.31-.1.18-.6-.13-.5zM207.41 16.13c-1.66 0-3.19-.03-4.85-.02l-.23.36c-.18.33-.25.7-.19 1.08 1.65-.02 3.6-.32 5.26-.34.1 0 .07-.61.01-1.08z" fill="#FFB599"/>
  <path d="M207.41 15.88l-4.36-.02c-.49 0-.63-.03-.87.38-.24.4-.35.86-.3 1.31 0 .07.03.14.08.18.05.05.11.08.18.08 1.36-.02 2.7-.2 4.06-.29l.94-.05c.16 0 .34.03.46-.1.25-.25.1-.94.07-1.24-.04-.32-.55-.33-.51 0 .03.21.04.43.05.65 0 .06.03.24-.02.3.12-.15-.05-.1-.13-.12-.52-.07-1.14.06-1.66.1-1.09.1-2.17.21-3.26.23l.26.26c-.06-.52.12-.9.38-1.31l-.22.12c1.62 0 3.24.03 4.86.02.32 0 .32-.5 0-.5z" fill="#FFB599"/>
  <path d="M186.09 25.42l-1.15 6.7c-.04.32-.12.64-.25.93-.21.47-.61.82-1 1.16-1.67 1.51-4.89 5.56-4.76 5.67.6.47 1.38 1.27 1.88 1.79a83.11 83.11 0 005.97-4.8c.22-.19.41-.4.58-.62.18-.29.32-.6.41-.92l2.58-7.8c.08-.25.17-.5.36-.68a4.93 4.93 0 012.6-.55c.4.07.77.19 1.14.35l6.11 2.45c.32 1.38 1 3.58 1.36 5.07.83-.2 1.92-.43 2.76-.62-.62-2.08-.8-2.08-1.24-3.8-.07-.25-.72-2.63-.85-2.85a6.03 6.03 0 00-1.46-.98l-5.64-2.47a8.1 8.1 0 00-2.25-.74 8 8 0 00-1.86.07c-1.15.14-2.29.3-3.42.46-.42.06-.86.14-1.16.43-.22.2-.33.48-.45.76l-.53 1.3" fill="#FB9F9A"/>
  <path d="M185.84 25.36l-.98 5.71c-.14.85-.18 1.76-.78 2.43-.39.42-.84.78-1.24 1.2-.84.85-1.62 1.77-2.38 2.7-.56.67-1.14 1.35-1.61 2.08-.14.23-.25.4-.04.62.57.6 1.24 1.15 1.83 1.75a.26.26 0 00.3.04 89.9 89.9 0 004.57-3.6c.69-.57 1.57-1.15 2.08-1.9.5-.76.68-1.77.96-2.6l1.95-5.92c.07-.2.13-.46.25-.65.18-.3.48-.35.79-.44a4.63 4.63 0 011.59-.24c.9.06 1.8.58 2.62.9l4.75 1.9-.18-.17c.4 1.7.94 3.37 1.35 5.07.02.06.07.12.12.15.06.03.13.04.2.03l2.76-.63a.26.26 0 00.15-.12.26.26 0 00.02-.2c-.42-1.42-.96-2.8-1.36-4.24-.19-.67-.37-1.34-.58-2-.18-.54-.46-.78-.95-1.09-1.29-.82-2.8-1.33-4.2-1.94L195.12 23a6.5 6.5 0 00-3.37-.52c-1.38.15-2.81.28-4.17.56-.48.1-.9.3-1.18.72-.37.56-.57 1.27-.81 1.89-.13.3.36.43.48.13.23-.53.4-1.13.7-1.64.32-.57.95-.61 1.54-.7 1.18-.17 2.36-.34 3.54-.46 1.29-.13 2.35.17 3.52.68l2.3 1c1.28.57 2.65 1.04 3.85 1.75.26.16.62.33.81.57.11.14.15.34.2.51.2.6.36 1.22.53 1.83.4 1.45.95 2.85 1.38 4.29l.18-.32-2.76.63.3.17c-.25-1.02-.54-2.04-.82-3.05l-.41-1.5c-.14-.56-.13-.63-.66-.84l-5.4-2.16c-.48-.2-.97-.42-1.49-.5a4.24 4.24 0 00-1.7.16c-.44.12-.95.2-1.25.57-.32.38-.43.98-.58 1.43l-1.26 3.81-.63 1.9c-.2.63-.36 1.31-.65 1.9-.3.62-.93 1.05-1.43 1.49a84.69 84.69 0 01-5.2 4.14l.31.04c-.5-.51-1-1.04-1.55-1.51-.06-.05-.32-.31-.26-.06 0 .03 0-.01.02-.05.08-.1.14-.2.2-.3a32.6 32.6 0 011.77-2.24c.72-.86 1.46-1.71 2.25-2.5.4-.4.86-.75 1.21-1.2.46-.59.53-1.31.65-2.02l1.05-6.11c.05-.32-.44-.46-.5-.14h.01z" fill="#FB9F9A"/>
  <path d="M194.38 13.99c-.3 2.37-.63 4.67-.6 7.06.01.5.03 1-.13 1.48-1.44.2-2.89.35-4.34.45.48-2.88.97-5.76 1.48-8.63.02-.2.1-.4.2-.57.24-.28.66-.29 1.03-.27a.5.5 0 01.2.04c.06.03.11.08.16.13a1.4 1.4 0 001.66.23" fill="#fff"/>
  <path d="M194.13 13.99c-.19 1.4-.38 2.8-.5 4.2a29 29 0 00-.1 2.07c0 .73.08 1.49-.12 2.2l.18-.18a67 67 0 01-4.27.44l.24.33c.39-2.32.78-4.62 1.19-6.93.1-.57.18-1.14.3-1.7.12-.6.7-.87 1.2-.51.61.43 1.23.57 1.92.22.3-.14.04-.59-.25-.44-.59.3-.99.05-1.45-.28-.26-.19-.59-.18-.9-.15-1.08.13-1.05 1.26-1.2 2.12-.45 2.5-.89 5.02-1.3 7.53-.03.15.06.34.24.32 1.48-.1 2.94-.26 4.4-.46a.26.26 0 00.12-.07.26.26 0 00.07-.11c.18-.64.14-1.28.14-1.94 0-.76.03-1.51.1-2.27.1-1.47.3-2.94.5-4.4.04-.33-.47-.32-.51 0z" fill="#fff"/>
  <path d="M194.4 11.64a.84.84 0 01-.66-.03 1.1 1.1 0 01-.59-.8c-.02-.28.18-.53.4-.71.17-.13.37-.22.58-.26a.93.93 0 01.92.46l-.01-.04a3.02 3.02 0 001.47-.98c.23-.34.29-.75.34-1.15l-.03-.1c.25.03.48.13.68.29.57.4.99 1.02 1.07 1.73l.1.03c.39.17.77.29 1.17.43-.58.16-1.12.4-1.7.48l-.1.01a2.63 2.63 0 01-1.01 1.43 2.21 2.21 0 01-1.7.35h-.08c-.28.4-1.08 1.14-1.08 1.14a1.34 1.34 0 01-1.7-.57c-.04-.1 1.38-1.14 1.85-1.52" fill="#FFB599"/>
  <path d="M194.37 11.52a.84.84 0 01-.87-.26c-.23-.25-.2-.74.04-.97.43-.41 1.05-.44 1.4.08.02.03.04.04.07.05h.09a.13.13 0 00.06-.06.12.12 0 00.01-.1v-.04l-.1.16c.55-.17 1.1-.46 1.46-.92.26-.33.55-1.03.4-1.45l-.15.16c.9.12 1.53 1.07 1.66 1.91a.12.12 0 00.1.1c.42.13.84.31 1.26.46v-.25c-.6.18-1.18.4-1.8.5a.13.13 0 00-.05.03.13.13 0 00-.03.05 2.56 2.56 0 01-1.02 1.4c-.29.18-.6.28-.94.31-.2.02-.49-.08-.67-.03-.25.08-.4.39-.6.58-.18.2-.4.5-.65.6-.42.2-.96.03-1.27-.29-.05-.05-.16-.14-.17-.22.01.08.08-.02.17-.1.51-.47 1.1-.86 1.64-1.3.13-.1-.05-.28-.18-.18l-1.3 1.01c-.16.13-.59.37-.59.6 0 .24.4.52.56.62.36.21.96.3 1.34.07.33-.21.64-.6.9-.9l.15-.22c.06-.03.37.04.44.04.32 0 .64-.06.93-.18.59-.25 1.06-.71 1.33-1.29l.13-.36c.05-.04.35-.06.4-.07.45-.1.9-.28 1.35-.41.03 0 .05-.03.06-.05a.13.13 0 000-.15.12.12 0 00-.06-.05l-.68-.23c-.11-.05-.47-.12-.54-.22-.04-.06-.06-.4-.1-.51a2.46 2.46 0 00-.19-.36c-.32-.54-.87-1.06-1.51-1.16-.09 0-.2.06-.16.16.13.4-.2 1.07-.46 1.34-.34.34-.76.58-1.22.72a.13.13 0 00-.08.06.13.13 0 000 .1v.04l.23-.1c-.49-.74-1.55-.65-2 .1-.48.83.5 1.63 1.28 1.42a.13.13 0 00.08-.16.13.13 0 00-.05-.07.13.13 0 00-.1-.01z" fill="#FFB599"/>
  <path d="M190.87 13.64c-1.23 0-1.8.25-2.54.52-3.48 1.28-6.21 3.38-8.95 5.89.85.83 2.63 2.55 2.68 2.55.04 0 3.02-1.4 4.42-2.2" fill="#252A34"/>
  <path d="M190.88 13.38c-2.13.03-4.23 1.1-6.03 2.15a33.92 33.92 0 00-5.65 4.33.26.26 0 000 .37l2.03 1.95c.28.27.6.75 1 .62.63-.2 1.25-.58 1.83-.86.86-.42 1.72-.85 2.55-1.32.29-.16.03-.6-.25-.44-.76.43-1.54.82-2.32 1.2-.62.3-1.32.55-1.9.91a1.2 1.2 0 01-.14.06c-.02-.21.31.23.11-.04-.18-.24-.47-.44-.69-.65l-1.86-1.8v.37c1.68-1.55 3.44-3 5.4-4.18 1.76-1.04 3.83-2.13 5.92-2.16.32 0 .32-.5 0-.5z" fill="#252A34"/>
  <path d="M190.87 13.64a233.45 233.45 0 01-1.8 11.52c-.07.06-3.56.97-5.28 1.27.15-1.59.34-3.17.55-4.75" fill="#252A34"/>
  <path d="M190.62 13.64a198.27 198.27 0 01-1.7 10.93l-.06.33c-.01.12-.1.2.04.1.19-.15-.12-.02-.2 0l-.67.18c-1.42.38-2.86.74-4.31 1l.32.24c.15-1.56.33-3.12.54-4.68.04-.32-.45-.46-.49-.13-.21 1.6-.4 3.2-.56 4.81-.02.18.18.27.32.25 1.37-.24 2.72-.58 4.07-.93.47-.12 1.3-.14 1.43-.7.5-2.24.78-4.55 1.13-6.81.23-1.53.46-3.06.65-4.6.04-.32-.47-.32-.51 0z" fill="#252A34"/>
  <path d="M197.5 8.32c-.65-.3-2.19-.73-2.87-.51-.67.22-1.32.53-2.01.68-1.09.24-2.26.06-3.3.45-.34.11-.64.32-.86.59a1.05 1.05 0 00-.18 1 1.04 1.04 0 00.63.57c.29.08.59.1.87.04-.37.23-.7.63-.6 1.06.08.37.5.6.87.6.39 0 .75-.17 1.1-.34-.2.15-.36.34-.48.55a.3.3 0 00-.03.18c.02.1.13.17.23.2.39.11.8.1 1.16-.06a4.7 4.7 0 001.03-.59c.36-.25.72-.5 1.06-.77-.24.02-.48-.05-.68-.19-.44-.32-.43-1.22-.07-1.63.36-.42 1.16-.46 1.63-.18.06.03.03.16.1.16s.14-.02.2-.05c.8-.42 1.9-.94 2.2-1.76" fill="#FF6B24"/>
  <path d="M197.62 8.1a5.87 5.87 0 00-2.74-.6c-.57.06-1.11.36-1.65.55-.71.24-1.43.3-2.19.35-1.02.06-2.47.18-2.95 1.26-.53 1.18.68 1.87 1.7 1.74l-.13-.48c-.56.38-1.07 1.11-.53 1.73.58.66 1.47.35 2.14.03l-.3-.4c-.25.23-.67.6-.58.98.1.39.59.45.9.46 1.12.03 2.13-.9 2.96-1.53.19-.15.15-.48-.13-.48-.5 0-.77-.27-.76-.77 0-.33.13-.63.42-.78.26-.14.77-.18 1.03 0 .13.1.11.22.32.23.21 0 .47-.18.65-.27.27-.15.55-.3.81-.47.47-.3.9-.67 1.13-1.2.13-.3-.3-.56-.44-.26-.2.48-.58.8-1 1.06-.35.22-.84.58-1.25.64l.25.06c-.11-.1-.12-.2-.31-.28-.22-.1-.46-.14-.7-.13-.47 0-.96.2-1.21.62-.54.92-.03 2.08 1.07 2.06l-.14-.48c-.52.4-1.05.83-1.63 1.15-.3.18-.64.3-1 .31a.87.87 0 01-.36-.04c-.13 0-.14-.05-.04-.14.05-.14.26-.28.36-.38.23-.2-.06-.52-.3-.4-.38.18-.83.4-1.24.24-.66-.26-.26-.85.14-1.12.18-.13.14-.51-.13-.48-.56.08-1.5-.08-1.29-.88.15-.57.8-.82 1.3-.94.95-.23 1.94-.12 2.89-.33.81-.18 1.63-.74 2.47-.73.74.01 1.53.24 2.21.54.3.13.56-.31.26-.44z" fill="#FF6B24"/>
  <path d="M194.7 13.98c.58-.12.94-.13 1.48.1s1.04.56 1.48.95c.1.1.21.17.33.23.13.04.27.06.41.06 1.51.05 3.02.21 4.51.48l-.21 4.8a.17.17 0 01-.05.15.17.17 0 01-.16.04l-4.54.22c-.03 1.07.02 1.84-.05 3.15-1.29-.68-4.08-1.54-4.08-1.54s.09-6.08.82-8.64" fill="#252A34"/>
  <path d="M194.77 14.23c.78-.16 1.4.05 2.05.48.44.3.82.78 1.37.85.7.09 1.45.07 2.17.14.83.08 1.66.2 2.48.34l-.2-.24-.1 2.4-.05 1.1-.03.6c0 .13.05.46 0 .56.06.11 0 .14-.17.08h-.2l-.6.04-1.18.06-2.37.1a.26.26 0 00-.25.26c-.03 1.06 0 2.1-.06 3.16l.39-.22a25.9 25.9 0 00-4.14-1.57l.19.25c.02-1.1.06-2.2.13-3.3.1-1.75.2-3.57.68-5.27.09-.32-.4-.45-.49-.14-.48 1.7-.58 3.53-.69 5.29a72.32 72.32 0 00-.14 3.42.26.26 0 00.19.24c1.35.42 2.75.87 4.01 1.52a.25.25 0 00.26 0 .26.26 0 00.13-.23c.05-1.05.02-2.1.05-3.15l-.26.26 2.77-.13 1.38-.07c.22-.01.58.04.75-.15.2-.22.13-.66.14-.92l.06-1.4.13-2.8a.25.25 0 00-.06-.15.25.25 0 00-.13-.09 34.22 34.22 0 00-3.6-.44c-.4-.03-.88.03-1.26-.1-.32-.1-.61-.44-.9-.64-.28-.2-.6-.38-.92-.52a2.66 2.66 0 00-1.67-.12c-.32.07-.19.56.13.5zM176.6 43.96c.02-.49.09-1.2.25-1.55.08-.17.57.44.71.3.14-.12.74-1.17 1.28-.98.49.18.34 1 .35 1.17 0 .52-.04 1.03-.12 1.54-.05.31-.14.51-.27.9-.17.48-.23.62-.55 1.09-.2.29-.33.45-.69.46-.3 0-.58-.2-.73-.47a2.13 2.13 0 01-.23-.88 7.16 7.16 0 010-1.58" fill="#252A34"/>
  <path d="M176.86 43.96c0-.33.04-.66.1-.98 0-.08.1-.29.07-.34.05-.1.01-.1-.12.02l.1.08c.15.2.5.32.7.18.28-.19.42-.58.69-.8.54-.44.55.3.54.68-.02 1.01-.13 1.98-.55 2.91-.12.28-.28.53-.49.76-.36.36-.81 0-.95-.4a5.22 5.22 0 01-.09-2.1c.04-.33-.47-.33-.5 0-.1.93-.24 3.06 1.13 3.17 1.09.08 1.65-1.73 1.8-2.55.1-.54.15-1.09.16-1.64 0-.36.05-.75-.12-1.08a.71.71 0 00-.95-.34c-.3.14-.8.57-.9.9a.38.38 0 01-.07.08c.13-.15.13.05.01-.1a1.05 1.05 0 00-.25-.18c-.14-.08-.3-.14-.44-.04-.41.28-.36 1.35-.38 1.78 0 .33.5.33.51 0zM203.18 37.01c-.11-.22-.18-.45-.21-.7a.72.72 0 01.26-.64c.18-.12.63.09.84.05a.68.68 0 00.55-.71c0-.07-.1-.27-.08-.33.04-.2.32-.24.53-.2.65.13 1.16.69 1.8.87.57.17 1.3.04 1.67.5.07.08.1.18.1.28 0 .18-.18.29-.34.35-.43.18-.88.3-1.34.36-.84.14-1.5.15-2.34.27-.31.04-1.1.07-1.4-.02" fill="#252A34"/>
  <path d="M203.4 36.88c-.15-.33-.36-.97.17-.97.18 0 .34.09.53.06a.93.93 0 00.73-.64c.04-.15-.02-.32.01-.46l-.03-.09a.2.2 0 01.23-.03c.16 0 .32.1.46.18.46.23.86.56 1.36.7.37.09 1.29 0 1.38.43.06.25-.14.24-.34.3-.17.06-.34.1-.5.14-.34.07-.68.12-1.01.17l-1.78.19c-.43.04-.91.09-1.33-.01-.32-.08-.45.41-.13.49.6.14 1.23.05 1.84-.02.85-.1 1.7-.15 2.54-.33.46-.1 1.4-.28 1.35-.92-.05-.67-.88-.8-1.4-.87a2.86 2.86 0 01-1.19-.4c-.3-.18-.6-.38-.94-.5-.39-.13-1.06-.14-1.07.42 0 .1.07.19.07.29.01.36-.23.46-.53.43-.24-.02-.46-.12-.7 0-.65.33-.38 1.2-.17 1.7.13.3.56.04.44-.25z" fill="#252A34"/>
  <path d="M196.84 10.56c.28-.26.7-.42 1.01-.1.12.11.3-.07.18-.19-.4-.41-.99-.24-1.37.1-.12.12.06.3.18.19z" fill="#1F2783"/>
  <path d="M197.6 9.38a.9.9 0 01.72.07l.05.02a.13.13 0 00.1-.03.13.13 0 00.05-.08l-.01-.05a.12.12 0 00-.06-.08 1.16 1.16 0 00-.92-.1c-.16.05-.09.3.07.24z" fill="#FF6B24"/>
  <path d="M194.03 10.57l.2.27.08.12c.01.03.07.14.06.08l.04-.09c.03 0 .02 0 0 0l-.09.02-.13.03-.28.06c-.16.03-.1.27.07.24l.41-.08c.1-.02.22-.04.24-.16.01-.1-.08-.19-.13-.26l-.25-.36c-.1-.13-.31 0-.22.13zM190.9 13.69c-.29-.1-.49-.49-.37-.78v-.07a.13.13 0 00-.12-.09c-.02 0-.05 0-.07.02a.76.76 0 01-.84.03.76.76 0 01-.22-.2c-.25-.37-.1-.86.16-1.16a.12.12 0 00.03-.06v-.08a.13.13 0 00-.12-.08 1.59 1.59 0 01-1.26-.92c-.07-.14-.3-.01-.22.13a1.85 1.85 0 001.48 1.04l-.08-.21c-.38.43-.53 1.1-.13 1.56a1 1 0 001.33.17l-.19-.14c-.16.42.15.94.56 1.08.15.06.22-.2.06-.24zM189.75 23.28c1.29-.16 2.57-.3 3.85-.43.17-.02.17-.27 0-.26l-3.85.43c-.16.02-.16.28 0 .26zM178.7 39.97c.63.69 1.3 1.34 2 1.95.13.1.31-.07.19-.18-.7-.6-1.38-1.26-2-1.95-.11-.12-.3.06-.18.18zM201.9 34.48c1.02-.14 2.01-.46 3.01-.7.16-.04.1-.28-.06-.24-1 .24-2 .55-3.01.7-.17.02-.1.26.06.24zM196.7 11.64c.2.27.5.46.83.5.16.03.22-.21.06-.24-.26-.03-.5-.17-.67-.38-.1-.13-.32 0-.22.13z" fill="#1F2783"/>
  <path d="M193.06 26.45a2.81 2.81 0 00-1.9.27c-.4.24-.57.53-.75.94-.65 1.41-1.04 2.93-1.47 4.41l-.54 1.8c-.2.67-.33 1.37-.64 2-.23.5-.61.79-1.02 1.13l-1.55 1.3a86.9 86.9 0 01-4.46 3.42c-.13.1 0 .32.13.22a97.65 97.65 0 006.56-5.19c.86-.73.98-2.04 1.3-3.06.43-1.37.8-2.77 1.24-4.14.24-.73.47-1.6.9-2.24.46-.66 1.43-.72 2.13-.61.16.02.23-.22.07-.25zM170.63 44.24c.4 2.42 1.1 4.77 1.74 7.13.01.04.03.06.06.08a.13.13 0 00.19-.14c-.64-2.37-1.33-4.72-1.74-7.14-.03-.16-.28-.1-.25.07zM201.41 33c1.02-.14 2.02-.46 3.01-.7.16-.04.1-.28-.06-.25-1 .24-2 .56-3.01.7-.16.03-.1.27.06.25z" fill="#1F2783"/>
  <path d="M179.56 38.6c.75.83 1.55 1.61 2.4 2.34.11.1.3-.07.17-.18a27.77 27.77 0 01-2.4-2.34c-.1-.12-.28.06-.17.18zM197.94 11.18c-.22.47-.46.94-.93 1.2-.5.27-1.08.35-1.64.33-.17 0-.17.25 0 .26.6.02 1.23-.07 1.77-.37.5-.28.79-.78 1.01-1.29.07-.15-.15-.28-.22-.13z" fill="#1F2783"/>
  <path d="M195.23 12.76c-.28.34-.52.7-.8 1.04-.1.12.07.3.18.18.28-.33.52-.7.8-1.04.1-.12-.07-.3-.18-.18zM198.08 11.34l1.85-.64c.15-.05.08-.3-.07-.24l-1.84.64c-.16.05-.1.3.06.24z" fill="#1F2783"/>
  <path d="M207.51 16.07c.94-.24 2.93-1.25 3.02-1.28.1-.02.26-.04.32.04.08.11-.05.23-.14.34-.13.13-.35.12-.51.2l-.74.4" fill="#FFB599"/>
  <path d="M207.56 16.25c.78-.21 1.53-.57 2.25-.91.18-.08.54-.35.75-.35.13 0-.4.2-.44.21-.26.11-.5.27-.76.4-.22.13-.02.46.2.34l.58-.32c.18-.09.38-.12.55-.21.17-.1.35-.28.37-.47.03-.4-.43-.39-.68-.29-1 .37-1.89.95-2.92 1.23-.24.07-.14.44.1.37z" fill="#FFB599"/>
  <path d="M210.35 15.34c.38-.2.63-.3.8-.4.23-.13.45.05.4.14a.8.8 0 01-.24.23c-.68.48-1.4.88-2.17 1.19" fill="#FFB599"/>
  <path d="M210.45 15.5c.22-.1.46-.2.68-.32.17-.1.3-.2.09-.04l-.41.28c-.55.35-1.12.65-1.71.9-.23.09-.13.46.1.36.52-.21 1.03-.46 1.52-.75.27-.16.9-.44 1.01-.77.07-.23-.1-.4-.31-.44-.36-.06-.86.3-1.15.46-.22.11-.03.44.19.33z" fill="#FFB599"/>
  <path d="M211.4 15.36a.17.17 0 01.23.08c.04.08.2.15.16.22-.05.08-.31.17-.38.22-.8.59-1.89.89-2.72 1.44.2.34.75.5.9.87 0 .03.07.1.07.13-.01.05-.13.04-.19.05-.29.06-.56-.12-.8-.29-.4-.28-.88-.58-1.28-.87-.05-.03 0-.05-.04-.11a.43.43 0 01-.03-.2c0-.3 0-.61.19-.83" fill="#FFB599"/>
  <path d="M211.41 15.55a.18.18 0 01.16.1l-.05-.04c-.04.04-.3.17-.33.2-.27.17-.56.32-.85.46-.59.29-1.19.53-1.74.89a.2.2 0 00-.07.26c.29.39.74.56.97 1l.03-.24c-.1.08-.54-.11-.69-.21l-.71-.49c-.16-.1-.5-.25-.6-.43-.11-.25.01-.68.15-.88.13-.2-.2-.4-.33-.2-.2.32-.27.7-.21 1.06.05.35.3.45.58.64.44.3 1.5 1.3 2.07.78a.2.2 0 00.03-.23c-.23-.45-.67-.6-.96-1l-.06.27c.86-.56 1.83-.93 2.72-1.44.18-.11.48-.18.46-.44-.02-.26-.33-.45-.56-.44-.24 0-.25.4 0 .38zM176.16 23.37c-.63.47-.94 1.11-1.8 1.41-.16.06-1 .32-1.04.15-.02-.09.48-.5.55-.55a.68.68 0 01.24-.1c.28-.08.42-.62.7-.7-.73.15-1.9.24-2.63.4-.24.05-.42.1-.56-.1-.02-.01.13-.1.13-.12a.1.1 0 01.05-.06c.14-.1.3-.18.48-.24a10 10 0 011.77-.45l-1.45.3-.56.1a2.38 2.38 0 01-.61-.04.18.18 0 01-.06-.05c-.04-.09.06-.17.14-.2.7-.3 1.46-.46 2.21-.61-.58.06-1.17.1-1.76.1-.18 0-.46-.09-.45-.14.08-.3.66-.23 1-.25a16.8 16.8 0 011.97-.02c.65.03 1.08.02 1.96.05" fill="#FFB599"/>
  <path d="M175.98 23.19c-.4.3-.7.71-1.1 1.02-.35.24-.74.4-1.15.48-.06 0-.23 0-.25.04-.13-.01-.09.07.12.23l.06-.07c.14-.06.22-.24.35-.3.2-.1.33-.12.49-.28.15-.17.23-.41.44-.51.28-.14.07-.52-.2-.47-.51.1-1.04.16-1.56.23-.24.03-1.2.32-1.38.14l.04.31c.2-.28.71-.38 1.03-.47.4-.12.82-.21 1.25-.28l-.14-.5-1.08.23-.55.11s-.63.02-.66.05l.07.14a7.58 7.58 0 01.91-.29c.37-.1.75-.17 1.12-.24.28-.06.22-.54-.07-.5l-1.07.08c-.13 0-.85.1-.92 0v.27c.1-.22.97-.14 1.17-.15.44-.02.88-.02 1.32 0l2.23.05c.33 0 .33-.5 0-.51-.97-.03-1.95-.07-2.92-.06-.5 0-1 .01-1.5.04-.29.02-.6.08-.73.37a.25.25 0 00-.04.13c0 .05.01.09.04.13.15.21.42.25.67.26.58.03 1.18-.04 1.76-.1l-.07-.5c-.4.08-2.86.38-2.52 1.15.16.36.8.26 1.1.22.63-.08 1.25-.25 1.88-.38.32-.06.18-.54-.14-.49-.6.1-1.19.25-1.76.45-.32.12-.62.26-.82.54a.25.25 0 00.04.3c.4.39.95.13 1.43.06.67-.1 1.35-.16 2.01-.3l-.2-.46c-.28.14-.34.45-.58.63-.2.16-.44.22-.64.4-.23.2-.65.66-.15.84.37.12 1-.14 1.34-.29.69-.3 1.1-.93 1.69-1.4.26-.2-.1-.55-.36-.35z" fill="#FFB599"/>
  <path d="M203.15 17.95c1-.22 2.1-.2 3.12-.24.54-.03 1.02-.1 1.51.17.35.2.68.42 1.04.6.32.15.87.38 1.05-.1.18-.48-.6-.95-.87-1.2-.12-.1-.3.08-.18.19.2.17.6.42.7.65.3.67-.71.16-.87.07-.43-.23-.88-.67-1.37-.68-.73-.02-1.48.06-2.22.1-.66.04-1.33.05-1.98.19-.16.03-.1.28.06.24z" fill="#1F2783"/>
  <path d="M208.95 17.4a7.1 7.1 0 002-.8c.3-.18 1.08-.52 1.22-.9.13-.34-.23-.5-.5-.48-.27.01-.48.15-.7.28l-1.18.65c-.15.08-.02.3.13.22l1.35-.75c.03-.01.75-.39.58.09-.04.1-.34.23-.43.29-.8.51-1.61.95-2.54 1.15-.16.04-.1.29.06.25zM210.9 14.75l-1.49.75c-.14.08-.02.3.13.22l1.48-.75c.15-.08.02-.3-.13-.22zM174.63 23.6c-.48.3-1.28.64-1.6 1.15-.2.33.05.55.38.6.5.07 1.05-.28 1.48-.5a3.9 3.9 0 001.47-1.13c.1-.13-.12-.26-.22-.13a4.69 4.69 0 01-2.12 1.4c-.13.05-.53.2-.65.09-.2-.19.06-.39.2-.49.37-.28.8-.52 1.2-.77.13-.08 0-.3-.14-.22z" fill="#1F2783"/>
  <path d="M176.25 23.78c1.87-.21 3.72-.54 5.55-.99.16-.04.09-.28-.07-.24-1.8.43-3.63.76-5.48.98-.16.01-.16.27 0 .25zM174.66 23.58c-.76.19-1.54.32-2.32.41-.2.03-.46.1-.64.02-.15-.06-.36-.02-.05-.3.1-.08.32-.09.44-.11.64-.13 1.26-.3 1.9-.42.16-.03.1-.27-.06-.24-.44.08-.87.18-1.3.28-.35.08-.8.1-1.11.28-.48.27-.38.64.11.76.44.1.97-.05 1.4-.12.57-.1 1.15-.17 1.7-.3a.13.13 0 00.08-.16.13.13 0 00-.05-.08.13.13 0 00-.1-.01zM173.7 22.28c-.68.15-1.36.28-2.04.45a.13.13 0 00-.07.06.13.13 0 00-.02.1.13.13 0 00.16.09c.67-.17 1.36-.3 2.04-.45.16-.03.1-.28-.06-.25z" fill="#1F2783"/>
</svg>
