<svg width="246" height="216" fill="none" xmlns="http://www.w3.org/2000/svg">
  <path d="M84.7 83.2c37.9-7.7 63-15.1 109.2-23.8 1.2-.3 7.7-.2 9.2-.3 3.2-.1 12.1-1.1 14 .2.3.2 1 1-2.5 3.1-2.7 1.7-5 3.2-7.8 4.7-2.8 1.4-3.9 2.5-7.6 4a100 100 0 01-9.8 3.2c-6.4 1.7-12.8 3.3-19.3 4.8-13 3-26.1 5.8-39.2 8.5-13.3 2.9-26.9 5.4-40 8.7-.6.2-2.2.9-2.5.3-1.8-3.8-3-7.7-3.6-11.8-.2-.9.2-2 1-2" fill="#D9E4F4"/>
  <path d="M84.9 83.8c16.8-3.5 33.6-7.5 50.4-11.4 18.4-4.3 36.9-8.3 55.4-11.9 1.9-.3 3.6-.7 5.4-.8h4.9c2.8 0 5.6-.3 8.4-.5a42 42 0 016.9.3l.6.2c-.1 0 0 0 0 0 0 .5-.7 1-1 1.2-1 .9-2.2 1.5-3.4 2.2a120 120 0 01-6.5 3.8c-1.6.9-3.1 2-4.8 2.7a49 49 0 01-6.2 2.5c-4.7 1.6-9.4 2.7-14.2 3.9-10.9 2.7-21.9 5.1-32.9 7.5A4232.6 4232.6 0 0198.3 94c-2.6.6-5.2 1.1-7.8 1.9l-1 .3c-.8.2-.9-.3-1.1-1a42 42 0 01-1.6-4.1c-.3-1-2.4-7.6-1-7.7.7 0 .7-1 0-1-2.2.1-1.5 3-1.2 4.4.6 2.8 1.4 5.6 2.5 8.2.3.7.5 1.9 1.2 2.3.7.3 1.6-.1 2.2-.3 2.6-.8 5.4-1.3 8-2 11.7-2.6 23.3-4.9 35-7.3 11.7-2.5 23.4-5 35.1-7.7a770 770 0 0017.7-4.3c4.4-1.1 8.8-2.3 13-4 2-.9 3.9-1.8 5.7-3 2-1.2 4.3-2.3 6.3-3.6L215 63c.8-.5 1.7-1 2.4-1.8.5-.6.9-1.4.3-2-.6-.7-2-.8-2.8-.9a39 39 0 00-5.4 0c-3 .2-6 .4-9 .4-1.6 0-3.4 0-5.1.2-2 0-4 .5-5.8.9a1187.8 1187.8 0 00-45.2 9.6c-17.6 4-35.1 8.3-52.7 12l-7 1.5c-.7 0-.4 1.1.3 1z" fill="#D9E4F4"/>
  <path d="M91.5 81.3c.7 3 1.8 6.6 2.6 9.7l1 4.4-11 2.3c-9.2 2-17.4 4-26.3 5.4-.7.1-1.4.2-2 0-.9-.4-1.3-1.3-1.7-2.2l-1-3.2c-.2-.7-1.6-4.9-1.4-5.5.3-.9 3.6-1.8 4.5-2 2.7-.7 3.4-.8 5.4-1.5 7.4-2.4 22.4-5.4 30-7.4" fill="#0098FA"/>
  <path d="M91 81.4c1.1 4.8 2.5 9.4 3.6 14.2l.4-.7-10.7 2.2c-8.1 1.7-16.1 3.7-24.3 5.1-1 .2-2 .5-3 .5-1.5 0-2-1-2.5-2.3l-1.3-4-1-3.5c0-.5 0-.6.3-.8.6-.4 1.3-.7 2-.9 2.5-.9 5.2-1.3 7.8-2.2l8.5-2.2c7-1.7 14-3.1 20.8-5 .7-.2.4-1.2-.3-1-6.5 1.8-13.1 3.1-19.7 4.7-3.1.8-6.3 1.5-9.3 2.5-2.8.8-5.7 1.3-8.4 2.3-.8.3-2.4.7-2.7 1.7-.3.9.2 2 .5 2.9l1 3.1c.4 1.7.8 4 2.1 5.1 1.4 1.2 3.7.5 5.3.2l6.7-1.3 13.5-3 15-3a.5.5 0 00.3-.7L92 81.2c-.2-.7-1.2-.4-1 .2z" fill="#0098FA"/>
  <path d="M51.7 93.2c-3-1.6-3.7-4.2-1.5-5.3 1-.5 2.4-1 3.4-1.2 6.2-2.1 12.2-3.4 18.3-5.2 4.7-1.4 6.8-2 12.7-3 .3 0 2.2-.6 2.5-.4.3.3.2.9-.2 1.2a261.4 261.4 0 00-31.6 8.8c-.5.1-3.5 1-3.9 1.4-.4.4.9 1.3 1.6 1.8" fill="#0098FA"/>
  <path d="M52 92.8c-1-.6-2.4-1.6-2.5-3-.1-1.3 1.4-1.7 2.4-2 3-1 6.2-2 9.3-2.8l9.8-2.7c2.5-.7 4.9-1.5 7.3-2l7.2-1.5c.2 0 1.2-.4 1.4-.2.3.3-2.5 1-2.7 1l-4.8 1c-6.3 1.5-12.5 3.2-18.7 5.2-2.7.8-5.4 1.6-8 2.6-.6.2-1.7.4-1.9 1.1-.2 1 1.3 1.8 1.9 2.2.6.4 1-.5.5-.9a9.3 9.3 0 01-1.1-.9c-.3-.2 0-.3-.3 0 .3-.3 1-.4 1.3-.6l2.8-.9a282.7 282.7 0 0125.5-7.1c1.7-.4 3.5-.6 5.1-1.2.9-.3 1.8-1.4 1-2.3-.5-.5-1.5-.2-2.1 0l-7.9 1.6-8.3 2.3-10.8 3-5.7 1.7c-1.2.4-2.8.7-3.7 1.7-1.8 2 .7 4.6 2.5 5.6.5.3 1-.6.5-1zM219.8 59.3l-3.4 2-.7-2.5c.6 0 3.5.3 4.1.5z" fill="#0098FA"/>
  <path d="M219.5 58.8a30 30 0 01-3.4 2.1l.8.3-.7-2.6-.5.7c1.3.1 2.7.2 4 .5.6.1 1-.9.2-1-1.3-.4-2.8-.4-4.2-.5a.5.5 0 00-.5.6 18.9 18.9 0 01.8 2.8.5.5 0 00.4.2h.2l3.5-2.2c.5-.4 0-1.3-.6-.9z" fill="#0098FA"/>
  <path d="M109.5 71.7a33.6 33.6 0 00-4.3 5.2 1.9 1.9 0 00-.2 1.6c.2.6 1.7-.2 2.2-.3.6-.1 1-.5 1.5-.9a87.6 87.6 0 004.1-4l-.1-.3a5.1 5.1 0 00-2.6-1.5h-.7" fill="#FFD8CC"/>
  <path d="M109.1 71.4a24.6 24.6 0 00-4.3 5.3c-.4.6-.7 1.9 0 2.4.7.4 1.6 0 2.2-.3 1.2-.4 2-1 3-1.9l1.8-1.6c.4-.4 1.1-1 1.4-1.5.8-1.5-2.9-3.5-4-2.7-.6.4 0 1.3.5 1 .4-.4 2.1.5 2.4 1 .2.5-.3.7-.6 1a69.6 69.6 0 01-3.2 2.9l-1.9 1-.8.2c-.4-.2.1-1 .2-1.2l1.3-1.8c.9-1 1.8-2.1 2.8-3 .5-.5-.3-1.3-.8-.8zM157.8 58.3l1.2 5.3c0 .2.1.4.3.4h.2c.6 0 1.1-.2 1.7-.5.2-.1.5-.3.6-.6.2-.4.1-.9 0-1.3l-1.1-3.5c0-.1-.1-.3-.3-.3l-.3-.1a7 7 0 00-2.1.2l-.2.1v.1c.1 0 .1 0 0 0" fill="#FFD8CC"/>
  <path d="M157.3 58.5l.9 3.8c.1.7.1 2 1 2.2.6.3 1.8-.2 2.4-.6a1.7 1.7 0 00.8-1.8c-.1-1-.6-2.3-1-3.3-.2-.8-.3-1.5-1.2-1.6-.6-.1-4 .2-2.6 1.4.2.2.6 0 .7-.2a.5.5 0 000-.7c-.6-.4-1.3.3-.8.7v-.6l.6-.1.2.4-.2.4c.5-.3 1-.4 1.7-.3.4.1.3 0 .5.5l.2.7c.4 1 1.5 3 .1 3.8a2 2 0 01-.7.2c-.4 0-.2.2-.4-.1-.3-.3-.3-1.2-.4-1.7l-.8-3.4c-.2-.7-1.2-.4-1 .3z" fill="#FFD8CC"/>
  <path d="M111 32.2h.2-.3zM110.7 32.7h.7a.5.5 0 00.4-.5.5.5 0 00-.6-.5h-.3a.5.5 0 00-.5.5.5.5 0 00.5.5h.3l-.1-1h-.2l.4.1h-.1a.5.5 0 00-.5.9zM113 32.3c-2.7.8-8 3-10.7 3.6.3 1 .6 1 .9 2 3.6-.7 8.1-.7 11.5-2.1-1-.7-.5-3-1.8-3.5z" fill="#FFB599"/>
  <path d="M112.8 31.8c-3.6 1.1-7 2.8-10.7 3.6a.5.5 0 00-.3.7c.2.7.7 1.3.9 2a.5.5 0 00.6.3l.2-.1c.5-.5-.2-1.2-.7-.7-.4.3 0 1 .5.8 3.8-.7 7.9-.7 11.6-2.1a.5.5 0 00.3-.5.5.5 0 00-.2-.5c-.6-.4-.6-1.5-.8-2.1-.1-.6-.4-1.1-1-1.4-.6-.3-1.1.6-.5 1 .7.2.7 1.3.8 2 .2.5.5 1 1 1.4v-1c-3.6 1.5-7.6 1.4-11.5 2.2l.5.9c.5-.5-.2-1.2-.7-.7l.9.2c-.2-.7-.7-1.3-1-2l-.3.7c3.7-.8 7.1-2.6 10.7-3.7.6-.2.3-1.2-.3-1zM168 23h-10.2l-.4.7c-.4.7-.5 1.4-.4 2.2 3.4 0 7.4-.6 10.9-.7.2 0 .1-1.3 0-2.2z" fill="#FFB599"/>
  <path d="M168 22.5h-9.1c-1 0-1.3-.1-1.8.7-.5.8-.8 1.8-.7 2.7a.5.5 0 00.6.5c2.8 0 5.6-.4 8.4-.5l2-.1c.3 0 .6 0 .9-.3.5-.5.2-1.9.1-2.5 0-.7-1.1-.7-1 0v1.9c.3-.3 0-.2-.2-.2-1.1-.1-2.4.1-3.5.2l-6.7.5.5.5c-.1-1 .3-1.8.8-2.7l-.5.3H168c.7 0 .7-1 0-1z" fill="#FFB599"/>
  <path d="M123.7 42.2L121.3 56c0 .7-.2 1.3-.5 2-.4.9-1.3 1.6-2 2.3a75.2 75.2 0 00-10 11.7 48 48 0 014 3.7 171.8 171.8 0 0013.5-11.2c.4-.6.7-1.2.9-1.9l5.3-16.1c.2-.5.4-1 .8-1.4a10.2 10.2 0 015.4-1.1c.8.1 1.6.4 2.3.7l12.7 5 2.8 10.5 5.7-1.3c-1.2-4.3-1.6-4.2-2.5-7.8-.2-.5-1.5-5.4-1.8-5.9-.3-.5-2.5-1.8-3-2L143.2 38c-1.5-.7-3-1.3-4.7-1.5-1.3-.2-2.6 0-3.8.1l-7.1 1c-.9 0-1.8.2-2.4.8-.5.5-.7 1-1 1.6l-1 2.7" fill="#FB9F9A"/>
  <path d="M123.2 42l-2 11.8c-.3 1.8-.4 3.7-1.7 5-.8 1-1.7 1.7-2.5 2.5a88.9 88.9 0 00-5 5.6c-1.1 1.4-2.3 2.8-3.3 4.3-.3.5-.5.8-.1 1.3 1.2 1.2 2.6 2.3 3.8 3.6a.5.5 0 00.6 0c3.3-2.3 6.4-4.8 9.5-7.4 1.4-1.1 3.2-2.4 4.3-4 1-1.5 1.4-3.5 2-5.3l4-12.2.5-1.3c.4-.6 1-.8 1.7-1 1-.2 2.2-.5 3.3-.4 1.8.1 3.7 1.2 5.4 1.8l9.9 4-.4-.4c.8 3.5 2 7 2.8 10.5a.5.5 0 00.7.3l5.7-1.3a.5.5 0 00.3-.6c-.8-3-2-5.8-2.8-8.8-.4-1.4-.7-2.7-1.2-4-.4-1.2-1-1.7-2-2.4-2.6-1.6-5.8-2.7-8.7-4l-5.6-2.4c-2.3-1-4.5-1.4-7-1-2.8.2-5.8.5-8.6 1-1 .3-1.9.7-2.5 1.5-.7 1.2-1.1 2.7-1.6 4-.3.6.7.9 1 .2.4-1 .8-2.3 1.4-3.4.7-1.1 2-1.2 3.2-1.4l7.3-1c2.7-.2 4.9.4 7.3 1.4l4.8 2.1c2.7 1.2 5.5 2.2 8 3.6.5.4 1.3.7 1.7 1.2l.4 1 1 3.8 3 8.9.3-.7-5.7 1.3.6.4-1.7-6.3-.8-3.1c-.3-1.2-.3-1.3-1.4-1.7l-11.2-4.5c-1-.4-2-.9-3-1-1.3-.2-2.5 0-3.6.3-1 .2-2 .4-2.6 1.2-.7.8-.9 2-1.2 3l-2.6 7.8-1.3 4c-.4 1.2-.8 2.6-1.4 3.8-.6 1.3-1.9 2.2-3 3.1a174.7 174.7 0 01-10.7 8.6h.6c-1-1-2-2.1-3.2-3-.1-.2-.6-.7-.5-.2V72l.4-.6a67.2 67.2 0 018.4-9.8c.8-.8 1.8-1.6 2.5-2.5 1-1.2 1-2.7 1.3-4.2l2.2-12.6c.1-.6-1-1-1-.3z" fill="#FB9F9A"/>
  <path d="M140.9 18.6c-.7 4.9-1.3 9.6-1.2 14.5 0 1 0 2.1-.3 3-3 .5-6 .8-9 1a1677.7 1677.7 0 013.5-19c.5-.6 1.3-.6 2-.5h.5l.3.3a3 3 0 003.5.5" fill="#fff"/>
  <path d="M140.4 18.6c-.4 2.8-.8 5.7-1 8.6a60 60 0 00-.3 4.3c0 1.5.2 3-.2 4.5l.3-.3c-2.9.4-5.9.7-8.8.9l.5.7 2.4-14.3.7-3.6c.2-1.2 1.4-1.7 2.5-1 1.2.9 2.5 1.2 4 .5.6-.3 0-1.3-.6-1-1.2.7-2 .2-3-.5-.5-.4-1.2-.4-1.8-.3-2.3.2-2.2 2.6-2.5 4.3L129.9 37c0 .3.1.7.5.6a138.2 138.2 0 009.3-1l.2-.3c.4-1.3.3-2.6.3-4 0-1.6 0-3.1.2-4.7.2-3 .6-6 1-9 0-.7-1-.7-1 0z" fill="#fff"/>
  <path d="M141 13.7a1.8 1.8 0 01-1.5 0 2.3 2.3 0 01-1.2-1.7c0-.6.4-1.1.9-1.5l1.2-.5a2 2 0 011.9 1v-.1a6.3 6.3 0 003-2c.5-.8.6-1.6.7-2.4v-.2c.5 0 1 .2 1.4.5 1.1.9 2 2.2 2.2 3.6h.2l2.4 1c-1.2.3-2.3.8-3.5 1h-.2c-.4 1.2-1.1 2.2-2.1 3a4.6 4.6 0 01-3.5.7h-.2c-.6.8-2.3 2.3-2.3 2.3-2.2.9-3.4-1-3.5-1.2 0-.2 2.9-2.3 3.9-3.1" fill="#FFB599"/>
  <path d="M140.9 13.5a1.7 1.7 0 01-1.8-.6c-.5-.5-.5-1.5 0-2 1-.8 2.2-.9 3 .2v.1a.3.3 0 00.4-.3v-.1l-.2.3c1.2-.4 2.3-1 3-1.9.6-.7 1.2-2.1.9-3l-.3.3c1.8.3 3.1 2.3 3.4 4a.3.3 0 00.2.2l2.6 1V11c-1.2.4-2.4.9-3.7 1a.3.3 0 00-.2.2 5.3 5.3 0 01-2.1 2.9c-.6.4-1.3.6-2 .7-.4 0-1-.2-1.3-.1-.6.2-.9.8-1.3 1.2-.4.4-.8 1-1.3 1.2-.9.4-2 0-2.6-.6-.2 0-.4-.3-.4-.4 0 .1.2 0 .3-.2 1.1-1 2.3-1.8 3.5-2.7.2-.2-.2-.6-.4-.4l-2.7 2.1c-.3.3-1.2.8-1.2 1.3 0 .4.8 1 1.1 1.2.8.5 2 .7 2.8.2.7-.5 1.3-1.3 1.8-1.9l.4-.5.9.1c.6 0 1.3 0 2-.3a5.4 5.4 0 002.7-2.7l.2-.7.9-.2 2.8-.8a.3.3 0 00.1-.3.3.3 0 00-.1-.2l-1.4-.5c-.3-.1-1-.3-1.2-.5l-.2-1c0-.3-.2-.5-.4-.8-.6-1.1-1.8-2.2-3.1-2.4-.2 0-.4.1-.3.4.3.8-.4 2.2-1 2.7a6 6 0 01-2.5 1.5l-.2.1V11l.5-.2c-1-1.5-3.2-1.3-4.1.2-1 1.7 1 3.4 2.6 3a.3.3 0 00-.1-.5z" fill="#FFB599"/>
  <path d="M133.6 17.8c-2.5 0-3.7.5-5.3 1.1-7.2 2.6-12.8 7-18.5 12.2a220 220 0 005.5 5.2c.1 0 6.3-2.9 9.2-4.5" fill="#252A34"/>
  <path d="M133.6 17.3c-4.4 0-8.7 2.3-12.5 4.4a70.3 70.3 0 00-11.8 9.4l.1.3 4.2 4c.6.6 1.2 1.6 2.1 1.4 1.3-.4 2.6-1.2 3.8-1.8a106 106 0 005.3-2.7c.6-.4 0-1.3-.6-1-1.5 1-3.1 1.7-4.8 2.5-1.2.7-2.7 1.2-3.9 1.9l-.3.1c0-.4.7.5.2 0-.3-.6-1-1-1.4-1.4l-3.8-3.7v.7a69 69 0 0111.2-8.6c3.6-2.1 7.9-4.4 12.2-4.4.7 0 .7-1 0-1z" fill="#252A34"/>
  <path d="M133.6 17.8c-1 7.8-3.6 23.7-3.7 23.8-.2.1-7.4 2-11 2.6l1.2-9.8" fill="#252A34"/>
  <path d="M133 17.8a415 415 0 01-3.4 22.6l-.2.7c0 .2-.2.4.1.2.4-.3-.2 0-.4 0l-1.4.4c-3 .7-6 1.5-9 2l.7.5 1.2-9.6c0-.7-1-1-1-.3-.5 3.3-.9 6.6-1.2 10 0 .3.4.5.7.4 2.8-.5 5.6-1.2 8.4-1.9 1-.2 2.7-.3 3-1.4 1-4.6 1.6-9.4 2.3-14 .5-3.2 1-6.4 1.3-9.6.1-.6-1-.6-1 0z" fill="#252A34"/>
  <path d="M147.3 6.9c-1.3-.7-4.5-1.6-5.9-1.1-1.4.4-2.7 1.1-4.2 1.4-2.2.5-4.6.1-6.8 1-.7.2-1.3.6-1.8 1.1a2.2 2.2 0 00-.4 2.1 2.1 2.1 0 001.4 1.2c.5.2 1.2.2 1.8 0-.8.5-1.5 1.4-1.3 2.3.2.7 1 1.2 1.8 1.2s1.6-.4 2.3-.7c-.4.3-.8.7-1 1.1v.4c0 .2.2.4.4.4.8.3 1.7.2 2.4-.1a54.3 54.3 0 004.3-2.8c-.5 0-1-.1-1.4-.4-.9-.7-.9-2.5-.1-3.4.7-.8 2.4-1 3.4-.3 0 0 0 .3.2.3l.4-.1c1.6-.9 4-2 4.6-3.6" fill="#FF6B24"/>
  <path d="M147.6 6.4c-1.7-.7-3.8-1.4-5.7-1.2-1.2 0-2.3.7-3.4 1-1.5.6-3 .7-4.5.8-2.2.1-5.2.4-6.2 2.6-1 2.5 1.5 3.9 3.6 3.6l-.3-1c-1.2.8-2.2 2.3-1 3.6 1.1 1.4 3 .7 4.3 0l-.6-.8c-.5.5-1.4 1.3-1.2 2 .2.9 1.2 1 1.9 1 2.3 0 4.4-1.8 6.1-3.2.4-.3.3-1-.2-1-1.1 0-1.7-.5-1.6-1.5 0-.7.2-1.3.8-1.7.6-.2 1.6-.3 2.2 0 .2.3.2.5.6.5.5 0 1-.3 1.4-.5l1.7-1c1-.6 1.8-1.4 2.3-2.5.3-.6-.6-1.1-.9-.5a5 5 0 01-2 2.2c-.8.4-1.8 1.2-2.7 1.3l.6.1c-.3-.2-.3-.4-.7-.6l-1.4-.2c-1 0-2 .4-2.6 1.3-1 1.9 0 4.2 2.3 4.2l-.3-1c-1.1.8-2.2 1.7-3.4 2.4-.6.4-1.3.6-2 .6h-.8c-.3 0-.3-.2-.1-.3 0-.3.5-.6.7-.8.5-.4 0-1-.6-.9-.8.4-1.7.9-2.6.5-1.3-.5-.5-1.7.3-2.3.4-.2.3-1-.2-1-1.2.2-3.1-.1-2.7-1.8.3-1.2 1.6-1.7 2.7-2 2-.4 4-.2 6-.6 1.7-.4 3.3-1.5 5.1-1.5 1.5 0 3.2.5 4.6 1.1.6.3 1.1-.6.5-1v.1z" fill="#FF6B24"/>
  <path d="M141.5 18.5c1.2-.2 2-.2 3.1.2a12 12 0 013 2l.8.5.8.1c3.2.1 6.3.4 9.4 1l-.5 9.9v.2a.4.4 0 01-.4.2l-9.4.4-.1 6.6c-2.7-1.4-8.5-3.2-8.5-3.2s.2-12.6 1.7-17.9" fill="#252A34"/>
  <path d="M141.7 19c1.6-.3 2.9.2 4.3 1 .9.7 1.6 1.7 2.8 1.8l4.5.3 5.1.7-.4-.5-.2 5v2.2l-.2 1.3v1.1c.2.2 0 .3-.3.2H155.6l-2.4.2-5 .2a.5.5 0 00-.5.5v6.6l.7-.5a53.8 53.8 0 00-8.5-3.2l.3.5c0-2.3.2-4.6.3-6.8.2-3.7.4-7.4 1.4-11 .2-.6-.8-.9-1-.2-1 3.5-1.2 7.3-1.4 11a146 146 0 00-.2 7.3l.3.2a52.4 52.4 0 018.8 3.1.5.5 0 00.3-.5l.1-6.5-.5.6 5.7-.3 2.9-.1c.4 0 1.2 0 1.5-.4.4-.4.3-1.3.3-1.8l.1-3 .3-5.7a.5.5 0 00-.4-.5 71 71 0 00-7.5-1c-.8 0-1.8.1-2.6-.1-.6-.3-1.2-1-1.8-1.4l-2-1a5.5 5.5 0 00-3.4-.3c-.7.2-.4 1.2.3 1zM104 80.4c0-1 .2-2.4.5-3.2.2-.3 1.2 1 1.5.7.3-.3 1.6-2.5 2.7-2 1 .3.7 2 .7 2.4l-.3 3.1c0 .7-.2 1-.5 1.9a7 7 0 01-1.2 2.2c-.4.6-.7 1-1.4 1-.6 0-1.2-.4-1.5-1-.3-.6-.5-1.2-.5-1.8v-3.3" fill="#252A34"/>
  <path d="M104.6 80.4c0-.6 0-1.3.2-2 0-.1.2-.6.1-.7.1-.2 0-.2-.2 0l.2.2c.3.4 1 .7 1.4.4.6-.4.9-1.2 1.4-1.7 1.2-.9 1.2.7 1.2 1.5 0 2-.3 4-1.2 6-.2.5-.6 1-1 1.5-.7.8-1.7 0-2-.8-.4-1.3-.3-3-.1-4.4 0-.6-1-.6-1 0-.3 2-.6 6.4 2.3 6.6 2.2.2 3.4-3.6 3.7-5.3.2-1 .3-2.2.3-3.3 0-.8.1-1.6-.2-2.3a1.5 1.5 0 00-2-.7c-.6.3-1.6 1.2-1.9 1.9v.1c.2-.3.2.1 0-.1l-.6-.4c-.3-.2-.6-.3-1-.1-.8.6-.7 2.8-.7 3.7 0 .6 1 .6 1 0zM159.1 66c-.2-.4-.4-.8-.4-1.3a1.5 1.5 0 01.5-1.4c.4-.2 1.3.2 1.8.1A1.4 1.4 0 00162 62l-.2-.7c.1-.4.7-.5 1.1-.4 1.4.2 2.4 1.4 3.8 1.8 1.1.3 2.7 0 3.4 1 .2.2.2.4.2.6 0 .3-.3.6-.7.7-.9.4-1.8.6-2.8.7l-4.8.6h-2.9" fill="#252A34"/>
  <path d="M159.6 65.8c-.3-.7-.8-2 .3-2 .4 0 .8.2 1.1.1a2 2 0 001.5-1.3v-1.1a.4.4 0 01.5 0l1 .3c.9.5 1.7 1.2 2.8 1.4.7.2 2.6 0 2.8 1 .1.5-.3.4-.7.6l-1 .2-2.1.4-3.7.4c-1 0-1.9.2-2.8 0-.6-.2-.9.8-.2 1 1.2.3 2.5 0 3.8 0 1.7-.3 3.5-.4 5.2-.8 1-.2 3-.5 2.8-1.9 0-1.3-1.8-1.6-2.8-1.7a6 6 0 01-2.5-.9c-.7-.3-1.3-.8-2-1-.8-.3-2.2-.3-2.2.9l.2.6c0 .7-.5 1-1.1.9-.5 0-1-.3-1.5 0-1.3.6-.8 2.4-.4 3.5.3.6 1.2 0 1-.6z" fill="#252A34"/>
  <path d="M146 11.5c.6-.6 1.5-.9 2-.2.3.2.7-.2.5-.4-.9-.9-2-.5-2.9.2-.2.2.1.6.4.4z" fill="#1F2783"/>
  <path d="M147.5 9a1.9 1.9 0 011.6.2.3.3 0 00.2 0 .3.3 0 00.1-.2.3.3 0 000-.2 2.4 2.4 0 00-2-.3c-.3.1-.2.6.1.5z" fill="#FF6B24"/>
  <path d="M140.2 11.5l.4.6.1.2.2.2v-.2c.1 0 0 0 0 0h-.4l-.6.2c-.3 0-.2.6.2.5l.8-.2c.2 0 .5 0 .5-.3 0-.2-.2-.4-.3-.5l-.5-.8c-.2-.2-.6 0-.4.3zM133.7 18c-.6-.3-1-1-.8-1.7a.3.3 0 00-.4-.3 1.6 1.6 0 01-2.2-.3c-.5-.8-.2-1.8.4-2.4a.3.3 0 000-.3V13h-.2a3.3 3.3 0 01-2.7-2c-.1-.3-.6 0-.4.3a3.8 3.8 0 003 2.2l-.1-.5c-.8 1-1.1 2.3-.3 3.3a2 2 0 002.8.3l-.4-.3c-.3.9.3 2 1.1 2.2.4.2.5-.4.2-.5zM131.3 37.7l8-.8c.3 0 .3-.6 0-.6l-8 1c-.3 0-.3.5 0 .4zM108.4 72.2c1.3 1.4 2.7 2.8 4.1 4 .3.2.7-.1.4-.3a47.7 47.7 0 01-4.1-4c-.3-.3-.6 0-.4.3zM156.5 60.9c2-.3 4.1-1 6.2-1.5.3 0 .2-.6-.1-.5-2 .5-4.1 1.2-6.3 1.5-.3 0-.2.5.2.5zM145.7 13.7c.4.6 1 1 1.7 1 .3.1.5-.4.1-.5-.5 0-1-.3-1.4-.7-.2-.3-.6 0-.4.2z" fill="#1F2783"/>
  <path d="M138.2 44.3a5.8 5.8 0 00-4 .5c-.8.5-1.2 1.1-1.6 2-1.3 2.9-2.1 6-3 9l-1.1 3.8c-.4 1.4-.7 2.8-1.3 4.2-.5 1-1.3 1.6-2.2 2.3l-3.2 2.6c-3 2.5-6 4.8-9.2 7.1-.3.2 0 .7.3.5 4.6-3.4 9.2-7 13.6-10.7 1.7-1.6 2-4.3 2.6-6.4 1-2.8 1.7-5.7 2.6-8.5.5-1.5 1-3.3 1.9-4.6 1-1.4 3-1.5 4.4-1.3.3 0 .5-.5.1-.5zM91.7 81c.8 5 2.2 9.9 3.6 14.7a.3.3 0 00.5 0c-1.3-5-2.8-9.8-3.6-14.8-.1-.4-.6-.2-.5.1zM155.5 57.8c2-.3 4.1-1 6.2-1.4.3-.1.2-.6-.1-.5-2.1.5-4.2 1.1-6.3 1.4-.3 0-.2.6.2.5z" fill="#1F2783"/>
  <path d="M110.2 69.4c1.5 1.7 3.2 3.3 5 4.8.2.2.6-.1.3-.4a57.6 57.6 0 01-5-4.8c-.2-.2-.6.1-.3.4zM148.3 12.8c-.5 1-1 2-2 2.4-1 .6-2.2.8-3.4.7-.3 0-.3.5 0 .6a7 7 0 003.7-.8c1-.6 1.6-1.6 2.1-2.7.1-.3-.3-.5-.4-.2z" fill="#1F2783"/>
  <path d="M142.7 16l-1.7 2.2c-.2.2.1.6.4.3l1.6-2.1c.2-.3-.1-.6-.3-.4zM148.6 13.1l3.8-1.3c.3-.1.2-.6-.2-.5l-3.8 1.3c-.3.1-.2.6.2.5z" fill="#1F2783"/>
  <path d="M168.1 22.9c2-.5 6-2.6 6.3-2.7h.6c.2.3 0 .6-.3.8-.2.3-.7.2-1 .4l-1.6.8" fill="#FFB599"/>
  <path d="M168.2 23.2c1.6-.4 3.2-1.2 4.7-1.9.3-.1 1.1-.7 1.5-.7.3 0-.8.4-.9.5l-1.6.8c-.4.2 0 1 .4.7l1.3-.7 1-.4c.4-.2.8-.6.9-1 0-.8-1-.8-1.4-.6-2.1.8-4 2-6.1 2.6-.5.1-.3.9.2.7z" fill="#FFB599"/>
  <path d="M174 21.4l1.7-.9c.4-.2.9.1.8.3l-.5.5c-1.4 1-3 1.8-4.5 2.4" fill="#FFB599"/>
  <path d="M174.2 21.7l1.4-.7c.4-.2.6-.4.2 0l-.9.5c-1 .7-2.3 1.3-3.5 1.9-.5.1-.3 1 .2.7l3.2-1.5c.5-.4 1.8-1 2-1.6.2-.5-.2-.9-.6-1-.7 0-1.8.7-2.4 1-.4.2 0 1 .4.7z" fill="#FFB599"/>
  <path d="M176.2 21.4a.3.3 0 01.4.2c.1.1.5.3.4.4-.1.2-.7.4-.8.5-1.7 1.2-4 1.8-5.6 3 .4.6 1.5 1 1.8 1.7l.2.3-.4.1c-.6.1-1.2-.2-1.7-.6l-2.6-1.8-.1-.2c0-.2-.1-.3 0-.4 0-.6 0-1.3.3-1.8" fill="#FFB599"/>
  <path d="M176.2 21.8a.4.4 0 01.3.2h-.1l-.7.3-1.7 1c-1.3.6-2.5 1-3.6 1.8a.4.4 0 00-.2.5c.6.8 1.5 1.2 2 2v-.4c-.1.2-1-.2-1.3-.4l-1.5-1c-.4-.3-1-.6-1.3-1-.2-.4 0-1.3.3-1.7.3-.5-.4-.9-.6-.4-.4.6-.6 1.4-.5 2.1.1.8.7 1 1.2 1.4 1 .6 3.1 2.7 4.3 1.6a.4.4 0 000-.5c-.4-1-1.3-1.2-2-2v.5c1.7-1.2 3.8-2 5.6-3 .4-.2 1-.4 1-.9s-.7-1-1.2-1c-.5.1-.5 1 0 .9zM103.1 38c-1.3.9-2 2.2-3.7 2.8-.3.2-2.1.7-2.2.4 0-.2 1-1 1.2-1.2l.5-.2c.5-.2.8-1.3 1.4-1.4l-5.4.8c-.5 0-.9.2-1.2-.2l.3-.3 1-.6 3.7-1-3 .7-1.1.2a5 5 0 01-1.3 0l-.1-.2c-.1-.2.1-.3.3-.4 1.4-.6 3-1 4.6-1.3l-3.7.3c-.4 0-1-.2-1-.3.2-.7 1.4-.5 2.2-.5 1.3-.1 2.7-.2 4 0h4.1" fill="#FFB599"/>
  <path d="M102.7 37.5c-.8.7-1.4 1.5-2.3 2.2-.7.5-1.5.8-2.3 1h-.5c-.3 0-.2.2.2.5l.1-.1.8-.7 1-.5c.3-.4.5-.9.9-1 .6-.4.1-1.2-.4-1l-3.3.4c-.5 0-2.5.7-2.8.3v.6c.5-.5 1.5-.7 2.2-1l2.6-.5-.3-1-2.3.4-1 .3h-1.5l.2.4a15.2 15.2 0 011.9-.6l2.3-.5c.6-.2.5-1.1-.1-1l-2.3.1c-.2 0-1.7.2-1.9 0v.6c.3-.5 2-.3 2.5-.4H99l4.6.1c.7 0 .7-1 0-1l-6-.1h-3.1c-.6.1-1.3.2-1.6.8a.5.5 0 000 .6c.3.4 1 .5 1.4.5 1.2 0 2.5 0 3.7-.2l-.2-1c-.8.1-5.9.7-5.2 2.3.3.8 1.7.6 2.3.5l3.9-.8c.7-.1.4-1.1-.3-1a21 21 0 00-3.7 1c-.6.2-1.2.5-1.6 1a.5.5 0 000 .7c.8.8 2 .2 3 0l4.2-.5-.4-1c-.6.3-.8 1-1.3 1.3l-1.3.8c-.5.5-1.3 1.4-.3 1.8.8.2 2-.3 2.8-.6 1.4-.7 2.3-2 3.5-2.9.5-.4-.2-1.2-.8-.8z" fill="#FFB599"/>
  <path d="M159 26.7c2.1-.4 4.4-.4 6.5-.5 1.2 0 2.1-.2 3.2.4l2.1 1.2c.7.3 1.8.8 2.2-.2.4-1-1.2-2-1.8-2.4-.3-.3-.6.1-.4.3.4.4 1.3 1 1.5 1.4.6 1.4-1.5.3-1.8.1-1-.4-1.8-1.4-2.9-1.4l-4.6.2c-1.3.1-2.7.1-4 .4-.4 0-.3.6 0 .5z" fill="#1F2783"/>
  <path d="M171 25.6c1.5-.3 3-.9 4.2-1.7.6-.3 2.3-1 2.6-1.8.2-.7-.5-1-1-1-.6 0-1 .3-1.5.6l-2.5 1.3c-.3.2 0 .6.3.5l2.8-1.6s1.5-.8 1.2.2c0 .2-.7.5-.9.6-1.6 1-3.3 2-5.3 2.4-.3 0-.2.6.2.5zM175.1 20.1l-3 1.6c-.4.1 0 .6.2.4l3-1.5c.4-.2.1-.6-.2-.5zM100 38.4c-1 .6-2.7 1.3-3.4 2.4-.4.6.1 1.1.8 1.2 1 .2 2.2-.6 3-1a8 8 0 003.1-2.4c.2-.2-.2-.5-.4-.2a9.7 9.7 0 01-4.4 2.9c-.3 0-1.1.4-1.4.2-.4-.4.2-.8.4-1l2.5-1.6c.3-.2 0-.7-.3-.5z" fill="#1F2783"/>
  <path d="M103.3 38.8c3.9-.5 7.7-1.2 11.5-2 .3-.1.2-.7-.1-.6-3.8 1-7.6 1.6-11.4 2-.3 0-.3.6 0 .6zM100 38.4l-4.8.8c-.4 0-1 .2-1.3 0-.3 0-.8 0-.1-.6l.9-.2 4-.9c.3 0 .1-.5-.2-.5l-2.7.6c-.7.2-1.7.2-2.3.6-1 .5-.8 1.3.2 1.6 1 .2 2-.1 3-.3 1.1-.2 2.3-.3 3.4-.6a.3.3 0 000-.5h-.1zM98 35.7l-4.2 1a.3.3 0 00.1.4l4.3-1c.3 0 .2-.5-.2-.4z" fill="#1F2783"/>
</svg>
