<svg width="20" height="20" viewBox="0 0 20 20" fill="none" xmlns="http://www.w3.org/2000/svg"><path fill="#2196f3" d="M2 10c0 4.4183 3.58172 8 8 8 4.4183 0 8-3.5817 8-8 0-4.41828-3.5817-8-8-8-4.41828 0-8 3.58172-8 8zm15 0c0 3.866-3.134 7-7 7-3.86599 0-7-3.134-7-7 0-3.86599 3.13401-7 7-7 3.866 0 7 3.13401 7 7zm-4.54-1.98c0 .90202-.463 1.35698-.9301 1.81594-.4753.46706-.9549.93826-.9549 1.88906H9.08c0-1.4168.63163-1.99896 1.1507-2.47736.362-.33368.6693-.6169.6693-1.09764 0-.585-.39-.975-1.04-.975-.585 0-1.04.455-1.04 1.235H7.26c.065-1.625 1.105-2.665 2.6-2.665 1.625 0 2.6.975 2.6 2.275zm-2.6 4.355c-.455 0-.845.39-.845.845 0 .455.39.845.845.845.455 0 .845-.39.845-.845 0-.455-.39-.845-.845-.845z"/></svg>