<?xml version="1.0" encoding="UTF-8"?>
<svg width="646px" height="530px" viewBox="0 0 646 530" version="1.1" xmlns="http://www.w3.org/2000/svg" xmlns:xlink="http://www.w3.org/1999/xlink">
    <!-- Generator: Sketch 49 (51002) - http://www.bohemiancoding.com/sketch -->
    <title>Illustrations/ Simple/ Map</title>
    <desc>Created with Sketch.</desc>
    <defs></defs>
    <g id="Illustrations/-Simple/-Map" stroke="none" stroke-width="1" fill="none" fill-rule="evenodd">
        <path d="M465.404239,0.940331492 L467.929525,0 L470.818921,2.56240331 L473.285479,5.64198895 L474.589231,7.8635221 L476.527241,11.9774724 L477.114517,13.8698895 L478.523978,13.2234116 L479.2522,13.8933978 L481.613049,12.1302762 L482.705381,11.8599309 L484.314517,14.1754972 L492.407176,5.79479282 L494.415659,5.0895442 L495.202608,4.45482044 L495.719411,3.53799724 L496.870471,4.17272099 L497.598693,4.26675414 L501.169329,7.07599448 L502.355626,9.96751381 L503.307013,11.4015193 L504.786947,12.6121961 L507.594125,13.8698895 L509.17977,15.7858149 L509.684827,17.2785912 L509.907991,20.5932597 L509.720063,23.4612707 L510.43654,24.4016022 L511.904729,25.4947376 L514.664925,29.5734254 L515.722021,32.6177486 L515.82773,33.7461464 L514.794125,37.7543094 L513.971939,39.3998895 L513.913212,42.2561464 L513.513864,43.1024448 L513.020553,43.6548895 L509.626099,44.9595994 L505.938008,45.6648481 L505.19804,46.6874586 L505.162804,47.7805939 L505.503424,48.4858425 L505.926262,48.850221 L507.406197,49.179337 L507.993473,49.673011 L508.251874,50.3077348 L507.230014,51.1540331 L505.350732,51.7299862 L504.880912,52.529268 L505.127567,55.5970994 L504.869166,58.5708978 L504.563783,60.7219061 L503.823815,61.6387293 L503.800324,62.2381906 L505.64437,62.4850276 L506.278628,63.8837707 L506.384337,67.1866851 L507.629362,67.586326 L509.567372,67.6098343 L509.954974,68.3150829 L510.483522,70.0076796 L511.446654,71.3711602 L511.599345,74.3096961 L513.372918,76.4959669 L513.901466,78.799779 L514.935071,79.7166022 L513.86623,81.256395 L513.86623,82.4435635 L515.980422,82.9254834 L517.025773,83.6777486 L519.327894,83.466174 L519.421858,84.0773895 L519.104729,85.1352624 L517.800977,85.9815608 L517.413375,86.980663 L517.918432,88.9200967 L519.175202,89.8369199 L520.760846,90.2248066 L521.254158,91.1063674 L521.207176,92.0702072 L521.606523,92.4345856 L521.947143,92.0702072 L521.98238,91.5295166 L521.312885,90.741989 L520.96052,89.7428867 L521.688742,90.0484945 L521.829688,89.766395 L521.442086,89.4725414 L521.87667,88.6850138 L522.722347,89.5900829 L522.89853,87.803453 L523.156931,86.7455801 L523.415332,86.6162845 L524.249264,86.7103177 L525.012722,86.3812017 L526.22251,86.7455801 L528.26623,86.651547 L530.979443,88.6850138 L533.845349,89.0729006 L535.12561,89.5548204 L536.405871,89.5313122 L536.910928,89.9191989 L539.36574,89.7076243 L541.162804,90.2248066 L541.256768,89.3432459 L542.478301,89.766395 L542.912885,89.1669337 L545.062314,88.5909807 L545.215006,89.0729006 L545.778791,89.190442 L545.907991,89.7076243 L546.483522,90.2248066 L550.324305,90.2600691 L551.815985,89.8369199 L553.448611,89.766395 L553.554321,87.1922376 L554.7876,86.3812017 L555.527567,86.2519061 L555.903424,85.4408702 L559.415332,85.2292956 L561.482543,84.3477348 L562.539639,84.8649171 L564.935724,84.7121133 L567.966067,85.0764917 L567.907339,86.5927762 L569.211091,88.4381768 L569.974549,90.6244475 L573.721368,94.5503315 L575.248285,97.6416713 L576.352363,98.0648204 L577.573897,98.1235912 L577.949753,98.4879696 L578.031972,100.157058 L579.053832,102.46087 L579.676344,103.271906 L581.473407,104.153467 L582.084174,104.752928 L582.718432,104.964503 L586.265577,103.695055 L593.653505,104.905732 L600.336703,103.542251 L600.465903,103.236644 L601.029688,103.577514 L601.088416,104.059434 L602.239476,104.541354 L602.603587,105.27011 L603.425773,105.846064 L602.826752,107.080249 L602.955952,107.573923 L604.518106,109.019682 L606.080259,107.844268 L606.867208,107.573923 L607.184337,106.598329 L607.630667,106.23395 L608.61729,106.539558 L609.521695,107.809006 L610.437845,106.210442 L611.213049,106.269213 L615.042086,108.290925 L615.558889,108.772845 L615.899509,109.771948 L615.864272,110.500704 L615.265251,111.382265 L615.782053,111.65261 L615.746817,113.309945 L615.993473,114.156243 L615.746817,116.095677 L613.773571,119.269296 L616.510275,120.538743 L620.562478,121.291008 L623.745512,122.77203 L632.120063,122.71326 L631.321368,128.966464 L630.675365,129.989075 L630.510928,129.565925 L630.041107,129.389613 L628.96052,130.412224 L629.124957,131.199751 L630.005871,132.04605 L630.041107,132.892348 L627.738987,135.760359 L619.834256,137.088577 L620.245349,137.876105 L620.139639,138.781174 L618.965088,141.226036 L618.33083,141.496381 L618.260357,142.671796 L618.542249,143.000912 L618.518758,146.527155 L623.59282,146.527155 L630.816311,149.994627 L632.62512,151.593191 L633.235887,152.83913 L634.504403,153.344558 L640.823489,158.528135 L640.835235,159.644779 L641.175854,160.032666 L644.535071,160.549848 L645.134093,162.477528 L644.946164,164.581519 L645.556931,166.991119 L645.204566,168.295829 L644.664272,169.247914 L642.197714,169.341948 L641.281564,170.211754 L639.331809,170.905249 L638.815006,174.760608 L638.850243,177.323011 L636.900487,179.309461 L637.323326,179.791381 L634.375202,183.399903 L630.969003,184.810401 L630.933766,185.868273 L630.55791,186.25616 L627.80946,187.22 L626.916801,188.86558 L625.166719,189.711878 L622.089394,187.278771 L621.490373,186.620539 L621.361173,185.445124 L620.903098,185.680207 L620.527241,185.527403 L619.869492,183.905331 L618.941597,183.881823 L618.048938,183.341133 L617.144533,183.611478 L609.744859,187.125967 L608.558562,188.360152 L607.900814,188.418923 L606.972918,188.089807 L598.375202,190.969572 L596.143554,192.509365 L594.769329,193.825829 L594.229036,193.861091 L593.40685,192.744448 L591.997388,193.320401 L590.623163,194.789669 L588.779117,195.988591 L586.664925,196.870152 L584.914843,198.092583 L584.374549,198.609765 L584.339313,199.479572 L583.552363,200.596215 L579.782053,201.607072 L578.184664,202.547403 L577.186295,202.183025 L575.307013,199.655884 L574.484827,198.96239 L573.486458,199.78518 L571.196083,200.925331 L570.608807,200.443412 L570.268187,198.762569 L568.259704,198.092583 L567.778138,197.37558 L564.712559,197.105235 L563.761173,196.235428 L563.35008,196.41174 L563.502771,197.199268 L562.774549,199.244489 L562.90375,199.655884 L565.75791,201.947942 L567.132135,202.300566 L567.226099,202.782486 L565.804892,204.768936 L565.793146,205.909088 L566.627078,207.648702 L566.533114,207.860276 L565.828383,207.67221 L566.43915,209.752693 L566.274713,210.234613 L565.675691,210.434434 L562.551385,208.365704 L559.661988,208.283425 L558.487437,207.742735 L558.745838,206.931699 L558.041107,205.156823 L556.702119,203.957901 L551.158236,203.229144 L547.728546,203.55826 L546.777159,199.267997 L546.295593,198.96239 L546.518758,198.069075 L544.522021,197.105235 L543.594125,196.987693 L542.948122,196.35297 L541.53866,196.141395 L540.716474,196.470511 L539.906034,197.551892 L538.414354,198.010304 L535.395757,197.951533 L534.585316,197.681188 L531.179117,198.092583 L530.286458,197.881008 L527.984337,196.529282 L525.388579,193.861091 L525.259378,192.662169 L526.680585,192.391823 L526.22251,191.851133 L526.281238,191.216409 L522.299509,188.18384 L522.052853,188.748039 L519.844696,187.36105 L515.604566,188.089807 L514.347796,189.053646 L512.973571,187.972265 L512.304076,189.288729 L511.705055,188.936105 L511.329199,189.288729 L511.411417,190.076257 L510.483522,190.828522 L513.361173,190.887293 L515.334419,192.29779 L516.626425,192.897251 L517.648285,195.753508 L517.76574,197.410843 L521.383359,200.32587 L521.312885,202.124254 L521.723978,206.261713 L517.742249,204.827707 L514.958562,204.228246 L511.763783,204.345787 L509.367698,203.805097 L507.840781,203.052831 L504.916148,200.443412 L502.801956,199.115193 L501.780096,201.00761 L500.570308,201.524793 L501.004892,202.512141 L500.828709,203.170373 L498.620553,204.404558 L497.058399,205.850318 L496.447633,205.215594 L494.251221,206.02663 L493.299835,207.919047 L491.115169,209.023936 L488.413701,209.329544 L486.675365,208.671312 L485.254158,208.553771 L483.715496,207.589931 L480.708644,211.315994 L483.175202,213.23192 L482.576181,214.007693 L482.306034,213.796119 L482.047633,214.066464 L481.613049,213.737348 L481.389884,213.925414 L481.096246,213.655069 L480.755626,214.042956 L480.873081,214.642417 L484.032624,216.346768 L484.713864,217.557445 L486.628383,219.050221 L486.710602,219.47337 L486.041107,219.896519 L486.463946,220.343177 L485.759215,221.718412 L486.358236,222.952597 L487.521042,222.917334 L488.366719,223.493287 L488.918758,223.305221 L489.118432,223.610829 L487.896898,224.845014 L487.697225,226.431823 L488.977486,227.901091 L488.883522,228.770898 L483.210438,232.990635 L482.576181,233.178702 L482.188579,233.68413 L482.176833,235.176906 L481.472102,235.176906 L481.284174,235.752859 L480.873081,235.964434 L478.735398,236.105483 L477.971939,235.306202 L477.936703,234.765511 L477.149753,234.072017 L475.834256,233.413785 L475.035561,233.413785 L474.424794,230.052099 L470.912885,225.562017 L469.738334,225.350442 L465.885805,225.85587 L465.815332,226.549365 L466.825447,230.240166 L465.780096,231.345055 L462.996409,230.839627 L454.610112,231.768204 L450.11158,232.931865 L447.398367,232.908356 L446.118106,232.638011 L444.591189,231.885746 L443.498856,230.957169 L442.523978,229.393867 L442.735398,229.217555 L442.230341,228.347749 L440.820879,226.913743 L439.986947,226.431823 L436.416311,225.832362 L435.523652,224.962555 L434.196409,222.682251 L432.786947,221.330525 L429.310275,220.731064 L427.325283,219.47337 L426.045022,217.580953 L424.940944,214.313301 L423.719411,212.961575 L422.768024,212.691229 L420.442412,212.75 L419.385316,212.326851 L416.272755,210.293384 L413.911907,209.717431 L411.656768,210.175843 L408.368024,210.410925 L407.534093,211.127928 L406.159867,213.408232 L404.961825,213.77261 L401.097551,212.808771 L398.243391,209.964268 L397.092331,209.364807 L396.399345,209.364807 L394.590536,210.14058 L393.921042,211.433536 L393.650895,213.137887 L392.8522,214.278039 L391.830341,215.006796 L389.504729,215.570994 L388.294941,215.747307 L385.710928,215.512224 L383.855137,214.73645 L382.140292,212.303343 L381.553016,211.915456 L380.026099,211.938964 L379.450569,212.420884 L378.522673,214.101727 L376.326262,216.922721 L373.096246,222.411906 L371.945186,226.243757 L371.769003,230.181395 L371.052527,231.439088 L370.112885,232.120829 L364.240128,234.824282 L360.505055,237.398439 L359.635887,237.45721 L357.145838,236.563895 L355.078628,236.375829 L353.76313,236.83424 L352.330177,238.033163 L351.143881,238.42105 L349.781401,237.903867 L347.855137,236.176008 L346.516148,235.600055 L345.459052,235.482514 L341.089721,236.434599 L337.401629,235.541285 L334.993799,235.635318 L328.428057,237.304406 L328.357584,235.118135 L330.507013,233.319751 L331.329199,232.09732 L330.460031,231.345055 L330.119411,230.569282 L330.201629,229.370359 L330.753668,227.78355 L330.624468,226.913743 L326.384337,224.845014 L324.505055,222.893826 L323.577159,222.411906 L322.44959,222.235594 L321.369003,222.70576 L319.560194,224.633439 L318.244696,224.809751 L317.575202,224.539406 L315.942575,222.741022 L315.12039,221.001409 L314.192494,220.366685 L314.215985,219.532141 L313.781401,219.085483 L308.801303,216.80518 L307.36835,215.547486 L306.369982,213.114378 L305.277649,212.326851 L308.061336,212.385622 L309.271124,206.532058 L305.277649,205.991367 L304.161825,204.134213 L304.561173,202.476878 L303.879933,200.290608 L304.361499,199.78518 L306.475691,201.642334 L311.185642,201.524793 L312.982706,202.241796 L313.593473,201.548301 L315.69592,200.713757 L316.388905,200.055525 L315.108644,199.267997 L314.638823,198.245387 L314.932461,197.222776 L316.459378,196.470511 L318.714517,196.447003 L320.006523,195.718246 L321.239802,193.884599 L321.439476,192.415331 L321.968024,191.992182 L323.072102,192.333052 L324.28189,192.027445 L326.278628,192.509365 L326.701466,191.698329 L327.042086,189.135925 L329.614354,184.363743 L330.495267,184.775138 L330.377812,182.882721 L332.762151,179.427003 L332.60946,178.674738 L333.149753,178.557196 L338.517453,168.319337 L341.06623,169.976671 L343.450569,170.493854 L344.448938,170.247017 L345.776181,169.071602 L347.408807,165.909738 L348.207502,164.92239 L349.616964,164.558011 L351.085153,165.427818 L353.258073,167.684613 L355.325283,168.801257 L357.686132,169.435981 L360.692983,169.823867 L363.570634,171.751547 L365.156279,171.84558 L367.423163,170.693674 L369.267208,168.319337 L370.735398,167.296727 L372.309297,167.04989 L375.010765,167.625843 L376.784337,167.508301 L382.621858,165.275014 L385.064925,163.206285 L386.286458,162.536298 L391.36052,163.535401 L394.637518,163.171022 L395.70636,163.441367 L398.243391,164.98116 L399.464925,166.097804 L405.466882,168.319337 L406.805871,170.458591 L408.144859,171.516464 L409.589558,172.139434 L414.405218,173.373619 L417.553016,175.489365 L419.420553,173.83203 L420.489394,174.431492 L420.407176,172.891699 L421.511254,172.621354 L421.523,170.82297 L420.712559,168.860028 L420.677323,168.048992 L421.158889,167.296727 L421.358562,166.027279 L419.47928,163.805746 L419.068187,161.337376 L418.269492,160.091436 L417.106686,159.856354 L415.615006,158.469365 L414.851548,157.658329 L414.687111,155.730649 L414.369982,155.213467 L413.794451,154.578743 L413.348122,155.060663 L411.527567,153.074213 L412.549427,153.050704 L412.796083,147.773094 L409.260683,146.444876 L409.507339,144.364392 L408.086132,143.753177 L408.743881,141.978301 L409.201956,137.535235 L409.002282,137.12384 L409.542575,134.890552 L409.237192,132.52797 L408.72039,132.504461 L408.109623,131.775704 L407.956931,129.601188 L407.2522,129.119268 L407.604566,128.27297 L407.287437,126.54511 L406.030667,126.733177 L406.124631,127.30913 L405.725283,127.391409 L405.243717,126.82721 L403.5876,127.250359 L403.716801,128.026133 L404.280585,128.214199 L404.292331,128.637348 L404.762151,129.025235 L404.245349,130.235912 L405.243717,130.506257 L405.149753,131.293785 L405.020553,131.893246 L403.517127,131.446588 L402.918106,132.504461 L404.151385,133.00989 L402.366067,134.914061 L400.815659,134.584945 L399.171287,134.702486 L398.689721,136.336312 L396.505055,136.35982 L394.931156,136.912265 L391.736376,135.008094 L391.618921,134.432141 L390.878954,134.255829 L390.526589,133.856188 L392.535071,131.293785 L395.213049,129.601188 L394.966393,126.462831 L396.587274,124.887776 L396.681238,124.311823 L395.377486,123.465525 L399.218269,123.865166 L399.218269,123.442017 L398.443065,123.018867 L398.478301,121.984503 L397.573897,121.690649 L396.716474,120.632776 L397.139313,120.715055 L397.397714,119.022459 L399.429688,118.728605 L400.334093,116.977238 L397.832298,115.731298 L397.703098,115.284641 L398.055463,113.521519 L396.140944,113.462749 L394.637518,112.804517 L394.89592,110.77105 L394.367372,110.594738 L394.484827,109.960014 L393.275039,109.442831 L393.181075,108.98442 L386.086784,108.02058 L383.126915,106.962707 L383.279606,105.869572 L382.974223,104.059434 L382.363456,103.448218 L383.162151,102.813494 L384.559867,103.236644 L385.323326,102.60192 L385.804892,100.274599 L385.746164,98.4879696 L378.146817,92.2817818 L380.2845,83.0782873 L383.032951,82.0204144 L403.681564,76.1080801 L404.374549,75.1324862 L405.619574,71.7355387 L411.774223,52.7055801 L413.947143,49.3321409 L414.405218,48.8854834 L417.106686,48.2977762 L417.740944,48.3918094 L418.586621,49.4614365 L419.855137,48.4270718 L424.459378,46.2408011 L425.128872,46.4523757 L426.021531,47.3927072 L431.095593,43.043674 L432.822184,43.0789365 L434.572266,42.5617541 L436.134419,41.0337155 L438.178138,40.2226796 L439.517127,39.2470856 L439.963456,38.4830663 L440.914843,37.7308011 L440.597714,37.1430939 L440.703424,36.7199448 L441.102771,36.6259116 L441.807502,37.2723895 L442.289068,37.2958978 L445.19021,34.9568232 L445.413375,34.533674 L446.082869,34.3456077 L450.041107,30.7018232 L451.509297,29.8202624 L455.126915,26.2587569 L455.514517,25.0715884 L457.569982,22.0860359 L456.50114,20.534489 L456.559867,20.1936188 L459.167372,15.2333702 L459.684174,14.9865331 L460.987926,15.4214365 L461.340292,15.057058 L461.316801,14.4693508 L462.491352,11.2487155 L462.972918,8.3219337 L464.123978,6.64109116 L465.404239,0.940331492 Z M465.780096,231.345055 L466.825447,230.240166 L465.815332,226.549365 L465.885805,225.85587 L469.738334,225.350442 L470.912885,225.562017 L474.424794,230.052099 L475.035561,233.413785 L475.834256,233.413785 L477.149753,234.072017 L477.936703,234.765511 L477.971939,235.306202 L478.735398,236.105483 L480.873081,235.964434 L481.284174,235.752859 L481.472102,235.176906 L482.176833,235.176906 L482.505708,236.857749 L489.588252,237.034061 L491.667208,238.562099 L495.648938,240.278204 L496.729525,241.383094 L497.316801,242.793591 L497.692657,243.063936 L498.10375,242.699558 L498.996409,243.393052 L499.090373,243.863218 L498.749753,244.733025 L497.281564,244.556713 L496.858726,244.733025 L495.93083,245.308978 L495.707665,246.16703 L496.03654,248.153481 L496.764761,249.011533 L496.893962,249.94011 L496.95269,250.986229 L496.060031,252.06761 L496.50636,253.889503 L496.377159,255.123688 L496.823489,256.228577 L498.303424,257.180663 L500.8522,257.897666 L505.221531,259.637279 L505.479933,260.17797 L506.595757,259.790083 L507.018595,260.119199 L507.018595,260.624627 L508.639476,260.624627 L512.468513,261.576713 L512.433277,263.410359 L511.857747,264.338936 L511.446654,264.538757 L510.366067,268.876036 L510.037192,268.934807 L508.956605,272.249475 L508.251874,271.920359 L508.26362,274.10663 L507.746817,276.645525 L510.624468,278.678992 L513.325936,281.006312 L514.488742,283.239599 L516.497225,285.449378 L519.515822,288.105815 L520.666882,289.516312 L522.428709,293.924116 L523.896898,296.82739 L525.776181,298.073329 L527.878628,299.953992 L530.533114,304.608633 L530.497877,310.826575 L531.425773,312.918812 L532.388905,316.644876 L531.519737,322.956851 L531.578465,324.108757 L530.826752,324.179282 L530.603587,324.531906 L530.533114,329.915304 L529.135398,338.096188 L532.823489,337.919876 L532.799998,338.448812 L530.627078,342.022072 L532.823489,349.603494 L526.22251,355.692141 L526.152037,356.103536 L526.680585,357.443508 L522.182053,358.419102 L522.135071,359.453467 L521.113212,360.617127 L520.51419,361.898329 L520.443717,363.261809 L519.586295,364.62529 L519.492331,365.753688 L517.448611,368.868536 L514.864598,372.159696 L513.819248,374.616312 L513.690047,375.60366 L506.630993,383.396657 L504.164435,384.912942 L506.79543,390.531423 L506.56052,390.97808 L504.469819,390.860539 L503.506686,391.330704 L503.447959,391.753854 L503.976507,394.974489 L504.62251,402.591174 L506.278628,405.811809 L507.464925,406.199696 L509.438171,406.281975 L509.978465,405.753039 L510.683195,405.635497 L511.904729,404.836215 L513.678301,402.967307 L521.630014,399.123702 L522.816311,399.805442 L524.719084,401.521547 L517.072755,405.071298 L516.84959,405.423923 L523.250895,409.420331 L523.391841,409.890497 L521.113212,411.465552 L521.019248,412.699738 L520.291026,412.676229 L519.785969,412.970083 L518.270797,412.817279 L515.2522,413.945677 L514.664925,413.651823 L513.819248,414.121989 L513.278954,414.921271 L510.683195,416.249489 L507.852527,416.754917 L507.13605,418.764876 L506.701466,418.999959 L506.818921,419.916782 L506.384337,419.999061 L505.855789,419.352583 L505.64437,420.480981 L505.010112,420.739572 L504.422836,421.480083 L502.285153,422.161823 L501.521695,422.69076 L501.275039,424.19529 L498.972918,426.863481 L496.823489,428.509061 L494.756279,429.13203 L493.934093,428.626602 L493.6522,429.343605 L492.818269,429.461146 L492.078301,430.57779 L489.88189,432.270387 L488.766067,434.503674 L487.039476,435.126644 L487.344859,436.078729 L486.358236,437.64203 L485.336376,438.523591 L485.430341,439.28761 L484.995757,440.086892 L485.254158,440.73337 L484.925283,441.332831 L484.96052,443.307528 L483.774223,444.071547 L482.881564,444.271367 L483.233929,445.928702 L482.529199,446.163785 L482.000651,445.634848 L480.497225,445.599586 L479.087763,446.105014 L478.794125,444.541713 L476.985316,442.002818 L475.775528,438.053425 L474.788905,436.901519 L470.654484,440.73337 L465.744859,441.41511 L466.073734,443.248757 L468.293636,445.963964 L467.988252,447.433232 L467.353995,447.492003 L467.248285,448.020939 L468.434582,451.03 L469.53866,452.416989 L471.500161,453.333812 L471.453179,455.073425 L473.17977,455.837445 L472.73344,457.906174 L472.921368,460.02192 L471.00685,462.14942 L471.876018,463.853771 L473.215006,463.93605 L476.210112,462.737127 L478.617943,460.821202 L482.282543,459.998412 L482.564435,460.057182 L482.916801,460.84471 L484.326262,461.820304 L484.772592,462.619586 L485.911907,462.34924 L486.334745,461.902583 L487.47406,461.46768 L495.531482,461.197334 L495.778138,461.761533 L493.675691,467.215456 L493.264598,467.885442 L491.831646,469.037348 L493.969329,470.365566 L493.898856,471.68203 L494.509623,475.784227 L498.714517,476.983149 L499.419248,477.547348 L500.417616,477.194724 L501.228057,477.958743 L501.016637,479.404503 L503.436213,479.663094 L504.270145,479.075387 L504.810438,479.134157 L506.443065,479.663094 L507.453179,480.779738 L507.934745,479.874669 L508.545512,479.580815 L508.287111,480.756229 L507.147796,481.520249 L506.912885,482.425318 L506.149427,483.165829 L504.880912,487.985028 L505.19804,489.630608 L506.572266,491.605304 L507.464925,493.77982 L506.983359,494.461561 L506.689721,495.930829 L506.208155,496.165912 L506.031972,496.718356 L505.233277,497.63518 L504.681238,501.596326 L503.800324,501.478785 L501.650895,500.068287 L501.275039,498.834102 L496.095267,501.455276 L494.850243,501.89018 L494.43915,501.807901 L494.309949,505.886588 L494.944207,506.850428 L495.461009,507.085511 L495.437518,507.64971 L496.200977,509.412831 L495.554974,509.965276 L495.214354,509.941768 L495.531482,510.846837 L493.804892,512.52768 L492.806523,514.137997 L492.371939,514.396588 L491.47928,514.631671 L490.774549,513.985193 L489.517779,513.397486 L488.754321,512.551188 L488.002608,512.433646 L487.109949,513.115387 L486.170308,514.572901 L486.017616,516.336022 L488.401956,517.041271 L489.846654,518.134406 L490.610112,519.827003 L495.778138,523.000622 L495.813375,523.470787 L494.56835,525.903895 L493.934093,526.432831 L494.732788,528.337003 L493.86362,528.30174 L491.079933,528.948218 L487.356605,528.830677 L486.687111,528.572086 L486.534419,527.455442 L485.759215,526.573881 L483.774223,526.103715 L478.394778,527.831575 L476.879606,529.12453 L475.493636,529.571188 L475.387926,528.395773 L474.976833,528.278232 L473.379443,528.454544 L472.557257,529.453646 L470.290373,527.808066 L470.313864,526.138978 L469.609133,524.176036 L465.181075,526.45634 L463.231319,528.478052 L462.902445,528.395773 L462.10375,525.551271 L459.648938,527.13808 L457.828383,527.13808 L456.630341,527.772804 L455.338334,528.043149 L452.307991,523.764641 L450.945512,524.52866 L450.687111,524.434627 L449.113212,520.27366 L447.245675,520.591022 L443.451874,524.963564 L442.453505,526.808964 L440.339313,526.808964 L438.777159,525.727583 L437.790536,526.961768 L435.723326,527.314392 L434.66623,528.30174 L433.444696,528.10192 L432.810438,527.572983 L431.894288,527.549475 L432.04698,526.432831 L434.407828,523.200442 L435.300487,520.41471 L435.218269,519.650691 L433.609133,516.336022 L433.64437,515.724807 L434.865903,513.985193 L434.830667,513.432749 L433.773571,511.76366 L431.283522,511.552086 L430.989884,510.376671 L429.932788,510.376671 L429.462967,509.882997 L428.405871,510.000539 L426.902445,509.29529 L426.655789,508.907403 L426.902445,508.496008 L426.749753,507.943564 L426.009786,507.085511 L425.563456,507.261823 L425.915822,505.710276 L424.61207,504.064696 L424.929199,503.59453 L424.330177,503.300677 L424.294941,502.360345 L423.872102,501.74913 L424.03654,500.808798 L424.365414,500.456174 L424.03654,499.398301 L424.482869,498.634282 L424.294941,497.247293 L424.459378,496.929931 L424.107013,496.424503 L425.446001,495.284351 L424.74127,494.40279 L425.222836,493.756312 L426.138987,493.603508 L429.42773,491.523025 L430.989884,491.523025 L431.659378,489.548329 L433.327241,488.043798 L433.938008,487.138729 L434.349101,483.753536 L434.924631,482.895483 L436.334093,482.60163 L438.272102,483.718273 L439.235235,483.224599 L439.810765,482.131464 L439.810765,479.956948 L440.351058,478.334876 L442.582706,475.513881 L443.628057,472.222721 L445.648285,471.211865 L445.601303,469.97768 L445.096246,468.919807 L444.485479,468.355608 L443.181727,468.120525 L441.690047,469.425235 L440.280585,469.777859 L439.01207,469.096119 L438.847633,467.591588 L441.302445,464.676561 L441.948448,463.030981 L443.956931,461.902583 L445.742249,458.905276 L446.834582,457.929682 L447.269166,457.130401 L447.457094,456.401644 L447.280912,453.568895 L448.995757,450.383522 L449.113212,449.643011 L448.361499,448.350055 L445.965414,447.350953 L445.742249,446.492901 L446.987274,444.459434 L448.232298,441.450373 L448.38499,438.547099 L448.666882,438.076934 L449.700487,438.076934 L451.932135,439.264102 L453.047959,439.029019 L453.517779,438.429558 L453.564761,437.64203 L452.895267,435.103135 L453.341597,434.327362 L454.316474,433.563343 L454.445675,433.034406 L453.975854,431.906008 L452.789558,430.43674 L452.719084,429.543425 L453.776181,428.509061 L455.220879,428.132928 L457.957584,429.226064 L459.202608,428.132928 L459.425773,427.6275 L459.684174,425.946657 L458.920716,424.81826 L458.180748,424.500898 L456.148775,424.465635 L455.24437,423.936699 L454.985969,422.784793 L455.279606,421.715166 L457.922347,418.471022 L458.591841,418.141906 L461.023163,417.848052 L461.880585,415.156354 L463.70114,413.886906 L460.236213,411.195207 L460.482869,410.160843 L459.69592,409.50261 L459.59021,408.562279 L458.732788,407.915801 L458.063293,406.846174 L456.548122,408.268425 L456.184011,409.420331 L455.737682,409.420331 L454.739313,408.444738 L454.386947,408.409475 L453.658726,409.455594 L452.789558,409.949268 L451.955626,410.008039 L450.369982,411.348011 L449.371613,411.606602 L448.925283,410.513467 L449.113212,409.866989 L449.665251,409.267528 L449.665251,408.385967 L449.113212,408.268425 L449.054484,407.586685 L448.197062,407.762997 L447.997388,406.881436 L448.009133,406.376008 L449.218921,406.023384 L449.371613,405.717776 L448.455463,405.517956 L448.925283,403.919392 L447.198693,402.144517 L444.873081,401.697859 L443.2522,400.722265 L442.512233,401.309972 L442.347796,401.75663 L441.65481,401.404006 L440.879606,401.874171 L440.092657,401.580318 L439.834256,401.932942 L438.272102,401.968204 L436.827404,403.084848 L435.359215,402.555912 L435.053832,402.203287 L434.349101,402.109254 L434.184664,402.461878 L433.714843,402.43837 L433.092331,401.791892 L430.801956,402.461878 L430.508318,401.909434 L429.838823,401.580318 L428.370634,401.462776 L427.348775,401.721367 L426.174223,399.82895 L426.115496,399.335276 L426.561825,399.00616 L426.138987,397.971796 L423.966067,396.843398 L409.812722,391.072113 L415.23915,389.414779 L415.203913,390.061257 L419.92561,387.68692 L420.783032,382.597376 L421.064925,375.333315 L429.333766,363.555663 L467.083848,351.766257 L477.99543,342.409959 L466.731482,323.191934 L464.546817,310.767804 L463.12561,307.135773 L460.388905,288.258619 L470.255137,290.198052 L473.379443,292.678177 L479.498856,292.043453 L485.207176,290.198052 L491.725936,287.518108 L493.99282,289.328246 L496.294941,292.196257 L497.375528,291.150138 L497.727894,291.091367 L498.268187,291.538025 L498.808481,291.032597 L499.290047,290.973826 L499.36052,290.64471 L498.503098,289.657362 L497.951058,288.411423 L497.927567,283.392403 L495.977812,280.524392 L495.425773,279.149157 L495.167372,277.127445 L495.273081,274.341713 L494.685805,272.308246 L490.011091,267.735884 L485.923652,265.232251 L485.383359,264.63279 L485.089721,263.140014 L486.499182,260.295511 L486.534419,258.920276 L485.348122,258.379586 L483.327894,258.379586 L482.658399,257.697845 L482.576181,256.675235 L484.04437,254.406685 L482.752363,249.25837 L482.353016,245.638094 L481.63654,244.979862 L478.958562,243.83971 L473.814027,243.146215 L472.698204,242.87587 L470.701466,241.888522 L469.40946,240.242942 L469.010112,237.128094 L468.15269,233.590097 L465.780096,231.345055 Z M305.277649,212.326851 L306.369982,213.102624 L307.36835,215.535732 L308.801303,216.793425 L313.781401,219.073729 L314.204239,219.520387 L314.180748,220.354931 L315.108644,220.989655 L315.93083,222.729268 L317.563456,224.527652 L318.232951,224.797997 L319.548448,224.621685 L321.357257,222.70576 L322.437845,222.22384 L323.577159,222.400152 L324.505055,222.882072 L326.384337,224.83326 L330.624468,226.901989 L330.753668,227.771796 L330.201629,229.358605 L330.131156,230.557528 L330.471776,231.333301 L331.340944,232.085566 L330.518758,233.307997 L328.357584,235.106381 L328.428057,237.292652 L334.993799,235.611809 L337.413375,235.517776 L341.089721,236.411091 L345.459052,235.447251 L346.516148,235.564793 L347.855137,236.128992 L349.793146,237.868605 L351.155626,238.374033 L352.341923,237.986146 L353.774876,236.787224 L355.090373,236.340566 L357.157584,236.516878 L359.647633,237.410193 L360.516801,237.351423 L364.251874,234.777265 L370.124631,232.085566 L371.052527,231.392072 L371.780748,230.134378 L371.945186,226.208494 L373.096246,222.376644 L376.326262,216.887459 L378.522673,214.066464 L379.450569,212.385622 L380.026099,211.903702 L381.553016,211.868439 L382.152037,212.256326 L383.866882,214.689434 L385.722673,215.465207 L388.306686,215.70029 L389.516474,215.523978 L391.842086,214.948025 L392.863946,214.231022 L393.662641,213.09087 L393.944533,211.374765 L394.614027,210.081809 L396.422836,209.306036 L397.115822,209.306036 L398.266882,209.905497 L401.132788,212.761754 L404.997062,213.725594 L406.183359,213.361215 L407.557584,211.080912 L408.391515,210.363909 L411.680259,210.128826 L413.935398,209.682169 L416.296246,210.246367 L419.420553,212.291588 L420.477649,212.714738 L422.803261,212.655967 L423.754647,212.926312 L424.976181,214.278039 L426.068513,217.545691 L427.348775,219.438108 L429.333766,220.695801 L432.810438,221.295262 L434.2199,222.646989 L435.535398,224.927293 L436.428057,225.797099 L439.998693,226.396561 L440.832624,226.878481 L442.242086,228.312486 L442.747143,229.182293 L442.547469,229.358605 L443.510602,230.921906 L444.602934,231.850483 L446.129851,232.602749 L447.410112,232.873094 L450.123326,232.908356 L454.621858,231.732942 L463.008155,230.804365 L465.791841,231.309793 L468.176181,233.554834 L469.033603,237.092831 L469.421205,240.20768 L470.724957,241.85326 L472.709949,242.840608 L473.825773,243.110953 L478.970308,243.804448 L481.648285,244.944599 L482.376507,245.602831 L482.764109,249.223108 L484.067861,254.371423 L482.599672,256.639972 L482.670145,257.662583 L483.339639,258.344323 L485.359867,258.344323 L486.546164,258.885014 L486.510928,260.260249 L485.101466,263.104751 L485.395104,264.597528 L485.935398,265.196989 L490.022836,267.712376 L494.685805,272.284738 L495.284827,274.318204 L495.179117,277.092182 L495.437518,279.125649 L496.001303,280.500884 L497.951058,283.368895 L497.974549,288.387914 L498.526589,289.645608 L499.384011,290.632956 L499.313538,290.962072 L498.831972,291.020843 L498.291678,291.526271 L497.751385,291.079613 L497.399019,291.138384 L496.318432,292.184503 L494.016311,289.316492 L491.749427,287.494599 L485.230667,290.186298 L479.522347,292.031699 L473.402934,292.654669 L470.278628,290.174544 L460.412396,288.23511 L463.149101,307.112265 L464.582053,310.744296 L466.754974,323.168425 L478.018921,342.38645 L467.107339,351.742749 L429.357257,363.532155 L421.088416,375.309807 L420.806523,382.573867 L419.949101,387.675166 L415.227404,390.049503 L415.262641,389.403025 L409.836213,391.060359 L409.131482,390.43739 L408.297551,384.654351 L408.555952,382.338785 L408.309297,381.210387 L408.567698,380.881271 L408.473734,380.081989 L408.732135,379.306215 L408.450243,377.848702 L406.277323,376.308909 L403.023815,372.782666 L401.64959,370.890249 L400.96835,369.174144 L396.211417,367.834171 L395.095593,367.740138 L395.001629,368.128025 L394.167698,368.903798 L393.662641,370.420083 L391.724631,372.194959 L387.202608,373.053011 L386.627078,374.804378 L385.581727,374.92192 L382.527894,378.988854 L376.103098,377.449061 L369.243717,375.439102 L368.985316,375.674185 L369.020553,376.532238 L368.351058,378.248343 L367.399672,379.047624 L363.276996,378.988854 L359.506686,379.459019 L353.892331,378.036768 L349.452527,379.553052 L348.712559,379.223936 L347.021205,377.59011 L349.793146,367.152431 L349.534745,366.41192 L342.264272,361.698508 L337.413375,363.297072 L335.334419,364.930898 L330.09592,363.332334 L329.614354,353.623412 L328.251874,352.459751 L327.453179,351.390124 L326.842412,349.697528 L326.102445,348.663163 L318.420879,340.070884 L322.355626,332.101575 L324.469819,328.504807 L319.59543,316.950483 L314.368677,316.79768 L313.452527,316.562597 L312.137029,314.294047 L312.230993,312.331105 L311.397062,311.978481 L310.856768,312.131285 L308.754321,313.859144 L307.861662,315.49297 L306.710602,316.503826 L306.041107,318.349227 L306.522673,321.769682 L305.53605,323.227196 L305.653505,324.602431 L298.347796,330.796865 L297.196735,331.960525 L291.829036,339.013011 L291.758562,338.002155 L291.206523,338.037417 L291.077323,338.660387 L291.558889,339.201077 L290.372592,339.741768 L289.033603,339.353881 L290.912885,338.848453 L290.490047,338.307762 L289.785316,338.519337 L289.562151,337.955138 L288.411091,337.120594 L288.129199,335.839392 L286.942902,334.710994 L286.567045,333.794171 L285.968024,333.758909 L285.462967,334.440649 L285.051874,333.641367 L283.959541,333.429793 L284.182706,332.71279 L283.607176,332.865594 L283.477975,333.276989 L281.857094,332.865594 L281.727894,333.276989 L280.388905,334.405387 L280.388905,335.12239 L280.200977,335.157652 L278.897225,334.710994 L278.920716,333.87645 L277.804892,333.782417 L277.241107,333.39453 L276.289721,334.193812 L274.915496,333.570843 L266.141597,335.32221 L264.191841,334.487666 L262.888089,333.53558 L262.383032,332.254378 L262.418269,330.973177 L262.089394,329.597942 L262.57096,328.681119 L263.181727,328.504807 L265.201956,328.328494 L265.683522,329.28058 L266.634908,329.668467 L268.525936,329.880041 L270.757584,330.714586 L271.755952,331.396326 L273.07145,331.666671 L274.504403,332.407182 L274.527894,332.971381 L276.031319,332.936119 L275.996083,332.583494 L275.444044,332.289641 L276.618595,331.278785 L276.454158,331.125981 L275.209133,331.631409 L273.588252,331.513867 L273.435561,331.278785 L272.613375,327.823066 L272.707339,326.541865 L272.225773,324.249807 L272.249264,323.803149 L273.07145,323.18018 L274.034582,321.722666 L274.199019,320.829351 L274.527894,321.39355 L275.173897,321.605124 L276.195757,320.676547 L274.351711,319.277804 L275.056442,316.691892 L275.35008,313.976685 L274.657094,313.588798 L271.650243,313.08337 L271.309623,312.307597 L271.109949,310.368163 L270.640128,309.709931 L267.280912,308.334696 L265.847959,308.4875 L264.767372,308.252417 L264.062641,307.18279 L262.523978,307.006478 L260.280585,307.511906 L259.834256,308.252417 L258.812396,308.405221 L258.119411,309.333798 L258.142902,310.109572 L257.496898,311.390773 L254.501792,312.965829 L253.033603,315.916119 L252.011744,316.633122 L251.94127,317.491174 L249.674386,318.031865 L248.875691,320.500235 L247.759867,322.55721 L246.138987,322.909834 L242.944207,324.755235 L243.390536,329.96232 L241.476018,330.58529 L240.101792,330.079862 L237.870145,331.243522 L235.826425,330.197403 L225.936703,328.352003 L218.525283,331.114227 L217.526915,323.38 L220.721695,316.386285 L218.748448,313.494765 L209.457747,314.952279 L207.93083,314.717196 L206.885479,314.893508 L205.029688,316.832942 L201.012722,317.549945 L190.794125,323.203688 L190.124631,323.321229 L189.267208,324.390856 L190.265577,324.743481 L191.921695,324.708218 L192.743881,326.012928 L192.544207,327.352901 L193.096246,327.858329 L192.767372,328.516561 L192.027404,328.516561 L192.438497,329.938812 L191.769003,329.938812 L191.545838,330.620552 L190.371287,331.925262 L191.956931,335.815884 L199.23915,345.419019 L198.21729,346.64145 L199.180422,348.663163 L197.489068,348.334047 L192.356279,350.919959 L190.218595,351.307845 L189.173244,351.213812 L186.107665,350.438039 L182.654484,350.320497 L181.632624,345.383757 L181.221531,344.725525 L170.427404,345.054641 L169.793146,343.185732 L168.618595,343.032928 L168.007828,341.692956 L168.383685,341.340331 L168.313212,339.588964 L168.794778,339.024765 L168.73605,337.473218 L167.843391,333.19471 L168.571613,331.737196 L170.075039,330.373715 L169.158889,328.880939 L162.11158,312.178301 L159.680259,307.053494 L159.645022,304.761436 L160.85481,301.129406 L160.72561,300.835552 L162.79282,295.287597 L163.015985,294.006395 L162.89853,292.302044 L162.698856,291.502762 L161.254158,289.022638 L155.123,281.499986 L154.383032,279.619323 L154.253832,278.455663 L154.500487,275.763964 L155.839476,272.860691 L157.953668,270.768453 L163.062967,268.523412 L165.036213,264.820856 L170.075039,265.420318 L174.538334,264.374199 L177.087111,263.234047 L180.751711,262.458273 L184.615985,260.65989 L186.248611,259.707804 L187.881238,258.003453 L189.149753,255.911215 L189.596083,253.971782 L191.921695,251.66797 L192.461988,250.469047 L193.507339,250.433785 L194.024142,249.082058 L195.245675,248.306285 L197.794451,245.908439 L211.748122,250.574834 L215.835561,250.997983 L229.777486,247.166133 L232.713864,244.80355 L244.424142,241.453619 L250.050243,237.468964 L254.161173,233.813425 L256.522021,231.204006 L257.355952,229.887541 L259.153016,224.457127 L262.030667,221.036671 L264.814354,219.532141 L267.398367,218.697597 L269.911907,218.544793 L274.657094,219.261796 L276.700814,218.815138 L277.793146,218.368481 L280.670797,216.299751 L284.030014,212.820525 L288.411091,210.634254 L290.490047,210.152334 L293.555626,210.152334 L298.958562,211.351257 L305.277649,212.326851 Z M34.8137034,337.414448 L38.2668845,338.519337 L38.0202287,339.23634 L38.2433935,339.389144 L38.713214,339.177569 L38.9011423,339.412652 L39.9817295,339.447914 L41.8257752,341.622431 L42.941599,342.010318 L44.8796088,342.069088 L45.9367051,342.362942 L46.2303429,342.927141 L47.3461667,343.220994 L47.5928225,343.785193 L52.220555,345.125166 L60.6420884,346.465138 L61.5582385,347.534765 L61.6874392,348.075456 L62.1102777,348.251768 L62.2394783,348.792459 L65.2345844,350.755401 L66.667537,352.777113 L68.4528552,352.953425 L69.8975534,352.48326 L74.4548127,353.400083 L74.642741,353.98779 L73.9027736,354.587251 L73.797064,355.680387 L75.7468193,356.714751 L76.4515501,356.750014 L76.5220232,356.420898 L76.1696578,353.212017 L76.3223494,352.800622 L79.9047312,352.894655 L80.5742255,353.729199 L81.9367051,354.46971 L83.7220232,354.740055 L83.1817295,355.327762 L83.146493,355.868453 L84.5089726,358.513135 L84.8965746,358.301561 L84.379772,356.608964 L85.0140297,356.338619 L84.5677002,354.881105 L85.1197393,354.939876 L84.9553021,355.351271 L85.272431,356.326865 L85.8244702,356.033011 L86.2355631,354.939876 L86.6466561,354.975138 L86.3647638,355.386533 L86.7171292,355.797928 L88.1500819,356.009503 L89.5830346,356.902818 L94.3282222,356.785276 L95.5732467,355.210221 L95.9843397,354.081823 L98.7562809,353.247279 L99.5549759,352.212914 L102.878956,349.920856 L104.887439,349.062804 L107.941273,348.404572 L108.046982,348.134227 L109.444699,347.687569 L110.055465,347.781602 L110.443067,347.428978 L111.359217,348.145981 L111.605873,346.92355 L111.406199,346.453384 L112.040457,345.207445 L112.169658,343.397307 L113.191517,342.292417 L112.756933,341.281561 L112.569005,338.660387 L114.507015,335.921671 L117.537355,336.192017 L117.983685,336.814986 L122.611417,337.531989 L122.235561,338.154959 L122.68189,338.601616 L123.163456,338.390041 L123.891678,339.612472 L124.537682,339.847555 L125.30114,342.586271 L124.984011,342.797845 L125.207176,343.538356 L125.970634,343.538356 L127.380096,346.570925 L128.472429,347.910898 L133.746164,348.240014 L136.177486,348.651409 L140.523326,352.447997 L143.776833,356.31511 L145.691352,357.408246 L143.647633,354.740055 L142.661009,352.577293 L144.669492,351.801519 L145.844044,351.742749 L146.419574,352.154144 L146.995104,353.341312 L148.0522,353.341312 L148.874386,353.929019 L149.872755,355.351271 L149.778791,355.91547 L150.131156,355.97424 L150.612722,355.233729 L149.790536,354.516727 L149.402934,353.623412 L152.315822,353.776215 L151.869492,353.30605 L149.30897,352.835884 L148.862641,352.389227 L153.067535,352.177652 L154.500487,352.506768 L153.725283,351.730994 L150.142902,351.707486 L148.522021,351.202058 L146.983359,348.557376 L147.077323,347.193895 L148.298856,346.806008 L149.062314,347.076354 L150.213375,346.10076 L150.90636,345.947956 L151.411417,349.568232 L154.089394,351.143287 L155.404892,351.37837 L153.290699,350.273481 L152.151385,349.262624 L151.799019,348.42808 L151.834256,346.911796 L152.186621,346.58268 L152.691678,346.970566 L152.891352,348.216506 L153.091026,345.665856 L153.830993,344.831312 L155.393146,344.831312 L156.661662,345.372003 L157.201956,345.33674 L158.517453,346.347597 L159.280912,348.874738 L160.420226,350.778909 L162.405218,352.976934 L159.750732,357.020359 L150.248611,369.303439 L137.633929,378.847804 L134.215985,381.069337 L133.476018,381.809848 L131.079933,383.055787 L130.445675,384.184185 L127.02773,384.983467 L126.510928,384.748384 L125.911907,383.737528 L125.148448,384.360497 L123.750732,384.924696 L123.081238,383.796298 L121.859704,383.831561 L119.522347,385.136271 L118.653179,386.111865 L117.76052,386.464489 L116.844372,387.322541 L116.492007,386.875884 L114.835889,389.626354 L112.181403,390.096519 L112.11093,390.954572 L111.347472,392.376823 L109.315498,392.529627 L108.387602,392.823481 L108.364111,393.211367 L107.119087,393.599254 L106.567048,392.294544 L105.674389,391.283688 L105.110604,392.235773 L104.030017,392.294544 L103.454486,393.270138 L103.701142,394.574848 L103.149103,394.668881 L102.456118,395.620967 L100.435889,396.53779 L99.3905387,396.149903 L99.0146822,396.620069 L98.0280591,397.125497 L97.6522026,396.208674 L96.5716153,394.962735 L98.7327899,393.305401 L99.2730835,392.235773 L98.1807507,390.402127 L96.5598698,391.236671 L92.7895599,393.92837 L91.4858078,393.129088 L91.0159873,393.481713 L90.6048943,393.305401 L89.7357263,393.775566 L88.655139,393.328909 L87.351387,394.339765 L86.0828715,394.633619 L83.6985322,393.563992 L82.7471455,393.411188 L82.5474718,393.646271 L82.8058731,394.621865 L82.6414359,394.774669 L81.7135403,393.998895 L81.3376839,393.199613 L80.2805876,392.929268 L79.9986953,392.365069 L79.7990215,389.015138 L79.9869498,384.007873 L81.1262646,380.869517 L80.8678633,380.458122 L79.4701472,380.105497 L77.7553021,378.565704 L76.9213707,378.21308 L76.6042418,378.89482 L75.8055468,379.306215 L74.8776512,378.683246 L73.8557915,376.696796 L73.1275697,376.250138 L72.3993478,376.638025 L67.7951064,375.54489 L66.6088095,376.015055 L62.4978796,374.827887 L62.0515501,374.557541 L61.4055468,373.288094 L59.4323005,373.252831 L58.9507344,372.45355 L55.5092989,370.431837 L53.1484506,370.431837 L52.2910281,371.019544 L49.6365419,369.444489 L48.7791194,369.538522 L48.2388258,368.621699 L43.0942907,365.894738 L41.250245,368.092762 L42.1429041,369.691326 L41.4381733,370.196754 L41.7553021,370.996036 L41.4264277,371.560235 L40.8508976,370.996036 L40.2401308,371.14884 L39.4061994,370.431837 L39.3474718,370.020442 L37.7500819,369.22116 L37.1393152,369.456243 L36.8926594,370.232017 L36.3171292,370.643412 L34.2146822,370.373066 L33.2632956,372.394779 L32.2414359,372.547583 L30.8437198,371.14884 L29.0231651,371.501464 L31.2783038,383.690511 L22.8450248,384.701367 L17.2659057,385.089254 L16.1500819,384.971713 L13.4955958,383.960856 L12.7556284,384.019627 L12.2388258,381.269157 L11.9216969,380.857762 L10.582708,379.588315 L9.2437194,380.446367 L8.480261,378.871312 L6.50701467,377.625373 L5.42642739,375.486119 L3.79380097,375.074724 L3.12430668,374.24018 L4.24013049,373.323356 L4.20489395,371.63076 L3.87601956,371.101823 L2.24339314,369.973425 L1.51517128,368.128025 L3.18303425,367.23471 L0.0469820555,363.520401 L2.27373675e-13,362.991464 L4.68646002,357.678591 L4.34584012,355.010401 L2.74845023,352.929917 L2.59575855,352.013094 L2.85415986,349.815069 L1.31549754,346.841271 L2.24339314,345.501298 L3.84078302,344.372901 L3.86427405,344.843066 L4.19314844,344.807804 L4.29885806,344.208343 L7.65807503,342.985912 L11.968679,340.811395 L13.5073413,340.576312 L13.7305061,341.493135 L14.5644375,341.763481 L14.7288747,341.164019 L17.0309954,340.447017 L17.9236545,339.730014 L20.6603592,339.342127 L23.3735729,338.448812 L24.4541602,337.943384 L24.6068519,337.437956 L25.6287116,337.379185 L27.4845028,335.745359 L29.5634587,335.533785 L30.3973902,335.886409 L33.4982059,336.180262 L34.6727573,336.591657 L34.8137034,337.414448 Z M48.7982662,282.057712 L50.1063625,286.342693 L50.4822189,287.024434 L52.1030999,288.575981 L52.0091357,289.175442 L53.066232,290.221561 L53.1954326,290.762251 L54.781077,291.443992 L56.9187605,293.171851 L57.5882548,293.348163 L59.2443723,296.803881 L60.3601961,300.11855 L62.850245,303.785843 L63.5784669,304.408812 L63.5784669,305.090552 L63.8721047,304.549862 L64.5063625,305.713522 L64.0952695,304.643895 L64.6942907,304.996519 L64.5650901,304.667403 L67.07863,304.161975 L66.5383364,303.926892 L64.8822189,304.103204 L64.3419253,303.386202 L66.0685158,302.645691 L67.0903755,301.576064 L68.5350738,301.28221 L68.0300167,300.623978 L67.900816,300.059779 L69.0871129,297.85 L69.3102777,296.474765 L71.3892336,295.134793 L72.2818927,295.193564 L71.7768356,296.392486 L72.3523658,296.357224 L72.5755305,295.52268 L77.0388258,295.428646 L80.8326268,295.934075 L82.3360525,295.428646 L82.758891,294.711644 L83.2404571,294.500069 L84.9905387,294.229724 L85.2841765,293.841837 L87.5158242,293.747804 L88.5024473,293.924116 L89.8649269,294.69989 L90.2525289,295.299351 L90.1938013,295.746008 L90.8398046,296.310207 L93.0479612,296.756865 L93.6234914,296.486519 L93.4590542,295.651975 L94.1520395,295.228826 L94.5044049,295.264088 L94.8450248,296.216174 L97.7814033,295.405138 L99.4375207,295.969337 L99.8603592,295.546188 L100.377162,295.898812 L100.6708,295.181809 L101.692659,295.146547 L102.620555,294.547086 L103.75987,295.052514 L105.263296,294.993743 L105.803589,295.734254 L106.003263,297.22703 L106.414356,298.096837 L108.046982,300.447666 L110.924633,299.189972 L113.085808,299.577859 L117.231972,301.070635 L119.076018,301.999213 L119.451874,301.881671 L119.334419,303.221644 L119.628057,304.291271 L120.203587,304.291271 L120.003913,301.90518 L121.342902,302.739724 L122.306034,302.857265 L123.081238,304.43232 L123.692005,304.526354 L123.821205,304.878978 L126.088089,306.454033 L127.109949,307.52366 L128.484174,307.100511 L129.118432,308.087859 L128.742575,309.333798 L129.165414,310.709033 L129.553016,310.944116 L129.999345,311.837431 L129.999345,312.319351 L129.447306,313.271436 L129.294615,313.835635 L129.705708,314.24703 L130.09331,315.49297 L130.574876,315.728052 L131.878628,317.608715 L132.383685,317.867307 L133.687437,320.406202 L134.650569,320.441464 L136.318432,324.073494 L138.080259,324.48489 L142.44959,327.247113 L142.931156,327.129572 L143.624142,328.199199 L144.681238,328.352003 L147.523652,327.870083 L148.475039,326.976768 L151.48189,325.401713 L152.374549,325.342942 L152.785642,324.802251 L156.368024,325.425221 L156.920063,325.719075 L157.272429,326.283273 L158.188579,326.553619 L160.232298,326.400815 L159.668513,320.653039 L160.091352,319.219033 L159.010765,311.085166 L151.023815,307.476644 L150.354321,306.348246 L150.283848,305.631243 L151.329199,303.480235 L149.896246,302.293066 L149.543881,301.42326 L147.406197,301.270456 L146.736703,300.94134 L146.2199,301.599572 L145.362478,301.811146 L143.917779,300.494682 L142.355626,301.094144 L137.857094,300.917831 L137.657421,300.647486 L136.024794,300.741519 L135.872102,300.200829 L132.677323,299.965746 L132.137029,299.342776 L132.465903,298.837348 L131.949101,298.684544 L132.078301,298.449461 L131.796409,298.155608 L131.091678,298.214378 L130.140292,295.675483 L130.422184,295.193564 L129.247633,294.147445 L128.801303,294.323757 L128.484174,293.971133 L128.378465,292.57239 L125.277649,292.008191 L124.056115,291.32645 L124.561173,289.927707 L123.374876,288.164586 L121.401629,287.330041 L120.661662,286.377956 L119.510602,285.719724 L116.961827,285.331837 L115.939968,283.956602 L116.010441,282.405055 L117.196735,280.583163 L119.440128,280.34808 L120.661662,279.631077 L121.260683,279.901423 L122.44698,279.125649 L123.222184,279.419503 L126.123326,277.268494 L127.568024,277.174461 L128.907013,275.740456 L129.928872,275.47011 L130.398693,275.646423 L130.586621,275.223273 L133.006197,274.471008 L134.474386,274.952928 L135.461009,274.800124 L137.76313,275.282044 L138.33866,275.905014 L138.91419,277.491823 L139.395757,277.25674 L139.771613,277.433052 L140.946164,278.631975 L140.699509,277.797431 L142.707991,277.832693 L145.938008,277.174461 L146.572266,277.67989 L148.110928,277.562348 L148.334093,277.773923 L148.651221,276.904116 L150.812396,276.575 L150.90636,275.916768 L150.048938,275.916768 L151.24698,274.999945 L151.176507,273.918564 L150.307339,273.859793 L149.438171,274.423992 L148.862641,274.094876 L147.911254,274.717845 L142.414354,274.565041 L140.61729,270.944765 L139.055137,269.687072 L138.409133,269.651809 L137.704403,269.08761 L137.551711,265.984517 L137.810112,265.537859 L138.632298,265.866975 L138.632298,264.91489 L141.415985,262.458273 L143.307013,262.517044 L146.689721,263.504392 L148.005218,264.162624 L148.956605,264.997169 L151.552363,266.13732 L154.735398,268.076754 L154.606197,266.525207 L153.807502,265.11471 L151.82251,263.95105 L151.669819,264.315428 L151.117779,264.468232 L148.146164,262.611077 L147.887763,262.223191 L148.439802,261.177072 L147.923,260.930235 L147.065577,262.129157 L144.575528,261.259351 L144.739965,260.894972 L144.364109,260.601119 L144.939639,260.71866 L148.298856,260.483577 L148.369329,259.884116 L147.735071,259.790083 L147.770308,259.496229 L147.382706,259.261146 L145.397714,259.472721 L144.434582,260.03692 L145.174549,259.35518 L146.995104,259.178867 L147.218269,258.696948 L147.500161,259.061326 L148.0522,259.120097 L148.181401,258.638177 L148.604239,258.367831 L147.770308,256.158052 L147.218269,255.734903 L146.830667,254.982638 L145.691352,255.699641 L139.172592,256.686989 L136.623815,258.45011 L136.84698,259.049572 L138.632298,260.871464 L138.315169,261.764779 L137.446001,261.764779 L137.023163,262.693356 L137.52822,262.928439 L137.504729,263.281064 L137.211091,263.645442 L136.823489,263.61018 L136.753016,264.479986 L134.204239,266.066796 L133.816637,267.054144 L132.007828,268.970069 L129.799672,270.05145 L128.04959,269.275677 L126.170308,270.263025 L125.841434,270.827224 L123.327894,271.755801 L120.638171,273.225069 L117.584337,273.28384 L116.538989,274.177155 L113.414682,274.376975 L112.040457,273.62471 L109.7031,271.179848 L109.186297,271.179848 L108.035237,268.817265 L107.588907,268.394116 L106.343883,269.922155 L105.204568,270.286533 L105.228059,269.922155 L104.241436,269.828122 L103.571942,270.098467 L100.001305,268.993577 L99.7781406,268.570428 L103.99478,264.83261 L105.369005,264.29192 L103.830343,264.679807 L99.64894,268.441133 L98.6975534,268.734986 L98.7915175,265.890483 L97.8753674,264.221395 L98.0750411,263.798246 L97.5934751,261.941091 L96.8887442,261.494434 L95.9608486,259.942887 L96.0548127,258.626423 L92.8013054,255.546837 L92.2962483,255.311754 L90.7928225,255.793674 L86.2003266,253.431091 L86.4469824,252.620055 L86.3412728,251.632707 L85.3781406,250.198702 L84.5442091,249.752044 L83.3696578,249.575732 L82.1833609,249.728536 L82.2655795,250.42203 L82.8998372,250.574834 L82.8998372,250.868688 L81.9484506,250.598343 L81.7487768,249.705028 L80.8913543,249.857831 L80.0574229,250.457293 L79.3879286,252.00884 L79.6698209,252.514268 L74.1729204,256.252086 L73.0805876,256.910318 L66.1235008,258.499861 L64.2949432,257.921174 L62.1572597,256.158052 L60.1487768,253.043204 L59.5497556,251.221312 L59.2678633,249.39942 L59.3383364,247.365953 L60.7712891,244.016022 L62.3099514,241.265552 L63.3670476,240.101892 L64.4593804,239.619972 L68.1709628,238.397541 L70.1794457,238.28 L76.0169661,235.882155 L80.8091357,235.846892 L85.7187605,236.83424 L86.5174555,233.119931 L87.3161504,231.979779 L88.7608486,231.192251 L90.2995109,232.696782 L95.6202287,234.377624 L97.5112565,234.013246 L101.281566,229.217555 L104.147472,227.513204 L107.718108,226.584627 L111.159544,227.066547 L113.802284,229.464392 L120.896572,231.051202 L121.413375,231.826975 L122.153342,235.035856 L125.218921,239.38489 L125.500814,245.191436 L126.099835,247.554019 L127.732461,250.42203 L129.07145,250.962721 L137.246328,251.620953 L140.758236,252.878646 L144.258399,252.784613 L146.995104,253.078467 L155.510602,259.543246 L161.571287,263.727721 L165.047959,264.867873 L163.074713,268.570428 L157.965414,270.81547 L155.851221,272.907707 L154.512233,275.810981 L154.265577,278.50268 L154.394778,279.66634 L155.134745,281.547003 L161.265903,289.069655 L162.710602,291.549779 L162.910275,292.349061 L163.02773,294.053412 L162.804566,295.334613 L160.737355,300.882569 L160.866556,301.176423 L159.656768,304.808453 L159.692005,307.100511 L162.123326,312.225318 L169.170634,328.927956 L170.086784,330.420732 L168.583359,331.784213 L167.855137,333.241727 L168.747796,337.520235 L168.806523,339.071782 L168.324957,339.635981 L168.39543,341.387348 L168.019574,341.739972 L168.630341,343.079945 L169.804892,343.232749 L170.43915,345.101657 L163.744207,345.395511 L164.120063,344.737279 L164.214027,343.126961 L161.923652,339.318619 L158.540944,337.767072 L157.319411,338.002155 L156.908318,336.838494 L156.109623,336.097983 L154.44176,336.274296 L152.938334,337.24989 L151.892983,337.637776 L151.035561,337.637776 L148.169655,339.389144 L146.948122,339.389144 L144.833929,338.977749 L143.330504,338.084434 L138.855463,337.285152 L134.392168,335.616064 L133.922347,335.498522 L133.675691,335.710097 L132.559867,334.428895 L130.527894,333.829434 L128.589884,331.866492 L128.62512,331.419834 L127.673734,330.079862 L128.319737,329.069006 L125.324631,328.140428 L125.136703,326.859227 L124.843065,326.741685 L124.502445,327.270622 L121.76574,325.965912 L120.84959,324.955055 L119.82773,324.919793 L119.510602,324.355594 L118.841107,324.026478 L118.559215,323.368246 L116.609462,322.028273 L115.552366,320.241644 L114.49527,319.583412 L112.075694,321.276008 L109.914519,321.45232 L106.860685,323.568066 L105.392496,322.851064 L105.134095,323.003867 L105.333769,324.520152 L104.499837,324.696464 L105.275041,326.541865 L105.310278,327.587983 L104.253181,329.550925 L103.806852,331.513867 L103.360522,332.03105 L103.290049,332.889102 L102.808483,333.371022 L100.694291,339.318619 L99.3905387,339.941588 L95.2443723,338.695649 L93.6587279,339.530193 L92.7308323,340.505787 L91.3331162,340.411754 L90.4404571,341.187528 L88.9370313,341.399102 L88.0208813,341.881022 L84.861338,342.092597 L84.7086463,342.445221 L83.9099514,342.174876 L81.9367051,339.765276 L80.0926594,338.484075 L79.8694946,338.013909 L77.179772,336.262541 L77.4969008,334.98134 L75.2065256,334.828536 L73.1980428,333.523826 L71.4479612,334.49942 L69.6508976,334.49942 L69.0988584,334.229075 L68.0182711,333.33576 L67.031648,329.880041 L66.1037524,329.974075 L65.2463299,328.128674 L63.2965746,326.18924 L60.4541602,323.897182 L59.1386627,323.18018 L53.4303429,322.945097 L52.3849922,323.932445 L52.2910281,324.82576 L51.1752043,325.483992 L50.6701472,325.695566 L49.4838503,325.519254 L48.6264277,325.84837 L47.6750411,325.613287 L46.2655795,325.965912 L44.8913543,324.861022 L44.7973902,322.568964 L44.151387,322.662997 L44.0339318,325.131367 L43.1060362,324.861022 L43.1060362,323.885428 L42.7184343,324.68471 L42.4952695,324.590677 L42.6009791,323.732624 L42.3190868,323.638591 L42.072431,324.379102 L42.0137034,324.614185 L43.9869498,325.566271 L43.9869498,325.801354 L42.3543233,325.413467 L41.2619906,325.64855 L41.203263,326.153978 L40.79217,325.883633 L39.8995109,326.365552 L38.9363788,325.883633 L38.4665583,324.778743 L36.8339318,323.203688 L35.741599,323.297721 L35.4244702,322.75703 L32.769984,320.91163 L31.0433935,319.277804 L30.1742255,318.149406 L27.5197393,313.08337 L25.7344212,310.520967 L23.8433935,308.699075 L22.6923331,308.405221 L17.6887442,304.737928 L15.7389889,302.116754 L14.8228388,301.611326 L14.4939645,300.65924 L13.7657426,300.236091 L14.0241439,297.826492 L14.8580754,295.534434 L18.8515501,293.207113 L22.8450248,290.009986 L25.8166398,288.094061 L30.4091357,285.343591 L31.900816,284.838163 L34.3556284,282.9575 L39.4061994,280.359834 L41.1327899,280.030718 L43.329201,280.536146 L44.9853184,280.418605 L47.0055468,280.841754 L48.7982662,282.057712 Z M52.3523891,281.315215 L55.6384995,280.065981 L58.163785,279.501782 L59.032953,278.961091 L59.2206068,277.990834 L59.9843397,278.678992 L60.3719416,278.56145 L60.2544865,279.243191 L61.2411096,278.526188 L61.2763462,279.125649 L63.1203919,278.737762 L65.2228388,280.171768 L65.774878,280.171768 L66.2212075,280.982804 L68.3823821,281.018066 L70.0972271,279.948439 L71.4362157,280.160014 L72.2584016,279.443011 L74.4665583,279.38424 L74.9716153,278.761271 L77.203263,279.243191 L78.3895599,278.114793 L81.866232,277.785677 L82.6061994,277.103936 L84.0743886,277.068674 L86.0476349,277.750414 L88.2088095,277.033412 L89.0779775,277.033412 L89.8061994,277.961989 L93.3885811,278.620221 L95.3735729,280.735967 L98.4391521,286.084102 L99.0499188,285.543412 L99.1556284,286.10761 L98.4626431,286.377956 L98.5918437,286.801105 L98.9442091,286.801105 L99.2026105,287.870732 L99.9660689,289.269475 L100.388907,289.387017 L100.165743,290.315594 L98.9442091,291.091367 L95.7611749,291.984682 L93.6822189,294.793923 L92.1905387,295.275843 L91.4975534,294.981989 L90.1350738,293.547983 L89.8531814,292.713439 L88.1030999,291.526271 L84.8730835,292.266782 L82.6766724,294.053412 L79.6110933,293.336409 L76.9566072,292.055207 L75.0655795,291.820124 L74.7719416,292.113978 L74.5135403,291.902403 L69.5451879,294.793923 L68.4058731,296.169157 L65.6926594,298.014558 L64.4241439,300.189075 L63.8486137,300.541699 L62.9207181,298.449461 L63.4375207,296.662831 L63.9778144,296.933177 L64.6120721,298.896119 L64.6707997,298.096837 L64.2244702,297.473867 L64.1892336,296.792127 L63.64894,296.40424 L62.9794457,294.112182 L61.1941276,291.60855 L63.4257752,288.681768 L62.7915175,289.104917 L61.3585648,291.197155 L60.5951064,291.373467 L59.2561178,290.538923 L58.0110933,289.104917 L56.1905387,288.211602 L55.9321374,287.612141 L55.2978796,287.882486 L54.4756937,287.377058 L52.3523891,281.315215 Z M210.820226,58.9352762 L223.434908,64.6360359 L224.60946,62.4497652 L227.123,61.7562707 L227.628057,61.7210083 L232.185316,63.660442 L230.68189,65.8467127 L229.460357,69.0673481 L229.436866,69.8313674 L227.710275,73.5926934 L224.033929,77.3187569 L224.374549,79.7166022 L222.90636,87.4155663 L221.379443,89.3197376 L221.273734,89.8956906 L221.461662,91.4354834 L222.730177,92.4698481 L225.466882,93.1045718 L227.440128,92.4345856 L230.21207,93.527721 L232.85481,93.856837 L236.660357,93.5864917 L242.685805,90.0720028 L246.221205,89.8604282 L246.691026,89.5548204 L246.937682,89.7311326 L248.300161,88.3088812 L250.061988,87.5801243 L253.691352,88.1560773 L253.432951,91.6117956 L254.102445,93.0928177 L254.196409,94.185953 L253.973244,94.7266436 L255.053832,95.5494337 L256.49853,93.7275414 L258.765414,92.2700276 L260.480259,91.8821409 L262.10114,90.6126934 L263.181727,89.0376381 L265.002282,88.2501105 L266.940292,88.6732597 L267.010765,90.6714641 L268.326262,92.8459807 L268.291026,95.8080249 L268.584664,97.4183425 L269.853179,97.3595718 L270.229036,98.2999033 L275.549753,104.165221 L278.356931,105.164323 L284.582053,109.489848 L284.523326,109.912997 L280.717779,111.394019 L281.410765,116.142693 L280.576833,116.53058 L280.482869,116.859696 L279.143881,117.071271 L275.514517,116.589351 L274.469166,115.778315 L274.046328,113.991685 L272.96574,114.567638 L271.215659,114.896754 L269.723978,115.531478 L268.666882,117.071271 L268.291026,119.492624 L266.000651,120.515235 L265.707013,121.74942 L272.061336,126.310028 L271.955626,129.060497 L272.272755,133.644613 L272.601629,135.125635 L273.64698,136.395083 L273.576507,137.993646 L275.420553,137.546989 L281.199345,137.488218 L280.247959,139.415898 L276.360194,140.838149 L273.294615,143.16547 L270.89853,146.903287 L269.559541,147.90239 L269.87667,150.159185 L268.244044,151.334599 L268.244044,152.415981 L268.760846,154.108577 L270.839802,153.897003 L271.979117,153.085967 L275.068187,153.203508 L276.254484,152.568785 L277.781401,155.495566 L277.616964,155.883453 L270.158562,157.717099 L271.81468,159.915124 L273.224142,160.397044 L274.410438,162.019116 L273.682217,162.348232 L275.620226,165.086948 L277.816637,167.59058 L279.214354,168.460387 L279.684174,170.082459 L280.987926,171.140331 L282.491352,177.06442 L284.429362,176.406188 L286.155952,176.253384 L289.785316,175.324807 L291.194778,173.549931 L292.439802,170.564378 L293.708318,169.23616 L294.753668,169.23616 L297.560846,170.352804 L298.970308,170.446837 L300.027404,169.71808 L302.44698,166.28587 L304.138334,165.286768 L304.878301,165.133964 L306.287763,165.404309 L309.153668,167.661105 L311.032951,167.44953 L311.996083,166.121312 L312.477649,164.675552 L313.687437,163.347334 L316.976181,160.761423 L317.622184,159.797583 L321.169329,158.046215 L323.142575,157.470262 L325.256768,157.587804 L326.66623,158.034461 L328.522021,158.727956 L330.941597,160.138453 L331.423163,161.043522 L331.834256,164.146616 L332.762151,166.109558 L334.10114,166.897086 L337.413375,167.473039 L338.623163,168.260566 L333.255463,178.498425 L332.715169,178.615967 L332.867861,179.368232 L330.483522,182.82395 L330.600977,184.716367 L329.731809,184.293218 L327.147796,189.077155 L326.818921,191.627804 L326.396083,192.43884 L324.411091,191.95692 L323.201303,192.262528 L322.085479,191.933412 L321.568677,192.356561 L321.369003,193.825829 L320.147469,195.659475 L318.843717,196.376478 L316.600324,196.41174 L315.073407,197.164006 L314.77977,198.186616 L315.24959,199.209227 L316.529851,199.996754 L315.836866,200.654986 L313.734419,201.501285 L313.123652,202.194779 L311.326589,201.477776 L306.628383,201.595318 L304.51419,199.738163 L304.032624,200.243591 L304.72561,202.441616 L304.314517,204.09895 L305.430341,205.956105 L309.423815,206.496796 L308.214027,212.350359 L305.430341,212.291588 L299.146491,211.363011 L293.743554,210.164088 L290.677975,210.164088 L288.599019,210.646008 L284.217943,212.832279 L280.858726,216.311506 L277.981075,218.380235 L276.888742,218.826892 L274.845022,219.27355 L270.099835,218.556547 L267.586295,218.709351 L265.002282,219.543895 L262.218595,221.048425 L259.340944,224.468881 L257.543881,229.899296 L256.709949,231.21576 L254.349101,233.82518 L250.238171,237.480718 L244.61207,241.465373 L232.901792,244.815304 L229.965414,247.177887 L216.023489,251.009738 L211.93605,250.586588 L197.98238,245.920193 L195.433603,248.318039 L194.21207,249.093812 L193.695267,250.445539 L192.649916,250.480801 L192.109623,251.679724 L189.784011,253.983536 L189.337682,255.92297 L188.069166,258.015207 L186.43654,259.719558 L184.803913,260.671644 L180.939639,262.470028 L177.275039,263.245801 L174.726262,264.385953 L170.262967,265.432072 L165.224142,264.83261 L161.747469,263.692459 L155.686784,259.507983 L147.171287,253.043204 L144.434582,252.749351 L140.934419,252.843384 L137.42251,251.585691 L129.247633,250.927459 L127.908644,250.386768 L126.276018,247.518757 L125.676996,245.156174 L125.395104,239.349627 L122.329525,235.000594 L121.589558,231.791713 L121.072755,231.015939 L113.978467,229.42913 L111.335726,227.031285 L107.894291,226.549365 L104.323655,227.477942 L101.457749,229.182293 L97.6874392,233.977983 L95.7964114,234.342362 L90.4756937,232.661519 L88.9370313,231.156989 L91.3683527,229.899296 L92.3314848,228.970718 L94.0228388,224.562914 L94.5278959,223.093646 L94.3986953,222.376644 L92.5076676,217.757265 L92.44894,215.90011 L93.8818927,213.678577 L95.5380101,212.385622 L97.2880917,212.021243 L99.9425778,210.998633 L102.080261,210.939862 L103.677651,210.516713 L109.104079,207.966064 L114.683198,205.838564 L116.785645,205.297873 L120.61468,205.356644 L122.470471,206.22645 L123.269166,206.978715 L121.601303,206.649599 L121.342902,207.966064 L123.762478,209.435331 L124.948775,210.845829 L125.864925,211.233715 L126.123326,210.96337 L125.489068,210.211105 L125.512559,209.670414 L126.334745,209.881989 L126.933766,209.435331 L127.262641,209.682169 L129.118432,207.519406 L128.824794,207.19029 L129.012722,206.861174 L130.445675,205.721022 L131.855137,205.086298 L131.949101,204.04018 L131.115169,202.053729 L125.594778,193.849337 L125.124957,192.732693 L125.418595,190.45239 L126.311254,189.159434 L128.448938,184.587072 L129.059704,184.140414 L128.930504,183.211837 L127.521042,181.977652 L126.475691,181.530994 L125.782706,182.671146 L125.817943,183.964102 L125.336376,183.482182 L125.136703,183.482182 L125.06623,184.022873 L124.819574,183.92884 L124.349753,183.117804 L123.139965,182.729917 L122.317779,183.388149 L121.941923,183.235345 L120.9553,183.834807 L119.710275,183.952348 L119.064272,183.64674 L118.711907,183.012017 L118.91158,181.389945 L121.566067,171.998384 L121.624794,169.530014 L121.366393,169.318439 L120.696898,169.647555 L120.696898,168.025483 L121.836213,165.380801 L122.634908,164.78134 L123.950406,164.992914 L125.265903,163.029972 L125.77096,162.85366 L127.497551,163.641188 L127.826425,163.394351 L129.200651,163.359088 L130.469166,164.170124 L132.794778,165.098702 L133.910602,166.027279 L137.833603,162.559807 L140.51158,160.749669 L142.085479,159.397942 L142.942902,158.222528 L144.093962,157.411492 L146.161173,153.920511 L148.522021,150.664613 L162.851548,134.044254 L166.868513,128.907693 L166.90375,128.449282 L167.35008,128.33174 L168.148775,129.001727 L169.017943,127.708771 L168.771287,127.555967 L168.043065,128.461036 L167.655463,128.13192 L167.596735,127.591229 L171.425773,123.665345 L172.706034,122.725014 L175.736376,119.433854 L184.005218,108.819862 L189.584337,100.61547 L196.760846,88.1090608 L201.964109,78.4118923 L210.820226,58.9352762 Z M129.341597,207.825014 L127.521042,210.046547 L127.838171,210.352155 L127.485805,211.398273 L127.603261,212.032997 L126.992494,211.915456 L127.192168,212.420884 L126.89853,212.75 L127.156931,212.985083 L127.039476,213.278936 L127.333114,213.37297 L128.202282,212.467901 L129.506034,213.161395 L131.256115,214.748204 L138.021531,217.780773 L140.323652,219.496878 L145.75008,222.200331 L149.285479,224.574669 L154.430014,226.279019 L154.300814,226.514102 L154.617943,226.749185 L155.087763,226.631644 L159.139965,231.062956 L161.630014,233.225718 L163.826425,234.718494 L164.272755,235.682334 L167.467535,239.631727 L168.360194,240.442762 L172.447633,243.01692 L174.197714,243.381298 L177.228057,245.532307 L180.481564,246.79 L182.936376,247.236657 L189.737029,247.601036 L191.040781,247.448232 L191.59282,246.942804 L191.980422,246.284572 L192.003913,245.238453 L192.520716,245.203191 L193.695267,241.277307 L192.262314,240.466271 L192.203587,240.078384 L191.815985,240.289959 L184.510275,236.01145 L178.038497,233.014144 L178.038497,232.743798 L177.556931,232.626257 L177.53344,232.896602 L169.769655,230.557528 L165.294615,228.876685 L163.92039,227.830566 L161.87667,224.950801 L161.653505,224.386602 L161.935398,224.092749 L161.958889,222.200331 L159.12822,219.050221 L156.473734,217.580953 L154.805871,217.463412 L153.877975,217.851298 L153.173244,217.545691 L149.402934,212.94982 L148.662967,212.561934 L148.15791,211.903702 L146.66623,212.115276 L145.515169,211.903702 L145.127567,212.021243 L144.845675,212.561934 L144.375854,212.620704 L142.520063,212.503163 L141.721368,211.903702 L141.850569,210.916354 L141.239802,210.76355 L140.863946,211.997735 L140.159215,211.092666 L135.731156,209.529365 L134.33344,208.212901 L132.935724,206.014876 L130.281238,207.272569 L129.705708,208.024834 L129.341597,207.825014 Z" id="Illustrations/-Map" fill="#DDE3F0" fill-rule="nonzero"></path>
    </g>
</svg>