<?xml version="1.0" encoding="UTF-8"?>
<svg width="35px" height="32px" viewBox="0 0 35 32" version="1.1" xmlns="http://www.w3.org/2000/svg" xmlns:xlink="http://www.w3.org/1999/xlink">
    <!-- Generator: Sketch 49 (51002) - http://www.bohemiancoding.com/sketch -->
    <title>Icons/ 01 Logo/ 04 Master Card</title>
    <desc>Created with Sketch.</desc>
    <defs></defs>
    <g id="Icons/-01-Logo/-04-Master-Card" stroke="none" stroke-width="1" fill="none" fill-rule="evenodd">
        <g id="MS" transform="translate(0.000000, 3.000000)" fill-rule="nonzero">
            <path d="M34.1384648,23.6595524 L34.1384648,23.5900246 L34.201892,23.5900246 C34.2159128,23.5900246 34.2279305,23.5933997 34.2366101,23.5987999 C34.2446219,23.6042002 34.2492955,23.6136506 34.2492955,23.625126 C34.2492955,23.6366015 34.2446219,23.6453768 34.2366101,23.6507771 C34.2279305,23.6568523 34.2159128,23.6595524 34.201892,23.6595524 L34.1384648,23.6595524 Z M34.2025597,23.7081544 C34.2352747,23.7081544 34.2606456,23.7007291 34.2786723,23.6858785 C34.296699,23.6710279 34.3053785,23.6507771 34.3053785,23.625126 C34.3053785,23.6035251 34.2987019,23.5859744 34.2840135,23.5717988 C34.2699928,23.5582983 34.2499631,23.5495229 34.223257,23.5461478 L34.3073815,23.4482688 L34.2419513,23.4482688 L34.1638357,23.5454728 L34.1384648,23.5454728 L34.1384648,23.4482688 L34.0837171,23.4482688 L34.0837171,23.7081544 L34.2025597,23.7081544 Z M34.1858683,23.3584901 C34.2159128,23.3584901 34.2439543,23.3645654 34.2693251,23.3760408 C34.2953637,23.3875163 34.3180639,23.4030419 34.3374259,23.4226177 C34.3567879,23.4421935 34.372144,23.4651445 34.3834941,23.4921456 C34.3941766,23.5184717 34.4001855,23.5468228 34.4001855,23.5771991 C34.4001855,23.6075753 34.3941766,23.6359265 34.3834941,23.6622525 C34.372144,23.6885786 34.3567879,23.7122046 34.3374259,23.7317804 C34.3180639,23.7513562 34.2953637,23.7668818 34.2693251,23.7783573 C34.2439543,23.7891577 34.2159128,23.794558 34.1858683,23.794558 C34.1558238,23.794558 34.1271147,23.7891577 34.1010761,23.7783573 C34.07437,23.7668818 34.051002,23.7513562 34.03164,23.7317804 C34.0122781,23.7122046 33.996922,23.6885786 33.9862395,23.6622525 C33.9748894,23.6359265 33.9695482,23.6075753 33.9695482,23.5771991 C33.9695482,23.5468228 33.9748894,23.5184717 33.9862395,23.4921456 C33.996922,23.4651445 34.0122781,23.4421935 34.03164,23.4226177 C34.051002,23.4030419 34.07437,23.3875163 34.1010761,23.3760408 C34.1271147,23.3645654 34.1558238,23.3584901 34.1858683,23.3584901 Z M34.1858683,23.8573355 C34.2252599,23.8573355 34.2613133,23.8499102 34.2960313,23.8350596 C34.3300817,23.820884 34.3594585,23.8006332 34.3854971,23.7749822 C34.4108679,23.7500061 34.4308976,23.7203049 34.445586,23.6858785 C34.4602744,23.6521271 34.4676186,23.6156756 34.4676186,23.5771991 C34.4676186,23.5387225 34.4602744,23.502271 34.445586,23.4685196 C34.4308976,23.4347682 34.4108679,23.405067 34.3854971,23.379416 C34.3594585,23.35444 34.3300817,23.3341891 34.2960313,23.3193385 C34.2613133,23.3044879 34.2252599,23.2970626 34.1858683,23.2970626 C34.145809,23.2970626 34.109088,23.3044879 34.07437,23.3193385 C34.0396519,23.3341891 34.0096074,23.35444 33.9842366,23.379416 C33.9588657,23.405067 33.938836,23.4347682 33.9241476,23.4685196 C33.9094592,23.502271 33.902115,23.5387225 33.902115,23.5771991 C33.902115,23.6156756 33.9094592,23.6521271 33.9241476,23.6858785 C33.938836,23.7203049 33.9588657,23.7500061 33.9842366,23.7749822 C34.0096074,23.8006332 34.0396519,23.820884 34.07437,23.8350596 C34.109088,23.8499102 34.145809,23.8573355 34.1858683,23.8573355 Z M8.17337224,24.8584015 C8.17337224,25.3538717 8.49451417,25.7609134 9.01929079,25.7609134 C9.52069949,25.7609134 9.85920044,25.3714224 9.85920044,24.8584015 C9.85920044,24.3453805 9.52069949,23.9558895 9.01929079,23.9558895 C8.49451417,23.9558895 8.17337224,24.3629312 8.17337224,24.8584015 Z M10.4307129,24.8584015 L10.4307129,26.2678591 L9.82448239,26.2678591 L9.82448239,25.9256201 C9.63219783,26.1794305 9.34043271,26.338737 8.9438458,26.338737 C8.16202211,26.338737 7.54911506,25.7190617 7.54911506,24.8584015 C7.54911506,23.9970662 8.16202211,23.3780659 8.9438458,23.3780659 C9.34043271,23.3780659 9.63219783,23.5373724 9.82448239,23.7911828 L9.82448239,23.4489438 L10.4307129,23.4489438 L10.4307129,24.8584015 Z M30.9170307,24.8584015 C30.9170307,25.3538717 31.2381726,25.7609134 31.7629493,25.7609134 C32.2650256,25.7609134 32.6028589,25.3714224 32.6028589,24.8584015 C32.6028589,24.3453805 32.2650256,23.9558895 31.7629493,23.9558895 C31.2381726,23.9558895 30.9170307,24.3629312 30.9170307,24.8584015 Z M33.175039,24.8584015 L33.175039,27.3998804 L32.5681409,27.3998804 L32.5681409,25.9256201 C32.3758563,26.1794305 32.0840912,26.338737 31.6875043,26.338737 C30.9056806,26.338737 30.2927735,25.7190617 30.2927735,24.8584015 C30.2927735,23.9970662 30.9056806,23.3780659 31.6875043,23.3780659 C32.0840912,23.3780659 32.3758563,23.5373724 32.5681409,23.7911828 L32.5681409,23.4489438 L33.175039,23.4489438 L33.175039,24.8584015 Z M17.9558494,25.7899396 C18.3464274,25.7899396 18.5974656,25.5422044 18.6615604,25.1061366 L17.2147526,25.1061366 C17.2795151,25.5131782 17.5238768,25.7899396 17.9558494,25.7899396 Z M17.9678672,26.338737 C17.1506578,26.338737 16.5791453,25.7372874 16.5791453,24.8584015 C16.5791453,23.9619648 17.1740257,23.3780659 18.0085941,23.3780659 C18.4285489,23.3780659 18.8131181,23.4840453 19.151619,23.7729571 L18.8545127,24.2272506 C18.6208335,24.0389179 18.3230595,23.9322636 18.0433122,23.9322636 C17.6527341,23.9322636 17.2968742,24.1151961 17.2094114,24.6228168 L19.2798087,24.6228168 C19.2858176,24.6990949 19.2918265,24.7760481 19.2918265,24.8584015 C19.2858176,25.7372874 18.7490232,26.338737 17.9678672,26.338737 Z M25.2880337,24.8584015 C25.2880337,25.3538717 25.6091756,25.7609134 26.1339522,25.7609134 C26.6353609,25.7609134 26.9738619,25.3714224 26.9738619,24.8584015 C26.9738619,24.3453805 26.6353609,23.9558895 26.1339522,23.9558895 C25.6091756,23.9558895 25.2880337,24.3629312 25.2880337,24.8584015 Z M27.5453743,24.8584015 L27.5453743,26.2678591 L26.9391438,26.2678591 L26.9391438,25.9256201 C26.7461916,26.1794305 26.4550941,26.338737 26.0585072,26.338737 C25.2766835,26.338737 24.6637765,25.7190617 24.6637765,24.8584015 C24.6637765,23.9970662 25.2766835,23.3780659 26.0585072,23.3780659 C26.4550941,23.3780659 26.7461916,23.5373724 26.9391438,23.7911828 L26.9391438,23.4489438 L27.5453743,23.4489438 L27.5453743,24.8584015 Z M21.8643002,24.8584015 C21.8643002,24.0031415 22.4531717,23.3780659 23.3518349,23.3780659 C23.7717898,23.3780659 24.0515371,23.4725698 24.3546523,23.7142297 L24.0635549,24.2096999 C23.8358846,24.0443182 23.5968642,23.9558895 23.3338083,23.9558895 C22.8497586,23.9619648 22.4938986,24.3156793 22.4938986,24.8584015 C22.4938986,25.4011237 22.8497586,25.7548381 23.3338083,25.7609134 C23.5968642,25.7609134 23.8358846,25.6724848 24.0635549,25.507103 L24.3546523,26.0025733 C24.0515371,26.2442331 23.7717898,26.338737 23.3518349,26.338737 C22.4531717,26.338737 21.8643002,25.7136614 21.8643002,24.8584015 Z M29.6805342,26.338737 C29.3306831,26.338737 29.1030128,26.1733552 28.9454463,25.9256201 L28.9454463,26.2678591 L28.344557,26.2678591 L28.344557,23.4489438 L28.9514552,23.4489438 L28.9514552,25.0291834 C28.9514552,25.4956275 29.1497486,25.7548381 29.5463356,25.7548381 C29.669184,25.7548381 29.7973737,25.7372874 29.9255634,25.6839602 L30.1125068,26.2617839 C29.9783082,26.315111 29.8033826,26.338737 29.6805342,26.338737 Z M13.4291503,26.0437499 C13.1373852,26.2381579 12.735457,26.338737 12.2921343,26.338737 C11.5857556,26.338737 11.1310827,25.996498 11.1310827,25.4362251 C11.1310827,24.9765313 11.4695837,24.6930197 12.0931732,24.6045911 L12.3795971,24.5634144 C12.7120891,24.5161625 12.868988,24.4277338 12.868988,24.2684273 C12.868988,24.0503934 12.6473266,23.9261883 12.2333807,23.9261883 C11.8134258,23.9261883 11.5103106,24.0618689 11.3060082,24.2211754 L11.020252,23.7439309 C11.3527441,23.4961957 11.7726989,23.3780659 12.2273718,23.3780659 C13.0325634,23.3780659 13.499254,23.7614816 13.499254,24.2981285 C13.499254,24.7935988 13.1320439,25.0528094 12.5251458,25.141238 L12.2393896,25.1830897 C11.9770013,25.2181912 11.76669,25.2708433 11.76669,25.4598511 C11.76669,25.6664095 11.9649835,25.7899396 12.2974755,25.7899396 C12.6533355,25.7899396 12.9978453,25.654259 13.166762,25.5482797 L13.4291503,26.0437499 Z M21.2513931,26.338737 C20.9015421,26.338737 20.6738718,26.1733552 20.5169729,25.9256201 L20.5169729,26.2678591 L19.9160837,26.2678591 L19.9160837,23.4489438 L20.5223142,23.4489438 L20.5223142,25.0291834 C20.5223142,25.4956275 20.7206076,25.7548381 21.1171945,25.7548381 C21.240043,25.7548381 21.3682327,25.7372874 21.4964224,25.6839602 L21.6833658,26.2617839 C21.5491672,26.315111 21.3742416,26.338737 21.2513931,26.338737 Z M16.0777366,26.2678591 L15.0862693,26.2678591 L15.0862693,27.1231191 L14.4733623,27.1231191 L14.4733623,26.2678591 L13.9078587,26.2678591 L13.9078587,25.7075862 L14.4733623,25.7075862 L14.4733623,24.4216586 C14.4733623,23.7675568 14.7244005,23.3780659 15.4414617,23.3780659 C15.7045176,23.3780659 16.0076329,23.4604193 16.1999174,23.5960998 L16.0249919,24.1212713 C15.8440575,24.015292 15.645764,23.9619648 15.4881975,23.9619648 C15.1850822,23.9619648 15.0862693,24.1509725 15.0862693,24.4338091 L15.0862693,25.7075862 L16.0777366,25.7075862 L16.0777366,26.2678591 Z M7.01298831,23.4489438 L7.01298831,25.2181912 C7.01298831,25.8844434 6.59303349,26.3326618 5.91603159,26.338737 C5.56017161,26.3448123 5.19296151,26.2327577 4.93591444,25.8371915 C4.74362988,26.1497293 4.44051463,26.338737 4.01455091,26.338737 C3.7167769,26.338737 3.42567943,26.2503084 3.19800917,25.9202199 L3.19800917,26.2678591 L2.59111102,26.2678591 L2.59111102,23.4489438 L3.20335041,23.4489438 L3.20335041,25.0116327 C3.20335041,25.5010277 3.47174761,25.7609134 3.8863612,25.7609134 C4.288957,25.7609134 4.4925917,25.4956275 4.4925917,25.017708 L4.4925917,23.4489438 L5.10549874,23.4489438 L5.10549874,25.0116327 C5.10549874,25.5010277 5.38524607,25.7609134 5.78784188,25.7609134 C6.20178781,25.7609134 6.40008127,25.4956275 6.40008127,25.017708 L6.40008127,23.4489438 L7.01298831,23.4489438 Z" id="Path" fill="#231F20" transform="translate(18.529365, 25.348472) scale(-1, 1) rotate(-180.000000) translate(-18.529365, -25.348472) "></path>
            <path d="M34.5123515,17.1981882 L34.5123515,17.609955 L34.4061944,17.609955 L34.2833459,17.3271184 L34.1611651,17.609955 L34.0543403,17.609955 L34.0543403,17.1981882 L34.1297853,17.1981882 L34.1297853,17.5087009 L34.2446219,17.2407149 L34.3227375,17.2407149 L34.4375741,17.5093759 L34.4375741,17.1981882 L34.5123515,17.1981882 Z M33.8386878,17.1981882 L33.8386878,17.5397521 L33.9748894,17.5397521 L33.9748894,17.60928 L33.6277089,17.60928 L33.6277089,17.5397521 L33.7639105,17.5397521 L33.7639105,17.1981882 L33.8386878,17.1981882 Z" id="Path" fill="#F79410" transform="translate(34.070030, 17.535702) scale(-1, 1) rotate(-180.000000) translate(-34.070030, -17.535702) "></path>
            <polygon id="Path" fill="#FF5F00" points="22.4411539 19.6444882 13.2531565 19.6444882 13.2531565 2.94970544 22.4411539 2.94970544"></polygon>
            <path d="M13.8417609,11.2957468 C13.8417609,14.6823603 15.4100819,17.6990587 17.8523629,19.6431382 C16.0663865,21.0647463 13.8123841,21.913256 11.3627589,21.913256 C5.56350989,21.913256 0.862552913,17.1597116 0.862552913,11.2957468 C0.862552913,5.43178195 5.56350989,0.678237537 11.3627589,0.678237537 C13.8123841,0.678237537 16.0663865,1.52674724 17.8523629,2.94835538 C15.4100819,4.89243489 13.8417609,7.90913327 13.8417609,11.2957468" id="Path" fill="#EB001B" transform="translate(9.357458, 11.295747) scale(-1, 1) rotate(-180.000000) translate(-9.357458, -11.295747) "></path>
            <path d="M34.8328257,11.2957468 C34.8328257,5.43178195 30.1318688,0.678237537 24.3326197,0.678237537 C21.8829945,0.678237537 19.6289921,1.52674724 17.8423481,2.94835538 C20.2852968,4.89243489 21.8536177,7.90913327 21.8536177,11.2957468 C21.8536177,14.6823603 20.2852968,17.6990587 17.8423481,19.6431382 C19.6289921,21.0647463 21.8829945,21.913256 24.3326197,21.913256 C30.1318688,21.913256 34.8328257,17.1597116 34.8328257,11.2957468" id="Path" fill="#F79E1B" transform="translate(26.337587, 11.295747) scale(-1, 1) rotate(-180.000000) translate(-26.337587, -11.295747) "></path>
        </g>
    </g>
</svg>