<svg width="36" height="36" fill="none" xmlns="http://www.w3.org/2000/svg"><circle opacity=".2" cx="18" cy="18" r="18" fill="#76C1FF"/><path fill-rule="evenodd" clip-rule="evenodd" d="M27 18c0-4.966-4.034-9-9-9s-9 4.034-9 9 4.034 9 9 9 9-4.034 9-9zm-9.047-2.658a.873.873 0 0 0-.652.233c-.164.163-.201.397-.201.63h-1.8c0-.77.065-1.516.625-2.052a2.882 2.882 0 0 1 2.098-.793 2.872 2.872 0 0 1 2.705 2.705c.047 1.212-.653 2.331-1.795 2.774-.024.024-.07.07-.07.14v.821H16.88v-.82c0-.887.513-1.656 1.305-1.96.35-.14.56-.489.537-.862.023-.42-.35-.793-.77-.816zM18 22.95a1.125 1.125 0 1 0 0-2.25 1.125 1.125 0 0 0 0 2.25z" fill="#2196F3"/></svg>