<svg width="256" height="154" fill="none" xmlns="http://www.w3.org/2000/svg">
  <path d="M41.12 40c.48.18 11.47 9.38 13.88 13.47C45.27 55.2 23.79 62.1 23.26 62c-.53-.1-13.03-15.02-12.22-15.16 0 0 29.63-7 30.08-6.84z" fill="#FDE384"/>
  <path d="M19.28 50.47c1.83 2.1 3.62 4.23 5.35 6.4.68.83 1.88-.34 1.21-1.18a201.13 201.13 0 00-5.35-6.37c-.71-.82-1.92.36-1.21 1.17v-.02zM22.4 49.45a50.5 50.5 0 015.23 5.78c.65.84 2.13.02 1.48-.83a53.2 53.2 0 00-5.5-6.12c-.78-.74-1.99.42-1.2 1.17zM25.59 48.53c1.7 2.09 3.45 4.13 5.26 6.12.73.8 1.94-.37 1.21-1.17-1.81-1.99-3.57-4.03-5.26-6.12-.69-.84-1.88.34-1.21 1.17zM32.75 46.57c1.46 1.86 2.71 3.86 4.18 5.72.65.83 2.14.01 1.47-.83-1.46-1.86-2.71-3.86-4.18-5.71-.66-.84-2.14-.02-1.47.82zM29 47.46c1.76 2.02 3.48 4.07 5.17 6.14.68.84 1.88-.34 1.2-1.16-1.68-2.07-3.4-4.12-5.15-6.15-.7-.81-1.91.36-1.21 1.17zM35.93 45.86a51.89 51.89 0 014.2 5.15c.63.87 2.12.04 1.48-.82a55.3 55.3 0 00-4.48-5.5c-.74-.79-1.94.39-1.2 1.17zM39.08 45.42c1.63 1.53 2.9 3.37 4.43 5 .74.78 1.95-.39 1.2-1.17-1.52-1.63-2.8-3.47-4.42-5-.79-.75-2 .42-1.2 1.17z" fill="#F8D258"/>
  <path d="M238.54 15c.24.1 5.37 4.6 7.46 6.62-4.68 1.2-15.75 4.43-16 4.38-.27-.05-7.39-7.24-6.98-7.31 0 0 15.3-3.77 15.52-3.69z" fill="#fff"/>
  <path d="M227.64 20.03l3.6 3.32c.34.31.86-.2.52-.51l-3.6-3.32c-.34-.31-.86.2-.52.51zM230.1 19.08l3.75 3.22c.35.3.88-.2.52-.5l-3.75-3.23c-.36-.3-.88.2-.52.5zM232.94 18.38l3.67 3.08c.36.3.88-.2.52-.5l-3.67-3.09c-.36-.3-.89.2-.52.51zM236.4 17.5l3.53 3.3c.34.33.86-.18.52-.5l-3.53-3.3c-.34-.32-.86.19-.52.5z" fill="#E0E9F8"/>
  <path d="M214.56 75c.28.1 6.08 5 8.44 7.22-5.29 1.3-17.8 4.84-18.1 4.78-.3-.06-8.34-7.9-7.88-7.97 0 0 17.3-4.12 17.54-4.03z" fill="#fff"/>
  <path d="M202.26 80.5l4.06 3.6c.39.35.97-.2.59-.55l-4.06-3.61c-.4-.35-.98.2-.6.55zM205.02 79.45l4.23 3.5c.4.34 1-.22.6-.55l-4.24-3.51c-.4-.34-1 .22-.6.55v.01zM208.24 78.68l4.15 3.37c.4.33 1-.22.59-.56l-4.15-3.36c-.4-.33-1 .22-.59.55zM212.14 77.74l3.99 3.6c.39.34.98-.21.59-.56l-3.99-3.6c-.38-.35-.97.2-.59.56z" fill="#E0E9F8"/>
</svg>
