<svg width="246" height="216" fill="none" xmlns="http://www.w3.org/2000/svg">
  <path d="M37.8 112.3c.6.2 14.1 12 17.1 17.2-12 2.2-38.5 11-39.1 10.9C15 140.2-.3 121.2.7 121c0 0 36.5-9 37-8.7z" fill="#FDE384"/>
  <path d="M10.9 125.7l6.6 8.1c.8 1 2.3-.4 1.5-1.5a255 255 0 00-6.6-8.1c-1-1-2.4.4-1.5 1.5zM14.7 124.3c2.4 2.3 4.5 4.8 6.5 7.4.8 1.1 2.6 0 1.8-1-2-2.8-4.3-5.4-6.8-7.8-1-1-2.5.5-1.5 1.4zM18.6 123.2l6.5 7.8c1 1 2.4-.5 1.5-1.5l-6.5-7.8c-.8-1-2.3.4-1.5 1.5zM27.5 120.7c1.8 2.3 3.3 4.9 5.1 7.3.8 1 2.7 0 1.8-1-1.8-2.5-3.3-5-5.1-7.4-.8-1-2.7 0-1.8 1zM22.8 121.8l6.4 7.8c.9 1.1 2.3-.4 1.5-1.4-2-2.7-4.2-5.3-6.4-7.9-.8-1-2.3.5-1.5 1.5zM31.4 119.8c1.9 2 3.6 4.2 5.2 6.5.8 1.1 2.6 0 1.8-1a70.2 70.2 0 00-5.5-7c-1-1-2.4.5-1.5 1.5zM35.3 119.2c2 2 3.6 4.3 5.4 6.4 1 1 2.4-.5 1.5-1.5-1.9-2-3.4-4.4-5.4-6.4-1-1-2.5.5-1.5 1.5z" fill="#F8D258"/>
  <path d="M208.5 20c.3.2 7.7 6.8 10.7 9.7-6.7 1.8-22.6 6.5-23 6.4-.3 0-10.5-10.6-10-10.7 0 0 22-5.5 22.3-5.4z" fill="#fff"/>
  <path d="M192.9 27.4l5.1 4.9c.5.4 1.3-.3.8-.8l-5.2-4.8c-.4-.5-1.2.2-.7.7zM196.4 26l5.4 4.7c.5.5 1.2-.3.7-.7l-5.3-4.7c-.6-.5-1.3.3-.8.7zM200.5 25l5.2 4.5c.5.4 1.3-.3.8-.7l-5.3-4.6c-.5-.4-1.2.3-.7.8zM205.4 23.7l5 4.8c.6.5 1.3-.2.8-.7l-5-4.8c-.5-.5-1.3.2-.8.7z" fill="#E0E9F8"/>
  <path d="M218.9 105.7c.3.1 7.6 6.7 10.6 9.7-6.7 1.7-22.5 6.5-22.9 6.4-.3 0-10.5-10.6-10-10.7 0 0 22-5.5 22.3-5.4z" fill="#fff"/>
  <path d="M203.3 113l5.1 5c.5.4 1.3-.4.8-.8l-5.2-4.9c-.5-.4-1.2.3-.7.8zM206.8 111.7l5.3 4.7c.6.4 1.3-.3.8-.8l-5.4-4.7c-.5-.4-1.2.3-.7.8zM210.9 110.6l5.2 4.6c.5.4 1.3-.3.8-.8l-5.3-4.5c-.5-.4-1.3.3-.7.7zM215.8 109.4l5 4.8c.5.5 1.3-.3.8-.7l-5-4.9c-.5-.4-1.3.3-.8.8z" fill="#E0E9F8"/>
</svg>
