<svg width="256" height="154" fill="none" xmlns="http://www.w3.org/2000/svg">
  <path d="M189.17 59c.42.17 9.22 7.58 12.83 11.4-8.45 2.7-29.83 9.7-30.3 9.6-.46-.1-14.39-12.8-13.67-12.93 0 0 30.75-8.23 31.14-8.07z" fill="#FDE384"/>
  <path d="M167.82 67.76c2.43 2.37 4.94 4.65 7.53 6.83.38.32.93-.24.54-.57-2.58-2.18-5.1-4.46-7.53-6.83-.36-.35-.9.21-.54.57zM173.74 66.75a125.8 125.8 0 008.37 5.88c.42.27.81-.43.39-.69-2.87-1.84-5.66-3.8-8.37-5.88-.4-.3-.78.39-.39.7zM180.58 65.38l6.98 5.27c.41.3.79-.39.39-.69l-6.98-5.27c-.41-.3-.79.39-.39.69zM186.42 63.24c2.11 1.64 4.17 3.35 6.19 5.12.37.34.92-.23.54-.56a140.05 140.05 0 00-6.34-5.25c-.4-.3-.78.4-.39.7v-.01z" fill="#F8D258"/>
  <path d="M139.2 17c.6.28 12.83 11.96 17.8 17.43-13.42 3.51-35.29 8.74-35.96 8.57-.66-.18-21.05-19.14-20-19.24 0 0 37.6-7 38.15-6.75z" fill="#FFD8CC"/>
  <path d="M111.15 25.77c3.41 3.83 6.99 7.51 10.74 11.04.43.4 1.08-.23.66-.63-3.75-3.53-7.33-7.2-10.74-11.04-.39-.44-1.04.2-.66.63zM116.18 25.06c3.59 3.53 7.25 6.97 11 10.34.43.4 1.09-.23.65-.63a348.3 348.3 0 01-10.99-10.34c-.42-.4-1.07.22-.66.63zM121.89 24.28l9.85 9.54c.42.41 1.08-.22.66-.63l-9.85-9.54c-.42-.4-1.08.22-.66.63zM126.8 23.58l9.9 9.42c.42.4 1.07-.23.65-.63l-9.9-9.41c-.43-.4-1.08.22-.66.63zM132.41 22.8c2.96 3.1 6.1 6.06 9.41 8.83.45.38 1.11-.25.66-.63-3.31-2.77-6.45-5.72-9.41-8.83-.4-.43-1.06.2-.66.63zM136.9 22.46l9.36 7.86c.45.38 1.11-.25.66-.63l-9.36-7.87c-.44-.38-1.1.25-.65.63z" fill="#FFB599"/>
</svg>
