<svg width="246" height="216" fill="none" xmlns="http://www.w3.org/2000/svg">
  <path d="M189.1 91.7c.5.2 9.5 7.5 13.2 11.3-8.7 2.6-30.6 9.5-31 9.4a144 144 0 01-14.1-12.7s31.5-8.2 32-8z" fill="#FDE384"/>
  <path d="M167.2 100.4c2.5 2.3 5 4.5 7.7 6.7.4.3 1-.2.6-.6-2.6-2.1-5.2-4.4-7.7-6.7-.4-.4-1 .2-.6.6zM173.3 99.4c2.8 2 5.6 4 8.6 5.8.4.2.8-.5.4-.7a130 130 0 01-8.6-5.8c-.4-.3-.8.4-.4.7zM180.3 98l7.2 5.2c.4.3.8-.4.4-.7l-7.2-5.2c-.4-.3-.8.4-.4.7zM186.3 95.9l6.4 5c.4.4 1-.2.5-.5-2-1.8-4.3-3.5-6.5-5.2-.4-.3-.8.4-.4.7z" fill="#F8D258"/>
  <path d="M60 34c.6.3 14.5 14.1 20.2 20.6a732.2 732.2 0 01-41 10.2c-.7-.3-24-22.7-22.7-22.8 0 0 42.8-8.3 43.4-8z" fill="#FFD8CC"/>
  <path d="M28 44.4c3.9 4.5 8 8.9 12.2 13 .5.5 1.3-.2.8-.7-4.3-4.2-8.4-8.5-12.3-13-.4-.6-1.1.1-.7.7zM33.7 43.5c4.1 4.2 8.3 8.3 12.5 12.3.5.4 1.3-.3.8-.8-4.3-4-8.4-8-12.5-12.2-.5-.5-1.2.2-.8.7zM40.2 42.6l11.2 11.3c.5.5 1.3-.3.8-.7L41 41.9c-.5-.5-1.3.2-.8.7zM45.8 41.8l11.3 11.1c.5.5 1.2-.3.7-.7L46.5 41c-.4-.4-1.2.3-.7.8zM52.2 40.8c3.4 3.7 7 7.2 10.7 10.5.5.4 1.3-.3.8-.7-3.8-3.3-7.4-6.8-10.7-10.5-.5-.5-1.2.2-.8.7zM57.3 40.4L68 49.8c.5.4 1.2-.3.7-.8l-10.6-9.3c-.5-.5-1.3.3-.8.7z" fill="#FFB599"/>
</svg>
