<?xml version="1.0" encoding="UTF-8"?>
<svg width="98px" height="32px" viewBox="0 0 98 32" version="1.1" xmlns="http://www.w3.org/2000/svg" xmlns:xlink="http://www.w3.org/1999/xlink">
    <!-- Generator: Sketch 49 (51002) - http://www.bohemiancoding.com/sketch -->
    <title>Icons/ 01 Logo/ 06 PayPal</title>
    <desc>Created with Sketch.</desc>
    <defs></defs>
    <g id="Icons/-01-Logo/-06-PayPal" stroke="none" stroke-width="1" fill="none" fill-rule="evenodd">
        <g id="PayPal" transform="translate(0.000000, 4.000000)" fill-rule="nonzero">
            <path d="M75.0743226,5.33861992 L69.6685161,5.33861992 C69.2994355,5.33861992 68.9848871,5.60756802 68.9271935,5.97302104 L66.7411613,19.8452062 C66.6976935,20.1189004 66.9095,20.3656999 67.1853226,20.3656999 L69.9593548,20.3656999 C70.217,20.3656999 70.4375,20.1774362 70.4778065,19.9211445 L71.0982097,15.9889649 C71.1551129,15.6227209 71.4704516,15.3537728 71.8395323,15.3537728 L73.5497903,15.3537728 C77.1109839,15.3537728 79.1650323,13.6293408 79.7024516,10.2121178 C79.9450806,8.71708275 79.7119355,7.54241234 79.0125,6.71974755 C78.2450968,5.81639832 76.883371,5.33861992 75.0743226,5.33861992 Z M75.6978871,10.4051276 C75.4030968,12.3463001 73.9212419,12.3463001 72.4875968,12.3463001 L71.6727742,12.3463001 L72.2457581,8.72103787 C72.2797419,8.50192426 72.4678387,8.3405554 72.6899194,8.3405554 L73.0637419,8.3405554 C74.039,8.3405554 74.9605161,8.3405554 75.4362903,8.89743619 C75.7200161,9.2296662 75.8061613,9.72326508 75.6978871,10.4051276 Z M91.2300968,10.3426367 C91.5075,10.3426367 91.7193065,10.5902272 91.676629,10.8631304 L90.2769677,19.7297167 C90.2192742,20.0959607 89.9047258,20.3649088 89.5356452,20.3649088 L87.2049839,20.3649088 C86.9275806,20.3649088 86.7157742,20.1181094 86.7592419,19.8428331 L86.874629,19.1230014 C86.874629,19.1230014 85.5966774,20.6061711 83.2920968,20.6061711 C81.9493387,20.6061711 80.8223387,20.2185694 80.0320161,19.2883254 C79.1721452,18.2766059 78.8220323,16.8258682 79.0686129,15.3086844 C79.5443871,12.2671978 81.9864839,10.0990014 84.8466613,10.0990014 C86.0937903,10.0990014 87.3425,10.3711136 87.9028387,11.1850771 L88.0846129,11.4476971 L88.1992097,10.7231192 C88.2324032,10.5040056 88.4212903,10.3426367 88.643371,10.3426367 L91.2300968,10.3426367 Z M87.6222742,15.3846227 C87.736871,14.6679551 87.5803871,14.0177335 87.1844355,13.5518205 C86.7908548,13.0906536 86.193371,12.8462272 85.458371,12.8462272 C83.9844194,12.8462272 82.7926129,13.8721851 82.5578871,15.3395344 C82.4377581,16.0593661 82.5815968,16.7056325 82.9641129,17.1596802 C83.3497903,17.616892 83.9520161,17.8581543 84.7020323,17.8581543 C86.1989032,17.8581543 87.3741129,16.8646283 87.6222742,15.3846227 Z M94.2815323,5.71910238 C94.3155161,5.49998878 94.5051935,5.33861992 94.7256935,5.33782889 L97.2231129,5.33782889 C97.4989355,5.33782889 97.7107419,5.58541935 97.6672742,5.8591136 L95.4796613,19.7305077 C95.4227581,20.0967518 95.1082097,20.3656999 94.7375484,20.3656999 L92.5072581,20.3656999 C92.2314355,20.3656999 92.019629,20.1189004 92.0630968,19.8452062 L94.2815323,5.71910238 Z" id="Pal" fill="#179BD7"></path>
            <path d="M36.5215968,5.33861992 L31.1165806,5.33861992 C30.7467097,5.33861992 30.4321613,5.60756802 30.3744677,5.97302104 L28.1884355,19.8452062 C28.1449677,20.1189004 28.3567742,20.3656999 28.6341774,20.3656999 L31.2145806,20.3656999 C31.5844516,20.3656999 31.899,20.0967518 31.9566935,19.7305077 L32.5462742,15.9889649 C32.6031774,15.6227209 32.9185161,15.3537728 33.2875968,15.3537728 L34.9986452,15.3537728 C38.5590484,15.3537728 40.6138871,13.6293408 41.1505161,10.2121178 C41.3923548,8.71708275 41.1607903,7.54241234 40.4613548,6.71974755 C39.6931613,5.81639832 38.3306452,5.33861992 36.5215968,5.33861992 Z M37.1451613,10.4051276 C36.8495806,12.3463001 35.3677258,12.3463001 33.934871,12.3463001 L33.1192581,12.3463001 L33.6914516,8.72103787 C33.7254355,8.50192426 33.9151129,8.3405554 34.1364032,8.3405554 L34.5102258,8.3405554 C35.4862742,8.3405554 36.407,8.3405554 36.8827742,8.89743619 C37.1665,9.2296662 37.2534355,9.72326508 37.1451613,10.4051276 Z M52.6781613,10.3425817 C52.9547742,10.3425817 53.1657903,10.5901163 53.1215323,10.8629578 L51.7226613,19.7275414 C51.6641774,20.0937027 51.3512097,20.36259 50.9805484,20.36259 L48.6490968,20.36259 C48.3732742,20.36259 48.1614677,20.1158464 48.2049355,19.8406322 L48.3203226,19.1209631 C48.3203226,19.1209631 47.042371,20.6037978 44.7377903,20.6037978 C43.3950323,20.6037978 42.2664516,20.2162837 41.4777097,19.2862498 C40.6178387,18.2747588 40.2661452,16.8243487 40.5135161,15.3075077 C40.9892903,12.266708 43.4321774,10.0990014 46.2923548,10.0990014 C47.5394839,10.0990014 48.7889839,10.3710521 49.3493226,11.1848318 L49.5303065,11.4473924 L49.6449032,10.7229782 C49.6788871,10.5039141 49.8693548,10.3425817 50.0898548,10.3425817 L52.6781613,10.3425817 Z M49.0703387,15.3834288 C49.1833548,14.6669231 49.026871,14.0168484 48.6325,13.5510406 C48.2389194,13.0899778 47.6414355,12.8456067 46.9064355,12.8456067 C45.4324839,12.8456067 44.2390968,13.8713329 44.0059516,15.3383507 C43.8842419,16.0580198 44.0296613,16.7041403 44.4121774,17.1580854 C44.7978548,17.6151939 45.3985,17.8564017 46.1500968,17.8564017 C47.6469677,17.8564017 48.8205968,16.8631002 49.0703387,15.3834288 Z M66.4629677,10.3426367 C66.8273065,10.3426367 67.0399032,10.7515961 66.8328387,11.0506031 L58.1819677,23.5487798 C58.0420806,23.7512819 57.8113065,23.8715175 57.5647258,23.8715175 L54.9669355,23.8715175 C54.6010161,23.8715175 54.387629,23.4593941 54.5994355,23.1595961 L57.2928548,19.3539804 L54.4279355,10.9390687 C54.3291452,10.6463899 54.5449032,10.3426367 54.8555,10.3426367 L57.4114032,10.3426367 C57.7433387,10.3426367 58.0365484,10.5609593 58.1321774,10.8789509 L59.6527581,15.9612791 L63.2400323,10.6724937 C63.3807097,10.4660365 63.6138548,10.3426367 63.8620161,10.3426367 L66.4629677,10.3426367 Z" id="Pay" fill="#253B80"></path>
            <g id="PP">
                <path d="M5.74248387,23.0615091 L6.15582258,20.4337279 L5.23509677,20.4123703 L0.838532258,20.4123703 L3.89391935,1.02200281 C3.90340323,0.963467041 3.93422581,0.908886396 3.97927419,0.870126227 C4.02432258,0.831366059 4.08201613,0.810008415 4.14208065,0.810008415 L11.5553065,0.810008415 C14.016371,0.810008415 15.7147742,1.32259187 16.6015161,2.33431136 C17.0172258,2.80892567 17.2819839,3.30489762 17.4100161,3.85070407 C17.544371,4.42340533 17.5467419,5.10764095 17.4155484,5.94217111 L17.4060645,6.00307994 L17.4060645,6.53781206 L17.8217742,6.77353717 C18.1718871,6.95942777 18.4500806,7.17221318 18.6634677,7.41584853 C19.0191129,7.82164376 19.2490968,8.3373913 19.3463065,8.94885273 C19.4466774,9.57771669 19.4134839,10.3260252 19.2490968,11.1732118 C19.0594194,12.1477532 18.7527742,12.9965217 18.3386452,13.6910407 C17.9577097,14.330979 17.4724516,14.861756 16.8963065,15.2730884 C16.3462419,15.6638541 15.6926452,15.9604881 14.9536935,16.1503338 C14.2376613,16.3370154 13.4212581,16.4311473 12.5258226,16.4311473 L11.9488871,16.4311473 C11.5363387,16.4311473 11.1356452,16.5798597 10.8210968,16.8464348 C10.5057581,17.118547 10.2971129,17.4903282 10.2330968,17.8969144 L10.189629,18.1334306 L9.45937097,22.7648752 L9.42617742,22.9349453 C9.41748387,22.9887349 9.40246774,23.0156297 9.38033871,23.0338233 C9.36058065,23.0504348 9.33212903,23.0615091 9.30446774,23.0615091 L5.74248387,23.0615091 Z" id="Shape" fill="#253B80"></path>
                <path d="M18.2153548,6.0647798 C18.1932258,6.20637307 18.1679355,6.35113043 18.1394839,6.49984292 C17.1618548,11.5236353 13.8172097,13.2591417 9.54551613,13.2591417 L7.37054839,13.2591417 C6.84814516,13.2591417 6.40793548,13.6388331 6.32653226,14.1545806 L5.21296774,21.2231697 L4.89762903,23.2268331 C4.84467742,23.5653913 5.10548387,23.8707265 5.44690323,23.8707265 L9.30446774,23.8707265 C9.76127419,23.8707265 10.1493226,23.5384965 10.2212419,23.0876129 L10.2591774,22.891439 L10.9854839,18.2781879 L11.0321129,18.0250603 C11.1032419,17.5725947 11.4920806,17.2403647 11.9488871,17.2403647 L12.5258226,17.2403647 C16.2632581,17.2403647 19.1890323,15.7215989 20.0441613,11.3266704 C20.4013871,9.49070407 20.2164516,7.95769986 19.2712258,6.87953436 C18.985129,6.55442356 18.6302742,6.28468443 18.2153548,6.0647798 Z" id="Shape" fill="#179BD7"></path>
                <path d="M17.1926774,5.6566115 C17.0433065,5.61310519 16.8891935,5.573554 16.731129,5.53795792 C16.5722742,5.50315288 16.4094677,5.47230295 16.2419194,5.44540813 C15.6555,5.35048527 15.0129677,5.30539691 14.3245968,5.30539691 L8.51414516,5.30539691 C8.37109677,5.30539691 8.23516129,5.33782889 8.11345161,5.39636466 C7.84553226,5.52530154 7.64637097,5.7792202 7.59816129,6.09009257 L6.36209677,13.9259748 L6.32653226,14.1545806 C6.40793548,13.6388331 6.84814516,13.2591417 7.37054839,13.2591417 L9.54551613,13.2591417 C13.8172097,13.2591417 17.1618548,11.5228443 18.1394839,6.49984292 C18.1687258,6.35113043 18.1932258,6.20637307 18.2153548,6.0647798 C17.9679839,5.93346985 17.7000645,5.82114446 17.4115968,5.72543058 C17.3404677,5.70169986 17.2669677,5.67876017 17.1926774,5.6566115 Z" id="Shape" fill="#222D65"></path>
                <path d="M7.59816129,6.09009257 C7.64637097,5.7792202 7.84553226,5.52530154 8.11345161,5.39715568 C8.23595161,5.33861992 8.37109677,5.30618794 8.51414516,5.30618794 L14.3245968,5.30618794 C15.0129677,5.30618794 15.6555,5.3512763 16.2419194,5.44619916 C16.4094677,5.47309397 16.5722742,5.5039439 16.731129,5.53874895 C16.8891935,5.57434502 17.0433065,5.61389621 17.1926774,5.65740252 C17.2669677,5.67955119 17.3404677,5.70249088 17.4123871,5.72543058 C17.7008548,5.82114446 17.9687742,5.93426087 18.2161452,6.0647798 C18.5069839,4.20824684 18.2137742,2.94419074 17.2108548,1.79957924 C16.1051935,0.539478261 14.109629,0 11.5560968,0 L4.14287097,0 C3.62125806,0 3.17630645,0.379691445 3.09569355,0.896230014 L0.00790322581,20.4859355 C-0.0529516129,20.8735372 0.245790323,21.2231697 0.636209677,21.2231697 L5.21296774,21.2231697 L6.36209677,13.9259748 L7.59816129,6.09009257 Z" id="Shape" fill="#253B80"></path>
            </g>
        </g>
    </g>
</svg>