<?xml version="1.0" encoding="UTF-8"?>
<svg width="562px" height="373px" viewBox="0 0 562 373" version="1.1" xmlns="http://www.w3.org/2000/svg" xmlns:xlink="http://www.w3.org/1999/xlink">
    <!-- Generator: Sketch 49 (51002) - http://www.bohemiancoding.com/sketch -->
    <title>Illustrations/ Complex/ MailMan</title>
    <desc>Created with Sketch.</desc>
    <defs>
        <rect id="path-1" x="0.729" y="0.243" width="559.731" height="371.216"></rect>
    </defs>
    <g id="Illustrations/-Complex/-MailMan" stroke="none" stroke-width="1" fill="none" fill-rule="evenodd">
        <g id="SliderMan">
            <g id="Layer-2" opacity="0.759995">
                <g id="Group">
                    <g transform="translate(0.804000, 0.526000)" id="Clipped">
                        <g>
                            <mask id="mask-2" fill="white">
                                <use xlink:href="#path-1"></use>
                            </mask>
                            <g id="Rectangle-path"></g>
                            <path d="M262,340.339 C260.16,340.339 258.68,338.85 258.68,337.02 C258.68,335.18 260.16,333.69 262,333.69 C263.84,333.69 265.32,335.18 265.32,337.02 C265.32,338.85 263.84,340.339 262,340.339 M520.99,200.499 L501.25,212.049 L516.77,190.889 C513.11,182.829 509.311,175.249 505.42,168.159 L488.66,182.15 L500.261,159.13 C471.92,111.519 439.83,89.809 417.49,101.469 C405.42,107.769 396.73,119.309 390.511,133.219 L408.02,156.529 L386.25,144.13 C383.62,151.889 381.591,160.089 380.04,168.329 L400.91,188.19 L378.16,179.839 C374.69,204.48 374.94,227.759 375.341,238.659 C357.511,184.469 310.98,200.719 317.74,282.89 C305.59,179.17 271.561,187.019 269.82,221.65 C269.82,221.65 237.43,116.179 200.84,50.829 L180.271,62.549 L195.72,41.999 C179.82,15.589 163.38,-2.12 148.66,0.499 C137.16,2.539 128.71,11.789 122.68,25.089 L122.68,25.099 L136.18,43.059 L119.37,33.489 C116.67,41.349 114.61,50.19 113.1,59.519 L129.07,74.709 L111.85,68.389 C108.83,93.17 109.32,120.249 111.68,141.36 C102.34,120.279 77.59,113.179 67.04,131.13 C63.34,137.429 60.6,148.699 59.061,163.13 L77.84,188.13 L58,176.829 C56.521,206.019 59.11,243.789 67.04,279.459 C67.04,279.459 38.45,240.72 15.97,254.509 C9.11,258.72 5,266.02 2.811,274.999 L29.25,300.159 L0.84,289.73 C-0.75,325.029 15.25,371.459 15.25,371.459 L254.58,371.459 C250.91,369.449 248.54,365.529 248.54,361.27 C248.54,360.049 248.73,358.799 249.15,357.56 C251.28,351.22 258.3,347.97 264.51,350.459 L269.55,352.489 L269.12,349.879 C269.04,349.379 268.99,348.879 268.99,348.39 C268.99,344.909 271.04,341.68 274.311,340.23 C277.16,338.97 280.46,339.279 283.021,341.039 L327.09,371.459 L560.46,371.459 C554.95,303.289 539.95,245.279 520.99,200.499" id="Shape" fill="#DDE3F0" fill-rule="nonzero" mask="url(#mask-2)"></path>
                        </g>
                    </g>
                </g>
            </g>
            <g id="Layer-1" transform="translate(388.000000, 230.000000)">
                <g id="Group" transform="translate(115.323694, 20.109988) scale(-1, 1) rotate(-176.721630) translate(-115.323694, -20.109988) translate(108.823697, 12.109992)" fill="#0F141F" fill-rule="nonzero">
                    <path d="M11.5689945,0.728999652 C12.7619939,5.37199743 13.0939937,10.0649952 12.566994,14.8059929 C12.513994,15.2759927 11.9499943,15.5219926 11.5689945,15.2429927 C6.58099685,11.5849945 2.95799859,6.95499668 0.698999666,1.35199935 L11.5689945,0.728999652 Z" id="Shape"></path>
                </g>
                <g id="Group" transform="translate(103.664000, 87.365000)" fill="#0F141F" fill-rule="nonzero">
                    <path d="M0,3.89 L1.569,31.461 C1.622,32.398 1.866,33.314 2.285,34.153 L10.765,51.112 C11.842,53.265 14.042,54.624 16.448,54.624 L18.339,54.624 C19.514,54.624 20.331,53.456 19.929,52.352 L12.432,31.805 C12.058,30.78 11.933,29.681 12.066,28.597 L15.568,0.266 L0,3.89 Z" id="Shape"></path>
                </g>
                <g id="Group" transform="translate(0.007000, 68.217000)" fill="#0F141F" fill-rule="nonzero">
                    <path d="M28,0.592 L25.395,23.515 C25.025,25.91 23.83,28.102 22.016,29.709 L14.062,36.757 C12.887,37.798 11.963,39.092 11.359,40.54 L0.918,65.611 C-0.027,67.881 0.521,70.499 2.3,72.198 L2.709,72.589 C3.971,73.794 6.018,73.549 6.959,72.08 L16.802,56.723 C18.109,54.683 20.088,53.163 22.396,52.427 L34.028,48.72 C35.884,48.128 37.536,47.035 38.793,45.547 C42.608,41.03 50.431,30.711 50.203,22.295 C49.566,-1.202 28,0.592 28,0.592" id="Shape"></path>
                </g>
                <g id="Group" transform="translate(27.725000, 21.700000)" fill="#A86D4F" fill-rule="nonzero">
                    <path d="M71,31.998 C66.388,30.681 28.831,26.727 22.242,26.727 C15.653,26.727 -5.432,31.998 1.816,53.083 C6.47,66.619 10.852,73.456 13.392,76.615 C14.669,78.203 14.784,80.431 13.729,82.174 L9.941,88.431 C8.997,89.991 8.998,91.947 9.944,93.506 L24.7,117.825 C25.629,119.355 27.288,120.29 29.078,120.29 L30.847,120.29 C31.815,120.29 32.513,119.359 32.241,118.43 L25.204,94.342 C24.615,92.326 25.378,90.159 27.099,88.956 L38.516,80.977 C40.215,79.789 40.982,77.661 40.432,75.663 L35.66,58.354 C35.66,58.354 59.14,74.826 67.047,74.826 C74.953,74.826 91.426,74.168 98.015,54.4 C104.604,34.634 103.58,4.337 103.58,4.337 L81.758,0.863 C80.897,0.726 80.021,0.988 79.378,1.574 L77.941,2.884 C76.928,3.808 76.932,4.397 75.567,4.255 L61.014,0.85 C60.292,0.708 59.617,1.253 59.603,1.988 L59.552,7.588 C59.485,10.898 61.486,11.627 64.577,12.813 L63.51,16.206 C63.196,17.333 63.69,18.527 64.709,19.102 L74.295,24.092 L71,31.998 Z" id="Shape"></path>
                </g>
                <g id="Group" transform="translate(98.202175, 35.981314) scale(-1, 1) rotate(171.960431) translate(-98.202175, -35.981314) translate(91.202173, 34.981314)" stroke="#0F141F" stroke-width="1.24000035">
                    <path d="M0.931000265,1.09800031 C0.931000265,1.09800031 6.6810019,0.0130000037 13.8230039,1.09800031" id="Shape"></path>
                </g>
                <g id="Group" transform="translate(108.609000, 67.773000)" fill="#A86D4F" fill-rule="nonzero">
                    <path d="M0,8.986 L5.937,31.113 C6.686,33.906 9.396,35.706 12.261,35.312 L29.65,32.923 L31.995,35.442 C34.164,37.774 37.526,38.565 40.508,37.447 C42.058,36.866 42.702,35.022 41.85,33.602 L35.728,23.398 C34.844,21.925 33.173,21.116 31.47,21.334 L17.761,23.09 L17.131,0.421 L0,8.986 Z" id="Shape"></path>
                </g>
                <g id="Group" transform="translate(125.607694, 21.142988) scale(-1, 1) rotate(-176.721630) translate(-125.607694, -21.142988) translate(119.107697, 13.142992)" fill="#A86D4F" fill-rule="nonzero">
                    <path d="M11.5689945,0.728999652 C12.7619939,5.37199743 13.0939937,10.0649952 12.566994,14.8059929 C12.513994,15.2759927 11.9499943,15.5219926 11.5689945,15.2429927 C6.58099685,11.5849945 2.95799859,6.95499668 0.698999666,1.35199935 L11.5689945,0.728999652 Z" id="Shape"></path>
                </g>
                <g id="Group" transform="translate(8.213000, 0.571000)" fill="#A86D4F" fill-rule="nonzero">
                    <path d="M39,52.707 C22.005,43.649 12.756,22.037 6.682,1.491 C6.177,-0.219 3.741,-0.182 3.294,1.544 C-0.326,15.487 -5.614,49.85 29.162,52.643 C31.215,52.926 39,52.707 39,52.707" id="Shape"></path>
                </g>
                <g id="Group" transform="translate(98.020000, 45.772000)" fill="#8A5941" fill-rule="nonzero">
                    <path d="M4,0.019 C12.851,3.301 18.925,8.085 22.965,18.445 C23.275,19.241 22.938,20.151 22.197,20.575 C21.452,21 20.517,20.824 19.979,20.156 C17.686,17.306 11.022,10.114 0.705,7.925 L4,0.019 Z" id="Shape"></path>
                </g>
                <g id="Group" transform="translate(86.327000, 21.734000)" fill="#0F141F" fill-rule="nonzero">
                    <path d="M1,1.954 L0.954,7.016 C2.858,6.673 4.302,7.28 5.271,6.016 C5.881,5.219 6.276,2.98 6.585,1.792 L2.411,0.815 C1.689,0.674 1.015,1.219 1,1.954" id="Shape"></path>
                </g>
                <g id="Group" transform="translate(59.455000, 66.211000)" fill="#0F141F" fill-rule="nonzero">
                    <path d="M13,19.923 L3.794,1.097 C3.546,0.589 3.062,0.238 2.501,0.163 C1.294,0 0.314,1.129 0.648,2.302 L3.93,13.843 L13,19.923 Z" id="Shape"></path>
                </g>
                <g id="Group" transform="translate(7.895000, 0.037000)" fill="#8A5941" fill-rule="nonzero">
                    <path d="M7,2.025 C6.495,0.315 4.06,0.352 3.612,2.078 C1.535,10.079 -1.076,24.796 3.633,36.421 C8.368,37.71 14.157,37.028 19.437,32.559 C14.056,23.314 10.107,12.535 7,2.025" id="Shape"></path>
                </g>
                <g id="Group" transform="translate(131.458000, 88.852000)" fill="#8A5941" fill-rule="nonzero">
                    <path d="M19,12.523 L12.878,2.319 C11.994,0.846 10.323,0.037 8.62,0.254 L5.17,0.697 C2.849,3.493 0.869,7.39 0.41,12.721 L6.801,11.843 L9.146,14.363 C11.314,16.695 14.677,17.486 17.658,16.368 C18.187,16.169 18.6,15.818 18.895,15.393 C19.027,15.101 19.157,14.813 19.284,14.531 C19.449,13.877 19.382,13.159 19,12.523" id="Shape"></path>
                </g>
                <g id="Group" transform="translate(107.839000, 25.883000)" fill="#0F141F" fill-rule="nonzero">
                    <path d="M2,2.458 C1.79,3.343 1.189,3.958 0.658,3.832 C0.127,3.705 -0.133,2.886 0.077,2 C0.288,1.115 0.889,0.5 1.42,0.626 C1.951,0.753 2.211,1.572 2,2.458" id="Shape"></path>
                </g>
            </g>
            <g id="Layer-3" transform="translate(40.000000, 44.000000)">
                <g id="Group" transform="translate(295.367000, 290.999000)" fill="#0F141F" fill-rule="nonzero">
                    <path d="M1,35.248 L1.889,36.596 C2.154,36.998 2.741,37.161 3.106,36.848 C14.45,27.117 23.334,15.417 30.051,1.917 C30.249,1.519 29.984,1.028 29.58,0.843 L28.301,0.256 C27.934,0.087 27.499,0.193 27.251,0.513 L1.039,34.234 C0.811,34.529 0.795,34.936 1,35.248" id="Shape"></path>
                </g>
                <g id="Group" transform="translate(105.825000, 92.891000)" fill="#A86D4F" fill-rule="nonzero">
                    <path d="M51,13.818 L29.482,0.736 C28.557,0.174 27.352,0.463 26.782,1.383 L20.131,12.128 C19.594,12.996 19.808,14.13 20.625,14.743 L21.818,15.638 L0.733,52.536 L29.065,71.644 L51,13.818 Z" id="Shape"></path>
                </g>
                <g id="Group" transform="translate(125.643000, 108.186000)" fill="#0F141F" fill-rule="nonzero">
                    <path d="M2,0.343 L17.369,9.38 L9.685,46 L7.855,43.125 C6.651,41.232 5.21,38.443 4.053,35.507 C2.146,30.665 2.159,25.276 4.013,20.413 L5.294,17.052 C6.955,12.698 5.903,7.609 2.299,4.655 C2.037,4.44 1.764,4.236 1.479,4.043 L0.33,3.266 L2,0.343 Z" id="Shape"></path>
                </g>
                <g id="Group" transform="translate(43.947000, 125.297000)" fill="#0F141F" fill-rule="nonzero">
                    <path d="M101,0.787 C101,0.787 70.91,55.475 66.298,79.854 C57.732,73.266 7.331,54.715 7.331,54.715 L0.306,71.138 C0.306,71.138 64.98,118.728 71.569,121.364 C78.158,124 81.453,120.047 82.771,116.093 C89.359,110.163 130.211,39.662 130.211,39.662 L101,0.787 Z" id="Shape"></path>
                </g>
                <g id="Group" transform="translate(210.519000, 20.543000)" fill="#FFA078" fill-rule="nonzero">
                    <path d="M1,45.526 L5.555,35.015 C7.413,30.729 8.211,26.058 7.882,21.398 L6.943,8.116 L33.473,0.297 C33.473,0.297 34.896,11.597 39.2,20.426 C39.414,20.865 39.275,21.398 38.862,21.658 C37.075,22.783 35.098,23.3 35.098,23.3 L35.934,35.131 C39.723,37.361 38.295,42.165 34.095,41.716 C31.107,41.396 23.068,40.004 23.068,40.004 L16.435,57.667 C4.219,61.229 0.283,55.88 1,45.526" id="Shape"></path>
                </g>
                <g id="Group" transform="translate(220.194208, 69.560827) scale(-1, 1) rotate(148.046210) translate(-220.194208, -69.560827) translate(209.694210, 65.560828)" fill="#317AE8" fill-rule="nonzero">
                    <polygon id="Shape" points="0.549999865 7.31899821 19.3889953 7.31899821 20.8129949 0.238999942 0.729999821 1.20499971"></polygon>
                </g>
                <g id="Group" transform="translate(215.023000, 11.358000)" fill="#0F141F" fill-rule="nonzero">
                    <path d="M33,0.323 L0.05,11.525 C-0.138,18.201 0.843,29.26 3.254,36 L4.306,35.789 C5.392,35.571 7.388,34.349 9.538,32.843 C10.43,32.218 10.767,31.065 10.376,30.049 C10.209,29.616 10.103,29.147 10.067,28.652 C9.901,26.293 10.652,23.63 12.708,23.485 C14.139,23.384 16.011,24.681 16.898,26.135 C17.131,26.515 17.646,26.597 17.989,26.312 C17.992,26.31 17.996,26.307 17.999,26.304 C18.161,26.169 18.257,25.971 18.263,25.76 L18.446,19.473 L29.981,15.156 C35.387,12.661 35.938,4.601 33,0.323" id="Shape"></path>
                </g>
                <g id="Group" transform="translate(211.465000, 0.370000)" fill="#2196F3" fill-rule="nonzero">
                    <path d="M4,26.032 L51.178,11.604 C51.94,11.396 51.604,8.958 50.615,9.187 L39.106,12.637 L40.456,2.054 C40.618,0.783 39.39,-0.236 38.179,0.182 C25.047,4.715 12.942,11.276 1.585,19.315 C1.026,19.711 0.775,20.419 0.956,21.08 L2.002,24.892 C2.24,25.758 3.134,26.268 4,26.032" id="Shape"></path>
                </g>
                <g id="Group" transform="translate(131.074000, 112.461000)" fill="#505D7F" fill-rule="nonzero">
                    <path d="M11,0.241 C10.341,1.559 -7.391,23.271 5.07,46.364 C14.261,63.397 41.394,98.859 75.95,121.538 C107.461,163.494 141.02,186 141.02,186 L160.569,182.754 L105.222,110.277 L52.111,35.409 C51.409,34.42 51.427,33.091 52.155,32.121 L53.828,29.891 L11,0.241 Z" id="Shape"></path>
                </g>
                <g id="Group" transform="translate(102.074000, 45.071000)" fill="#2196F3" fill-rule="nonzero">
                    <path d="M40,67.631 L82.828,97.281 C82.828,97.281 85.958,99.322 88.758,97.281 C96.269,91.807 117.885,69.943 117.885,69.943 C117.885,69.943 120.944,71.136 123.325,68.836 C123.325,68.836 129.368,63.39 130.927,61.701 C149.149,73.378 174.744,85.092 174.744,85.092 C174.744,85.092 183.9,93.802 185.657,86.117 L208.718,28.531 L197.73,23.396 L174.456,60.421 L154.648,47.205 L102.976,15.169 C97.359,11.687 90.966,9.652 84.369,9.249 L37.071,1.852 C37.071,1.852 31.361,-2.691 27.408,3.898 C20.418,15.34 0.034,48.27 0.034,48.27 L9.259,54.2 L37.071,24.254 L70.309,32.71 C70.309,32.71 52.328,44.477 41.647,60.696 C38.682,65.198 40,67.631 40,67.631" id="Shape"></path>
                </g>
                <g id="Group" transform="translate(143.012000, 103.393000)" fill="#33BBFF" fill-rule="nonzero">
                    <path d="M0,3.569 L50.012,37.332 C51.046,36.553 51.498,35.87 52.642,34.982 L2.182,0.237 C1.679,0.941 1.185,1.652 0.709,2.374 C0.434,2.792 0.206,3.187 0,3.569" id="Shape"></path>
                </g>
                <g id="Group" transform="translate(137.074000, 77.945000)" fill="#0F141F" fill-rule="nonzero">
                    <path d="M5,34.757 C45.771,38.396 72.703,27.412 98.631,1.116 C99.164,0.575 100.006,0.493 100.626,0.93 L104.393,3.584 C105.149,4.117 105.281,5.195 104.664,5.883 C81.142,32.106 50.134,48.264 0.882,41.099 L5,34.757 Z" id="Shape"></path>
                </g>
                <g id="Group" transform="translate(235.905000, 41.273000)" fill="#0F141F" fill-rule="nonzero">
                    <path d="M6,5.693 C4.674,5.603 3.535,4.947 2.613,4.095 C1.703,3.235 0.986,2.059 0.859,0.701 C0.825,0.359 1.075,0.053 1.417,0.02 C1.76,-0.015 2.065,0.235 2.1,0.578 C2.101,0.591 2.102,0.609 2.102,0.622 C2.129,1.604 2.618,2.591 3.346,3.363 C4.067,4.129 5.047,4.745 6.054,4.869 L6.079,4.872 C6.305,4.9 6.466,5.106 6.437,5.332 C6.411,5.55 6.217,5.708 6,5.693" id="Shape"></path>
                </g>
                <g id="Group" transform="translate(241.335000, 35.010000)" fill="#0F141F" fill-rule="nonzero">
                    <path d="M2,2.257 C1.882,3.159 1.348,3.833 0.807,3.762 C0.266,3.692 -0.078,2.903 0.04,2.001 C0.158,1.099 0.692,0.424 1.233,0.495 C1.774,0.566 2.118,1.355 2,2.257" id="Shape"></path>
                </g>
                <g id="Group" transform="translate(224.587000, 57.713000)" fill="#0F141F" fill-rule="nonzero">
                    <path d="M9,2.834 L2.802,0.813 C1.777,0.479 0.74,1.289 0.816,2.365 C0.844,2.762 1.026,3.132 1.324,3.396 L6.927,8.355 L9,2.834 Z" id="Shape"></path>
                </g>
                <g id="Group" transform="translate(155.383000, 77.623000)" fill="#0F141F" fill-rule="nonzero">
                    <path d="M17,0.157 L23.247,1.028 C25.548,1.348 26.832,3.859 25.744,5.912 C25.326,6.701 24.616,7.29 23.762,7.549 C18.545,9.128 0.191,14 0.191,14 C6.191,8.176 11.738,3.734 17,0.157" id="Shape"></path>
                </g>
                <g id="Group" transform="translate(247.830929, 11.057974) scale(-1, 1) rotate(14.841976) translate(-247.830929, -11.057974) translate(242.830929, 7.557974)" fill="#0F141F" fill-rule="nonzero">
                    <path d="M2.85000004,6.08600009 L7.80100011,6.08600009 C9.61300014,6.08500009 10.0170001,3.53900005 8.29300012,2.97800004 L0.567000008,0.467000007 L2.85000004,6.08600009 Z" id="Shape"></path>
                </g>
                <g id="Group" transform="translate(276.905000, 288.007000)" fill="#A86D4F" fill-rule="nonzero">
                    <path d="M44,1.222 C43.116,0.503 41.804,0.78 41.272,1.787 C36.777,10.313 25.767,15.768 24.161,16.388 L23.978,16.457 L10.403,1.526 L0.201,14.929 L11.773,25.548 C13.38,31.55 19.119,37.719 19.119,37.719 C39.337,19.909 46.137,2.96 46.137,2.96 L44,1.222 Z" id="Shape"></path>
                </g>
                <g id="Group" transform="translate(287.828000, 312.663000)" fill="#8A5941" fill-rule="nonzero">
                    <path d="M16,5.582 C11.02,-2.48 0.85,0.892 0.85,0.892 C1.087,1.694 1.358,2.451 1.646,3.18 C3.826,8.365 8.195,13.062 8.195,13.062 C11.063,10.536 13.653,8.028 16,5.582" id="Shape"></path>
                </g>
                <g id="Group" transform="translate(0.028000, 162.515000)" fill="#0F141F" fill-rule="nonzero">
                    <path d="M32,2.673 L31.136,1.306 C30.878,0.898 30.311,0.736 29.926,1.028 C18.306,9.838 7.459,23.746 0.569,38.073 C0.376,38.473 0.62,38.958 1.02,39.151 L2.283,39.76 C2.649,39.937 3.088,39.838 3.342,39.519 L31.944,3.681 C32.176,3.391 32.198,2.986 32,2.673" id="Shape"></path>
                </g>
                <g id="Group" transform="translate(2.039000, 165.448000)" fill="#A86D4F" fill-rule="nonzero">
                    <path d="M3,38.91 C3.87,39.646 5.188,39.395 5.738,38.398 C10.398,29.962 23.246,22.082 24.863,21.493 L25.047,21.428 L42.213,30.987 L49.238,14.564 L38.683,11.089 C37.194,5.056 30.32,0.264 30.32,0.264 C10.541,17.438 0.897,37.13 0.897,37.13 L3,38.91 Z" id="Shape"></path>
                </g>
                <g id="Group" transform="translate(300.882000, 295.288000)" fill="#0F141F" fill-rule="nonzero">
                    <path d="M0,9.176 L1.413,11.458 C6.657,9.477 10.881,6.669 14.042,3.002 L12.525,0.718 C9.2,4.027 4.989,6.825 0,9.176" id="Shape"></path>
                </g>
                <g id="Group" transform="translate(11.902000, 184.048000)" fill="#0F141F" fill-rule="nonzero">
                    <path d="M15,2.893 L13.536,0.55 C7.847,3.414 4.32,5.941 0.208,10.338 L2.021,12.343 C6.723,8.013 10.183,5.543 15,2.893" id="Shape"></path>
                </g>
                <g id="Group" transform="translate(25.023000, 164.965000)" fill="#8A5941" fill-rule="nonzero">
                    <path d="M0,7.663 C0,7.663 5.164,14.916 15.7,11.572 C13.84,4.644 7.336,0.747 7.336,0.747 C4.771,2.441 0,7.663 0,7.663" id="Shape"></path>
                </g>
                <g id="Group" transform="translate(279.946552, 293.234604) scale(-1, 1) rotate(52.722565) translate(-279.946552, -293.234604) translate(269.946553, 289.234604)" fill="#0F141F" fill-rule="nonzero">
                    <polygon id="Shape" points="2.59599973 7.61599921 19.439998 7.61599921 18.914998 0.917999905 0.803999917 1.07799989"></polygon>
                </g>
                <g id="Group" transform="translate(305.674000, 46.180000)" fill="#FFA078" fill-rule="nonzero">
                    <path d="M1,10.72 L1,13.741 C1,13.741 4.575,16.107 3.982,20.092 C3.69,22.059 1.965,24.449 0.292,26.367 L3.604,28.293 C8.841,25.571 14.924,19.292 17.417,16.581 C18.118,15.818 18.263,14.703 17.784,13.784 L14.364,7.213 L14.208,0.427 L1,10.72 Z" id="Shape"></path>
                </g>
                <g id="Group" transform="translate(326.322643, 44.470114) scale(-1, 1) rotate(-64.955443) translate(-326.322643, -44.470114) translate(312.822641, 18.970110)" fill="#D3E9FD">
                    <rect id="Rectangle-path" x="0.365000057" y="0.858000133" width="26.6310041" height="49.2650077"></rect>
                </g>
                <g id="Group" transform="translate(297.934000, 21.303000)" fill="#A7D4FD" fill-rule="nonzero">
                    <polygon id="Shape" points="45 0.509 28.32 23 0.367 21.364"></polygon>
                </g>
                <g id="Group" transform="translate(299.674000, 48.753000)" fill="#FFA078" fill-rule="nonzero">
                    <path d="M7,11.168 L7,8.147 L7.146,5.693 C7.167,5.33 7.159,4.965 7.123,4.604 L6.942,2.814 C6.792,1.324 5.279,0.374 3.871,0.885 L3.052,5.385 C2.998,5.684 2.924,5.979 2.83,6.268 L0.194,14.397 L0.123,20.207 L6.292,23.794 C7.965,21.876 9.69,19.486 9.982,17.519 C10.575,13.534 7,11.168 7,11.168" id="Shape"></path>
                </g>
                <g id="Group" transform="translate(232.804000, 67.873000)" fill="#317AE8" fill-rule="nonzero">
                    <path d="M67,0.594 L43.726,37.618 L23.918,24.404 L17.228,20.256 L11.701,16.829 C14.564,19.239 14.803,23.563 12.222,26.273 L0.197,38.9 C18.419,50.576 44.014,62.29 44.014,62.29 C44.014,62.29 53.17,71 54.927,63.316 L77.988,5.73 L67,0.594 Z" id="Shape"></path>
                </g>
                <g id="Group" transform="translate(216.450936, 99.515097) scale(-1, 1) rotate(32.889199) translate(-216.450936, -99.515097) translate(214.450937, 90.015100)" fill="#2196F3">
                    <rect id="Rectangle-path" x="0.589999827" y="0.812999762" width="2.81799917" height="17.7449948"></rect>
                </g>
                <g id="Group" transform="translate(211.967698, 103.022986) scale(-1, 1) rotate(30.350082) translate(-211.967698, -103.022986) translate(209.967698, 94.022988)" fill="#2196F3">
                    <rect id="Rectangle-path" x="0.88999978" y="0.0709999825" width="2.8199993" height="17.7449956"></rect>
                </g>
                <g id="Group" transform="translate(109.742698, 92.326815) scale(-1, 1) rotate(-33.835629) translate(-109.742698, -92.326815) translate(102.742701, 86.826818)" fill="#33BBFF" fill-rule="nonzero">
                    <polygon id="Shape" points="0.170999922 0.0759999654 13.160994 0.0759999654 12.7769942 10.5929952 1.81299918 10.3819953"></polygon>
                </g>
                <g id="Group" transform="translate(303.504576, 75.067769) scale(-1, 1) rotate(57.841769) translate(-303.504576, -75.067769) translate(298.004579, 67.567773)" fill="#2196F3" fill-rule="nonzero">
                    <polygon id="Shape" points="1.88099909 0.852999587 10.9799947 0.852999587 9.52499539 14.555993 0.380999816 12.8889938"></polygon>
                </g>
                <g id="Group" transform="translate(321.302000, 39.606000)" fill="#2196F3" fill-rule="nonzero">
                    <path d="M8,7.395 C6.51,9.078 3.938,9.235 2.255,7.745 C0.571,6.255 0.415,3.683 1.904,2 C3.395,0.317 5.967,0.16 7.649,1.65 C9.333,3.14 9.489,5.712 8,7.395" id="Shape"></path>
                </g>
                <g id="Group" transform="translate(172.383000, 142.556000)" stroke="#0F141F" stroke-width="1.24">
                    <polyline id="Shape" points="0 0.704 10.052 2.84 10.052 4.388 1.118 8"></polyline>
                </g>
                <g id="Group" transform="translate(205.849000, 224.014000)" stroke="#0F141F" stroke-width="1.24">
                    <polyline id="Shape" points="5 0.883 0.274 9.472 1.755 11 9.89 6.919"></polyline>
                </g>
                <g id="Group" transform="translate(134.492000, 60.545000)" stroke="#0F141F" stroke-width="1.24">
                    <polyline id="Shape" points="0 1.714 4.653 8.78 4.653 0.934"></polyline>
                </g>
                <g id="Group" transform="translate(275.153000, 104.645000)" fill="#0F141F" fill-rule="nonzero">
                    <path d="M2,0.846 L1.951,8.057 C1.949,8.374 1.69,8.629 1.373,8.627 C1.06,8.625 0.806,8.37 0.804,8.057 L0.755,0.846 C0.752,0.502 1.029,0.221 1.373,0.22 C1.717,0.217 1.998,0.494 2,0.838 L2,0.846 Z" id="Shape"></path>
                </g>
                <g id="Group" transform="translate(83.914000, 94.497000)" fill="#FFA078" fill-rule="nonzero">
                    <path d="M1,7.2 L0.291,3.764 C0.13,2.989 0.565,2.214 1.311,1.947 L5.974,0.274 C6.736,0 7.587,0.157 8.202,0.684 L11.504,3.515 L1,7.2 Z" id="Shape"></path>
                </g>
                <g id="Group" transform="translate(83.333000, 92.424000)" fill="#FFA078" fill-rule="nonzero">
                    <path d="M28,6.847 L18.775,0.917 L16.5,1.048 C14.649,1.155 12.843,1.647 11.194,2.493 L1.988,7.784 C1.466,8.084 1.285,8.749 1.582,9.273 L2.863,11.534 L1.046,12.848 C0.602,13.17 0.463,13.772 0.724,14.255 L1.922,16.477 L3.371,16.105 L4.8,18.758 C5.072,19.262 5.687,19.472 6.21,19.238 L7.913,18.479 L9.753,21.292 C10.069,21.776 10.707,21.93 11.209,21.646 L21.957,15.557 L28,6.847 Z" id="Shape"></path>
                </g>
                <g id="Group" transform="translate(124.606000, 39.095000)" fill="#2196F3" fill-rule="nonzero">
                    <path d="M1,7.184 C1.351,6.51 1.755,5.874 2.136,5.222 L2.739,4.267 L3.052,3.797 L3.424,3.289 C4.48,1.976 6.004,1.025 7.662,0.655 C9.315,0.272 11.098,0.453 12.612,1.165 C13.974,1.802 15.314,2.489 16.632,3.235 C16.839,3.352 16.913,3.616 16.795,3.824 C16.696,3.998 16.494,4.078 16.308,4.028 C14.845,3.64 13.406,3.193 11.987,2.696 C10.719,2.274 9.37,2.207 8.102,2.52 C6.836,2.831 5.665,3.496 4.739,4.441 L4.4,4.807 L4.039,5.238 L3.294,6.087 C2.776,6.638 2.282,7.205 1.734,7.733 C1.55,7.912 1.256,7.906 1.078,7.722 C0.935,7.574 0.91,7.356 1,7.184" id="Shape"></path>
                </g>
                <g id="Group" transform="translate(278.237000, 130.184000)" fill="#2196F3" fill-rule="nonzero">
                    <path d="M1,6.706 C1.729,6.799 2.438,6.955 3.157,7.083 L4.22,7.313 C4.537,7.373 4.852,7.435 5.171,7.451 C6.438,7.56 7.712,7.317 8.835,6.754 C9.969,6.206 10.917,5.314 11.601,4.229 L11.844,3.81 L12.099,3.329 L12.617,2.37 C12.985,1.74 13.325,1.099 13.721,0.481 C13.85,0.28 14.118,0.221 14.32,0.35 C14.483,0.455 14.553,0.65 14.505,0.828 C14.313,1.536 14.066,2.219 13.848,2.914 L13.486,3.944 L13.301,4.456 L13.059,5.01 C12.37,6.475 11.169,7.722 9.703,8.463 C8.248,9.231 6.53,9.485 4.929,9.182 C4.526,9.111 4.139,8.99 3.756,8.867 L2.737,8.467 C2.068,8.175 1.392,7.911 0.733,7.584 C0.504,7.469 0.41,7.19 0.524,6.96 C0.615,6.778 0.809,6.682 1,6.706" id="Shape"></path>
                </g>
            </g>
        </g>
    </g>
</svg>