<svg xmlns="http://www.w3.org/2000/svg" width="1796" height="348" viewBox="0 0 1796 348">
  <g fill="none" fill-rule="evenodd">
    <g transform="translate(0 66)">
      <path fill="#FFF" fill-rule="nonzero" d="M230 235.5C249.8 218.433333 257.433333 201.866667 252.9 185.8 247.8 167.9 212.8 185.8 190.2 212.4 190.2 212.4 230.1 167.2 221.5 141.1 211.4 110.1 153.2 161.4 142.1 177.3 154.1 140 134.8 135.2 99.5 161.6 77.5 178.1 61.7 195.5 61.7 195.5 80 160.9 59.8 145.4 24.8 173.2 10.7629993 184.336366 2.66299935 201.936366.5 226 12.2044437 230.254546 20.9711104 233.021213 26.8 234.3 90.6666667 248.166667 158.4 248.566667 230 235.5zM1509.9 261.6C1509.9 261.6 1535.6 226.3 1562 206 1603.5 174 1637.9 171.3 1614 214 1679 144 1734.3 148.7 1693 214 1712 193.5 1712.57912 180.122869 1742.5 167.5 1774.5 154 1785 183 1745.5 232 1777 182.5 1811 204 1788 234 1788 241.666667 1787.66667 251.933333 1787 264.8 1727.53333 264.8 1697.8 264.8 1697.8 264.8L1509.9 261.6z"/>
      <g fill="#FFF" fill-rule="nonzero" transform="translate(174 79)">
        <path d="M1160,161.7 C1160,161.7 1241.7,78 1274,69.9 C1306.3,61.8 1296.5,103.8 1296.5,103.8 C1296.5,103.8 1366,9.2 1410.5,37.7 C1455,66.2 1350.5,148 1369,203 C1272.6,174.2 1276.1,157.2 1160,161.7 Z M1012.6,117.6 C999.3,113.2 972.1,127.3 962.9,134.8 C975.5,121.5 993.9,97.8 975.2,88.9 C954.7,79.1 909.6,114 909.6,114 C909.6,114 922.4,92.1 905.9,92.7 C889.4,93.3 862.7,117.7 862.7,117.7 C916.4,67.8 919.3,43 897.6,37.7 C881.6,33.7 833.3,45.4 792.9,89.9 C803,72.2 817,52 801.4,48.2 C785.8,44.4 755.3,58.5 701.1,112.2 C713.9,99.4 715.8,81.8 691,95.5 C666.2,109.2 624,153 624,153 L624,183 L1002,183 C1002,182.9 1036.7,125.5 1012.6,117.6 Z M0,86 C34.9,63 68.5,47.5 33.8,101.1 C33.8,101.1 84.7,53.3 125.3,28.8 C208.9,-21.6 217.4,33.1 166.3,90.5 C242.2,28.8 275.1,63 229,115.2 C229,115.2 247.4,99.5 261.1,90 C290.9,69.4 324.7,82.2 298.1,117.7 C393,38.1 432.4,76.8 376.3,146 C433.2,96.6 454.4,132.9 430.8,169.9 L430,183 L0,183 C0,120.5 0,88.2 0,86 Z"/>
        <circle cx="416" cy="106" r="6"/>
        <circle cx="824" cy="42" r="6"/>
        <circle cx="1309" cy="68" r="6"/>
        <circle cx="61" cy="24" r="24"/>
        <circle cx="113" cy="12" r="8"/>
      </g>
      <path fill="#CFD6E6" fill-rule="nonzero" d="M218.8,9.9 C218.8,9.9 220.4,-0.7 232.3,2.1 C226.7,-0.1 221.5,0.3 218.7,4.1 C218.7,4.2 212.4,-1.4 205.5,3.2 C216.7,0.6 218.8,9.9 218.8,9.9 Z M191.9,26.5 C191.9,26.5 193.2,17.7 203.1,20 C198.5,18.2 194.1,18.5 191.8,21.7 C191.8,21.7 186.5,17.1 180.7,20.9 C190.1,18.8 191.9,26.5 191.9,26.5 Z M11.3,28.3 C11.3,28.3 12.6,19.5 22.5,21.8 C17.9,20 13.5,20.3 11.2,23.5 C11.2,23.5 5.9,18.9 0.1,22.7 C9.5,20.6 11.3,28.3 11.3,28.3 Z" transform="translate(607 146)"/>
      <g transform="translate(1237)">
        <path stroke="#C7CDE2" stroke-linecap="round" stroke-width="2" d="M41.8,4.5 L64.5,237 M62.5,211.9 L180.2,180.6"/>
        <path stroke="#505D7F" stroke-linecap="round" stroke-width="2" d="M62.1,212 L66,211 M175.9,181.7 L180.1,180.6"/>
        <g fill-rule="nonzero" transform="translate(.034 55.264)">
          <path fill="#AFB8D2" d="M33.4,0.3 C28.3,9.8 22.1,22.5 14.8,38.4 C7.5,54.3 10.6,70.4 24.1,86.7 L33.4,33.3 L33.4,0.3 Z"/>
          <path fill="#C7CDE2" d="M14.6,39.1 C5.5,55 0.8,70.2 0.4,84.6 C0.2,94.2 0.3,108.1 2.5,124.1 C3.2,129.5 6.5,138.6 12.4,151.5 C17.8,151.7 23.1,151 28.1,149.4 C33.1,147.7 42.6,142.7 56.8,134.2 C42,113 32,98.6 26.7,90.9 C19.9,81.1 15.9,63.8 14.6,39.1 Z"/>
        </g>
        <g fill-rule="nonzero" transform="translate(25.863)">
          <path fill="#D5DBF1" d="M16.5,0.9 C15.3,0.9 2.9,37.2 2.9,54.5 C2.9,66.1 10.1,82.4 24.5,103.7 C20.7,83 18.3,66.8 17.3,54.9 C15.6,37 17.7,0.9 16.5,0.9 Z"/>
          <path fill="#DDE3F0" d="M1.1,110.8 C3.8,148.5 14.7,181.4 34,209.3 L153.9,177.2 C107,157.9 75.3,140.5 58.7,125 C33.7,101.8 12.5,81.4 3.4,46.2 C3.4,49.1 -1.6,68.6 1.1,110.8 Z"/>
        </g>
      </g>
      <path stroke="#C7CDE2" stroke-linecap="round" stroke-linejoin="round" stroke-width="1.2" d="M6.9,0.8 L7.2,96.5 M7.2,97.6 L0.2,221.6" transform="translate(1273 16)"/>
      <g transform="translate(1197 105)">
        <polygon fill="#0F141F" fill-rule="nonzero" points="86.9 120.5 88.5 125.3 93.5 125 91.7 118.5"/>
        <path fill="#A86D4F" fill-rule="nonzero" d="M39.2,103.7 L34.6,104 L22.8,108.5 C22.4,108.6 22.2,109.1 22.3,109.5 L22.8,110.7 L39.6,109.7 C39.6,109.7 40.7,107 39.2,103.7 Z"/>
        <path fill="#0F141F" fill-rule="nonzero" d="M40,109.7 L22.5,110.7 C22.4,110.7 22.3,110.6 22.3,110.5 L22.2,109.8 C22.2,109.7 22.3,109.6 22.4,109.6 L39.9,108.6 C40,108.6 40.1,108.7 40.1,108.8 L40.2,109.5 C40.2,109.6 40.1,109.7 40,109.7 Z"/>
        <polygon fill="#0F141F" fill-rule="nonzero" points="33.1 100.3 34.6 104 39.2 103.7 38.5 99.5"/>
        <polygon fill="#0F141F" fill-rule="nonzero" points="47 55 45.5 51.6 51 49.7 52.8 55.8"/>
        <path fill="#0F141F" fill-rule="nonzero" d="M47,53.5 C47,53.5 24.7,56.1 20.8,57.5 C18.9,58.2 18.2,61.4 19,64.2 C19.8,66.8 30.2,95.1 32,99.8 C32.1,100.2 32.5,100.4 32.9,100.4 L38.3,100.1 C40.5,99.5 38,95.5 32.9,70.3 C32.7,69.4 32.7,68.5 33.6,68.5 C47.1,68.3 60.7,65 60.7,65 C60.7,65 59.6,52.3 47,53.5 Z"/>
        <path fill="#505D7F" fill-rule="nonzero" d="M48.8,51.3 C48.8,51.3 53.4,49.2 62.2,45.6 C64.4,46.7 67.7,53.4 69.4,59.2 C72.7,67.4 92.5,117.6 93.1,121.6 C93.1,122 92.9,122.4 92.5,122.4 L87.4,122.6 C87.1,122.6 86.9,122.5 86.8,122.2 C84.5,117.6 60.5,73 55,62 C54.8,61.7 53.3,61.4 53.3,61.4 C52.5,60.8 50.1,56 48.8,51.3 Z"/>
        <polygon fill="#0F141F" fill-rule="nonzero" points="27.7 106.6 28 107.4 33.7 105.4 33.2 104.6"/>
        <path fill="#A86D4F" fill-rule="nonzero" d="M88.5,125.3 C87.2,126.8 86.5,128.7 85.5,130.8 L97.3,130.3 C96,127.2 94.3,125.5 93.6,125 L88.5,125.3 Z"/>
        <path fill="#0F141F" fill-rule="nonzero" d="M97.3,131.3 L85.1,131.8 C85,131.8 84.9,131.7 84.9,131.6 L84.9,130.9 C84.9,130.8 85,130.7 85.1,130.7 L97.3,130.2 C97.4,130.2 97.5,130.3 97.5,130.4 L97.5,131.1 C97.5,131.2 97.4,131.3 97.3,131.3 Z M88.8,127 L93.6,126.8 C93.6,126.8 93.6,126.8 93.7,126.8 C94.1,127.1 94.5,127.5 94.8,128 C94.8,128.1 94.8,128.2 94.7,128.2 L87.9,128.5 C87.8,128.5 87.7,128.4 87.8,128.3 C88.1,128 88.4,127.4 88.8,127 Z"/>
        <path fill="#FFA078" fill-rule="nonzero" d="M15.8,17.6 C15.8,17.6 12.9,14 13.3,13 C13.8,12 19.7,12.5 19.7,12.5 L19.1,17.5 L15.8,17.6 Z"/>
        <path fill="#FFA078" fill-rule="nonzero" d="M19.7,16.9 L24,31.9 L38.4,25.2 L37.8,35.7 C30.4,38.9 21.7,40.9 21.7,40.9 C21.7,40.9 17.8,42.4 17.7,38.9 L15.6,17.4 L19.7,16.9 Z"/>
        <path fill="#F0715D" fill-rule="nonzero" d="M22.4,33 L23.8,31.5 C23.9,31.4 24.1,31.4 24.2,31.5 L24.3,31.6 L24.7,34 C24.7,34.1 24.7,34.2 24.6,34.2 C24.5,34.2 24.4,34.2 24.4,34.1 L23.7,31.8 L24.2,31.9 L22.6,33.2 C22.5,33.2 22.4,33.2 22.3,33.2 C22.3,33.2 22.3,33.1 22.4,33 Z"/>
        <path fill="#1B7FCC" fill-rule="nonzero" d="M31.1,38.1 C33.2,37.4 35.5,36.5 37.7,35.6 L38.3,25.1 L28.5,29.7 L31.1,38.1 Z"/>
        <path fill="#FFA078" fill-rule="nonzero" d="M34.9,4.7 L34.1,14.5 C34.1,14.8 34.3,15 34.6,15 L36.1,15 C36.1,15 35.8,20.8 37.2,20.8 C38.6,20.8 45.5,18 45.5,18 C45.5,18 45.3,7.7 45,6 C44.8,4.3 36.7,3 34.9,4.7 Z"/>
        <path fill="#A86D4F" fill-rule="nonzero" d="M34.9,13.2 L7.4,14.4 L7.3,11.6 L34.8,10.5 C35,10.5 35.3,10.6 35.3,10.8 C35.5,11.5 35.6,12.2 35.4,12.9 C35.3,13 35.1,13.2 34.9,13.2 Z"/>
        <rect width="3.3" height="2.8" x="22.999" y="10.8" fill="#0F141F" fill-rule="nonzero" transform="rotate(-2.384 24.65 12.2)"/>
        <path fill="#2196F3" fill-rule="nonzero" d="M1.6,15.6 C2.7,15.6 3.6,14.5 3.6,13.1 C3.6,11.7 2.7,10.6 1.6,10.6 C0.5,10.6 0.6,11.7 0.6,13.1 C0.6,14.5 0.5,15.6 1.6,15.6 Z"/>
        <path fill="#A86D4F" fill-rule="nonzero" d="M23.7,14.8 L2.1,15.7 C1.7,15.7 1.3,15.4 1.3,14.9 L1.2,11.4 C1.2,11 1.5,10.6 2,10.6 L23.6,9.7 C23.8,9.7 24,9.9 24,10.1 L24.2,14.4 C24,14.6 23.9,14.8 23.7,14.8 Z"/>
        <ellipse cx="36.2" cy="11.8" fill="#0F141F" fill-rule="nonzero" rx="1" ry="1"/>
        <path fill="#2196F3" fill-rule="nonzero" d="M45.8,52.6 C45.6,52.6 45.4,52.5 45.3,52.4 C44.8,52 44.4,50.4 44.1,49.7 C43.7,48.8 43.3,47.9 42.9,46.9 C42.2,45.1 41.5,43.3 40.8,41.5 C40.6,41.8 37.4,36 36.5,33.7 C35.8,31.8 35.2,29.7 36,27.7 C37.4,24.4 41.6,23.3 44.7,22.1 C47.5,21.1 50.6,20.1 53.6,20.3 C57.2,20.6 62.2,42.6 65.2,49.2 C64.7,49.8 46.4,52.7 45.8,52.6 Z"/>
        <path fill="#0F141F" fill-rule="nonzero" d="M37.9,15.1 C38.4,15.1 38.8,14.9 39.2,14.6 C39.6,14.3 39.9,13.9 40,13.5 L40.1,13.4 L40.2,13.5 C40.1,14 39.8,14.5 39.4,14.8 C39,15.1 38.5,15.4 38,15.5 C37.9,15.5 37.8,15.5 37.8,15.4 C37.8,15.3 37.8,15.1 37.9,15.1 Z"/>
        <path fill="#FFA078" fill-rule="nonzero" d="M46.9,21 C45.5,18.2 45.4,13.6 45.4,13.6 C45.4,13.6 42,15.9 39.3,16.1 C39.2,19.3 40.1,22 40.8,23.5 C40.9,23.6 40.8,23.8 40.7,23.9 C40.7,23.9 40.6,23.9 40.5,24 C39.7,26.5 40.9,28.9 44.1,26.9 C47.3,24.9 48.8,20.9 48.8,20.9 C48.4,21 48,21.1 47.7,21.2 C47.4,21.3 47,21.3 46.9,21 Z"/>
        <path fill="#0F141F" fill-rule="nonzero" d="M39.7,20 C40.8,19.6 41.8,19.2 42.6,18.7 C43.1,18.5 43.5,19.1 43.2,19.5 L40.2,21.8 C40,21.4 39.9,21.2 39.7,20 Z"/>
        <path fill="#FFA078" fill-rule="nonzero" d="M18.4 13.2L18.7 12.2 18.9 11.3C18.9 11.2 19 11.1 19 10.9L19.3 10.3C19.5 9.8 20.2 9.7 20.5 10L20.3 11.6C20.3 11.7 20.3 11.8 20.3 11.9L20.3 14.9 19.7 16.8 17.2 17.3C16.9 16.4 16.5 15.5 16.7 14.8 16.9 13.6 18.4 13.2 18.4 13.2zM13 10.9C13.1 11.2 13.4 11.3 13.7 11.3L14.4 11.3 14.4 11.5C14.5 11.8 14.8 12.1 15.2 12L16.9 11.8C17.3 11.8 17.6 11.4 17.6 11L17.6 10.8 18 10.8C18.5 10.8 18.8 10.3 18.6 9.8L18.5 9.5C18.4 9.1 17.9 9.2 17.6 9.2L13.1 9.8C12.6 9.8 12.8 10.4 13 10.9z"/>
        <path stroke="#F0715D" stroke-linecap="round" stroke-width=".53" d="M14.4 11.3L14 9.8M15.7 9.6L16.1 11.8M17.2 9.4L17.6 10.7"/>
        <path fill="#0F141F" fill-rule="nonzero" d="M2.6 16.1L1.5 16.1C1.4 16.1 1.3 16 1.3 15.9L1.1 10.5C1.1 10.4 1.2 10.3 1.3 10.3L2.4 10.3C2.5 10.3 2.6 10.4 2.6 10.5L2.8 15.9C2.8 16 2.7 16.1 2.6 16.1zM40.3 11.4L39.9 11.4C39.7 11.4 39.6 11.3 39.5 11.1 39.5 10.7 39.4 10 39.3 9.3 35.3 8.8 34.7 8.2 34.2 7.8 32.5 6.5 31.4 3.9 33.8 3.8 33.3-.6 35-1.1 42.4 2.8 44 2.2 45.6 2.6 46.4 3.8 47.4 6.2 46.8 11.7 46.4 14.3 46.3 15 46.2 15.2 45.5 15.3L45.4 15.3C44.7 15.3 44.2 14.9 43.9 14.3L43.3 12.7C43.3 12.6 43.3 12.4 43.4 12.2 44.1 11.6 44.5 10.2 43.7 9.4 42.4 8.1 40.7 9.4 40.5 11 40.6 11.3 40.5 11.4 40.3 11.4z"/>
        <path fill="#FFA078" fill-rule="nonzero" d="M81,12.3 L82.8,9.8 C83.2,9.5 83.7,9.3 84.2,9.3 C84.8,9 85.5,8.4 85.5,7.8 C85.5,7.6 85,7.5 85,7.5 C85.2,7.5 85.4,6.9 85.4,6.7 L85,4.8 C85,4.4 84.6,4.1 84.1,4.1 L84,3.4 C83.9,3 83.5,2.8 83,2.9 L81.5,3.3 L79.2,5.1 C77.6,10.2 78.2,12.6 81,12.3 Z"/>
        <path fill="#FFA078" fill-rule="nonzero" d="M51.7,26.4 C49.6,25.5 49.4,22.5 51.4,21.3 C52.8,20.4 54.7,20.1 57.6,20.6 C63.2,21.6 71.7,23.8 71.7,23.8 L76.4,10.8 L80.6,12.3 C80.6,12.3 78.6,28.9 77.9,31.1 C77.2,33.3 76,33.4 73.4,32.8 C70.8,32.2 57.9,29.6 57.9,29.6 L51.7,26.4 Z"/>
        <path fill="#FFA078" fill-rule="nonzero" d="M76.5,10.8 L77.7,5.5 C77.7,5.2 77.9,4.9 78.2,4.8 L80.5,3.2 C80.7,3.1 81,3.1 81.2,3.2 L82.7,3.8 C83,3.9 83.1,4.1 83,4.4 C82.9,4.9 82.4,5.2 81.9,5.1 L80.8,4.9 L79.6,5.7 C79.6,5.7 81.1,6.9 80.5,9 C80.4,9.4 79.1,10.2 79.1,10.2 L81,12.3 C79,13.6 77.6,12.4 76.5,10.8 Z"/>
        <path fill="#F0715D" fill-rule="nonzero" d="M71.1,25.6 L71.4,23.8 L71.8,24.1 L69.7,25.5 C69.7,25.5 69.6,25.5 69.5,25.5 C69.5,25.5 69.5,25.4 69.5,25.3 L71.4,23.6 C71.5,23.5 71.7,23.5 71.8,23.6 C71.8,23.7 71.9,23.8 71.8,23.9 L71.2,25.6 C71.3,25.7 71.2,25.7 71.1,25.6 C71.2,25.7 71.1,25.6 71.1,25.6 Z"/>
        <path fill="#0F141F" fill-rule="nonzero" d="M0.6,1 C0.8,0.9 0.9,0.9 1.1,0.8 C1.3,0.8 1.4,0.8 1.6,0.8 C1.9,0.8 2.2,0.9 2.5,1 C2.6,1 2.6,1.1 2.6,1.2 C2.6,1.3 2.5,1.3 2.4,1.3 C2.1,1.2 1.9,1.2 1.6,1.2 C1.5,1.2 1.3,1.2 1.2,1.3 C1.1,1.3 1,1.4 0.9,1.4 C0.8,1.5 0.6,1.4 0.5,1.3 C0.4,1.3 0.4,1.1 0.6,1 Z" transform="translate(35 9)"/>
        <path fill="#2196F3" fill-rule="nonzero" d="M64.8,22.2 C62.4,21.7 59.8,21.1 57.6,20.7 C54.7,20.2 52.8,20.5 51.4,21.4 C49.4,22.6 49.6,25.6 51.7,26.5 L58,29.7 C58,29.7 60.4,30.2 63.3,30.8 L64.8,22.2 Z"/>
        <path fill="#F0715D" fill-rule="nonzero" d="M2.6,0.2 C3,0.2 3.3,0.3 3.7,0.5 C3.8,0.6 4,0.8 4.1,1 C4.2,1.2 4.2,1.5 4.1,1.7 C3.9,2.1 3.4,2.3 3,2.3 C2.6,2.3 2.2,2.2 1.8,2 L2.1,2 C1.8,2.3 1.4,2.6 1,2.9 L1,2.5 C1.3,2.7 1.4,3 1.6,3.3 C1.7,3.6 1.8,3.9 1.8,4.3 C1.8,4.6 1.7,5 1.6,5.2 C1.5,5.5 1.3,5.8 1.1,6 C1.1,6.1 1,6.1 0.9,6 C0.8,6 0.8,5.9 0.9,5.8 C1.1,5.6 1.2,5.3 1.3,5 C1.4,4.7 1.4,4.5 1.4,4.2 C1.4,3.9 1.3,3.7 1.2,3.4 C1.2,3.2 1,3 0.8,2.8 C0.7,2.7 0.7,2.6 0.8,2.4 C1.1,2.1 1.5,1.8 1.8,1.5 L1.9,1.5 C2,1.4 2.1,1.4 2.2,1.5 C2.6,1.8 3.5,2 3.8,1.4 C3.9,1.1 3.8,0.9 3.5,0.7 C3.2,0.5 2.9,0.4 2.5,0.4 C2.4,0.4 2.4,0.3 2.4,0.3 C2.5,0.3 2.5,0.2 2.6,0.2 Z" transform="translate(79 3)"/>
        <path fill="#F0715D" fill-rule="nonzero" d="M4.2,1 C4.3,1.2 4.4,1.4 4.3,1.7 C4.3,1.8 4.2,2 4.1,2 C4,2.1 3.9,2.1 3.8,2.2 C3.4,2.5 3.1,2.7 2.7,2.9 C2.5,3 2.3,3.1 2.1,3.2 C2,3.2 1.9,3.3 1.7,3.3 C1.5,3.3 1.4,3.2 1.3,3.2 C1.1,3.1 0.9,2.9 0.8,2.6 C0.8,2.5 0.8,2.3 0.9,2.1 C1,1.9 1.1,1.9 1.2,1.8 C1.3,1.7 1.5,1.8 1.6,1.9 C1.7,2 1.6,2.2 1.5,2.3 C1.4,2.4 1.3,2.4 1.3,2.5 C1.3,2.6 1.4,2.8 1.6,2.8 C1.8,3 2.2,2.8 2.6,2.6 C3,2.4 3.3,2.2 3.7,2 C3.9,1.9 4,1.8 4.1,1.6 C4.2,1.4 4.1,1.3 4.2,1 C4.1,1 4.1,1 4.2,1 C4.1,0.9 4.2,0.9 4.2,1 Z" transform="translate(80 3)"/>
        <path fill="#F0715D" fill-rule="nonzero" d="M4.1,0.9 C3.8,1.3 3.4,1.4 3.1,1.6 C2.8,1.8 2.4,2 2,2.1 C1.8,2.2 1.6,2.2 1.4,2.3 C1.1,2.3 0.9,2.2 0.7,2.1 C0.5,2 0.4,1.8 0.3,1.5 C0.2,1.2 0.4,0.9 0.6,0.9 C0.7,0.9 0.8,0.9 0.8,1 C0.8,1.1 0.8,1.1 0.7,1.2 C0.4,1.3 0.6,1.7 0.8,1.9 C0.9,2 1.1,2.1 1.2,2.1 C1.4,2.1 1.5,2 1.7,1.9 C2,1.8 2.4,1.6 2.7,1.4 C3,1.2 3.4,1 3.6,0.8 L3.7,0.7 C3.8,0.6 3.9,0.6 3.9,0.7 C4.2,0.7 4.2,0.8 4.1,0.9 Z" transform="translate(81 5)"/>
        <path fill="#F0715D" fill-rule="nonzero" d="M3.4,0.1 C3.1,0.5 2.9,0.6 2.6,0.8 C2.3,1 2,1.2 1.7,1.3 C1.5,1.4 1.4,1.4 1.1,1.5 C0.8,1.5 0.7,1.3 0.5,1.2 C0.4,1.1 0.2,0.9 0.2,0.6 C0.2,0.3 0.4,0.1 0.6,0.1 C0.7,0.1 0.7,0.1 0.8,0.2 C0.8,0.3 0.8,0.3 0.8,0.4 C0.5,0.6 0.6,0.8 0.8,1 C0.9,1.1 1.1,1.2 1.1,1.2 C1.2,1.2 1.4,1.1 1.5,1.1 C1.8,1 2.1,0.8 2.4,0.6 C2.7,0.4 3,0.2 3.2,-3.55271368e-15 C3.2,-3.55271368e-15 3.3,-3.55271368e-15 3.4,-3.55271368e-15 C3.4,-3.55271368e-15 3.4,0.1 3.4,0.1 Z" transform="translate(82 7)"/>
        <path fill="#F0715D" fill-rule="nonzero" d="M1.4,1.5 C1.1,1.5 0.8,1.3 0.7,1 C0.6,0.7 0.7,0.4 0.9,0.2 C1,0.2 1,0.2 1.1,0.2 C1.1,0.3 1.1,0.3 1.1,0.4 C1,0.5 0.9,0.7 1,0.9 C1.1,1 1.3,1.2 1.4,1.1 C1.5,1.1 1.6,1.1 1.6,1.2 C1.6,1.3 1.6,1.4 1.4,1.5 C1.5,1.5 1.5,1.5 1.4,1.5 Z" transform="translate(82 8)"/>
        <path fill="#0F141F" fill-rule="nonzero" d="M54.7,31 L60.2,34.2 C59.7,32.7 59.2,31.2 58.7,29.8 L55.4,29.2 C54.8,29.1 54.3,29.5 54.3,30.2 C54.3,30.5 54.4,30.8 54.7,31 Z"/>
      </g>
      <g transform="translate(1157 201)">
        <path stroke="#DDE3F0" stroke-linecap="round" stroke-linejoin="round" stroke-width="2.721" d="M0.5,3.4 L82.4,0.2 C85,-8.32667268e-17 87.6,1.4 89,3.7 L94.8,13.7 M275.6,9.8 L193.8,13.4 C191.1,13.5 188.7,15.1 187.5,17.6 L182.5,28.1 M263.3,10.2 L256.3,24.8 M268,10.1 L261,24.7"/>
        <g fill-rule="nonzero" transform="translate(4.86 12.662)">
          <path fill="#E1E5F2" d="M226.6,27.2 L219.6,12.4 C219.1,11.5 218.2,10.9 217.2,10.9 L152.2,13.8 C151.3,13.8 150.4,14.4 150,15.2 L146.3,22.3 L101.7,24.1 C100.3,24.1 99.2,25.3 99.2,26.8 C99.2,28.2 100.4,29.3 101.7,29.2 L143.6,27.4 L141.3,31.7 L226.6,27.2 Z"/>
          <path fill="#C7CDE2" d="M267.4,8.9 L175.9,12.7 C175.4,12.7 175,13 174.8,13.4 L171.4,21.4 C171.1,22 170.6,22.4 169.9,22.4 L108.5,25 C107.9,25 107.3,24.7 106.9,24.1 L94.7,1.1 C94.4,0.5 93.8,0.1 93.1,0.2 L1.9,3.9 C1,4 0.4,5 0.8,5.8 L22.1,44.7 C48.8,57.1 103.7,63.2 136.5,50.4 C207.2,29.6 223.7,33 257.1,37.3 L268.7,10.7 C269,9.8 268.3,8.8 267.4,8.9 Z"/>
          <path fill="#505D7F" d="M22,44.7 C48.7,57.1 103.6,63.2 136.4,50.4 C209.3,31.3 223.8,34.2 257,37.3 L260.1,30.1 L19.3,39.7 L22,44.7 Z"/>
          <path fill="#D6DBE8" d="M94.7,1 C94.4,0.4 93.8,5.27355937e-16 93.1,0.1 L1.9,3.9 C0.9,3.9 0.3,4.9 0.7,5.8 L3.9,11.6 L98.2,7.7 L94.7,1 Z" opacity=".6"/>
          <path fill="#D6DBE8" d="M49.6,38.3 C41.1,33.5 16.5,10 12.1,3.8 L2.1,3.8 C1.1,3.8 0.2,4.9 0.6,5.8 L22.3,44.5 L33.9,61.4 C37.2,61 58.2,43.1 49.6,38.3 Z" opacity=".6"/>
        </g>
        <g transform="translate(186.592 20.455)">
          <path stroke="#FFF" stroke-width="1.559" d="M3.5,4.6 C15.9,15.3 29.2,14.2 41.2,3 C54.5,14.3 68,13.6 78.7,1.4"/>
          <path fill="#505D7F" fill-rule="nonzero" d="M75,2.5 C74.4,2.5 74,2.1 74,1.6 C74,1.1 74.4,0.7 75,0.7 L81,0.5 C81.6,0.5 82,0.9 82,1.4 C82,1.9 81.6,2.3 81,2.3 L75,2.5 Z M38.1,3.9 C37.5,3.9 37.1,3.5 37.1,3 C37.1,2.5 37.5,2.1 38.1,2.1 L44.1,1.9 C44.7,1.9 45.1,2.3 45.1,2.8 C45.1,3.3 44.7,3.7 44.1,3.7 L38.1,3.9 Z M1.1,5.5 C0.5,5.5 0.1,5.1 0.1,4.6 C0.1,4.1 0.5,3.7 1.1,3.7 L7.1,3.5 C7.7,3.5 8.1,3.9 8.1,4.4 C8.1,4.9 7.7,5.3 7.1,5.3 L1.1,5.5 Z"/>
        </g>
        <g transform="translate(14.606 13.636)">
          <path fill="#505D7F" fill-rule="nonzero" d="M50.1,26.7 C50.5,25.9 50.6,25 50.7,24 C50.7,23.8 50.8,23.6 50.8,23.3 C50.9,23.3 50.9,23.3 51,23.3 C51.2,23.3 51.5,23.4 51.8,23.4 C51.6,23 51.3,22.4 50.9,21.9 C50.4,21.1 49.9,20.2 49.9,20.3 C49.7,20.9 49.4,21.4 49.2,22 C49,22.6 48.8,23.1 48.5,23.7 C48.7,23.7 48.8,23.6 48.9,23.6 C49.1,23.6 49.3,23.5 49.4,23.5 C49.4,23.7 49.4,23.9 49.3,24.1 C49.2,24.4 49.1,24.7 49,25 C48.5,26.2 47.3,27.3 46.2,27.5 C45.8,27.6 45.5,27.6 45.2,27.4 C45,27.3 44.9,27.2 44.8,27.1 C44.7,27 44.6,26.8 44.5,26.6 C44.3,26.3 44.2,25.9 44.1,25.6 C43.6,23.7 41.9,17.8 41.5,16.3 C41.9,16.2 43.2,15.9 43.3,15.8 C43.6,15.8 43.9,15.8 44.1,15.9 C44.2,15.9 44.3,16 44.3,16 C44.7,16.1 45,16 45.3,15.7 L45.3,15.6 C45.3,15.5 45.4,15.5 45.4,15.4 C45.7,14.9 45.5,14.3 45,13.9 C44.6,13.6 44,13.7 43.7,14 C43.7,14.1 43.6,14.1 43.5,14.2 C43.3,14.4 43.1,14.6 42.9,14.6 C42.8,14.6 41.6,14.9 41,15.1 C40.9,14.7 40.6,13.8 40.6,13.7 C40.6,13.6 40.8,13.3 40.9,13.2 C40.9,13.1 41,13.1 41,13 C41.3,12.6 41.4,12.1 41.4,11.6 C41.3,10.8 40.7,10.3 40,10 L39.9,10 C39.7,9.9 39.5,9.9 39.2,9.9 L39.1,9.9 C39.1,9.9 39.1,9.9 39,9.9 C38.9,9.9 39,9.9 38.9,9.9 C38.9,9.9 38.9,9.9 38.8,9.9 C38.8,9.9 38.8,9.9 38.7,9.9 L38.6,9.9 C38.4,10 38.2,10.1 38,10.3 C38,10.3 38,10.4 37.9,10.4 C37.4,10.9 37.2,11.7 37.5,12.4 C37.7,12.9 38,13.3 38.4,13.5 C38.5,13.5 38.6,13.6 38.6,13.6 C38.8,13.7 39.1,13.8 39.1,13.9 C39.1,14 39.3,14.9 39.4,15.3 C38.9,15.4 37.7,15.7 37.5,15.8 C37.3,15.8 36.9,15.8 36.7,15.7 C36.6,15.7 36.5,15.6 36.5,15.6 C36,15.5 35.5,15.7 35.3,16.1 C35,16.6 35.2,17.2 35.7,17.6 C35.8,17.6 35.9,17.7 35.9,17.7 C35.9,17.7 35.9,17.7 36,17.7 C36.3,17.8 36.8,17.8 37,17.5 C37.1,17.4 37.1,17.4 37.2,17.3 C37.4,17.1 37.7,16.9 37.9,16.8 C37.9,16.8 39.2,16.5 39.7,16.3 C40.1,17.8 41.3,23.8 41.7,25.7 C41.8,26.1 41.8,26.4 41.8,26.8 C41.8,27 41.8,27.2 41.8,27.4 C41.8,27.6 41.7,27.7 41.6,27.9 C41.4,28.1 41.1,28.3 40.7,28.4 C39.6,28.7 38.1,28.3 37.1,27.5 C36.9,27.3 36.6,27.1 36.4,26.8 C36.3,26.6 36.2,26.5 36.1,26.3 C36.3,26.2 36.5,26.2 36.6,26.1 C36.7,26.1 36.9,26 37,26 C36.5,25.6 36.1,25.2 35.6,24.8 C35.2,24.4 34.7,24 34.2,23.6 C34.2,23.6 34.1,24.5 34.1,25.5 C34.1,26.1 34,26.7 34,27.2 C34.3,27 34.5,26.9 34.7,26.7 C34.8,26.6 34.8,26.6 34.9,26.6 C35,26.8 35.2,27 35.3,27.1 C35.8,27.9 36.4,28.6 37.1,29.2 C37.2,29.2 37.2,29.2 37.2,29.3 C37.2,29.3 37.2,29.3 37.3,29.3 C38.1,29.9 38.9,30.2 39.8,30.4 C39.8,30.4 39.8,30.4 39.9,30.4 C40.6,30.6 41.4,30.6 42.3,30.6 C42.7,30.6 43.1,30.7 43.4,30.7 C43.6,30.7 43.8,30.8 44,30.8 C44.2,30.7 44.3,30.6 44.5,30.4 C44.8,30.2 45.1,30 45.5,29.8 C46.3,29.4 46.9,29 47.5,28.5 C47.5,28.5 47.5,28.4 47.6,28.4 C48.3,27.8 48.9,27.1 49.3,26.2 C49.3,26.2 49.3,26.2 49.3,26.1 C50,26.8 50,26.7 50.1,26.7 Z M40.7,12.7 C40.6,12.7 40.6,12.8 40.7,12.7 C40.6,12.8 40.6,12.8 40.5,12.8 C40.5,12.8 40.5,12.8 40.5,12.9 C40.5,12.9 40.5,12.9 40.4,12.9 C40.4,12.9 40.4,12.9 40.3,12.9 L40.2,12.9 C39.8,12.8 39.5,12.5 39.4,12.1 C39.3,11.6 39.5,11 40,10.8 C40,10.8 40,10.8 40.1,10.8 C40.1,10.8 40.1,10.8 40.2,10.8 C40.7,10.8 41.2,11.1 41.3,11.6 C41.1,12 41,12.4 40.7,12.7 Z"/>
          <path stroke="#FFF" stroke-linecap="round" stroke-width="1.559" d="M2.9,2.3 C9.9,7.2 16.1,9.7 21.7,9.7 C27.2,9.7 33.4,6.8 40.2,1 C40.3,0.9 40.4,0.9 40.5,1 L40.5,1.1 L39.8,10.1"/>
          <path fill="#505D7F" fill-rule="nonzero" d="M36.9,2 C36.4,2 36,1.6 36,1.1 C36,0.6 36.4,0.2 36.8,0.2 L42.1,0 C42.6,0 43,0.4 43,0.9 C43,1.4 42.6,1.8 42.2,1.8 L36.9,2 Z M1.7,3.5 C1.2,3.5 0.8,3.1 0.8,2.6 C0.8,2.1 1.2,1.7 1.6,1.7 L6.8,1.5 C7.3,1.5 7.7,1.9 7.7,2.4 C7.7,2.9 7.3,3.3 6.9,3.3 L1.7,3.5 Z"/>
        </g>
      </g>
      <g fill="#F2F5FA" fill-rule="nonzero" transform="translate(1152 223)">
        <path d="M9.2,34.9 C14.8,35.4 22.5,25.9 18.3,21.1 C16.4,18.9 13.4,17.6 10.7,16.9 C8,16.1 6.9,12.9 8.6,10.6 C10.2,8.5 13.3,8.4 15,10.4 C23.7,21.2 29.6,35 41,37.5 L9.2,34.9 Z"/>
        <circle cx="2.6" cy="8.5" r="2.5"/>
        <circle cx="107.5" cy="22.9" r="1.8"/>
        <circle cx="3.6" cy="1.3" r="1.2"/>
        <path d="M79.1,36.3 C85.7,36.3 94.4,32.6 100.1,27.7 C101,26.9 102.4,26.8 103.4,27.4 C104.8,28.3 105.2,30.2 104.2,31.5 C102.6,33.7 99.6,36.9 94,39.7 C84.5,44.8 79.1,36.3 79.1,36.3 Z"/>
        <path d="M17.9,14 C28.9,27.4 37.9,26.8 44.8,26 C51.6,25.2 58.1,25.5 64.2,31.2 C69.1,35.8 81.8,37.6 91.6,33 C97.8,30.1 94.2,38.7 94.2,38.7 L53,45.4 C53,45.4 28.1,40.7 17.9,14 Z"/>
      </g>
      <g transform="translate(535 109)">
        <g fill="#DDE3F0" fill-rule="nonzero" transform="translate(28)">
          <polygon points="84 61 173 61 173 44 196 44 196 128 84 128"/>
          <polygon points="115 123 115 0 148 11 148 123"/>
          <polygon points="231 129 202 129 202 86 231 108"/>
          <path d="M73,108 L44,108 L33,122 C25.3,122 20.2,122.3 17.5,123 C14.8,123.7 9,129.7 0,141 L73,141 L73,108 Z"/>
        </g>
        <path fill="#7CC299" fill-rule="nonzero" d="M244.5,107 C246.8,107 252.3,111.3 261,120 L234,120 L234,115 C238.7,109.7 242.2,107 244.5,107 Z M37,130 C33,130 26.5,138 23,138 C19.5,138 21,138 17,138 C14.3,138 8.7,142 0,150 L53,150 L53,136 C45,132 39.7,130 37,130 Z"/>
        <path fill="#25B869" fill-rule="nonzero" d="M12.1,5.1 L12.9,3.9 C12.9,3.9 12.9,3.8 12.9,3.7 L12,0.5 C12,0.3 11.6,0.3 11.5,0.5 C10.7,3.2 8.4,11.6 8.1,13.3 C8.1,13.4 8.2,13.6 8.3,13.6 L15.1,13.6 C15.2,13.6 15.4,13.5 15.3,13.3 L13.3,5.6 C13.3,5.5 13.2,5.4 13,5.4 L12.2,5.5 C12.2,5.5 12,5.2 12.1,5.1 Z M4.2,11.6 L3.4,10.4 C3.4,10.4 3.4,10.3 3.4,10.2 L4.2,7 C4.2,6.8 4.6,6.8 4.7,7 C5.5,9.7 7.8,18 8.2,19.7 C8.2,19.8 8.1,20 8,20 L1.2,20 C1.1,20 0.9,19.9 1,19.7 L3,12 C3,11.9 3.1,11.8 3.3,11.8 L4,11.9 C4.2,12 4.4,11.8 4.2,11.6 Z" transform="translate(46 118)"/>
        <path fill="#8C98BD" fill-rule="nonzero" d="M3,150 C25.1,139.5 43.4,132.4 66.1,128.1 C73.1,126.8 84.7,125.6 101,124.7 L169,124 L169,150 L3,150 Z"/>
        <path fill="#2D9C5C" fill-rule="nonzero" d="M150.8,139.7 L108.5,151.1 L98.5,150 C118,141.7 137.3,136 153.6,132.8 L150.8,139.7 Z"/>
        <path fill="#25B869" fill-rule="nonzero" d="M142,123 L142,136 L171,136 L171,123 C167,122.7 164,122.5 162,122.5 C160,122.5 153.3,122.7 142,123 Z"/>
        <g stroke="#C7CDE2" stroke-width="1.7" transform="translate(262.025 99.347)">
          <path d="M4.4,0.5 L0.5,15.7 L8.5,15.7 L4.6,0.5 C4.6,0.5 4.5,0.4 4.4,0.5 C4.4,0.5 4.4,0.5 4.4,0.5 Z"/>
          <path d="M1,15.7 L6.9,10.8 C6.9,10.8 6.9,10.7 6.9,10.7 C6.9,10.7 6.9,10.7 6.9,10.7 L3,7.2"/>
        </g>
        <g fill-rule="nonzero" transform="translate(66 19)">
          <g transform="translate(66 21)">
            <polygon fill="#C7CDE2" points="17 0 27 0 27 5 17 5"/>
            <polygon fill="#8C98BD" points="5 0 17 0 17 5 5 5"/>
            <polygon fill="#8C98BD" points="21 84 0 84 0 5 21 5"/>
            <polygon fill="#C7CDE2" points="21 5 34 5 34 83 21 83"/>
            <polygon fill="#9BA6C7" points="34 15 21 32 21 84 34 84" opacity=".54"/>
            <g transform="translate(26 9)">
              <polygon fill="#DDE3F0" points="0 0 3 0 3 14 0 14"/>
              <polygon fill="#F2F5FA" points="0 17 3 17 3 31 0 31" opacity=".6"/>
              <polygon fill="#F2F5FA" points="0 34 3 34 3 48 0 48" opacity=".6"/>
            </g>
          </g>
          <g transform="translate(33 56)">
            <rect width="30" height="6" x="7" fill="#A4D7FC"/>
            <rect width="15" height="6" x="7" fill="#78B2F5"/>
            <rect width="25" height="43" y="5" fill="#78B2F5"/>
            <rect width="24" height="43" x="19" y="5" fill="#A4D7FC"/>
            <polygon fill="#78B2F5" points="19 48 43 48 43 19 19 37" opacity=".55"/>
            <g fill="#F2F5FA" opacity=".6" transform="translate(23 11)">
              <polygon points="10 0 17 0 17 3 10 3"/>
              <polygon points="0 0 7 0 7 3 0 3"/>
              <polygon points="10 6 17 6 17 9 10 9"/>
              <polygon points="0 6 7 6 7 9 0 9"/>
              <polygon points="10 12 17 12 17 15 10 15"/>
              <polygon points="0 12 7 12 7 15 0 15"/>
              <polygon points="10 18 17 18 17 21 10 21"/>
              <polygon points="0 18 7 18 7 21 0 21"/>
            </g>
            <polygon fill="#F2F5FA" points="7 4 37 4 37 5 7 5" opacity=".6"/>
          </g>
          <g transform="translate(0 75)">
            <polygon fill="#C7CDE2" points="25 56 11 56 11 0 25 7"/>
            <polygon fill="#9BA6C7" points="22 27 11 36 11 56 22 56" opacity=".54"/>
            <polygon fill="#8C98BD" points="0 0 11 0 11 56 0 56"/>
            <rect width="10" height="3" x="13" y="10" fill="#DDE3F0"/>
            <rect width="10" height="3" x="13" y="15" fill="#DDE3F0"/>
            <polygon fill="#F2F5FA" points="2 10 9 10 9 13 2 13" opacity=".14"/>
            <polygon fill="#F2F5FA" points="2 15 9 15 9 18 2 18" opacity=".14"/>
          </g>
          <g transform="translate(144 57)">
            <polygon fill="#78B2F5" points="0 0 5 0 5 53 0 53"/>
            <polygon fill="#A4D7FC" points="5 0 30 0 30 53 5 53"/>
            <g fill="#CAE7FC" transform="translate(9 5)">
              <polygon points="0 0 17 0 17 3 0 3"/>
              <polygon points="0 6 17 6 17 9 0 9"/>
              <polygon points="0 12 17 12 17 15 0 15"/>
              <polygon points="0 18 17 18 17 21 0 21"/>
              <polygon points="0 24 17 24 17 27 0 27"/>
            </g>
          </g>
          <path fill="#25B869" d="M3.5,5.4 L2.7,4.2 C2.7,4.2 2.7,4.1 2.7,4 L3.6,0.8 C3.6,0.6 4,0.6 4.1,0.8 C4.9,3.5 7.2,11.9 7.5,13.6 C7.5,13.7 7.4,13.9 7.3,13.9 L0.4,13.9 C0.3,13.9 0.1,13.8 0.2,13.6 L2.2,5.9 C2.2,5.8 2.3,5.7 2.5,5.7 L3.3,5.8 C3.4,5.9 3.6,5.6 3.5,5.4 Z M11.5,11.4 L10.7,10.2 C10.7,10.2 10.7,10.1 10.7,10 L11.6,6.8 C11.6,6.6 12,6.6 12.1,6.8 C12.9,9.5 15.2,17.9 15.5,19.6 C15.5,19.7 15.4,19.9 15.3,19.9 L8.4,19.9 C8.3,19.9 8.1,19.8 8.2,19.6 L10.2,11.9 C10.2,11.8 10.3,11.7 10.5,11.7 L11.3,11.8 C11.4,11.9 11.6,11.6 11.5,11.4 Z" transform="translate(80 87)"/>
          <g transform="translate(22.013 99.654)">
            <polygon fill="#C7CDE2" points="13 .3 68 .3 68 31.3 13 31.3"/>
            <rect width="13" height="31" y=".3" fill="#8C98BD"/>
            <g fill="#F2F5FA" transform="translate(1.987 6.346)">
              <polygon points="14 0 27 0 27 3 14 3" opacity=".57"/>
              <rect width="13" height="3" x="14" y="6" opacity=".57"/>
              <polygon points="0 0 9 0 9 3 0 3" opacity=".14"/>
              <rect width="9" height="3" y="6" opacity=".14"/>
              <polygon points="32 0 45 0 45 3 32 3" opacity=".57"/>
              <polygon points="32 6 45 6 45 9 32 9" opacity=".57"/>
              <polygon points="50 0 63 0 63 3 50 3" opacity=".57"/>
              <polygon points="50 6 63 6 63 9 50 9" opacity=".57"/>
            </g>
            <polygon fill="#F2F5FA" points="0 .3 68 .3 68 2.3 0 2.3" opacity=".4"/>
          </g>
          <g transform="translate(103)">
            <polygon fill="#C7CDE2" points="41 115 41 10 18 10 18 115"/>
            <polygon fill="#8C98BD" points="0 115 18 115 18 10 0 10"/>
            <g fill="#F2F5FA" opacity=".12" transform="translate(4 22)">
              <polygon points="0 0 10 0 10 5 0 5"/>
              <polygon points="0 9 10 9 10 14 0 14"/>
              <polygon points="0 18 10 18 10 23 0 23"/>
              <polygon points="0 27 10 27 10 32 0 32"/>
              <polygon points="0 36 10 36 10 41 0 41"/>
              <polygon points="0 45 10 45 10 50 0 50"/>
              <polygon points="0 62 10 62 10 93 0 93"/>
            </g>
            <g fill="#DDE3F0" transform="translate(22 22)">
              <polygon points="0 0 3 0 3 6 0 6"/>
              <polygon points="6 0 9 0 9 6 6 6"/>
              <polygon points="12 0 15 0 15 6 12 6"/>
              <g transform="translate(0 9)">
                <polygon points="0 0 3 0 3 6 0 6"/>
                <polygon points="6 0 9 0 9 6 6 6"/>
                <polygon points="12 0 15 0 15 6 12 6"/>
              </g>
              <g transform="translate(0 18)">
                <polygon points="0 0 3 0 3 6 0 6"/>
                <polygon points="6 0 9 0 9 6 6 6"/>
                <polygon points="12 0 15 0 15 6 12 6"/>
              </g>
              <g transform="translate(0 27)">
                <polygon points="0 0 3 0 3 6 0 6"/>
                <polygon points="6 0 9 0 9 6 6 6"/>
                <polygon points="12 0 15 0 15 6 12 6"/>
              </g>
              <g transform="translate(0 36)">
                <polygon points="0 0 3 0 3 6 0 6"/>
                <polygon points="6 0 9 0 9 6 6 6"/>
                <polygon points="12 0 15 0 15 6 12 6"/>
              </g>
            </g>
            <g transform="translate(7)">
              <polygon fill="#8C98BD" points="0 5 0 10 16 10 16 5 22 0 6 0"/>
              <polygon fill="#C7CDE2" points="28 10 16 10 16 5 22 0 28 5"/>
              <circle cx="22" cy="6" r="2" fill="#DDE3F0"/>
            </g>
          </g>
          <g transform="translate(162 95)">
            <polygon fill="#8C98BD" points="0 17 0 4 24 4 24 17"/>
            <rect width="16" height="5" x="11" fill="#8C98BD"/>
            <polygon fill="#C7CDE2" points="27 0 63 0 63 5 27 5"/>
            <polygon fill="#C7CDE2" points="24 23 24 4 73 4 73 23"/>
            <g fill="#DDE3F0" transform="translate(31 9)">
              <rect width="3" height="10"/>
              <rect width="3" height="10" x="8"/>
              <rect width="3" height="10" x="16"/>
              <rect width="3" height="10" x="24"/>
              <rect width="3" height="10" x="32"/>
            </g>
            <polygon fill="#F2F5FA" points="11 3 63 3 63 4 11 4" opacity=".6"/>
          </g>
        </g>
        <path fill="#25B869" fill-rule="nonzero" d="M115.9,147.5 C164.3,127.3 258.8,117.9 311.9,139.3 L237.6,145 L159.8,152.4 L115.9,147.5 Z"/>
        <g fill-rule="nonzero" transform="translate(188 5)">
          <polygon fill="#C7CDE2" points="2 6 3 6 3 14 2 14"/>
          <rect width="1" height="3" y="11" fill="#C7CDE2"/>
          <path fill="#505D7F" d="M3.2,6.6 L1.9,6.6 C1.7,6.6 1.5,6.4 1.5,6.2 L1.5,0.5 C1.5,0.3 1.7,0.1 1.9,0.1 L3.3,0.1 C3.5,0.1 3.7,0.3 3.7,0.5 L3.7,6.2 C3.7,6.5 3.5,6.6 3.2,6.6 Z"/>
        </g>
        <path fill="#25B869" fill-rule="nonzero" d="M4.7,10.6 L5.5,9.4 C5.5,9.4 5.5,9.3 5.5,9.2 L4.7,6 C4.7,5.8 4.3,5.8 4.2,6 C3.5,8.7 1.1,17 0.8,18.7 C0.8,18.9 0.9,19 1,19 L7.8,19 C7.9,19 8.1,18.9 8,18.7 L6,11 C6,10.9 5.9,10.8 5.7,10.8 L5,10.9 C4.7,11 4.6,10.8 4.7,10.6 Z M11.6,5.4 L10.8,4.2 C10.8,4.2 10.8,4.1 10.8,4 L11.7,0.8 C11.7,0.6 12.1,0.6 12.2,0.8 C13,3.5 15.3,11.9 15.6,13.6 C15.6,13.7 15.5,13.9 15.4,13.9 L8.5,13.9 C8.4,13.9 8.2,13.8 8.3,13.6 L10.3,5.9 C10.3,5.8 10.4,5.7 10.6,5.7 L11.4,5.8 C11.5,5.8 11.7,5.6 11.6,5.4 Z" transform="translate(193 115)"/>
        <path fill="#25B869" fill-rule="nonzero" d="M83,151 C77.7,143.7 73.7,140 71,140 C67,140 61,147 59,147 C57,147 54,144 51,144 C49,144 44.7,146.3 38,151 L83,151 Z"/>
      </g>
      <path fill="#F2F5FA" fill-rule="nonzero" d="M1608,254.4 C1551,243.8 1451.5,234 1385.5,246.5 C1336.7832,255.726667 1255.98166,266.422058 1197.1,259 C1102,247 1078.5,235 970,235 C861.5,235 799,244 763.5,246.5 C754.3,247.1 744,248.2 733,249.4 C722,250.6 663.7,257.7 628.9,257.7 C547.3,257.7 465.5,258.7 392.5,250.4 C319.5,242.1 295,233 214,219 C160,209.666667 88.6666667,210.666667 0,222 L0,282 L174,282 L1614,282 L1788,282 L1788,233.5 C1706,254.5 1646,261.466667 1608,254.4 Z"/>
    </g>
    <circle cx="1635.8" cy="238.4" r="7.7" fill="#FFF" fill-rule="nonzero"/>
    <circle cx="87.7" cy="208.2" r="10.2" fill="#FFF" fill-rule="nonzero"/>
  </g>
</svg>
