<svg width="541" height="270" viewBox="0 0 541 270" fill="none" xmlns="http://www.w3.org/2000/svg"><g clip-path="url(#a)"><g clip-path="url(#b)"><path d="M446.6 113.5A126.2 126.2 0 0 0 488.2 22l-2.8-3.7C469.8.5 444 3.4 436.3 2.8c-15.5-1-40.3 32.2-65.5 45-10.3 5.3-31.8-16.5-69.2-5.7-38 11-53.8 52.3-91.2 49.8-34.7-2.3-47-25.7-85.5-28.1-13-.8-51.4-1.8-76.7 29-16.7 20.3-29.5 39-28 65.7 3 58.8 92.9 63.3 170 65.3C317 210 345.5 136.4 397 97.5c15-11.4 35 28.6 49.6 16Z" fill="#EEEFF7"/><path d="M175 119a52 52 0 0 0-5.4-9c-1.7-2.2-3.6-1.2-4 1.1-.3 1.3 2.7 9.3 5.6 12.7" fill="#D2D6FF"/><path d="M176 118.8a60 60 0 0 0-5.9-10c-1-1-2.5-1.6-3.9-.8a4.1 4.1 0 0 0-1.8 3.3c0 .8.1 1.6.4 2.4a34 34 0 0 0 1.2 3.2 28 28 0 0 0 4.3 7.7 1.2 1.2 0 0 0 1.7 0 1.2 1.2 0 0 0 0-1.7 24.9 24.9 0 0 1-3.3-5.7 27.4 27.4 0 0 1-2-5.7v-.2c0-.3 0 .4 0 0l.4-1 .1-.1.1-.1.2-.1c.3-.1-.1 0 .2 0 .4 0 .7.3 1 .6.4.5 0-.1 0 .1l.3.3a27.5 27.5 0 0 1 2.1 3.4 58.6 58.6 0 0 1 2.4 4.2v.2c.1.1.1.1 0 0l.1.1.2.5c.4 1.5 2.7.8 2.3-.6Z" fill="#729E9A"/><path d="M374.5 164.4c-16.7 7.7-39.3 30.5-35.5 49.3 3 15.3 26.2 27.1 95 24.4 56.7-2.2-12.6 4.1 31-19 10.6-5.7 8.9-16.6-.1-17.8-35-4.6-55.4-53-90.4-36.9Z" fill="#EEEFF7"/><path d="M55.7 238.1c-1.8 1-2.8 3.8-2.8 5.7 0 2.3-.2 7.9 2.3 8 36.5.4 82.3 4.1 94.5-1 14-6 28.6-10.4 42.5-21.6 2.3-1.8.5-9.2-2.3-9.3-18.3-1-57.1.1-59 0a28.6 28.6 0 0 0-11.2 1.8c-4.6 2.2-25.2 7.5-64 16.4Z" fill="#282B8F"/><path d="M179.6 74c-7.4 6.4-6.5 17.4-6.6 20.7 0 6.7 2.8 15.7 4.2 18.8-3.5 6.8-9.5 15.6-13 22.5 10.2-.5 11.6-.5 19.1-1.4 1.2 2 2 2.9 4.2 6 7.3 10.3 9.2 13.7 16 16 2.5.8 9.7-2 13-3.8 4.7-2.5 7 .2 10.2 4.6 3.5 5.1 7.8 11.4 10 15.1 1.8-3.7 6.6-14.6 11.2-19.2 9-9.3 10.9-11.1 16.3-12.7-12.5-10.6-24.3-30.9-24.3-30.9s10.3-14 0-22a87.5 87.5 0 0 0-37-16.9c-5.8-1-16-3-23.3 3.3Z" fill="#F5D9CC"/><path d="M368.1 183.9s4.2 5.5 2.8 10.5c-.8 3.3-8 4.9-8 4.9s5.8 2.6 7.5 4.4c3.3 3.5 0 10.7 0 11 2.5-3 5.4-5 8.3-4.7 2.7.3 4.3 2.9 6.8 6.4-.1-3.3-.2-6.9 1.4-8.5 1.6-1.6 5.2-1.5 8.3-1-.5 0-4.9-4-4.9-7.7 0-4.1 2-5.4 5.2-9.1-4.9.3-5.7.9-8 0-2.6-1-3.2-9.2-3.4-10-1 3.4-4.3 8.3-6.6 8-2.7-.3-9.4-4.2-9.4-4.2Z" fill="#fff"/><path d="m212.5 214-12 10.4c-2.2-.4-7.9-4.2-15.3-4.5l-12.2-.5c-.9 0-.4-1-6.3 4.3-1.4 1.2-4.9 3.3-7 2-1.6-1-2.2-3.5-1.4-5.4 1-2.2 3.7-2.6 5.5-3.5 3-1.5 5.9-6 6-18.3a43 43 0 0 1-11.3 10.5c-2.7 1.8-11.4 7.5-14.7 4.7-2-1.7-2.4-3-.1-5.6 2-2.2 6.7-4 8.7-5 4.7-2.5 9.1-5.7 15.4-15-6.1 0-11.3 0-14.3-1.2-3.3-1.2-11.3-4-11.3-8 0-1.6 1.3-3.3 2.8-4 1.8-.7 3.7.3 4.4.6 8.6 4 9.6 3.1 24 6.7 2.3.6 5.4 1.3 6.5 2.4a373 373 0 0 0 32.6 29.5Z" fill="#F5D9CC"/><path d="M170.5 193.4c-1.6.1-5 1.3-7.7 6.8-4 8-5 11.3-6.1 12.6-2.2 2.6-.8 4.6-.4 6 .4 1.8 3 .9 6 .6 6-.6 8.9-5 10.4-7.8 1.5-2.7 5.1-9.4 2.3-14.6-.8-1.5-2.6-3.8-4.5-3.6Z" fill="#F5D9CC"/><path d="m32.5 165.9 60.3-8.8c5-.4 9.7 1.9 11.5 5.5l9.7 20 18.4 37.3c3.2 7.2-5.3.7-11.1 2.4l-61.6 17.1c-6 1.7-4.4 8.8-6.8 4.4-5.1-9.4-18.3-34-22-43.2a143 143 0 0 1-8-23.9c-1.2-6.1 2.6-10.3 9.6-10.8Z" fill="#282B8F"/><path d="m38.1 172.5 54.2-10.2c4.4-.3 7.7 1.5 9.2 4.6l8.8 22.8 9.7 19c1.8 3.8 3.4 8.1-1.7 9.5l-56 14.7c-5.3 1.5-9-2.8-10.8-6.8-3.4-7.4-6.6-11.9-12.2-25.5-2.3-5.5-6.3-14-7.7-20.5-1-4.7.5-7.1 6.5-7.6Z" fill="#F38360"/><path d="M287.1 239.5c-1-9.8-3.2-19.6-2.3-29.5 2.3-22.5 7.5-46-2.3-66.5-1-2.1-2.3-4-3.9-5.6a38.6 38.6 0 0 0-27-1.5c-14.5 4.3-21.5 20.6-23.9 26.3-7.4 17.8.4 43.3-.9 49.2-1.6 7.5-.6 18.8.5 33.3-.9-12.1-7.9-33.6-9-36.1 0-.2-13.5 8.9-18.1 15v21.5a53.6 53.6 0 0 0-3.3 13.2s-2.4 12.6 11.2 12.6l77.2-.8c2.4-10.2 2.6-20.6 1.8-31Z" fill="#F5CF6D"/><path d="M387.5 262.8c-7.5-27.9-51.7-61.7-59.7-75.3-11.9-20.4-24.2-39.5-45.1-48a179 179 0 0 0-4-1.6c1.5 1.6 2.8 3.5 3.8 5.6 9.8 20.6 4.6 44 2.3 66.5-1 9.9 1.4 19.7 2.3 29.5.8 10.5.6 20.9-1.8 31l49.5-.5c19.2-1.9 56.1 5.6 52.7-7.2Z" fill="#F2C05F"/><path d="M140.8 203.4s-8.5-16-7.5-22.4c1.4-9.4 14-17 25.2-22-1.9.8-23.8-2-26.6-9.4-4.1-11-2.2-17.7 11.2-35.2-15 6-26.6 10.5-38.8 8-8.9-2-21.2-29.2-21.5-29.6-.5 15.9-6.2 34.4-16.4 37-11.8 3.2-33.2-.9-33.2-.9s21.5 15.5 21.5 33.3c0 11.1-14.8 20.8-21 25.3l1.4 4.2c7.3-1.2 21 1.5 27.6 5.2 10.7 6 11.8 23.1 13 32.3 2.9-.4 8-1.8 8-1.8 5-7.6 15-21.4 23.4-24.4 13.1-4.7 33.7.4 33.7.4Z" fill="#F5CF6E"/><path d="M449.8 144.9c16-40.8 12.7-61 7.5-86.3l.1-1.7a137.2 137.2 0 0 0-23 20.7c-16.7 18-16.5 31.5-19.3 61.6-2.8 30.2-5 35-8 55-3.1 20.2-12.2 34.8-24 55.6l-6.6 11.5c-3.6 6.2 2.7 10.1 9.8 10.1l41.5-.3c-1.8-43 5.6-84.1 22-126.2Z" fill="#7BB5AD"/><path d="M484.2 163c8.9-19 22.5-47.4 19.9-74.4-1.9-19.7 1-36.7-16.6-39.8-10.4-1.9-20.4 1.6-30 8.1-.2.6-.2 1.2-.2 1.7 5.2 27.2 4.2 61-9.3 87.2-20.2 40.4-22 82.3-20.2 125.3l24.8-.2c6.1-.4 10.7-3.4 11.3-5.6 5.6-22.5 5.7-37.5 6.8-54.2 1.2-17.7 4.7-29.3 13.5-48.2Z" fill="#A3D3D1"/><path d="M405.2 253.4c-2.7-17.8-20.8-29.6-38.4-33-17.6-3.6-36-1.3-53.8-3.4-8.3-1-16.8-2.9-25-.9s-15.7 9.8-14 18c1.1 5.6 6.2 9.7 11.6 11.3a47.6 47.6 0 0 0 17 .9l62.8-4.4c4.2-.3 9.1-.2 11.6 3.1 3.9 5.2-3.2 15.7-1 21.7 1.7 4.7 9.4 3.7 14.2 2.6 5-1.2 8.9-4.5 15-15.9Z" fill="#7BB5AD"/><path d="M348 86.7h-.9c.3 0 .5.1.8 0Z" fill="#8D8FB8"/><path d="M515.8 84.4c-4.2-16-11.2-36-18.3-48.3-11.7-20.3-30.5-37-54.7-36-16.1.6-26.2 11.8-38.2 27.6-13.4 17.5-20.7 27.6-24.4 37.5-1.3 3.5-14 15.5-17.8 10.8-4.7-6-17.2-7.8-18.2-7.5-1.9.4-1.6 4.7-1.4 5.6.4 2.3.9 8.8 2.3 10.8.8 1.1 1.5 1.6 2 1.8-1.9-.2-6.9-.7-9.5-1.8-4-1.7-5.1-3.3-5.6-1.9-.5 1.6-.2 4 1 7.5.5 1.6 1.6 4 3.2 5.6 2.8 2.8 3 2.2 4.7 3.3-1 2.3-1.3 3.3-1.4 4.7-.2 2.2 0 4.4.5 6.5.3 2 .9 3.4 1.4 5.2.4 1.8-2 8 0 9.8.7.7 5.4 2.5 7 3.3 1.3.6 2.6 1 4 1.4 11.9 1.4 15.7-3.2 23.6-4.7-.9 4.4-1.4 8.8-1.8 13.2.5 3 2 8 3.2 8.9 3.2 2.3 11.8-.6 18.2-1.4 7-1 11.8 2.2 13.6-.5 1.6-2.4.9-7-1.4-9.4-2.8-2.8-14.5-1.6-17.3 1.4 1.7-1.7 5-14.4 6.5-17.8 1.9-4.2 7-15.4 9.4-18.7 2.5.2 15-2.4 16.3-5.6 2.3-5.3 3-2.6 6.6-9.4 1.5-3 3.2-5.7 5.1-8.5 1 1 2 1.6 3.3 2 4 .9 7.4-2.4 10.3-4.3 5-3.3 10-3.5 19.1-3.8 3 0 13.9 0 20.6.5.7 0 2.5.2 3.8-1 1.2-1 3.2-5 3.2-6 5.4 15.9 9 31.5 10.3 41.7 1.6 11.7 2.7 20.1 1.4 31.4-1.5 14.2-8.9 20-11.2 24.8-1.6 3.4-5 7-3.3 10.4 1.4 2.8 5.8 3 9 2.3 4-1 8.5-7.6 11.1-11.7 8.4-13.1 9-30 9-30 0-12.6.8-26.8-5.2-49.7Z" fill="#282B8F"/><path d="M352.4 130.3c1.8.6 2.5 1.3.2 4.3-2 2.5-4.7 6.2-16 15-6.6 5.2-9.3 6.7-14 7.7-2.4.5-6.5-5.9-12.6-1.2-2.6 2 .8 7.1 3.3 9.9 2.1 2.2 3.5 3.5 10.3 2.8 11-1.2 14.1-2.7 22.4-7.5 5.4-3 20.4-17.6 28.1-24.4l.1 1.9c.4-4.4 1-8.8 1.8-13.2-7.9 1.5-9.4 5.2-23.6 4.7Z" fill="#8D8FB8"/><path d="M220.3 72.2c.9-5.1 6.5-6 10.7-6.5a13 13 0 0 1-.4-13 32 32 0 0 0-16.9-1.6 46.6 46.6 0 0 0-23.4 10.3c-6 5-17 12-15.4 20.7 1 5.6 8 9.3 11.2 11.2 14 8.3 24.3 5 29.5 3.3.5-.6 2-9.8 8.4-11.7a16.2 16.2 0 0 1-3.7-12.7Z" fill="#F38360"/><path d="M246.4 106.4c.5-2.3 2.9-17.7 2-24.3-.6-3.3-2.9-22-16-28.6l-1.8-.8a13 13 0 0 0 .4 13c-4.2.4-9.8 1.4-10.7 6.5-.8 4.6.9 9 3.8 12.7 9.3-2.8 13 6.8 14.4 12.2 1.9 7.5-1.9 9.4-1.9 9.4L247 121s-1.9-7.9-.5-14.6Z" fill="#E96246"/><path d="M252 85.8c1.2-.7 5.3-11.2 15.5-7.6 8.4 3 10 13.6 13.5 18.4a85 85 0 0 0 22 19.2c7.1 5 17.9 11.3 35 14.5 6.6 1.2 3.5 7.4.5 10-14.2 12.5-27-2.4-27-2.4s-10.4 15-26.5 1.8c-12-9.9-7.4-17.7-18-43.2-3.7-8.9-10.4-6.2-15-10.7Z" fill="#F38360"/><path d="M247.9 77.8c1.3-.3 2.8-.3 4.2 0 2.3.5 2.8 1.6 3.7 2.4l-1.4 8.4c-.8-.7-1.6.8-3.6.3-1.9-.5-1.7-.4-2.5-2.2.2-2.5-.6-6.4-.4-8.9Z" fill="#F5CF6D"/><path d="M120 134s-9.3 8.6-18.8 7.2c-8.4-1.2-11.4-15.4-11.1-11.9a40 40 0 0 1-7.1 16c-5.5 7-20.6-.8-21.3-.8 6.6 3.5 12.2 14.1 12.7 19.5.5 5-5 9-13.8 15.1 7-2.6 16.6-1 20.3 3.3 2.8 3.1 4.7 19.2 3.3 23.9.2-.9 8.7-14.8 16.8-17.8 3.8-1.5 14-1 22 2.8-4.7-6.6-8.2-12.9-6-18.8 1.8-5.1 12-9.5 13.3-10.2-6.6-.6-12.9-5.3-14.8-10.9-1.6-4.7 4.5-17.5 4.5-17.5Z" fill="#EEEFF7"/><path d="M196.2 116.7c7.3-3.5 14.8-6.3 22.3-9a1.2 1.2 0 0 0 .9-1.5 1.2 1.2 0 0 0-1.5-.9c-7.7 2.8-15.4 5.8-22.9 9.3a1.2 1.2 0 0 0-.4 1.6 1.2 1.2 0 0 0 1.6.5Z" fill="#729E9A"/><path d="M179.2 112.6c.8 3.2 2.4 6.2 4 9.2 1.3 2.6 2.8 5.3 4.9 7.6 2 2.2 4.6 5.6 8.3 4.2 1.3-.5 1.9-1.9 1.9-4.7 0-5.7-2.5-9.3-5.4-14.3-1.2-2-2.4-4.1-4.3-5.6-1.8-1.4-3.7-2.8-6-2.6-4.9.5-3.4 6.2-3.4 6.2Z" fill="#D2D6FF"/><path d="M178 113a45 45 0 0 0 4 9.2 41 41 0 0 0 5.2 8c1.6 1.8 3.3 3.8 5.6 4.6 2.2.8 5 .2 6-2 .6-1.3.8-2.7.7-4 0-1.6-.2-3-.6-4.6-.7-2.7-2-5.2-3.4-7.6-1.5-2.7-3-5.5-5.1-7.6-2-2-5-4-8-3.7-2.3.2-4 1.7-4.5 4-.2 1.2-.2 2.4.1 3.7.4 1.4 2.7.8 2.3-.7v-.2c0-.1-.1-.7 0-.2l-.1-1.6v-.3c0-.3 0 .2 0 0v-.4l.2-.4c0-.1.2-.4 0-.1l.2-.3a2 2 0 0 1 1.2-1c2.2-.7 4.4.8 6.1 2.2 2.1 1.7 3.4 4.1 4.7 6.4 2.5 4.3 5.2 9 4.4 14.2a8.1 8.1 0 0 1-.2.9s-.1.4 0 .2l-.3.4c-.1.2.2-.2 0 0l-.3.3-.2.1h-.3l-.3.2H194c-2-.4-3.4-2.2-4.6-3.6-2-2.3-3.7-4.9-5-7.6-1.6-3-3.2-6-4-9.2-.5-1.5-2.8-.8-2.4.7Z" fill="#729E9A"/><path d="M191.5 145.9c3.8 0 7.5-1.3 10.3-4 1.2-1-.5-2.7-1.7-1.6a12.3 12.3 0 0 1-8.6 3.2c-1.6 0-1.6 2.3 0 2.4Z" fill="#182B82"/><path d="M176.3 105.7a8.5 8.5 0 0 1 9.4-4.2c1.5.3 2-2 .6-2.3a10.8 10.8 0 0 0-12 5.3c-.8 1.3 1.3 2.5 2 1.2Z" fill="#282B8F"/><path d="m174.2 115.7.1-.4.1-.3c0-.2-.1.3 0 .1v-.2l.4-.7.2-.3c.2-.2-.2.2 0 0l.2-.2.3-.2c.2-.2-.3.1 0 0l.1-.1.2-.1c.1-.1-.3 0 0 0h.1c.3-.1-.2 0 0 0H176.2h-.2.5c-.2 0-.2 0 0 0l.3.2.2.2c.2.1-.1-.1 0 0l.2.1a7.5 7.5 0 0 1 1 1c.2.3-.1 0 0 .1l.2.3 1.6 2.6a1.2 1.2 0 0 0 2 .1 1.2 1.2 0 0 0 .2-.9l-.2-.4c-.7-1.6-1.7-3-3-4.3a4.7 4.7 0 0 0-2.9-1.4c-1.6-.1-2.9 1.2-3.6 2.6l-.6 1.5a1.2 1.2 0 0 0 .1 1 1.2 1.2 0 0 0 .7.5 1.2 1.2 0 0 0 1.5-.8Z" fill="#729E9A"/><path d="M171.8 129.8c1.6 0 1.6-2.4 0-2.4-1.5 0-1.5 2.4 0 2.4ZM175.7 123.5c1.5 0 1.5-2.4 0-2.4-1.6 0-1.6 2.4 0 2.4ZM177.2 128.7c1.5 0 1.5-2.4 0-2.4s-1.5 2.4 0 2.4ZM205.2 119.2c1.6 0 1.6-2.4 0-2.4-1.5 0-1.5 2.4 0 2.4ZM205.5 127.5c1.5 0 1.5-2.4 0-2.4s-1.5 2.4 0 2.4ZM209.2 123.4c1.5 0 1.5-2.4 0-2.4s-1.5 2.4 0 2.4ZM214 119.2c1.6 0 1.6-2.4 0-2.4-1.5 0-1.5 2.4 0 2.4ZM213.8 125.1c1.6 0 1.6-2.4 0-2.4-1.5 0-1.5 2.4 0 2.4Z" fill="#F2B79D"/><path d="M184.2 117.8c-.1-.4 0 .4-.1.3h1.5c.8.2 1.5.6 2.2 1 1.7 1 3.3 2.3 5.3 2.6a1.2 1.2 0 0 0 1.2-1.2 1.2 1.2 0 0 0-1.2-1.2c-1-.1-2-.8-2.8-1.4a22 22 0 0 0-2.8-1.6c-1-.5-2.1-.8-3.3-.7-.7 0-1.3.3-1.8.8a2 2 0 0 0-.5 2 1.2 1.2 0 0 0 1.5.9 1.2 1.2 0 0 0 .8-1.5Z" fill="#182B82"/><path d="M184.1 119.2h.3s-.1 0 0 0h1l.7.5h.2v.1l.1.1c.7.6 1.3 1.1 1.8 1.8l.5.5.2.2c.1.1 0 0 0 0l.1.2a10.6 10.6 0 0 1 1 1.6c.1.2 0 0 0 0l.2.4V125.4s0-.1 0 0l-.1.1c.1-.2 0 0 0 0-.1.2.1 0-.1 0l-.3.2h-.1l-.5.2a1.2 1.2 0 0 0-.8 1.5 1.2 1.2 0 0 0 1.5.8c1.1-.2 2.2-.9 2.7-2 .3-1 0-2.2-.4-3.1a14 14 0 0 0-4-4.9c-1.5-1.2-3.2-2-5.1-1.1a1.2 1.2 0 0 0-.4 1.6 1.2 1.2 0 0 0 1.6.5Z" fill="#182B82"/><path d="M211 98.7c-1.7 7.7 1.4 14 2.4 15.7 1.2 2 2.4 4.2 5 5.9 5 3.2 13.2 3.6 18 0 3.5-2.7 4.7-6.5 5.4-8.9 1.7-5.6 1.8-19.3-6.5-25a16.4 16.4 0 0 0-16.9 0c-5.5 3.2-6.8 9.3-7.5 12.3Z" fill="#F2C05F"/><path d="M217.5 84.9a49 49 0 0 0-7-11.6 31.9 31.9 0 0 0-20.2-11.9c.6-1 .2-2.1 2.4-3.7 2.5-1.8 4.4-2.2 5.6-2.4 3.1.9 10.7 2 15.9 6.5 6.4 5.4 13 21.7 13 21.7s-3.7-2.4-9.7 1.4Z" fill="#F5CF6E"/><path d="M333.9 241c-1.2 4.1 2.6 6.2 5.6 17.8.4 1.4-1 8.2-1 9.4.4 2.9 4.3 1.2 7.2 1.4h5.2c4.9-.4 5.8-4.2 5.9-6.4.3-7-1.4-23.2-8.4-27-6.8-3.6-13.4.8-14.5 4.7Z" fill="#7BB5AD"/><path d="M174.2 193.1c-4.6 1-5.8 6.3-7 10.1a53.5 53.5 0 0 1-4.5 11.1c-1.1 2-2.5 3.7-4.2 5.2-1.1 1 .6 2.7 1.7 1.7 3-2.7 5-6.1 6.6-9.7 1.6-3.8 2.6-7.8 4-11.6.7-2 1.9-4 4-4.4a1.2 1.2 0 0 0 .9-1.5 1.2 1.2 0 0 0-1.5-.9ZM168.4 188.7c-6 3.1-6.7 10.5-10 15.7-.8 1.3 1.3 2.5 2.1 1.2 1.7-2.7 2.6-5.8 4-8.7 1-2.4 2.6-4.9 5-6.2 1.4-.7.2-2.8-1.1-2ZM144 176.5a7.2 7.2 0 0 0 4 3.7c1.1.4 2.3.4 3.4.1a3.7 3.7 0 0 0 2.2-2.2 1.2 1.2 0 0 0-.8-1.4 1.2 1.2 0 0 0-1.5.8c.1-.2 0 0 0 0 0 .1-.1.2 0 .1l-.2.2-.2.1s-.3.1 0 0l-.6.2H149.5l-.6-.2h-.3s-.2-.2 0 0l-.9-.5-.2-.2a5.5 5.5 0 0 1-1-1c.2.2 0 0 0 0l-.5-1a1.2 1.2 0 0 0-1.6-.4 1.2 1.2 0 0 0-.5 1.7Z" fill="#182B82"/><path d="M158.1 221.7a4.4 4.4 0 0 0 7.7.1c.6-1 .8-2 .6-3.1a4.9 4.9 0 0 0-1.7-3 1.2 1.2 0 0 0-1.7 0 1.2 1.2 0 0 0 0 1.7l.6.5c-.2-.2 0 .1 0 .2l.2.2s.2.4 0 .2l.2.3v.4c.1.2 0-.2 0 0V219.8s0 .1 0 0l-.1.5c0-.1 0-.1 0 0v.2l-.3.3v.1l-.3.2c0 .1-.3.3 0 .1l-.3.2-.3.2c.1 0 .1 0 0 0h-.4c-.2.1-.1.1 0 0 0 .1 0 .1-.2 0h-.5c.2 0 .2.1.1 0h-.3s-.4-.1 0 0l-.7-.3h.1-.1l-.3-.3c0-.1 0-.1 0 0v-.1l-.2-.3a1.2 1.2 0 0 0-1.6-.5 1.2 1.2 0 0 0-.5 1.7ZM142.7 210.7a6 6 0 0 0 8.8-5.2 1.2 1.2 0 0 0-1.2-1.2 1.2 1.2 0 0 0-1.2 1.2v.2c0 .1 0-.2 0 0v.6a3.7 3.7 0 0 1-.7 1.2c-.2.3.2-.2 0 0l-.2.2a4 4 0 0 1-.4.4s-.3.2 0 0l-.3.2a4 4 0 0 1-.5.3l-.3.1-.5.2H145c.2 0 0 0 0 0l-.6-.2h-.3l-.1-.1a1.2 1.2 0 0 0-1.7.4 1.2 1.2 0 0 0 .5 1.7ZM172.2 222.3c1.6-2.5 3.1-5.1 4.4-7.8a24 24 0 0 0 2.8-8.7l-2.4.3A27.2 27.2 0 0 0 186 221c1.2 1 2.6 1.6 4.1 2 1.5.4 2.1-2 .7-2.3a13 13 0 0 1-7.2-5.8c-2-2.9-3.3-6-4.2-9.3-.3-1.4-2.2-1-2.3.3v.4c0 .1 0 .1 0 0v.2l-.3 1-.6 2c-.5 1.4-1 2.8-1.7 4.2a59 59 0 0 1-4.4 8 1.2 1.2 0 0 0 .2.8 1.2 1.2 0 0 0 .8.5 1.2 1.2 0 0 0 1.2-.6Z" fill="#182B82"/><path d="M232.1 131.6c-.9 8-3 10.2-6 13.7" stroke="#182B82" stroke-width="2.4" stroke-miterlimit="10" stroke-linecap="round"/><path d="M438.3 65.4c-2.3 1.4-4.7 3-5.7 5.6-1.2 2.8-.2 5.4 1.3 7.8.7 1.4 2.8.2 2-1.2-1-1.7-2-3.8-1-5.8.8-2 2.8-3.3 4.6-4.4 1.3-.7.1-2.8-1.2-2Z" fill="#B6DBEE"/><path d="M466 63c2.6-.5 5.2-.7 7.9-.7a1.2 1.2 0 1 0 0-2.4 41 41 0 0 0-9 1 1.2 1.2 0 0 0-.2 1.8 1.2 1.2 0 0 0 1.3.3Z" fill="#F5CF6E"/><path d="M430 64.6c8.6 5.2 18.7 2.9 27.8.4l8.2-2a1.2 1.2 0 0 0 .8-1.4 1.2 1.2 0 0 0-1.5-.9c-4.6 1-9.2 2.4-13.9 3.5-4.4 1-9 1.6-13.5.8-2.4-.4-4.6-1.2-6.7-2.4-1.3-.8-2.5 1.2-1.2 2Z" fill="#797BFF"/><path d="M423.7 37.1c-2.9 7.2-3.4 16.5 1.4 23 1.3 1.9 3 3.4 4.9 4.5 1.3.8 2.5-1.2 1.2-2-3-1.8-5.1-4.6-6.2-7.9-1.1-3.4-1.4-7-.8-10.5.4-2.2 1-4.4 1.8-6.5a1.2 1.2 0 0 0-.8-1.4 1.2 1.2 0 0 0-1.5.8Z" fill="#F38360"/><path d="M384.4 80.8a26.5 26.5 0 0 1 .2-4.3V76c0 .3 0 0 0 0l.1-.9a1.2 1.2 0 0 0-.8-1.4 1.2 1.2 0 0 0-1.5.8c-.3 2-.5 4.1-.4 6.2a1.2 1.2 0 1 0 2.4 0Z" fill="#ABC7C8"/><path d="M388.7 95.5c0-2.6-1.8-4.8-2.7-7.2-.9-2.4-1.4-5-1.6-7.5 0-1.5-2.4-1.5-2.4 0a27.6 27.6 0 0 0 3.1 11.3c.6 1.1 1.2 2.2 1.2 3.4 0 1.6 2.3 1.6 2.4 0Z" fill="#B6DBEE"/><path d="M380.4 115.2a473.4 473.4 0 0 0 6.7-14.8c.6-1.6 1.5-3.2 1.6-4.9a1.2 1.2 0 0 0-1.2-1.2 1.2 1.2 0 0 0-1.2 1.2c-.1 1.4-.9 2.8-1.4 4a252.6 252.6 0 0 1-6.6 14.4 1.2 1.2 0 0 0 .4 1.7 1.2 1.2 0 0 0 1.7-.5Z" fill="#FA9E99"/><path d="M341.5 99a22.8 22.8 0 0 1 5.4-8 1.2 1.2 0 0 0-2-1.4 24.8 24.8 0 0 0-5.5 8.3 1.2 1.2 0 0 0 .4 1.6 1.2 1.2 0 0 0 1.7-.4Z" fill="#8D8FB8"/><path d="m492.3 57.3 1.4 7a1.2 1.2 0 0 0 1.5.9 1.2 1.2 0 0 0 .8-1.5l-1.4-7a1.2 1.2 0 0 0-1.5-.9 1.2 1.2 0 0 0-.8 1.5ZM348.6 112.3a6.8 6.8 0 0 1 2.8-5.7c1.7-1.1 4.3-1.9 6.2-.8 1.3.7 2.5-1.4 1.2-2.1-2.7-1.5-6.2-.8-8.6.9a9.2 9.2 0 0 0-4 7.7c0 1.5 2.4 1.5 2.4 0Z" fill="#797BFF"/><path d="M346.2 111.3c-.1 1.4.3 2.7 1 4 .7 1.3 2.2 2.5 3.8 1.5 1-.8 1.6-2.1 2-3.3.5-1.2.5-2.4.1-3.6l-.7-2-.3-.6-.2-.3c0-.3.1.2 0 0a1.2 1.2 0 0 0-1.4-1 1.2 1.2 0 0 0-.9 1.6l.6 1.3.2.3v.2a11 11 0 0 1 .6 1.7V112l-.2.5a10.5 10.5 0 0 1-1.2 2.3c.1-.1-.2 0 .1 0h.1c-.1 0-.1 0 0 0-.2 0-.2-.1 0 0l-.3-.2a6.4 6.4 0 0 1-1-2.2v-1a1.2 1.2 0 0 0-1.1-1.3 1.2 1.2 0 0 0-1.2 1.2Z" fill="#797BFF"/><path d="M285 251.3c.4 3 .5 6 .4 9-.2 2.3-.6 4.5-1.3 6.6-.4 1.5 1.9 2.1 2.3.6a33 33 0 0 0 .6-17c-.2-.3-.5-.4-.8-.4a1.2 1.2 0 0 0-1.2 1.2Z" fill="#F38360"/><path d="M218 85.6c2.4-1.3 6.1-2 8.8-2.6l-8.8 2.6Z" fill="#729E9A"/><path d="M218.6 86.6c1.3-.6 2.7-1.1 4-1.5l4.5-1a1.2 1.2 0 0 0 .9-1.4 1.2 1.2 0 0 0-1.5-.9c-3 .7-6.3 1.2-9 2.8a1.2 1.2 0 0 0-.7 1.2 1.2 1.2 0 0 0 1.8.8Z" fill="#729E9A"/><path d="M222.3 122.1c3 1.6 6.5 2.1 9.9 1.4a13 13 0 0 0 8.3-6.5c1-1.7 1.6-3.6 2-5.6a1.2 1.2 0 0 0-.9-1.4 1.2 1.2 0 0 0-1.5.8c-.4 3-1.8 5.8-4 8a10.5 10.5 0 0 1-8.1 2.6c-1.6-.2-3-.6-4.5-1.3-1.3-.7-2.5 1.3-1.2 2ZM255 81.3l-1.2 6a1.2 1.2 0 0 0 2.3.6l1.1-6a1.2 1.2 0 0 0-.8-1.4 1.2 1.2 0 0 0-1.5.8Z" fill="#182B82"/><path d="M408 101.5c1.6-3 3-6 4.3-9 .2-.7-.3-1.4-.9-1.5a1.2 1.2 0 0 0-1.4.8l-4 8.5a1.2 1.2 0 0 0 1.3 1.7c.3 0 .5-.2.7-.5Z" fill="#F5CF6E"/><path d="M220.7 96c.8-2.2 3.2-3.4 5.4-4 1-.3 2-.4 3-.2.5 0 1 .2 1.5.4.4 0 .7.3 1 .5a1.2 1.2 0 0 0 1.3.4 1.2 1.2 0 0 0 .4-2c-1-1-2.4-1.4-3.6-1.6a9.9 9.9 0 0 0-4.3.2c-3 .8-6 2.6-7 5.7a1.2 1.2 0 0 0 .8 1.5 1.2 1.2 0 0 0 1.4-.8Z" fill="#F48460"/><path d="M335 246.5c6.2 0 12.3-1 18.5-1 1.6 0 1.6-2.5 0-2.5-6.2 0-12.3 1.1-18.5 1.1-1.5 0-1.5 2.4 0 2.4Z" fill="#182B82"/><path d="m501 72.2 2 5.4a1.2 1.2 0 0 0 1 1 1.2 1.2 0 0 0 1.3-1.1V77l-2-5.4a1.2 1.2 0 1 0-2.3.6Z" fill="#797BFF"/><path d="m503 64 .3.8c0 .1 0 .1 0 0l.1.2.2.3.5 1.4 1 3a1.2 1.2 0 0 0 1.5.8 1.2 1.2 0 0 0 .8-1.5l-2.4-6.3a1.2 1.2 0 0 0-1.2-.5l-.4.1a1.2 1.2 0 0 0-.4 1.7Z" fill="#565DB2"/><path d="m507.8 77 1.5 5.7a1.2 1.2 0 0 0 1.4.9 1.2 1.2 0 0 0 .9-1.5l-1.5-5.7a1.2 1.2 0 0 0-1.4-.8 1.2 1.2 0 0 0-.9 1.5Z" fill="#797BFF"/><path d="m510 133.7-.4 6a1.2 1.2 0 0 0 1.2 1.2 1.2 1.2 0 0 0 1.2-1.2l.4-6a1.2 1.2 0 0 0-1.2-1.2 1.2 1.2 0 0 0-1.2 1.2ZM515.7 123.7v8.3a1.2 1.2 0 1 0 2.4 0v-8.3a1.2 1.2 0 1 0-2.4 0Z" fill="#565DB2"/><path d="M515 138c-.2 1.9-.7 3.8-1 5.7 0 .3 0 .6.2 1 .1.2.4.4.7.5.6.1 1.4-.2 1.5-.9.2-1.9.7-3.8 1-5.7l-.1-.9c-.2-.3-.4-.5-.7-.6-.6 0-1.4.2-1.5.9Z" fill="#797BFF"/><path d="m398.5 42.7 2.8-4.7a1.2 1.2 0 0 0-.5-1.6 1.2 1.2 0 0 0-1.6.4l-2.8 4.7a1.2 1.2 0 0 0 .4 1.6 1.2 1.2 0 0 0 1.7-.4ZM406.9 32.9c1-1.2 2-2.2 3.2-3.2a1.2 1.2 0 0 0 .2-1.3 1.2 1.2 0 0 0-1-.7h-.4c-.2 0-.4.2-.5.3a21 21 0 0 0-3.2 3.2c-.2.2-.4.5-.4.8 0 .4.2.7.4.9a1.2 1.2 0 0 0 1.7 0ZM405.6 43l1.1-1.6.3-.4.1-.2c0 .1 0 0 0 0a31.8 31.8 0 0 1 3.6-3.7 1.2 1.2 0 0 0 0-1.7 1.2 1.2 0 0 0-1.7 0 24.4 24.4 0 0 0-5.6 7 1.2 1.2 0 0 0 .2.8 1.2 1.2 0 0 0 .8.5 1.2 1.2 0 0 0 1.2-.6ZM398.4 53.2a24 24 0 0 1 2.7-4.6 1.2 1.2 0 0 0 0-1 1.2 1.2 0 0 0-1.4-.7c-.3 0-.5.3-.7.5-1 1.4-2 3-2.7 4.5-.2.3-.2.7-.1 1a1.2 1.2 0 0 0 2.2.3Z" fill="#565DB2"/><path d="m372 91.5 1.3 1.4-.2-.3.7 1.2a1.2 1.2 0 0 0 2 .2l.2-.5c.1-.3 0-.6-.1-.9a9.4 9.4 0 0 0-2.2-2.8.9.9 0 0 0-.4-.2 1 1 0 0 0-.5-.1c-.3 0-.6.1-.8.3a1.2 1.2 0 0 0 0 1.7ZM376 100.8v3.4a1.2 1.2 0 0 0 1.2 1.2 1.2 1.2 0 0 0 1.2-1.2v-3.4a1.2 1.2 0 0 0-2-.8c-.2.2-.4.5-.4.8ZM432.8 55.4a8.8 8.8 0 0 0 6.2 4.3l1-.1.5-.7c.1-.6-.2-1.4-.9-1.5-.5 0-1-.2-1.5-.4h-.1c.2 0 0 0-.1-.1l-.4-.2a7.7 7.7 0 0 1-1-.6s.2 0 0 0l-.2-.2a9 9 0 0 1-.5-.5l-.3-.3-.1-.2c-.2-.2 0 .2 0 0l-.5-.7a1.2 1.2 0 0 0-2 1.2Z" fill="#B6DBEE"/><path d="M137.1 40.6s-6.5 6.7-9.8 7.2c-4.8.8-10.5-4.2-14.8-8.9.8.8 2.9 12-.3 14.6-4.7 3.8-8.3 4-19 0 5.3 6.5 9.3 11.5 10 17.9.5 4.7-10.9 15-11 15.2 7.8-2.2 17.8-2.4 20.7 2.2a51 51 0 0 1 4.8 16.5s4.1-13 12.9-15.9c5.4-1.7 16 6 19.2 8.3 0 0-4.3-13.9-3.5-17.7 1.2-6.2 9.4-9.4 13.7-11.5l-2.2-3.6c-4.5-1.3-12.8-4-15.6-7.6-4.3-5.8-5-16.7-5-16.7Z" fill="#fff"/><path d="m88 240 5.5-1.7a1.2 1.2 0 0 0-.7-2.3l-5.5 1.6a1.2 1.2 0 0 0-.9 1.5 1.2 1.2 0 0 0 1.5.8ZM110 233l3.4-1.2c.3 0 .5-.3.7-.5a1.2 1.2 0 0 0-1.4-1.8l-3.3 1.1c-.3.1-.6.3-.8.6a1.2 1.2 0 0 0 1.4 1.7Z" fill="#80B5DC"/><path d="M115.2 240.9c1.7-.4 3.3-1 4.9-1.7a1.2 1.2 0 0 0 .4-1.7 1.2 1.2 0 0 0-1.6-.4l-.6.3h-.1l-.2.1a25.3 25.3 0 0 1-3.5 1.1 1.2 1.2 0 0 0-.8 1.5 1.2 1.2 0 0 0 1.5.8Z" fill="#F5CF6E"/><path d="m126.5 227.2 3.8-1.3a1.2 1.2 0 0 0 .7-.5 1.2 1.2 0 0 0 .2-1 1.2 1.2 0 0 0-1-.8h-.5l-3.8 1.3a1.2 1.2 0 0 0-.9 1.4 1.2 1.2 0 0 0 1.5.9Z" fill="#F38360"/><path d="m134.4 229.4.6-.3h-.3l2.2-.6a1.2 1.2 0 0 0 .8-1.5 1.2 1.2 0 0 0-1.5-.8c-1 .2-2 .6-3 1a1.2 1.2 0 0 0-.6 1.3 1.2 1.2 0 0 0 .8 1l1-.1Z" fill="#F5CF6E"/><path d="m121 233.6 3.7-1.2a1.2 1.2 0 0 0-.6-2.3l-3.7 1.2a1.2 1.2 0 0 0-.8 1.4c.1.3.3.6.6.8.3.1.6.2.9 0Z" fill="#80B5DC"/><path d="M103.2 240a43 43 0 0 1 4.6-1.5 1.2 1.2 0 0 0 .8-1.5 1.2 1.2 0 0 0-1.4-.9c-1.6.5-3.2 1-4.7 1.7-.3 0-.5.3-.7.5a1.3 1.3 0 0 0-.1 1c.2.5.9 1 1.5.8Z" fill="#565DB2"/><path d="M128.6 236.4a52.5 52.5 0 0 1 3.4-1.1 1.2 1.2 0 0 0-1-2l-3 .8c-.4.1-.6.3-.8.6a1.2 1.2 0 0 0-.1 1c0 .2.3.5.5.6a1.2 1.2 0 0 0 1 .2Z" fill="#F5CF6E"/><path d="M140.6 232.5a43 43 0 0 1 4.6-1.6 1.2 1.2 0 0 0-.6-2.4c-1.6.5-3.2 1-4.7 1.7-.3 0-.5.3-.7.5a1.2 1.2 0 0 0-.1 1c.2.5.8 1 1.5.8Z" fill="#565DB2"/><path d="m143.6 225.7 3.6-1.2a1.2 1.2 0 0 0 1-1 1.2 1.2 0 0 0-.7-1.2 1.2 1.2 0 0 0-1-.1l-3.6 1.2a1.2 1.2 0 0 0-.8 1.4 1.2 1.2 0 0 0 1.5.9Z" fill="#80B5DC"/><path d="m131.5 242 3-1c.3-.1.6-.3.7-.6a1.2 1.2 0 0 0-1.3-1.8 50 50 0 0 0-3.8 1.7 1.2 1.2 0 0 0-.1 1 1.2 1.2 0 0 0 1.5.7Z" fill="#797BFF"/><path d="M152.6 227.6a10 10 0 0 0 2.4-1.1l.5-.7a1.2 1.2 0 0 0-.1-1 1.2 1.2 0 0 0-1.6-.4 9 9 0 0 1-1.5.8l.3-.2-.6.3c-.3 0-.6.3-.7.5a1.2 1.2 0 0 0 1.3 1.8Z" fill="#565DB2"/></g></g><defs><clipPath id="a"><path fill="#fff" d="M0 0h541v270H0z"/></clipPath><clipPath id="b"><path fill="#fff" transform="translate(20)" d="M0 0h500.9v271.4H0z"/></clipPath></defs></svg>