<svg width="828" height="235" viewBox="0 0 828 235" fill="none" xmlns="http://www.w3.org/2000/svg"><g clip-path="url(#a)"><g clip-path="url(#b)"><path d="M407.1 220.7c-1.7-.4-2.7-12.8-10.2-30-8.1-18.5 15.4-39.9 16.1-41-6.6 3.4-19.2 16.3-35.7 10.6-19.4-6.7-32-25-35.1-30 .8 19-7.5 33.1-17.7 41.4-15.4 12.6-43 11.2-46.4 10.1 16.4 13.4 34.9 22.4 34 39.9-.3 2.6-.7 5.2-1.4 7.8H414c6-10.2-24.6-7.2-6.9-8.8Z" fill="#EEEFF7"/><path d="M288.4 3.4c.4 2.6 5.8 20.2 19.6 26 9.1 4 21.5 4.6 34-2.5-2.3 3.8-8.6 19-6.6 30.5 2 10.8 15 18.4 23.3 21.1-1 0-16.1 7-25.7 19-9 11-4 28.5-3.6 29.8a37.3 37.3 0 0 0-33.2-17.6c-10 .9-13 7.8-21.6 17.6 2-13.7 2.6-21.2-3.9-29.4-7.6-9.4-17-8.4-32.7-9 1-.4 14.7-5 18.3-18.3 3.1-11.4-4.5-22.2-13.7-30.7a44 44 0 0 0 27.5-1.3c12-5.4 15-19.6 18.3-35.2Z" fill="#E1E1FA"/><path d="M278.5 136.4c1 .4 8 1.7 12.5-2a14.5 14.5 0 0 0 5.1-12c1 1.4 4.6 6.7 10.3 8.7 4.8 1.6 8.5-2.1 10.4-3.1-.2.3-1.4 6.4 1 11.8 2.1 5 8.7 6.1 9.2 6.3-6 .5-9 2.8-10.6 6.6-1.5 3.6.3 5.9 2.2 10.5-4.4-3-6.9-4.6-10.8-3.8-4.6.8-6 4.2-9 9.5.1-.4 1-5.9-3-9.5-3.3-3.1-8.4-2.4-13-.8.8-.6 4.3-5 4.5-9.6.3-5-4-8.6-8.8-12.6ZM235.7 66.9c-1.7-.5-13.5-2.5-21 3.8-5 4.2-9 11.2-8.4 20.5-1.6-2.4-9.1-10.6-18.7-13.7-8.2-2.7-15 5.3-18.2 7 .4-.5 2.3-10-1.8-19.1-3.9-8.5-15.6-10.7-16.5-10.8a24.3 24.3 0 0 0 20-14.2c2.4-6.1-.7-10-4-17.8 7.5 5.2 11.7 7.8 18.4 6.3 7.7-1.6 10-7.4 14.9-16.3-.1.7 1 9.7 5.3 16 4.3 6.3 14.4 3.8 22 1-1.2 1-7 8.5-7.3 16.3-.3 8.6 7 14.5 15.3 21Z" fill="#EEEFF7"/><path d="M81.4 73.6c.6.4 7.4 9.2 18.8 3.4 6.5-3.3 11.9-14.9 12.2-16-.2.4-1.8 10.7 5.2 18.7 6.5 7.4 16.5 6.3 17.3 6.2-9.5 1.2-17 7.8-18.3 15.5a17 17 0 0 0 4.2 13.7 16.5 16.5 0 0 0-15.8-6.9c-8.2 1.3-15 9.5-14.7 19-2.9-7.1-3.3-9-9-11.3-5.4-2.1-7-.6-14.5.4 5.6-4.8 11.2-8 11.3-14.6.1-6-6.2-10.2-10.1-13.1 5.3 4.5 12.4 1.6 14.9-1.1 2.6-3 2.1-8.4-1.5-13.9Z" fill="#F5CF6E"/><path d="M129.8 151.4c.3.6 2.3 11.2 14.6 11.2 7 0 16.7-7.6 17.4-8.4a23 23 0 0 0-3.7 18.4c2.3 9.2 11.4 12.6 12.1 12.8-8.7-3-18-.7-22.6 5.3a16.4 16.4 0 0 0-2.4 13.6c-1-6-5-11-10.5-12.8-7.6-2.5-17 1.5-21 9.8.7-7.4 1.2-9.2-2.7-13.7-3.7-4.1-5.6-3.4-12.6-6 7-1.6 13.2-2 16.1-7.5 2.8-5.1-.8-11.5-2.9-15.7 2.7 6.2 10 6.8 13.3 5.6 3.6-1.4 5.6-6.3 4.9-12.6Z" fill="#EEEFF7"/><path d="m547.6 99.3 73.9.1L618 201l-73.2-.1 2.8-101.5Z" fill="#fff"/><path d="M597 160.7c-.3.6-3 2.7-6.2 9.1-5.5 10.6-7.3 30.2-12.3 46.8-1.4 4.5-6.3 13.3-6.8 15.6-.3 1.3 1.2 2 2.6 2h8.2l18-74-3.6.5Z" fill="#8CC4C0"/><path d="M596.9 160.7c.2-.4 0 0 0 0Z" fill="#7478A5"/><path d="m600.4 160.3-18 74h10l11.6-74.4-3.6.4Z" fill="#61B5AC"/><path d="m604 159.9-11.7 74.4h9.4l5.4-74.8-3 .4Z" fill="#8CC4C0"/><path d="m607 159.5-5.3 74.8h8.3l1-75.2-4 .4Z" fill="#61B5AC"/><path d="m611 159-1 75.3h10l-6.3-75.5-2.8.3ZM617.5 158.3l13.7 76h10.3l-20.8-76.4-3.2.4Z" fill="#8CC4C0"/><path d="m620.7 158 20.8 76.3h14.4l-32.1-76.7-3.1.3Z" fill="#61B5AC"/><path d="m623.8 157.6 32 76.7H676l-50.3-77-1.8.3ZM713 233.6c-6.7-6.5-20.6-24.8-39.7-37.5-8.2-5.4-15.3-13.5-19.8-17.7-12.2-11.6-17.6-16.8-23.5-19.5l63 75.4H709c1.4 0 4.8.3 3.8-.7Z" fill="#8CC4C0"/><path d="M626.2 157.3h-.6l50.3 77h17L630 158.9a57 57 0 0 0-3.8-1.6ZM613.7 158.8l6.3 75.5h11.2l-13.7-76-3.8.5Z" fill="#61B5AC"/><path d="m681.5 54.8-3.9 179.5 138 .5 1-180.1-135 .1Z" fill="#F5CF6E"/><path d="M682.4 57.1c5 5.5 9.7 11.4 14.5 17.1l16.3 20.2c3.1 3.9 6.5 7.8 9.4 11.7 4.7 6 9 12.2 13.4 18.4 4.6 6.5 9.2 13 13.6 19.8l1 1.6v-1c-1.6 2.6-3.6 5-5.5 7.4l-2.4 3.3-.1.2-.3.3-.7.9-1.7 2.2a1904.7 1904.7 0 0 1-27.6 34.3 2051.6 2051.6 0 0 1-32.3 38.3l-1.6 1.6c-.9 1 .6 2.5 1.5 1.5a1456.5 1456.5 0 0 0 48.3-57.8l12.2-15.3 9.4-12.2a37.7 37.7 0 0 0 2.7-4.2l-.1-.5c-4-6.4-8.4-12.6-12.7-18.7-4.7-6.6-9.3-13.2-14.2-19.6-2.9-4-6-7.7-9-11.5l-16-19.7c-5-6.2-10-12.3-15.3-18.2l-1.3-1.6c-1-1-2.4.5-1.5 1.5Z" fill="#EFA139"/><path d="M548 101.2c1.9 1.7 3.5 3.5 5 5.6 2.6 3.1 5 6.4 7.5 9.7 6 7.8 11.7 15.7 17.6 23.5 2.6 3.4 5.3 6.9 8.1 10.2l-.1-1.3c-1.5 2.4-3.3 4.6-5 6.8a892.5 892.5 0 0 1-35 42.8l-.5.4c-.1.1.1-.1 0 0h-.1a1 1 0 1 0 1 1.8c.7-.5 1.4-1 2-1.7l3.2-3.6a1062.4 1062.4 0 0 0 30.1-37.2c2-2.7 4.3-5.4 6-8.2a1 1 0 0 0 0-1.2c-5.6-6.6-10.7-13.5-15.8-20.4-5.5-7.4-11-14.8-16.7-22-1.8-2.3-3.6-4.8-5.8-6.7-1-.8-2.5.6-1.5 1.5Z" fill="#DCE0F4"/><path d="M624 79.9c0-1.1 1.2-2 2.2-2 6.9 0 10.7 4.7 13.7 4.7 4.2 0 4.8 0 11-1.3a115 115 0 0 1-3.5 10.2c1.1 1.1 5.5 9.5 2 15-1 1.3-3.4 2.7-8.1 4-7 2-9-.1-10.3-.6-.7-1.7-2-2-4-3.7a9 9 0 0 1-5.3-.8c-2.4-1.2-4.5-4-3.9-7.2a6.8 6.8 0 0 1 6.6-5.5L624 80Z" fill="#B06956"/><path d="M525.7 57.4c1.6 2.2 2.7 7.7 2.7 7.7s7.2 7.2 8.3 10.5c-2 .6-5.5 1.1-7.5 1.7.1 1 0 5.2-.5 6.6-2 5.3-8.8 3.7-9.4 3.8l-7.2-.5-2.2-4.4c-.5-1.1-1.1-1.5-2.7-3.3-2.3-2.6-3.1-6 0-7.8a6 6 0 0 1 3.9-.5c4.3-9.6 12.5-16.5 14.6-13.8ZM548.7 129.4l10.3-.8s2.3-5.6 7.9-6c6-.5 7.7 3.2 8.1 8.1.4 4.2-1.3 8.2-6.8 9.6-5 1.3-8.2-2.7-8.2-2.7l-9 1.3" fill="#F2B79D"/><path d="M533.4 134.8c1.3-18 1.6-21.4-3.3-30-11.7-20.4-30.8-11.5-30.8-11.5s-6.2 6.8-24.6 42.9a490 490 0 0 0-19.8 47.3h77.2c.1-18.5.5-37.2 1.3-48.7Z" fill="#F2C05F"/><path d="M532 183.5H455c-7.6 20.5-14.1 40-16.6 47.5a2.5 2.5 0 0 0 2.4 3.3H519c2.5 0 13 1.1 13-1.4 0-9.6-.2-29.3 0-49.4Z" fill="#F48460"/><path d="M625.6 92.6s4.5-.9 5.4-9.3c.7-6.1-4.8-5.4-4.8-5.4s-11.3.3-15.6 16.6c-2.8 10.6-8.6 23.2-11 30.4-3.7 11.2 2 12.9 2 12.9s6.7-20.3 11-22.5c4.2-2.2 10.7-5.2 10.7-5.2l9-.2-4-4.1s-8.9 2.7-9.8-5.6c-.7-6.4 7-7.6 7-7.6Z" fill="#F2C05F"/><path d="m680.7 109 38.6-1.5s1.6-7.5 10-6c9.8 1.7 10.1 19.5.7 20.4-6.8.7-9.6-2.7-9.6-2.7l-40.6 5 .9-15.2Z" fill="#B06956"/><path d="M596.9 160.7s2-17.7 8.9-35.2c7.4-19.1 25.4-15.5 32.7-16.3h43l-1.3 35.8-32.8 2.2-.7 13.5H597Z" fill="#F48460"/><path d="M524.6 54.7c-1.4-1.4-5-3.1-7.7-3.8C508.6 48.7 503 48 498 53c-6.8 6.8-1.7 18 0 21.4 1 2.2 3.3 6.6 3 10.1-.3 3-1 5.9-2 8.7 3.7-1 7.4-1.6 11.1-1.7a19 19 0 0 1 10.5 3.3s.6-7.2 0-7.2c-.4 0-2.2 0-4-2-3.3-3.6-2.6-14.5 0-18.5 2.1-3.4 5.6-8.7 9.5-8.7.6 0-.5-2.7-1.6-3.8Z" fill="#61B5AC"/><path d="M494.2 103.2s-7.3 29.2 0 46.3c.8 1.7 2 3.2 3.5 4.4 8.1 6.5 24 5 38.5 3.8 6-.6 17.6-3.1 17.6-3.1v-26s-6.6 0-29.2.5c0 0-2.7-17.7-11.6-30.9-1-1.4-18.8 5-18.8 5Z" fill="#F2C05F"/><path d="M520.3 69.4c.3.9.9 1.6 1.7 2a4 4 0 0 0 2.5.4 4.4 4.4 0 0 0 3.4-3.1 1.4 1.4 0 0 0-2-1.8 1.4 1.4 0 0 0-.6 1v.3c-.1 0-.2.3 0 0 0-.2 0 0 0 0l-.2.3-.2.3c.2-.3.1-.2 0-.1l-.1.1-.1.2c-.1 0-.2 0 0 0l-.3.1-.2.1h.1l-.4.1h.2-.4.1-.4l-.1-.1c-.2 0 .3.1 0 0l-.2-.2c-.2 0 .2.2 0 0l-.1-.1-.1-.1c-.1-.1.2.2 0 0 0-.1-.2-.5 0 0-.1-.4-.4-.7-.7-.8a1.4 1.4 0 0 0-1.9 1.5ZM622.5 98.9c.7.3 1.5.5 2.3.6l2.5.2-1.2-2-2 3.4a1.4 1.4 0 1 0 2.3 1.4l2-3.4a1.3 1.3 0 0 0 0-1.3 1.4 1.4 0 0 0-1.1-.7c-.7 0-1.3 0-1.9-.2h.4c-.8 0-1.5-.2-2.2-.4l.3.1c-.4-.2-.7-.2-1-.1-.4 0-.7.3-.9.6a1.4 1.4 0 0 0 .1 1.5l.4.3Z" fill="#282B8F"/><path d="M637.7 149h8.1a1.4 1.4 0 0 0 1.2-.4 1.4 1.4 0 0 0-1.2-2.3h-8.1a1.4 1.4 0 0 0-1.4 1.3 1.4 1.4 0 0 0 1.4 1.3Z" fill="#F5CF6E"/><path d="m553.3 129.8.2 8.2a1.4 1.4 0 0 0 2.7.4l.1-.5a1.4 1.4 0 0 0-1-1.7 1.4 1.4 0 0 0-1.6 1l-.1.4 2.6.4-.2-8.2a1.4 1.4 0 0 0-.3-1.1 1.4 1.4 0 0 0-2.4 1.1Z" fill="#282B8F"/><path d="M497.3 135.7c0 4.3.1 8.9 1.7 12.9 1.4 3.6 4 6.6 7.2 8.7a14 14 0 0 0 6.7 2 82.8 82.8 0 0 0 19-.7c.3-.3.5-.6.5-1a1.4 1.4 0 0 0-1.4-1.3 90.7 90.7 0 0 1-21.6-.4s-.7-.2-.3 0a15 15 0 0 1-7-6.8c-2-4.1-2.1-9-2.2-13.4 0-1.7-2.6-1.7-2.6 0Z" fill="#F48460"/><path d="m815 54.8-27.5 38.7-7.8 11c-.8 1 1 2 1.7 1L809 66.8l7.8-11c.7-1-1-2-1.8-1Z" fill="#F2C05F"/><path d="m532 210.4-18.3.7a1.4 1.4 0 0 1-1.5-1.5v-25a1.4 1.4 0 0 1 1.4-1.5l18.4-.6v28Z" fill="#E96246"/><path d="M679.9 110c0 4.4.3 8.8.3 13.3 0 1.7 2.6 1.7 2.6 0 0-4.5-.3-8.9-.3-13.3 0-1.7-2.6-1.7-2.6 0Z" fill="#282B8F"/><path d="M132.6 122.7c6.3-16.8 31.3-18.9 48-12.7a58.9 58.9 0 0 1 21.5 11.8c12.8-3.4 22.7-5 37-9-2.3 8.8-4.7 21-7 29.9a37 37 0 0 1 11.9 20.2c2.3 8.8 2 24.3-4.2 31.3-4 4.5 4.3-1.4-13.7 5.6-12.7 5-31.8 8.2-59.6 8.4-.8.1-16.7 5.6-25.6-4.4-8-9.2-8.2-24.9.5-32.5 6-5.1 10.2-6.8 12.6-6.6-20.4-11.5-26.3-29.1-21.4-42ZM369.5 204.4c-1-8.2 1-30.3 1-30.3s.9-15 2.8-19.3c1.8-4 31-24.8 31.4-29.3.4-4.3-1.1-9-7.7-15-9.1-8-8.8-14.6-4.9-17.2 2.9-2 13.5 4.8 13.5 4.8s-9.7-13.8-1-18.8c3.4-2 14.1 12.6 14.1 12.6s-2.5-12.6 5.5-11.6c3.8.5 13.6 31.4 13.6 31.4s0-13.8 6.2-11c3 1.4 4.8 9 1.6 21.4a65.3 65.3 0 0 1-10.6 22.1c-3.3 4.9-33.3 34.2-33.3 34.2l3.4 28.9-34.8 3.8-.8-6.7Z" fill="#E59076"/><path d="M165.2 106.5c12.5 2.8-3.5 10.2-3.5 10.2s7.5.1 7 6.5c-.5 6-7 9.3-7 9.3s6.9.2 7 8.1c0 7.6-10 10.1-10 10.1s7.5 1.3 7.5 7.5c0 2.5-2 4.8-5.5 6.2-3.5 1.3-9.2 1.4-14.3 6.8-5.8 6-5 13.6-4.8 15.6.5 7.8 7.3 11.9 12.3 13.7 7.5 2.7 18.6-.2 22.8-2.7a2.7 2.7 0 0 1 3.5.7c4 5 7.6 10.8 3 14.2a48 48 0 0 1-20.1 7.2c-7.7 0-35.6-9.7-46-20.9-4.6-6.8-14.5-14.3-10.5-36.1 5.6-31 25.1-57.8 58.6-56.4Z" fill="#282B8F"/><path d="m410.3 207.7-3.6-3.9a2.8 2.8 0 0 0-2.1-.9l-37-1.3c.6 0-28.3 21.1-25.3 32.7H418c12.9 0 1-17.3-7.7-26.6Z" fill="#EFA139"/><path d="M371.6 162.8s.5-11.1.5-25.6c0-10 6.6-13.8 8.7-21.1 2.3-8.7 2.5-13.2 6.2-15.4 2-1.2 8.2 0 9.7 6.7 1 4.8 0 12.5-2 16.4-2.6 5.1 1.6 8.3 3.4 10.5 1.5 2 8.4 3.2 8.7 5.8 1.3 11.1-35.2 22.7-35.2 22.7Z" fill="#E59076"/><path d="M113 198.8c.3-9.3-2.8-18-8.1-21.6-7.6-5.2-19.7 0-24.7 14.6-1.1-19.2-7-32.7-16.8-32.7-14.6 0-21.6 14-21.6 39-5.8-18-11.9-18.8-16.8-16.7-8.7 3.7-19 20.4-11.1 38.3 5.6 12.5 14.4 14.6 18.8 14.6 23.9-.2 33.3.1 57.2 0 3.5 0 8.3-6.3 13.2-14 5.7-9 6.3-11.8 9.8-21.5Z" fill="#282B8F"/><path d="M390.4 137.6c-3.9 1-7.5 2.7-10.7 5-3 2.4-5.4 5.6-6.7 9.2-.9 2.4-1.4 4.8-1.5 7.3a2 2 0 0 0 3.5 1.5c.4-.4.6-1 .6-1.5l.2-1.4c0-1-1-2-2-2a2.1 2.1 0 0 0-2.1 2l-.2 1.4h4a21.6 21.6 0 0 1 1.4-6l.2-.6c.8-1.9 1.9-3.6 3.3-5 3-3 7-4.8 11-6 2.6-.7 1.5-4.7-1-4ZM416.8 124.8a25.2 25.2 0 0 1-1.2 3.8l-.3.8a43.2 43.2 0 0 1-5.5 8 2 2 0 0 0 0 3 2 2 0 0 0 2.8 0c3.6-4.4 7-9 8-14.6a2 2 0 0 0-2.9-2.2 2 2 0 0 0-1 1.2ZM404.6 101.5l3 3.5 1.3 1.5a8.7 8.7 0 0 1 .4.5c0-.1-.1-.2 0 0l.6.7c2 2.9 3.6 6 5 9.1a2 2 0 0 0 2.8.7 2 2 0 0 0 .7-2.8 54.1 54.1 0 0 0-5-9.2l-5.9-7a2 2 0 0 0-2.9 0 2 2 0 0 0 0 3Z" fill="#182B82"/><path d="m417 94.3 6 12 2.5 5 1 2.4.5 1c.1.1.2.5.1.1l.2.5a14.6 14.6 0 0 1 .9 3.2v4.8l-.3 1.4a38.6 38.6 0 0 1-5.7 13.6l-.7 1.1-.3.3c0 .2.4-.4.2-.2l.4-.3c-2.3 1.3-.2 4.8 2 3.5.7-.5 1.2-1 1.5-1.8l1.8-3c1.9-3.4 3.3-6.8 4.3-10.4 1-3.9 1.5-8.1.3-12-1-3.3-2.8-6.5-4.3-9.7l-6.8-13.5a2 2 0 0 0-3.6 2ZM437.4 113.4c2.2 4.6 1.7 10 .4 14.8a43.2 43.2 0 0 1-5.1 11.7c-1.4 2.3 2.1 4.3 3.5 2 4.1-6.6 7.3-14.8 6.8-22.8-.2-2.7-.9-5.3-2-7.8a2 2 0 0 0-2.8-.7 2.1 2.1 0 0 0-.8 2.8Z" fill="#182B82"/><path d="M635.6 90c-.1-.4 0 .1 0-.1v-.7a3.5 3.5 0 0 1 0-.5c0 .2 0 .2 0 0a2.6 2.6 0 0 1 .1-.5s-.1.3 0 .1v-.2l.1-.1c.1-.2-.2.2 0 0h.1c.1-.2-.3.1-.1 0 0 0-.3.1-.1 0h.7-.2 1s.2 0 0 0l.5.1s-.3-.1 0 0l.1.1c.2 0 .3.2.5.3.2.1-.2-.2 0 0h.1l.4.4.2.3.2.2c-.2-.3 0 0 0 0a4.3 4.3 0 0 1 .3.6v-.1.3-.1c0 .2 0 .1 0 0l.1-.2c0 .2.2 0 .2-.1.2-.2 1.3 0 1-.2 0 0 .3.2.1 0-.3-.1 0 0 0 0l-.3-.2-.3-.3-.3-.4s.1.3 0 .1v-.2c-.2-.1-.2-.2-.3-.4v.2-.4l-.2-.5-.3-.8-.7-.8a1.4 1.4 0 0 0-2 1.5l1 2.2c.2.6.7 1.2 1.3 1.7.7.6 1.5 1.3 2.4.7a2.4 2.4 0 0 0 1-2.8c-.4-.8-.9-1.6-1.5-2.2a6.2 6.2 0 0 0-2.3-1.5c-.7-.2-1.4-.3-2-.2-.8 0-1.4.2-2 .6-1.6 1-1.7 3.1-1.4 4.8a1.4 1.4 0 0 0 1.6 1 1.4 1.4 0 0 0 1-1.7Z" fill="#282B8F"/><path d="m637.5 89.4 1 1 .8.9-.2-.2.2.3a1 1 0 0 0 1.6.2l.3-.5V91l-.1-.6-.5-.6-.6-.6-1-1.2a1 1 0 0 0-1.4 0 1 1 0 0 0-.1 1.5ZM388 57.2c-4 18.4-20.5 20.4-20.5 20.4s10.2.9 15.7 8.2c4.1 5.4 4.8 10.7 6.9 14.3.6-6.1 1.5-9.8 4.7-14.3 3.4-4.8 7.4-6.3 12.3-8.9a26.2 26.2 0 0 1-12.3-6c-4-3.5-6.8-13.7-6.8-13.7Z" fill="#282B8F"/><path d="M115.7 197c-.1 3.5-.7 5.2-3 6-1.6.4-4.8-.4-5.6-1.8-.4-.7-.5-1.5-.3-2.3.2-2.2 1-4.5 2.2-6.4a10 10 0 0 1-4.8 1.7c-1.2 0-2.5-.1-3.2-1-.5-.8-.7-1.8-.5-2.7.3-2.6.2-5.6 2-7.5-1.9.8-2.8 2-4.4 1a6.2 6.2 0 0 1-2.4-5.6c0-1.4 2-4.6 4-5 2.9-.5 6.2 2.7 6.2 2.7 1 1.6 1.7 3.3 2.5 5 2 5 7.3 15.9 7.3 15.9Z" fill="#8CC4C0"/><path d="M150 178.6c5.3 3 11.4 3 17.3 2.7l-1.8-3c-3.5 4.8-6.7 9.9-7.4 16a2 2 0 0 0 3.5 1.4c.4-.4.6-.9.6-1.4.6-5.3 3.8-9.8 6.8-14 1-1.3-.3-3.2-1.7-3.1-5.1.2-10.6.5-15.2-2.1-2.3-1.4-4.4 2.2-2 3.5h-.1ZM369.6 204.7h33.7c2.6 0 2.6-4.1 0-4.1h-33.7c-2.7 0-2.7 4 0 4Z" fill="#182B82"/><path d="M762.4 128.7 750.8 145a1 1 0 0 0 0 1c8.4 11 16.4 22 24.6 33.1a1126 1126 0 0 0 13 17.1c4.5 5.8 9 11.6 13.3 17.5 4.7 6.3 9 13 12.4 20 .6 1.3 2.3.2 1.8-1-6-12.8-15.2-24-24-35.1-8.6-11.2-17-22.5-25.3-33.8l-14-18.8v1l11.5-16.2c.8-1.1-1-2.1-1.7-1Z" fill="#F2C05F"/><path d="M593 57.9c-2.9 12.6-14.1 14-14.1 14s7 .6 10.7 5.6c2.9 3.8 3.2 6.2 3.9 9.7.4-4.3 2-6.6 4.1-9.7 2.4-3.2 5.1-4.3 8.5-6-3.2-.7-6-2.1-8.5-4.3C595 65 593 58 593 58ZM752 9.5A23 23 0 0 1 733.5 28s9.2.8 14.2 7.4c3.7 5 3.4 7.5 4.8 13 .6-5.6 2.8-9 5.7-13 3-4.3 6.7-5.7 11.1-8-5-1.2-7.4-2.5-11.1-5.6-3.7-3-6.2-12.3-6.2-12.3Z" fill="#F5CF6E"/><path d="M497.3 133a6 6 0 0 0 0 3.8c0 .4.3.6.6.8a1.3 1.3 0 0 0 2-1v-.5l-.3-1v.4-1.2.3l.3-1a1.3 1.3 0 0 0-1.2-1.7c-.3 0-.5 0-.8.2-.3.2-.5.5-.6.8ZM598.6 163h34c1.8 0 1.8-2.7 0-2.7h-34c-1.7 0-1.7 2.7 0 2.7Z" fill="#282B8F"/><path d="M179.1 134.8a49.8 49.8 0 0 1 1.4-3.6l.2-.6a23 23 0 0 1 2.3-3.8c.1-.1.2-.2 0 0l.2-.3 2-2 .4-.4.3-.2a17.4 17.4 0 0 1 7.4-3.3 2 2 0 1 0-1.1-4c-4.6 1-8.8 3.5-11.9 7-2.3 3-4 6.5-5.1 10.1a2 2 0 0 0 1.4 2.5 2 2 0 0 0 2.6-1.4ZM190.2 146.7c.6-2.4 1.2-4.8 1.6-7.2a16 16 0 0 1 2.6-6.3 10.7 10.7 0 0 1 3.3-3.1l.3-.2a7.4 7.4 0 0 1 1.2-.3h1.1c-.5 0 0 0 0 0 .2 0 .5 0 .7.2l.6.1c-.3 0-.2 0 0 0l.9.6a2 2 0 0 0 2.7-.8 2 2 0 0 0-.7-2.8 8.7 8.7 0 0 0-9.5 0c-4 2.4-6.2 7-7.1 11.4a67 67 0 0 1-1.8 8 2 2 0 0 0 1.5 1.9 2 2 0 0 0 2.6-1.6v.1Z" fill="#182B82"/><path d="M206.5 150c0 .3.2-.6 0-.1l-.2.5s.3-.4 0-.1v.3l-.2.3c-.2.1-.2.1 0-.1l-.2.2-.2.2c.4-.3 0 0-.1 0 .6-.2-.7 0-.1 0h-.4c.3 0-.4-.1-.4 0 .1 0-.4-.2-.1-.1l-.3-.2-.3-.2c-.2-.1.3.4 0 0l-.5-.5c-.3-.4.2.4 0 0l-.2-.4a9.9 9.9 0 0 1-.6-1l-.1-.3a23.2 23.2 0 0 1-1.5-9.9v-1.4l.1-.5c.3-.6 0 0 0-.1 0 .2.4-.2 0 0l.4-.2c-.1 0-.1 0 0 0 .2 0 .5-.1.2 0h.2c.2 0 .2 0 0 0 .2 0 .2 0 0-.1 0-.1.2.2 0-.2l1.2 2c1.9 3.7 3 7.7 3.3 11.8a2 2 0 0 0 3.5 1.5c.3-.4.6-1 .6-1.5-.3-4.8-1.6-9.5-3.9-13.8-1-1.9-2.3-4-4.8-3.9-1.2 0-2.3.5-3.3 1.3a5 5 0 0 0-1.5 3.4c-.3 3 0 6 .5 9 .6 3.1 1.7 6.8 4.6 8.5a5.5 5.5 0 0 0 6.4-.4 5.8 5.8 0 0 0 2-4c0-2.6-4.1-2.6-4.1 0Z" fill="#182B82"/><path d="M524 80.3c1.3.6 2.6 1 4 1.3.3 0 .7 0 1-.2a1.3 1.3 0 0 0 .5-1.8 1.3 1.3 0 0 0-.8-.6c-1.1-.2-2.2-.5-3.3-1l.4.2-.4-.2c-.3-.2-.7-.2-1-.1-.4 0-.6.3-.8.6-.2.3-.3.7-.2 1 .1.3.3.6.7.8ZM644.3 99.3h2.6c.4 0 .9-.1 1.3-.3l1.5-.9a1.4 1.4 0 0 0 0-1.9 1.4 1.4 0 0 0-2 0v.1c.3-.3.2-.1 0 0h-.1a5 5 0 0 1-.4.3l.3-.2-.9.3h.4-2.7a1.3 1.3 0 1 0 0 2.6Z" fill="#282B8F"/><path d="M129.7 227.7c-1.6 1.8-7.2 6.8-4.7 6.8h65.7c-13.5-8-28-14.4-43-18.9a88.7 88.7 0 0 0-18 12.1Z" fill="#F2C05F"/><path d="M169.7 203.7a839 839 0 0 0-22 12c15 4.4 29.5 10.8 43 18.8h44.8a281.7 281.7 0 0 0-58.2-34.7 324 324 0 0 0-7.6 3.9Z" fill="#F5CF6E"/><path d="M215.3 185.6c-12 3-24.6 7.6-38 14.2a280 280 0 0 1 58.1 34.7h47.4a138.7 138.7 0 0 0-67.5-49Z" fill="#F2C05F"/><path d="M269.6 183.3c-18-2.9-36.5-2.1-54.3 2.3a139 139 0 0 1 67.5 49h49.8a177 177 0 0 0-63-51.3Z" fill="#F5CF6E"/><path d="M327 208c-13-9.2-35-20.1-45.7-22.5-4-.9-7.8-1.6-11.7-2.2a177 177 0 0 1 63 51.2h23.8A191.4 191.4 0 0 0 327 208Z" fill="#F2C05F"/><path d="M148.8 215.2a85.4 85.4 0 0 1 17.7-9.5 198.5 198.5 0 0 1 14.5-5.8c14-5.4 28.5-9.6 43.3-12.7l5.4-1 2.7-.5 1.3-.2h1c3-.5 6.2-.7 9.3-.7 2.6 0 2.6-4 0-4-6.1 0-12.2.7-18.1 2a300.7 300.7 0 0 0-63.5 20.4c-5.4 2.4-10.9 5-15.7 8.5a2.1 2.1 0 0 0-.7 2.7 2 2 0 0 0 2.8.8Z" fill="#182B82"/></g></g><defs><clipPath id="a"><path fill="#fff" d="M0 0h828v234.6H0z"/></clipPath><clipPath id="b"><path fill="#fff" transform="translate(11 3.4)" d="M0 0h805.9v231.8H0z"/></clipPath></defs></svg>