<?xml version="1.0" encoding="UTF-8"?>
<svg width="55px" height="32px" viewBox="0 0 55 32" version="1.1" xmlns="http://www.w3.org/2000/svg" xmlns:xlink="http://www.w3.org/1999/xlink">
    <!-- Generator: Sketch 49 (51002) - http://www.bohemiancoding.com/sketch -->
    <title>Icons/ 01 Logo/ 03 Visa</title>
    <desc>Created with Sketch.</desc>
    <defs></defs>
    <g id="Icons/-01-Logo/-03-Visa" stroke="none" stroke-width="1" fill="none" fill-rule="evenodd">
        <g id="Visa" transform="translate(0.000000, 7.000000)" fill-rule="nonzero">
            <path d="M23.8186658,17.6708466 L19.3864676,17.6708466 L22.1586819,0.529555496 L26.5906378,0.529555496 L23.8186658,17.6708466 Z M39.8857785,0.948611155 L39.2830072,4.6500675 L38.8821292,4.46804853 C38.0801309,4.12146114 37.021464,3.77511612 35.5805814,3.81171381 C33.8306787,3.81171381 33.0458885,4.55893683 33.0277108,5.28846692 C33.0277108,6.09095002 33.9770694,6.61979875 35.5272603,7.40410419 C38.080858,8.62588532 39.2653143,10.1210585 39.2476214,12.0723697 C39.2117508,15.6284047 36.1840797,17.9263034 31.5335072,17.9263034 C29.5451135,17.9078833 27.6299153,17.4876158 26.5903955,17.0140272 L27.2106172,13.1661801 L27.7942413,13.4400568 C29.2351238,14.078941 30.1832706,14.3518483 31.9528052,14.3518483 C33.2288769,14.3518483 34.5970488,13.8225148 34.6144994,12.6741714 C34.6144994,11.9264637 34.0316024,11.3789525 32.3168431,10.5401141 C30.6391663,9.71921099 28.396043,8.35176621 28.4323984,5.88978392 C28.4513031,2.55285025 31.5335072,0.218838692 35.9104454,0.218838692 C37.6249623,0.218838692 39.0115542,0.601781399 39.8857785,0.948611155 Z M51.2475431,0.529555496 L54.8232101,17.6706043 L50.7194215,17.6706043 C50.7194215,17.6706043 50.3178164,15.7011154 50.1905728,15.0993136 C49.5342381,15.0993136 45.010182,15.0993136 44.4999957,15.0993136 C44.3354273,15.554967 43.5697842,17.6706043 43.5697842,17.6706043 L38.9192117,17.6706043 L45.5026754,1.95177563 C45.9588135,0.839302825 46.7620237,0.529555496 47.8192364,0.529555496 L51.2475431,0.529555496 Z M45.7765522,11.5982963 C46.6519883,11.5982963 48.7678679,11.5982963 49.460558,11.5982963 C49.2782966,10.7412802 48.4389735,6.63821878 48.4389735,6.63821878 L48.1292261,5.1612233 C47.9103671,5.79938035 47.5276668,6.83890015 47.5460868,6.80230246 C47.5460868,6.80230246 46.1415596,10.6135519 45.7765522,11.5982963 Z M15.6845265,0.529555496 L20.371212,0.529555496 L13.4045632,17.652669 L8.71763528,17.652669 L4.74181745,2.66264332 C7.55038713,4.14036591 10.0671448,7.11229215 10.8696279,9.84766645 L11.3439436,12.2182757 L15.6845265,0.529555496 Z" fill="#00579F"></path>
            <path d="M7.31335044,0.529555496 L0.182375552,0.529555496 L0.109422543,0.875900514 C5.67202891,2.29836301 9.3560347,5.72715445 10.8696279,9.84839356 L9.31943701,1.97043802 C9.06422266,0.875658145 8.27991722,0.565668448 7.31335044,0.529555496 Z" id="Path" fill="#FAA61A"></path>
        </g>
    </g>
</svg>