<svg width="200" height="200" viewBox="0 0 200 200" fill="none" xmlns="http://www.w3.org/2000/svg"><path d="M144.4 41.2a27 27 0 0 1-12.6 13.4c-5.9 2.5-12.7-2.9-17.3-6.4-1.8-1.4-4.6.6-3.5 2.6 2.5 4.2 9.1 11.3 7.3 16.3-1.8 5.3-12 7.2-16.7 9.4-2.2 1-1.3 4.8 1.4 4.2 5.9-1.4 15.7-.9 18.3 5.7 2 5.2 1.9 11.3 1.3 16.7-.3 2.6 3.4 3.2 4.5 1.1 2.8-5.7 7.4-12.3 15-11.8 6.2.4 11.4 5.2 15.3 9.6.6 1 1.6 1.6 2.7 2a2.2 2.2 0 0 0 2.4-1.4c.6-1.7-1-3.7-1.7-5.2-2-3.7-4-7.4-5.7-11.3-1.5-3.4-4-7.5-1.3-10.6a31 31 0 0 1 17.6-8.8 2.2 2.2 0 0 0-.2-4.4c-6.3-.6-13.7.8-19.8-1.4-6.6-2.3-4.8-13.3-2.7-18 1.1-2.6-3.1-4.2-4.3-1.7" fill="#EDEDFC"/><path d="M167.8 151.2c5.2-.2 6.3-.6 9.7-3.6a12.8 12.8 0 0 0 4-12.2 12.5 12.5 0 0 0-6.3-8.3 11.8 11.8 0 0 0-10.5-.1c-4.1 2-6.4 6.5-6.7 11-.4 6 3.6 12.7 9.8 13.1" fill="#8EA6A8"/><path d="M42.4 35.5c3.8 2 7.3 4.3 10.7 6.8 3.3 2.4 6.9 4.8 9.6 7.9 1.6 1.8 4.2-.9 2.6-2.7-2.8-3.2-6.6-5.8-10.1-8.3a83 83 0 0 0-10.9-7c-2.1-1-4 2.2-1.9 3.3Z" fill="#FFCE39"/><path d="M58.5 31.6 52.4 41c-2.1 3-4.2 6.1-6.5 9.1a1.9 1.9 0 0 0 .7 2.6A2 2 0 0 0 49 52a211.2 211.2 0 0 0 12.7-18.6c1.2-2-2-4-3.3-1.9ZM102.2 99.3c-9.8 2.8-16 13.5-12.4 23.3 1.7 4.6 5.4 9.2 10.2 10.8a5.7 5.7 0 0 0 6.8-2.5c1.5-2.4 1-5.3-.2-7.7-2.7-4.7-7-8.4-12.2-10.2a18.6 18.6 0 0 0-15.3 1 16.2 16.2 0 0 0-8 12.7 25 25 0 0 0 4.3 15.8c1.4 2.4 3 4.7 5 6.7 1.8 1.9 4.3 2.8 6.6 1.2 3.1-2 3.9-5.6 3.2-9-.9-3.9-2.8-7.4-5.6-10.2-2.6-2.7-6-5.1-9.8-5.7a20.5 20.5 0 0 0-22 15c-1.1 5-.6 10.2 1.6 14.8 1.1 2.3 2.5 4.4 4.2 6.3 1.6 2.1 3.8 3.8 6.2 4.9a5.4 5.4 0 0 0 6.9-2.5c1.2-2.3 1.5-4.9.9-7.3-1-5.1-5.2-9.4-9.7-11.5-5-2.4-10.7-2.8-15.9-1.2a18 18 0 0 0-10.8 9.9 16 16 0 0 0-1.4 7.2c.2 2.4 4 2.4 3.8 0a13.3 13.3 0 0 1 4.2-10.3 15.3 15.3 0 0 1 11.3-4c4.2.1 8.2 1.8 11.2 4.6 2.6 2.5 4.9 6.6 3.4 10.2-.3.7-.7 1.5-1.5 1.6-1 .2-2.2-.7-3-1.3a21.5 21.5 0 0 1-8.2-15.3 16.7 16.7 0 0 1 12.1-16.9c3-1 6.4-.8 9.3.6a19 19 0 0 1 6.6 6c1.5 2.3 2.9 5 2.8 7.7 0 .9-.3 1.7-.8 2.5a3 3 0 0 1-1.2 1c-.7.1-1.4-.6-1.8-1a31.7 31.7 0 0 1-7-11.4 17 17 0 0 1 0-12.2 12.2 12.2 0 0 1 9.3-7c4-.7 8.3.2 11.7 2.5a21 21 0 0 1 4.7 4.3c1.2 1.4 2.7 3.4 2.3 5.4-1 4.8-7-.8-8.4-2.6a13.9 13.9 0 0 1 2.7-20.1c1.5-1.2 3.2-2 5-2.5 2.3-.6 1.3-4.3-1-3.6Z" fill="#FFCE39"/><path d="M191.5 74.2c0-3-.5-6-1.6-9a1.9 1.9 0 0 0-3.6 1 24.7 24.7 0 0 1 1.3 5v.8a25.3 25.3 0 0 1 .2 2.9 1.9 1.9 0 0 0 1.8 1.2 1.9 1.9 0 0 0 1.9-2ZM180.6 45.2a30.1 30.1 0 0 0-6.5-9 1.9 1.9 0 0 0-2.7 2.6l1.8 1.9.9 1c.3.3-.2-.3 0 0l.2.3.4.5c1 1.4 1.9 3 2.6 4.6a1.9 1.9 0 0 0 2.6.7 2 2 0 0 0 .7-2.6ZM158.4 23l-10.2-3.8a1.9 1.9 0 0 0-2.3 1.3 2 2 0 0 0 1.3 2.3l10.2 3.8a1.9 1.9 0 0 0 2.3-1.3 2 2 0 0 0-1.3-2.3Z" fill="#BFBEE6"/><path d="m107.2 167.4 20-19.3c1.6-1.6-1-4.3-2.7-2.6l-20 19.3c-1.7 1.7 1 4.3 2.7 2.6ZM113.1 175.7c7.4-5.9 14.3-12.2 20.7-19 1.7-1.8-1-4.4-2.6-2.7a190.8 190.8 0 0 1-20.7 19 1.9 1.9 0 0 0 0 2.7 2 2 0 0 0 2.6 0ZM120.8 184.7l20.4-17.9c1.9-1.6-.8-4.2-2.6-2.6L118.2 182c-1.9 1.6.8 4.2 2.6 2.7Z" fill="#EDEDFC"/></svg>