<svg width="380" height="300" fill="none" xmlns="http://www.w3.org/2000/svg"><mask id="a" maskUnits="userSpaceOnUse" x="0" y="0" width="380" height="300"><path d="M0 0h380v294a6 6 0 01-6 6H6a6 6 0 01-6-6V0z" fill="#fff"/></mask><g mask="url(#a)"><path fill-rule="evenodd" clip-rule="evenodd" d="M-.4-22A2 2 0 012-20.4l.8 4a2 2 0 11-3.9.8 449 449 0 01-.9-4A2 2 0 01-.4-22zM3.2-6a2 2 0 012.4 1.4l2.2 7.8a2 2 0 01-3.9 1.1L1.8-3.7A2 2 0 013.2-6zm5.6 19.5a2 2 0 012.5 1.3l2.6 7.6a2 2 0 01-3.7 1.4c-1-2.5-1.8-5.1-2.7-7.8a2 2 0 011.3-2.5zm7 19a2 2 0 012.7 1c1 2.5 2.2 5 3.4 7.3a2 2 0 01-3.6 1.8L14.8 35a2 2 0 011-2.7zM25 50.5a2 2 0 012.8.7c1.4 2.3 2.9 4.5 4.4 6.6a2 2 0 01-3.3 2.4l-4.5-7a2 2 0 01.6-2.7zM36.7 67a2 2 0 012.8.2c1.8 2 3.7 3.9 5.6 5.7a2 2 0 01-2.8 2.9c-2-1.9-3.9-3.9-5.7-6a2 2 0 01.1-2.8zm14.7 14a2 2 0 012.8-.5 95 95 0 006.6 4.4 2 2 0 01-2 3.4 99 99 0 01-7-4.6 2 2 0 01-.4-2.8zm17.3 10.5a2 2 0 012.7-1c2.3 1.1 4.8 2.1 7.3 3a2 2 0 01-1.4 3.8l-7.6-3.1a2 2 0 01-1-2.7zm19 7.2a2 2 0 012.4-1.4l7.8 1.9a2 2 0 11-.8 3.9l-8-2a2 2 0 01-1.4-2.4zm19.8 4.3a2 2 0 012.2-1.7c2.6.4 5.3.8 8 1a2 2 0 01-.4 4l-8.1-1a2 2 0 01-1.7-2.3zm20.1 2.3c.1-1.1 1-2 2.2-2 2.6.3 5.3.4 8 .5a2 2 0 01-.1 4l-8.2-.4a2 2 0 01-1.9-2.1zm27-1.3l4 2.7a2 2 0 01-2.3 3.3l-3-2H150a2 2 0 110-4h4.7zm11.4 10.3a2 2 0 012.7-.5l6.8 4.8a2 2 0 01-2.2 3.3l-6.8-4.8a2 2 0 01-.5-2.8zm17 11.9a2 2 0 012.7-.5l6.8 4.7a2 2 0 01-2.2 3.3l-6.8-4.7a2 2 0 01-.5-2.8zm17 11.9a2 2 0 012.7-.5l6.8 4.7a2 2 0 11-2.2 3.3l-6.8-4.8a2 2 0 01-.5-2.7zm17 11.8a2 2 0 012.7-.5l6.8 4.8a2 2 0 11-2.2 3.2l-6.8-4.7a2 2 0 01-.5-2.8zm17 11.9a2 2 0 012.7-.5l6.8 4.7a2 2 0 11-2.2 3.3l-6.8-4.7a2 2 0 01-.5-2.8zm17 11.8a2 2 0 012.7-.5l6.8 4.8a2 2 0 01-2.2 3.3l-6.8-4.8a2 2 0 01-.5-2.8zm17 11.9a2 2 0 012.7-.5l4.5 3.1-.2 1.3-.8 3.8a2 2 0 01-3.9-.8l.5-2.5-2.3-1.6a2 2 0 01-.5-2.8zm2.6 16.7a2 2 0 011.6 2.3l-1.2 7.6a2 2 0 01-4-.6l1.3-7.7a2 2 0 012.3-1.6zm-2.8 19a2 2 0 011.7 2.2l-.8 7.6a2 2 0 01-4-.3l.8-7.7a2 2 0 012.3-1.8zm-1.7 19.2c1 0 2 1 2 2-.2 2.7-.2 5.2-.2 7.6a2 2 0 01-4 0l.1-7.7c0-1 1-2 2-2zm.2 19.2a2 2 0 012.2 1.8l1 7.5a2 2 0 11-4 .7l-1-7.8a2 2 0 011.8-2.2zm3.3 19a2 2 0 012.5 1.3c.7 2.4 1.5 4.8 2.4 7.1a2 2 0 01-3.7 1.5c-1-2.5-1.8-5-2.6-7.5a2 2 0 011.4-2.4zm7 17.9a2 2 0 012.7.8c1.1 2.1 2.4 4.3 3.8 6.4a2 2 0 01-3.3 2.2c-1.5-2.2-2.8-4.5-4-6.7a2 2 0 01.7-2.7zm10.4 16a2 2 0 012.8.4c1.5 2 3.2 3.8 4.9 5.8a2 2 0 01-3 2.7c-1.8-2-3.4-4-5-6a2 2 0 01.3-2.8zm12.8 14.4a2 2 0 012.8 0l2.8 2.6a2 2 0 11-2.8 3l-2.8-2.7a2 2 0 010-2.9zM372 94.3a26.2 26.2 0 018 0 2 2 0 11-.6 4 22.2 22.2 0 00-6.8 0 2 2 0 11-.7-4zm16.5 5.1a2 2 0 012.8-.4c2.2 1.6 4.1 3.5 5.7 5.7a2 2 0 11-3.2 2.4c-1.4-1.9-3-3.5-4.9-4.9a2 2 0 01-.4-2.8zm-25 0a2 2 0 01-.4 2.8c-1.9 1.4-3.5 3-4.9 4.9a2 2 0 01-3.2-2.4c1.6-2.2 3.5-4.1 5.7-5.7a2 2 0 012.8.4zm-10.9 14.9a2 2 0 011.7 2.3 22.2 22.2 0 000 6.8 2 2 0 01-4 .7 26.2 26.2 0 010-8.2 2 2 0 012.3-1.6zm46.8 0a2 2 0 012.3 1.6 26.2 26.2 0 010 8.2 2 2 0 01-4-.7 22.2 22.2 0 000-6.8 2 2 0 011.7-2.3zm-44 18.2a2 2 0 012.8.4c1.4 1.9 3 3.5 4.9 4.9a2 2 0 01-2.4 3.2 26.1 26.1 0 01-5.7-5.7 2 2 0 01.4-2.8zm41.2 0c.9.6 1 1.9.4 2.8a26.1 26.1 0 01-5.7 5.7 2 2 0 11-2.4-3.2c1.9-1.4 3.5-3 4.9-4.9a2 2 0 012.8-.4zm-26.3 10.9a2 2 0 012.3-1.7 22.2 22.2 0 006.8 0 2 2 0 01.7 4 26.2 26.2 0 01-8.2 0 2 2 0 01-1.6-2.3zM66.6 210.3a22 22 0 016.8 0 2 2 0 11-.6 4 18.2 18.2 0 00-5.6 0 2 2 0 11-.6-4zm-6.7 4.3a2 2 0 01-.5 2.8 18.1 18.1 0 00-4 4 2 2 0 01-3.2-2.3c1.4-1.9 3-3.5 4.9-4.9a2 2 0 012.8.4zm20.2 0a2 2 0 012.8-.4c1.9 1.4 3.5 3 4.9 4.9a2 2 0 01-3.2 2.3 18.1 18.1 0 00-4-4 2 2 0 01-.5-2.8zM50.6 227a2 2 0 011.6 2.3 18.1 18.1 0 000 5.6 2 2 0 11-4 .6 22.2 22.2 0 010-6.8 2 2 0 012.4-1.7zm38.8 0a2 2 0 012.3 1.7 22.2 22.2 0 010 6.8 2 2 0 11-4-.6 18.1 18.1 0 000-5.6 2 2 0 011.7-2.3zM52.6 242a2 2 0 012.8.5c1.1 1.5 2.5 2.9 4 4a2 2 0 11-2.3 3.2c-1.9-1.4-3.5-3-4.9-4.9a2 2 0 01.4-2.8zm34.8 0c.9.7 1 2 .4 2.8-1.4 1.9-3 3.5-4.9 4.9a2 2 0 11-2.3-3.2c1.5-1.1 2.9-2.5 4-4a2 2 0 012.8-.5zm-22.5 9.3a2 2 0 012.3-1.6 18.2 18.2 0 005.6 0 2 2 0 11.6 4 22 22 0 01-6.8 0 2 2 0 01-1.7-2.4z" fill="#DDE3F0"/><path fill="url(#paint0_linear)" d="M-420 220h800v80h-800z"/><path fill="url(#paint1_linear)" d="M-420 0h800v80h-800z"/><rect x="169" y="101" width="82" height="82" rx="41" stroke="#F2F5FA" stroke-width="82"/><circle cx="138" cy="197" r="20" fill="#262B33"/><path d="M137.8 202h1.6l-4.5-12h-1.3l-4.6 12h1.6l1.2-3h4.9l1.1 3zm-3.6-9.5l2 5.2h-4l2-5.2zM144 193.4c-2 0-3.1 1-3.3 2.5h1.5c.2-.7.7-1.2 1.7-1.2s1.8.7 1.8 1.6v.5c-4.3 0-5.4 1.1-5.4 2.7 0 1.5 1.1 2.6 2.9 2.6 1.7 0 2.5-1 2.5-1l.4.9h1v-5.7c0-1.6-1.3-3-3.2-3zm-.8 7.4c-.9 0-1.5-.6-1.5-1.2 0-1 .6-1.5 4-1.5v.7c0 1-1 2-2.5 2z" fill="#98A1B3"/><g filter="url(#filter0_d)"><rect x="114" y="40" width="80" height="113" rx="4" fill="#fff"/><mask id="b" maskUnits="userSpaceOnUse" x="114" y="40" width="80" height="113"><rect x="114" y="40" width="80" height="113" rx="4" fill="#fff"/></mask><g mask="url(#b)"><path d="M114 44a4 4 0 014-4h72a4 4 0 014 4v13h-80V44z" fill="#FDC87A"/><rect x="122" y="45" width="16" height="3" rx="1.5" fill="#E68F0E"/><rect x="140" y="45" width="20" height="3" rx="1.5" fill="#E68F0E"/><rect x="122" y="50" width="24" height="2" rx="1" fill="#E68F0E"/><rect x="122" y="69" width="64" height="1" rx=".5" fill="#E6EBF4"/><rect x="122" y="65" width="12" height="2" rx="1" fill="#E6EBF4"/><rect x="178" y="65" width="8" height="2" rx="1" fill="#E6EBF4"/><path d="M122 78.5c0-.3.2-.5.5-.5h63c.3 0 .5.2.5.5v1c0 .3-.2.5-.5.5h-63a.5.5 0 01-.5-.5v-1zM122 82.5c0-.3.2-.5.5-.5h59c.3 0 .5.2.5.5v1c0 .3-.2.5-.5.5h-59a.5.5 0 01-.5-.5v-1zM122.5 98c-.3 0-.5.2-.5.5v1c0 .3.2.5.5.5h63c.3 0 .5-.2.5-.5v-1c0-.3-.2-.5-.5-.5h-63zM122 86.5c0-.3.2-.5.5-.5h63c.3 0 .5.2.5.5v1c0 .3-.2.5-.5.5h-63a.5.5 0 01-.5-.5v-1zM122.5 102c-.3 0-.5.2-.5.5v1c0 .3.2.5.5.5h61c.3 0 .5-.2.5-.5v-1c0-.3-.2-.5-.5-.5h-61zM122 90.5c0-.3.2-.5.5-.5h61c.3 0 .5.2.5.5v1c0 .3-.2.5-.5.5h-61a.5.5 0 01-.5-.5v-1zM122.5 106c-.3 0-.5.2-.5.5v1c0 .3.2.5.5.5h63c.3 0 .5-.2.5-.5v-1c0-.3-.2-.5-.5-.5h-63zM122 94.5c0-.3.2-.5.5-.5h63c.3 0 .5.2.5.5v1c0 .3-.2.5-.5.5h-63a.5.5 0 01-.5-.5v-1zM122.5 110c-.3 0-.5.2-.5.5v1c0 .3.2.5.5.5h40c.3 0 .5-.2.5-.5v-1c0-.3-.2-.5-.5-.5h-40z" fill="#E6EBF4"/></g></g><g filter="url(#filter1_d)"><rect x="170" y="85" width="80" height="113" rx="4" fill="#fff"/><path d="M170 89a4 4 0 014-4h22v113h-22a4 4 0 01-4-4V89z" fill="#214B41"/><rect x="175" y="105" width="16" height="3" rx="1.5" fill="#41776A"/><circle cx="183" cy="97" r="4" fill="#41776A"/><rect x="178" y="110" width="10" height="3" rx="1.5" fill="#41776A"/><rect x="175" y="119" width="16" height="2" rx="1" fill="#41776A"/><rect x="175" y="139" width="16" height="2" rx="1" fill="#41776A"/><rect x="175" y="123" width="16" height="2" rx="1" fill="#41776A"/><rect x="175" y="143" width="16" height="2" rx="1" fill="#41776A"/><rect x="175" y="127" width="16" height="2" rx="1" fill="#41776A"/><rect x="175" y="147" width="16" height="2" rx="1" fill="#41776A"/><rect x="175" y="131" width="8" height="2" rx="1" fill="#41776A"/><rect x="175" y="151" width="8" height="2" rx="1" fill="#41776A"/><path d="M204 105.5c0-.3.2-.5.5-.5h37c.3 0 .5.2.5.5v1c0 .3-.2.5-.5.5h-37a.5.5 0 01-.5-.5v-1zM204 109.5c0-.3.2-.5.5-.5h32.8c.2 0 .5.2.5.5v1c0 .3-.3.5-.6.5h-32.7a.5.5 0 01-.5-.5v-1zM204.5 125c-.3 0-.5.2-.5.5v1c0 .3.2.5.5.5h37c.3 0 .5-.2.5-.5v-1c0-.3-.2-.5-.5-.5h-37zM204 113.5c0-.3.2-.5.5-.5h37c.3 0 .5.2.5.5v1c0 .3-.2.5-.5.5h-37a.5.5 0 01-.5-.5v-1zM204.5 129c-.3 0-.5.2-.5.5v1c0 .3.2.5.5.5h34.9c.3 0 .5-.2.5-.5v-1c0-.3-.2-.5-.5-.5h-34.9zM204 117.5c0-.3.2-.5.5-.5h34.9c.3 0 .5.2.5.5v1c0 .3-.2.5-.5.5h-34.9a.5.5 0 01-.5-.5v-1zM204.5 133c-.3 0-.5.2-.5.5v1c0 .3.2.5.5.5h37c.3 0 .5-.2.5-.5v-1c0-.3-.2-.5-.5-.5h-37zM204 121.5c0-.3.2-.5.5-.5h37c.3 0 .5.2.5.5v1c0 .3-.2.5-.5.5h-37a.5.5 0 01-.5-.5v-1zM204.5 137c-.3 0-.5.2-.5.5v1c0 .3.2.5.5.5h12.7c.3 0 .5-.2.5-.5v-1c0-.3-.2-.5-.5-.5h-12.7z" fill="#E6EBF4"/><rect x="204" y="93" width="8.4" height="2" rx="1" fill="#E6EBF4"/><rect x="204" y="99" width="16.9" height="2" rx="1" fill="#E6EBF4"/><rect x="204" y="145" width="16.4" height="3" rx="1.5" fill="#E6EBF4"/><path d="M204 152.5c0-.3.2-.5.5-.5h39c.3 0 .5.2.5.5v1c0 .3-.2.5-.5.5h-39c-.3 0-.5-.2-.5-.5v-1zM204 156.5c0-.3.2-.5.5-.5h35.4c.3 0 .5.2.5.5v1c0 .3-.2.5-.5.5h-35.4c-.3 0-.5-.2-.5-.5v-1zM204 160.5c0-.3.2-.5.5-.5h39c.3 0 .5.2.5.5v1c0 .3-.2.5-.5.5h-39c-.3 0-.5-.2-.5-.5v-1zM204 164.5c0-.3.2-.5.5-.5h37.2c.3 0 .5.2.5.5v1c0 .3-.2.5-.5.5h-37.2c-.3 0-.5-.2-.5-.5v-1zM204 168.5c0-.3.2-.5.5-.5h18c.3 0 .5.2.5.5v1c0 .3-.2.5-.5.5h-18c-.3 0-.5-.2-.5-.5v-1z" fill="#E6EBF4"/></g><g filter="url(#filter2_dd)"><rect x="226" y="131" width="80" height="113" rx="4" fill="#fff"/><path d="M282 131h20a4 4 0 014 4v105a4 4 0 01-4 4h-20V131z" fill="#132A4C"/><rect x="288" y="139" width="12" height="2" rx="1" fill="#435D84"/><rect x="288" y="159" width="12" height="2" rx="1" fill="#435D84"/><rect x="288" y="143" width="12" height="2" rx="1" fill="#435D84"/><rect x="288" y="163" width="12" height="2" rx="1" fill="#435D84"/><rect x="288" y="147" width="12" height="2" rx="1" fill="#435D84"/><rect x="288" y="167" width="12" height="2" rx="1" fill="#435D84"/><rect x="288" y="151" width="6" height="2" rx="1" fill="#435D84"/><rect x="288" y="171" width="6" height="2" rx="1" fill="#435D84"/><rect x="234" y="139" width="25.5" height="3" rx="1.5" fill="#E6EBF4"/><rect x="234" y="144" width="29.1" height="3" rx="1.5" fill="#E6EBF4"/><rect x="234" y="151" width="10.9" height="2" rx="1" fill="#E6EBF4"/><rect x="234" y="161" width="16.4" height="3" rx="1.5" fill="#E6EBF4"/><path d="M234 168.5c0-.3.2-.5.5-.5h39c.3 0 .5.2.5.5v1c0 .3-.2.5-.5.5h-39c-.3 0-.5-.2-.5-.5v-1zM234 172.5c0-.3.2-.5.5-.5h35.4c.3 0 .5.2.5.5v1c0 .3-.2.5-.5.5h-35.4c-.3 0-.5-.2-.5-.5v-1zM234.5 188c-.3 0-.5.2-.5.5v1c0 .3.2.5.5.5h39c.3 0 .5-.2.5-.5v-1c0-.3-.2-.5-.5-.5h-39zM234 176.5c0-.3.2-.5.5-.5h39c.3 0 .5.2.5.5v1c0 .3-.2.5-.5.5h-39c-.3 0-.5-.2-.5-.5v-1zM234.5 192c-.3 0-.5.2-.5.5v1c0 .3.2.5.5.5h37.2c.3 0 .5-.2.5-.5v-1c0-.3-.2-.5-.5-.5h-37.2zM234 180.5c0-.3.2-.5.5-.5h37.2c.3 0 .5.2.5.5v1c0 .3-.2.5-.5.5h-37.2c-.3 0-.5-.2-.5-.5v-1zM234.5 196c-.3 0-.5.2-.5.5v1c0 .3.2.5.5.5h39c.3 0 .5-.2.5-.5v-1c0-.3-.2-.5-.5-.5h-39zM234 184.5c0-.3.2-.5.5-.5h39c.3 0 .5.2.5.5v1c0 .3-.2.5-.5.5h-39c-.3 0-.5-.2-.5-.5v-1zM234.5 200c-.3 0-.5.2-.5.5v1c0 .3.2.5.5.5h18.1c.3 0 .5-.2.5-.5v-1c0-.3-.2-.5-.5-.5h-18.1z" fill="#E6EBF4"/></g><path d="M318 68a32 32 0 01-6.1 18.8L286 68h32z" fill="#F73B51"/><path d="M311.9 86.8a32 32 0 01-16 11.6L286 68l25.9 18.8z" fill="#FA7044"/><path d="M295.9 98.4a32 32 0 01-19.8 0L286 68l9.9 30.4z" fill="#FFD747"/><path d="M276.1 98.4a32 32 0 01-16-11.6L286 68l-9.9 30.4z" fill="#98CE47"/><path d="M260.1 86.8A32 32 0 01254 68h32l-25.9 18.8z" fill="#42BF65"/><path d="M254 68a32 32 0 016.1-18.8L286 68h-32z" fill="#3FD3B4"/><path d="M260.1 49.2a32 32 0 0116-11.6L286 68l-25.9-18.8z" fill="#34BFDF"/><path d="M276.1 37.6a32 32 0 0119.8 0L286 68l-9.9-30.4z" fill="#3669ED"/><path d="M295.9 37.6a32 32 0 0116 11.6L286 68l9.9-30.4z" fill="#9C1EFF"/><path d="M311.9 49.2A32 32 0 01318 68h-32l25.9-18.8z" fill="#D33FAA"/><circle cx="286" cy="68" r="15" fill="#fff"/></g><defs><filter id="filter0_d" x="98" y="28" width="112" height="145" filterUnits="userSpaceOnUse" color-interpolation-filters="sRGB"><feFlood flood-opacity="0" result="BackgroundImageFix"/><feColorMatrix in="SourceAlpha" values="0 0 0 0 0 0 0 0 0 0 0 0 0 0 0 0 0 0 127 0"/><feOffset dy="4"/><feGaussianBlur stdDeviation="8"/><feColorMatrix values="0 0 0 0 0.14902 0 0 0 0 0.168627 0 0 0 0 0.2 0 0 0 0.08 0"/><feBlend in2="BackgroundImageFix" result="effect1_dropShadow"/><feBlend in="SourceGraphic" in2="effect1_dropShadow" result="shape"/></filter><filter id="filter1_d" x="154" y="73" width="112" height="145" filterUnits="userSpaceOnUse" color-interpolation-filters="sRGB"><feFlood flood-opacity="0" result="BackgroundImageFix"/><feColorMatrix in="SourceAlpha" values="0 0 0 0 0 0 0 0 0 0 0 0 0 0 0 0 0 0 127 0"/><feOffset dy="4"/><feGaussianBlur stdDeviation="8"/><feColorMatrix values="0 0 0 0 0.14902 0 0 0 0 0.168627 0 0 0 0 0.2 0 0 0 0.08 0"/><feBlend in2="BackgroundImageFix" result="effect1_dropShadow"/><feBlend in="SourceGraphic" in2="effect1_dropShadow" result="shape"/></filter><filter id="filter2_dd" x="210" y="119" width="112" height="145" filterUnits="userSpaceOnUse" color-interpolation-filters="sRGB"><feFlood flood-opacity="0" result="BackgroundImageFix"/><feColorMatrix in="SourceAlpha" values="0 0 0 0 0 0 0 0 0 0 0 0 0 0 0 0 0 0 127 0"/><feOffset dy="4"/><feGaussianBlur stdDeviation="8"/><feColorMatrix values="0 0 0 0 0.14902 0 0 0 0 0.168627 0 0 0 0 0.2 0 0 0 0.08 0"/><feBlend in2="BackgroundImageFix" result="effect1_dropShadow"/><feColorMatrix in="SourceAlpha" values="0 0 0 0 0 0 0 0 0 0 0 0 0 0 0 0 0 0 127 0"/><feOffset dy="1"/><feGaussianBlur stdDeviation="1.5"/><feColorMatrix values="0 0 0 0 0.14902 0 0 0 0 0.168627 0 0 0 0 0.2 0 0 0 0.06 0"/><feBlend in2="effect1_dropShadow" result="effect2_dropShadow"/><feBlend in="SourceGraphic" in2="effect2_dropShadow" result="shape"/></filter><linearGradient id="paint0_linear" x1="-20" y1="220" x2="-20" y2="300" gradientUnits="userSpaceOnUse"><stop stop-color="#fff" stop-opacity="0"/><stop offset="1" stop-color="#fff"/></linearGradient><linearGradient id="paint1_linear" x1="-20" y1="0" x2="-20" y2="80" gradientUnits="userSpaceOnUse"><stop stop-color="#fff"/><stop offset="1" stop-color="#fff" stop-opacity="0"/></linearGradient></defs></svg>