<svg width="380" height="300" fill="none" xmlns="http://www.w3.org/2000/svg"><mask id="a" maskUnits="userSpaceOnUse" x="0" y="0" width="380" height="300"><path d="M0 0h380v294a6 6 0 01-6 6H6a6 6 0 01-6-6V0z" fill="#fff"/></mask><g mask="url(#a)"><path fill-rule="evenodd" clip-rule="evenodd" d="M414.4-39a2 2 0 011.6 2.4l-.8 3.9a2 2 0 11-4-.8l.8-3.9a2 2 0 012.4-1.6zm-3.1 15.3a2 2 0 011.5 2.4l-1.8 7.5a2 2 0 01-3.9-1l1.8-7.4a2 2 0 012.4-1.5zM406.7-5a2 2 0 011.4 2.5L406 5A2 2 0 01402 4l2.1-7.4a2 2 0 012.5-1.4zM401 13.7a2 2 0 011.3 2.5l-2.7 7.3a2 2 0 11-3.7-1.4l2.6-7.2a2 2 0 012.5-1.2zm-7 18a2 2 0 011 2.7 162 162 0 01-3.3 7 2 2 0 11-3.6-1.8c1.2-2.2 2.3-4.5 3.3-6.9a2 2 0 012.7-1zM385.4 49a2 2 0 01.6 2.8c-1.4 2.3-2.9 4.4-4.4 6.5a2 2 0 01-3.2-2.4c1.4-2 2.9-4 4.3-6.2a2 2 0 012.7-.7zM374 64.5c.8.8.8 2 0 2.9-1.7 2-3.6 3.8-5.6 5.5a2 2 0 11-2.6-3c1.8-1.6 3.6-3.4 5.4-5.3a2 2 0 012.8 0zm-14.4 13a2 2 0 01-.5 2.7 85 85 0 01-6.8 4.1 2 2 0 11-2-3.5c2.3-1.2 4.5-2.5 6.5-3.9a2 2 0 012.8.5zm-17 9.2a2 2 0 01-1 2.6c-2.5 1-5 1.8-7.6 2.6a2 2 0 11-1.1-3.9c2.5-.7 4.8-1.5 7.2-2.4a2 2 0 012.6 1.1zm-103.5 5a2 2 0 012.3-1.7l3.8.5a2 2 0 11-.4 4l-4-.5a2 2 0 01-1.7-2.3zm85 .6a2 2 0 01-1.5 2.3c-2.6.5-5.2 1-7.8 1.3a2 2 0 01-.5-4l7.5-1.2a2 2 0 012.3 1.6zm-69.5 1.3a2 2 0 012.1-1.8l7.7.6a2 2 0 11-.3 4l-7.7-.7a2 2 0 01-1.8-2.1zm50.3 1.3a2 2 0 01-1.8 2.2l-7.8.3a2 2 0 01-.1-4c2.6 0 5.1-.2 7.6-.3a2 2 0 012.1 1.8zm-31 .2c0-1.1 1-2 2-2l7.8.3a2 2 0 11-.1 4l-7.8-.2a2 2 0 01-2-2.1zM179 191.8a2 2 0 01-1.8 2.2l-3.8.5a2 2 0 11-.5-4l3.9-.5a2 2 0 012.2 1.8zm-15.2 2a2 2 0 01-1.7 2.2l-7.6 1.1a2 2 0 11-.6-4l7.6-1a2 2 0 012.3 1.6zm-19 3a2 2 0 01-1.6 2.2l-7.5 1.5a2 2 0 01-.8-4l7.6-1.4a2 2 0 012.3 1.6zm-18.8 3.8a2 2 0 01-1.4 2.4l-7.4 2a2 2 0 11-1.1-3.8l7.5-2a2 2 0 012.4 1.4zm-18.4 5.4a2 2 0 01-1.2 2.6 137 137 0 00-7 2.7 2 2 0 01-1.6-3.6l7.2-2.9a2 2 0 012.6 1.2zM90 213.6a2 2 0 01-.8 2.7 99 99 0 00-6.4 3.9 2 2 0 01-2.2-3.3c2.2-1.5 4.4-2.8 6.7-4a2 2 0 012.7.7zM74 224a2 2 0 01-.2 2.8 87 87 0 00-5.5 5.2 2 2 0 01-2.9-2.9l5.8-5.3a2 2 0 012.8.2zm-13.5 13.6c1 .7 1 2 .4 2.8-1.5 2-3 4-4.3 6.2a2 2 0 01-3.4-2.2l4.5-6.4c.7-.9 2-1 2.8-.4zm-10.5 16a2 2 0 01.9 2.8l-3.3 6.8a2 2 0 01-3.6-1.6c1-2.5 2.2-4.8 3.3-7a2 2 0 012.7-1zm-7.8 17.6a2 2 0 011.2 2.5L41 281a2 2 0 11-3.8-1.2l2.4-7.3a2 2 0 012.6-1.2zm-5.8 18.2a2 2 0 011.4 2.5l-1.8 7.4a2 2 0 11-3.9-1L34 291a2 2 0 012.4-1.5zm-4.3 18.7a2 2 0 011.6 2.4l-.7 3.8a2 2 0 11-4-.8l.7-3.8a2 2 0 012.4-1.6z" fill="#DDE3F0"/><path fill="url(#paint0_linear)" d="M-420 220h800v80h-800z"/><path fill="url(#paint1_linear)" d="M-420 0h800v80h-800z"/><rect x="128" y="60" width="164" height="164" rx="82" fill="#E6F4FF"/><rect x="155" y="87" width="110" height="110" rx="55" fill="#CCE8FF"/><path fill-rule="evenodd" clip-rule="evenodd" d="M300.6 210.3a22 22 0 016.8 0 2 2 0 11-.6 4 18.2 18.2 0 00-5.6 0 2 2 0 11-.6-4zm-6.7 4.3a2 2 0 01-.5 2.8 18.1 18.1 0 00-4 4 2 2 0 11-3.2-2.3c1.4-1.9 3-3.5 4.9-4.9a2 2 0 012.8.4zm20.2 0a2 2 0 012.8-.4c1.9 1.4 3.5 3 4.9 4.9a2 2 0 11-3.2 2.3 18.1 18.1 0 00-4-4 2 2 0 01-.5-2.8zM284.6 227a2 2 0 011.6 2.3 18.2 18.2 0 000 5.6 2 2 0 11-4 .6 22 22 0 010-6.8 2 2 0 012.4-1.7zm38.8 0a2 2 0 012.3 1.7 22 22 0 010 6.8 2 2 0 11-4-.6 18.2 18.2 0 000-5.6 2 2 0 011.7-2.3zM286.6 242a2 2 0 012.8.5c1.1 1.5 2.5 2.9 4 4a2 2 0 11-2.3 3.2c-1.9-1.4-3.5-3-4.9-4.9a2 2 0 01.4-2.8zm34.8 0c.9.7 1 2 .4 2.8-1.4 1.9-3 3.5-4.9 4.9a2 2 0 11-2.3-3.2c1.5-1.1 2.9-2.5 4-4a2 2 0 012.8-.5zm-22.5 9.3a2 2 0 012.3-1.6 18.2 18.2 0 005.6 0 2 2 0 11.6 4 22 22 0 01-6.8 0 2 2 0 01-1.7-2.4zM76 54.3a26.2 26.2 0 018 0 2 2 0 01-.6 4 22.2 22.2 0 00-6.8 0 2 2 0 01-.7-4zm16.5 5.1a2 2 0 012.8-.4c2.2 1.6 4.1 3.5 5.7 5.7a2 2 0 11-3.2 2.4c-1.4-1.9-3-3.5-4.9-4.9a2 2 0 01-.4-2.8zm-25 0a2 2 0 01-.4 2.8c-1.9 1.4-3.5 3-4.9 4.9a2 2 0 01-3.2-2.4c1.6-2.2 3.5-4.1 5.7-5.7a2 2 0 012.8.4zM56.6 74.3a2 2 0 011.7 2.3 22.2 22.2 0 000 6.8 2 2 0 01-4 .7 26.2 26.2 0 010-8.2 2 2 0 012.3-1.6zm46.8 0a2 2 0 012.3 1.6 26.2 26.2 0 010 8.2 2 2 0 01-4-.7 22.2 22.2 0 000-6.8 2 2 0 011.7-2.3zm-44 18.2a2 2 0 012.8.4c1.4 1.9 3 3.5 4.9 4.9a2 2 0 01-2.4 3.2 26.1 26.1 0 01-5.7-5.7 2 2 0 01.4-2.8zm41.2 0c.9.6 1 1.9.4 2.8a26.1 26.1 0 01-5.7 5.7 2 2 0 11-2.4-3.2c1.9-1.4 3.5-3 4.9-4.9a2 2 0 012.8-.4zm-26.3 10.9a2 2 0 012.3-1.7 22.2 22.2 0 006.8 0 2 2 0 01.7 4 26.2 26.2 0 01-8.2 0 2 2 0 01-1.6-2.3z" fill="#DDE3F0"/><path d="M252 58a6 6 0 016-6h38.8L316 71.2V126a6 6 0 01-6 6h-52a6 6 0 01-6-6V58z" fill="#DD3842"/><path d="M296.8 52L316 71.2h-13.2a6 6 0 01-6-6V52z" fill="#AD1631"/><path d="M274.7 100l-1-.3c-1-.8-1-1.7-1-2.3.2-1.6 2.1-3.4 5.9-5.1a69 69 0 003.7-10.9c-1-2.2-2-5-1.3-6.7.3-.6.6-1 1.2-1.2l1-.2c.4 0 .9.7 1.2 1 .3.5 1 1.3-.4 7 1.3 2.8 3.2 5.6 5 7.6 1.3-.2 2.4-.4 3.3-.4 1.6 0 2.5.4 2.9 1.2.3.6.2 1.3-.4 2.1-.6.8-1.3 1.2-2.2 1.2-1.2 0-2.6-.7-4.1-2.3-2.8.6-6 1.7-8.7 2.9-.8 1.8-1.6 3.2-2.3 4.3-1 1.4-2 2.1-2.8 2.1zm2.6-5.2c-2 1.2-3 2.2-3 2.8 0 0 0 .3.4.7.2 0 1-.5 2.6-3.5zm13.4-4.5c.8.7 1 1 1.5 1 .3 0 1 0 1.2-.5l.3-.4c-.2 0-.3-.2-1.2-.2l-1.8.1zm-7.3-6.6c-.7 2.5-1.6 5.2-2.6 7.6a48 48 0 016.3-2 34.5 34.5 0 01-3.7-5.6zm-.6-8.5c-.1 0-1.3 1.7 0 3.2 1-2.1 0-3.3 0-3.2zM276.3 110.1v5.9h1.1v-2h1a2 2 0 002.1-2c0-1-.9-1.9-2-1.9h-2.2zm1.1 2.9v-1.8h1c.6 0 1 .4 1 .9 0 .4-.4.9-1 .9h-1zM283 115v-3.8h.8c1 0 1.8.8 1.8 1.9 0 1-.9 1.8-1.8 1.8h-.7zm.8 1a3 3 0 002.9-3 3 3 0 00-2.9-2.9H282v5.9h2zM292 111.2v-1h-3.8v5.8h1v-2.3h2.4v-1h-2.3v-1.5h2.8z" fill="#fff"/><path d="M104 158a6 6 0 016-6h38.8l19.2 19.2V226a6 6 0 01-6 6h-52a6 6 0 01-6-6v-68z" fill="#2368C4"/><path d="M125.3 215v-3.8h.8c.9 0 1.7.8 1.7 1.9 0 1-.8 1.8-1.7 1.8h-.8zm.8 1a3 3 0 002.9-3 3 3 0 00-3-2.9h-1.8v5.9h1.9zM131.2 213c0-1 .8-1.9 1.7-1.9 1 0 1.8.8 1.8 2 0 1-.8 1.9-1.8 1.9s-1.7-.8-1.7-2zm4.6 0a3 3 0 00-2.9-3 3 3 0 00-2.8 3 3 3 0 002.8 3 3 3 0 002.9-3zM138 213c0-1 .8-1.9 1.7-1.9.8 0 1.3.6 1.5 1h1.2a2.7 2.7 0 00-2.7-2 3 3 0 00-2.8 3 3 3 0 002.8 3c1.4 0 2.4-1 2.7-2.2h-1.2c-.2.6-.7 1-1.5 1-.9 0-1.7-.7-1.7-1.8zM145.8 212.2l-1.2-2h-1.3l1.8 2.8-1.9 3h1.3l1.3-2.1 1.3 2.1h1.3l-2-3 1.9-2.9H147l-1.2 2zM131.1 192.8l.1 1h.1a10 10 0 01.3-2l2.7-11.1h3.5l2.8 11c.2.7.3 1.3.3 2l.4-2 2.2-11h3.2l-4 16h-3.6l-2.7-10.6a23.5 23.5 0 01-.4-2.3 24 24 0 01-.5 2.3l-2.5 10.6h-3.7l-4-16h3.3l2.4 11.2.1.9z" fill="#fff"/><path d="M148.8 152l19.2 19.2h-13.2a6 6 0 01-6-6V152z" fill="#164C94"/><circle cx="210" cy="142" r="28" fill="#2196F3"/><path fill-rule="evenodd" clip-rule="evenodd" d="M208.7 131.3h2.6v10.1l3-3 2 1.9-6.3 6.3-6.3-6.3 2-2 3 3.1v-10zm-9.4 13.4v6.6c0 .8.6 1.4 1.4 1.4h18.6c.8 0 1.4-.6 1.4-1.4v-6.6H218v5.3h-16v-5.3h-2.7z" fill="#fff"/></g><defs><linearGradient id="paint0_linear" x1="-20" y1="220" x2="-20" y2="300" gradientUnits="userSpaceOnUse"><stop stop-color="#fff" stop-opacity="0"/><stop offset="1" stop-color="#fff"/></linearGradient><linearGradient id="paint1_linear" x1="-20" y1="0" x2="-20" y2="80" gradientUnits="userSpaceOnUse"><stop stop-color="#fff"/><stop offset="1" stop-color="#fff" stop-opacity="0"/></linearGradient></defs></svg>