<svg width="80" height="80" fill="none" xmlns="http://www.w3.org/2000/svg"><path d="M17 70c-.5-2.2-1.2-2.8-1-5.6.2-1 .5-1.8 1-2.6l-2-1.6c-3.3-3.2-1.9-8.6 2-11.7-1.9-1.8-3.7-5.3-3.5-8a9.5 9.5 0 013.6-6.9c-2.3-1.2-4.4-4.3-4.1-6.8.3-2.5 1.9-4.4 3.7-6.2-1-2.7-1-5.3-1.4-8.4 3.8-.3 7.3-1.5 10.6.4 1.3-1.8 4-3.6 6.3-3.8 2.3-.2 5.7 1 7.3 2.6 2.4-2 3.7-3 6.8-2.5 3 .4 6 2 7.8 4.5 3.4-2.6 7.2-2.6 11.3-1.8.4 3.3-.7 9.3-.7 9.3s.6 2 1.1 2.4c1.6 1.4 1.3 3.7.6 5.7-.6 2-1.9 3.6-3.5 4.7 2.5 1.3 3.7 4.3 3.4 7.2-.2 2.8-1.7 5.3-3.3 7.5a8 8 0 013 7.2c-.3 2.5 0 4.4-2.5 5.2 1.3 2.7 1.3 5.4.7 8.3-4 1.1-7.2 1.5-10-1.4-1 2.1-6.2 3.6-8.6 3.8-2.3.3-4.9-2-6.3-3.8a8.3 8.3 0 01-6 4.4c-3.7.4-7.8-.7-8.2-3.2-2.7 1.4-5.5 1-8 1z" fill="#FFD15A"/><path d="M18.7 69.5c-.6-2.5-1.4-4.3-.2-6.8a1.8 1.8 0 00-.3-2.1c-1.3-1-2.8-2-3.1-3.8-.6-2.8 1.3-5.3 3.2-7a1.8 1.8 0 000-2.5c-3.6-3.8-4.1-8.8 0-12.4a1.8 1.8 0 00-.3-2.8c-4.5-2.8-3.2-7 0-10.2a1.8 1.8 0 00.4-1.7c-.7-2.6-1.1-5.3-1.3-8L15.3 14c3.2-.3 6.6-1.3 9.7.2a1.8 1.8 0 002.1-.3c2.9-3.6 7.5-4.4 11-1.3a1.8 1.8 0 002.2.3c2-1.5 3.8-2.7 6.4-2.1 2.5.5 4.6 1.9 6.2 3.8a1.8 1.8 0 002.1.3c3.1-2.1 6.3-2.2 10-1.6l-1.4-1.7c.2 3.2-1 6.4-.7 9.5a8 8 0 001.3 3c1.7 2.8.3 6.2-2.2 8-1 .9-1.3 2.4 0 3.2 4.8 3 1.9 8.7-.6 12.2a1.8 1.8 0 00.3 2.1c2.2 1.9 4.5 8 .9 9.7a1.8 1.8 0 00-.8 2 12 12 0 01.6 7.3l1.3-1.3c-3 .9-5.7 1.5-8.2-.9a1.8 1.8 0 00-2.8.4c-1 1.6-4 2.4-5.7 2.7-3 .4-4.6-.8-6.4-3-.8-1-2.3-.6-2.8.3-1.4 2.3-3.3 3.6-6 3.6-1.5 0-4.4-.2-5-2a1.8 1.8 0 00-2.6-1.1c-2.3 1-4.7.8-7.2.9-2.3 0-2.3 3.5 0 3.5 3.2 0 6 0 9-1.3l-2.6-1c1 3.2 4.3 4.3 7.4 4.5 4.4.3 7.8-1.6 10-5.3l-2.7.4c2.3 2.8 5.3 4.8 9 4 3.2-.5 6.8-1.7 8.7-4.4L53 69c3.5 3.2 7.3 3 11.6 1.8a1.8 1.8 0 001.3-1.3c.6-3.2.6-6-.7-9.1l-.8 2c5.7-2.7 3.9-12-.2-15.3l.3 2.2c3.8-5.3 5.9-13.1-.7-17.2v3.1c3.5-2.7 6.4-8 4-12.3-.3-.5-1.4-2.4-1.4-2 .2.6.3-1.3.3-1.8.5-2.5.6-5 .5-7.5A1.8 1.8 0 0066 9.8c-4.6-.7-8.8-.7-12.7 2l2.1.3a14 14 0 00-8.6-5c-3.3-.5-5.6.7-8.2 2.7l2.2.3c-5-4.4-12-4-16 1.3l2-.3c-3.8-1.9-7.3-1.1-11.4-.7-.9.1-2 .8-1.8 1.8.3 3 .5 6 1.4 9l.5-1.8c-5 5-5.9 11.7.8 15.8l-.4-2.8c-5.6 4.9-5 12.3 0 17.4v-2.5c-5.5 4.6-5.8 11.4 0 15.8l-.4-2.2c-1.7 3.6-1 5.9-.1 9.6.6 2.2 4 1.2 3.4-1z" fill="#FFD15A"/><path d="M53.4 21.8H25.5v36h27.9v-36z" fill="#FFB69B" stroke="#FFB69B" stroke-miterlimit="10"/><path d="M34.4 36.2c-1.1-.4-2.1-1-3-2a4.3 4.3 0 012.3-6.7c2.2-.6 4.5.7 6.8 1h4a6 6 0 013.9 1.3c.4.3.7.8.8 1.3a3 3 0 01-.5 2.2c-.9 1.3-2.1 2.2-3.5 2.7a19 19 0 01-10.5 0" fill="#F68559"/><path d="M35.3 34.7L34 34c-1.6-.8-1.6-2.4 0-4.9 1-.4 2.7.3 3.7.5 2 .4 4 .6 6.1.6 1.3 0 4.2-.1 2.9 2.7-.6 1.1-3 1.5-4 1.7-2.6.4-5.2.2-7.6-.5-2.3-.6-3.2 2.9-1 3.4 4.7 1.3 11.4 1.7 15-2.1 3.6-3.6 1.2-7.9-3.3-8.6-1.7-.3-3.4 0-5-.2-1.7-.2-3.1-.8-4.7-1a6.5 6.5 0 00-5.9 2c-3.2 3.7-.7 8.3 3.2 10 2 1 4-2 1.8-3zM53.8 56.9c.5-3-.2-6.2-1.9-8.8V48c-1.6 3.1-6.4 4.1-8-.3-1.5 4.2-7.2 3.5-9.3 0-1.5 2.1-3.6 4.2-6.5 2.8a8 8 0 01-1.2-1.6l-.5 1-.2-.6c-1 2.7-.7 4.8-.3 7.7 0 .1-.7.9-.6 1l1 .2h2.4l4.9-.2c6.7-.4 13.4 0 20.2-.5a.5.5 0 00.4-.1l-.4-.4z" fill="#F68559"/><path d="M55.6 56.9c.2-1.7.1-3.4-.2-5-.2-1.1-1.7-3.2-1.7-4a1.8 1.8 0 00-3.3-.9c-1.4 2.3-3.8 2.3-5-.3-.5-1.1-2.6-1.2-3 0-1.4 3-4.7 2.3-6.3 0a1.8 1.8 0 00-3 0c-1 1.3-3 3.7-4.7 1.2-.7-1-2.4-1.3-3 0l-.6 1 3.3.4-.1-.6c-.5-1.8-3-1.6-3.5 0-1 3 .1 6.2-1 8.7-.4 1 .5 1.9 1.3 2.2 1.7.7 4 .3 5.7.2l8.4-.3H47c2.4 0 5.5.3 7.7-.5a1.8 1.8 0 00.7-3l-.3-.4c-1.5-1.7-4 .8-2.5 2.5l.3.5.8-3c-2 .7-5.1.3-7.3.3H39c-2.3 0-4.5.1-6.7.3-1.8 0-4.9.7-6.6 0l1.3 2.1c1.1-2.7 0-5.7 1-8.7h-3.5l.1.6a1.8 1.8 0 003.3.4l.5-.9h-3c3.2 4.6 7.8 2.8 10.7-1.2h-3c3 4.2 9.8 5.5 12.3 0h-3c2.3 5 8.3 4.8 11 .3l-3.2-1c0 1.2.8 2 1.2 3 .7 2 1 4 .7 6-.2 2.4 3.3 2.4 3.5 0z" fill="#F68559"/><path d="M35.2 46.3c1.8 5.7 7 5.2 8.7-.4 1.6 4.8 6.4 5.1 8 2-.8-.8-1.7-1.5-2.6-2.1-1.3-1-2.8-1.8-4.4-2.4-1-.3-2-1-3-1-1-.1-2 0-3 .1-2.5.5-5 1.3-7.1 2.6-2 1-3.7 2.5-5 4.4.4.5 1 0 1.6.5 2.8 1 5.4-1.7 6.8-3.8z" fill="#fff"/><path d="M33.5 46.7c2.5 7.1 9.7 6.6 12-.3h-3.4c2 4.8 8 7.7 11.4 2.4a1.8 1.8 0 00-.3-2.1c-3.7-3.2-8.5-6.6-13.6-6a20 20 0 00-14.3 7.9A1.8 1.8 0 0026 51c4.2 2.6 8.3-.4 10.8-3.9 1.3-1.8-1.8-3.6-3.1-1.8s-3.6 4-6 2.6l.7 2.5a16 16 0 0111.7-6.2c4-.1 7.7 2.5 10.6 5l-.3-2.2c-1.5 2.5-4 .4-4.8-1.5-.7-1.6-2.9-1.8-3.5 0-1.1 3.4-3.8 4-5.2.3-.7-2.2-4.2-1.2-3.4 1z" fill="#fff"/><path d="M38.4 31.1c-1.4.7-2 1.9-2.6 3.3a8 8 0 00.2 5 4 4 0 001.3 2c1.3 1 3.3.6 4.4-.6a6.5 6.5 0 001.8-4.4c0-1.3 0-3.1-.7-4.1-.8-1-3.2-1.7-4.4-1.2z" fill="#fff"/><path d="M37.7 30c-3.1 1.7-4 5.6-3.2 8.8.7 3.3 3.7 5.7 7 3.8 5.5-3 4.2-15.2-3.5-12.7-1.6.5-.9 3 .7 2.6 4.3-1.5 4.2 5.5 2 7.4-2.3 2.1-3.7-1-3.8-3a4.7 4.7 0 012.2-4.6c1.5-.8.1-3.1-1.4-2.3z" fill="#F68559"/><path d="M23.2 21.8c-.2 3.3-.2 6.6 0 9.9 0 2.3 3.6 2.3 3.5 0-.2-3.3-.1-6.6 0-10 .2-2.2-3.4-2.2-3.5 0z" fill="#1E2882"/><path d="M25.4 23.4h8.2c2.3 0 2.3-3.5 0-3.5h-8.2c-2.3 0-2.3 3.5 0 3.5z" fill="#1E2882"/><path d="M41.4 23.5l12.7-.2c2.3 0 2.3-3.6 0-3.6l-12.7.2c-2.3 0-2.3 3.6 0 3.6z" fill="#009AFA"/><path d="M52.5 21.5c.2 3 0 5.9.2 8.8.1 2.3 3.7 2.3 3.5 0-.2-2.9 0-5.8-.1-8.8-.2-2.3-3.8-2.3-3.6 0zM23.2 42.1c-.2 5.4-.1 10.8.2 16.1 0 2.3 3.7 2.3 3.5 0-.3-5.3-.3-10.7-.1-16 0-2.4-3.5-2.4-3.6 0z" fill="#1E2882"/><path d="M25 60c3 0 6 0 9-.2 2.2 0 2.2-3.6 0-3.6-3 .2-6 .2-9 .2-2.3 0-2.3 3.6 0 3.6z" fill="#009AFA"/><path d="M47.6 59.6h6.6c2.3 0 2.3-3.6 0-3.5l-6.6-.1c-2.2 0-2.3 3.5 0 3.6z" fill="#1E2882"/><path d="M52.9 45c0 4.4.2 8.6.3 12.9 0 2.2 3.6 2.3 3.5 0 0-4.3-.2-8.6-.3-12.8 0-2.3-3.6-2.3-3.5 0z" fill="#1E2882"/><path d="M63.4 49.5a7 7 0 012.7 5.4c0 2-1.5 3.4-2.8 5a1.8 1.8 0 00-.3 2c1.7 2.6 1.1 5.4.3 8.1-.8 2.2 2.7 3.2 3.4 1 1.1-3.6 1.6-7.5-.6-10.8l-.3 2.1c2.3-2.7 4.3-4.5 3.8-8.4-.4-3-1.7-5.8-4.4-7.5-1.9-1.2-3.7 1.9-1.8 3.1zM13.1 61.1c-.7 2.6-1.1 5.5-.2 8.1.4 1.4.8 3.7 2.4 4.1 1.3.4 3 0 4.1-.2 2.1-.3 4.2-.9 6-1.8 2-1 .3-4.1-1.7-3.1-2.4 1.2-4.8 1-7.2 1.6H16c.2-.1.8.7 1 .2 0-.4-.5-1.3-.7-1.7-.7-2-.3-4.2.3-6.2.6-2.3-2.9-3.2-3.5-1z" fill="#009AFA"/><path d="M17 19.5c-1.1-2.4-1.3-5.2-.5-7.8L15.2 13c2.9-.8 6.7-1 9 1.1a1.8 1.8 0 002.8-.3C30 9 35 8.8 39 11.9a1.8 1.8 0 002.2-.3c3.5-2.8 7.8-2.3 10.1 1.7a1.8 1.8 0 002.5.6 13.9 13.9 0 0111-1.8L63.7 11c1.1 2.8.8 6 0 8.8-.7 2.2 2.8 3.2 3.4 1 .8-2.7 2.3-10.4-1.2-12-4.2-1.9-10.3 0-13.8 2.2l2.4.6C51 5.5 44 4.9 38.7 9.1l2.1-.3c-5.7-4.3-13-3-16.9 3.2l2.8-.4C23.8 9 18.2 8 14.4 9.5c-3.7 1.6-1.7 9.2-.5 11.8.9 2.1 4 .3 3-1.8zM13.7 47.9c-4 3.8-3.6 11-.1 15 1.5 1.7 4-.8 2.5-2.6-2.2-2.5-2.5-7.5.1-10 1.7-1.5-.8-4-2.5-2.4zM63 35.3c3.2 3.7 2.6 8-.2 11.6-1.4 1.8 1.7 3.6 3 1.8 4-5 4-11-.2-16-1.5-1.7-4 .8-2.5 2.6zM23.3 71c4.5 5.2 11.4 3.4 16.6.2l-2.2-.2c4.5 5.2 11.6 4.2 16.5.2h-2.6c4 3 8.9 3.5 13.6 1.8 2.2-.8 1.2-4.2-1-3.4-3.4 1.2-7 1.4-10-1a1.9 1.9 0 00-2.6 0c-3.5 2.9-8.3 3.5-11.4-.2a1.8 1.8 0 00-2.2-.2c-3.7 2.3-8.8 4.2-12.2.3-1.5-1.7-4 .8-2.5 2.5z" fill="#1E2882"/><path d="M30.1 50.6c2.3 0 2.3-3.6 0-3.6s-2.3 3.6 0 3.6zM39.4 50.2c2.3 0 2.3-3.6 0-3.6s-2.3 3.6 0 3.6zM48.7 50.2c2.3 0 2.3-3.6 0-3.6s-2.3 3.6 0 3.6z" fill="#F68559"/></svg>