<svg width="380" height="300" fill="none" xmlns="http://www.w3.org/2000/svg"><mask id="a" maskUnits="userSpaceOnUse" x="0" y="0" width="380" height="300"><path d="M0 0h380v294a6 6 0 01-6 6H6a6 6 0 01-6-6V0z" fill="#fff"/></mask><g mask="url(#a)"><path fill-rule="evenodd" clip-rule="evenodd" d="M245.1 193.4a2 2 0 012.5-1.3l3.8 1.3a2 2 0 01-1.3 3.8l-3.7-1.3a2 2 0 01-1.3-2.5zm15 5.2a2 2 0 012.5-1.1l7.4 3a2 2 0 11-1.6 3.6l-7.2-3a2 2 0 01-1.2-2.5zm18 7.8a2 2 0 012.8-.9l7 3.8a2 2 0 11-2 3.4l-6.8-3.6a2 2 0 01-1-2.7zm17.2 9.8a2 2 0 012.7-.4c2.3 1.5 4.4 3.2 6.4 4.9a2 2 0 11-2.5 3c-2-1.6-4-3.2-6.2-4.7a2 2 0 01-.4-2.8zm15 12.7a2 2 0 012.9.1c1.8 2 3.5 4 5.1 6.2a2 2 0 01-3.2 2.4c-1.5-2-3.1-4-4.9-5.9a2 2 0 01.2-2.8zm11.9 15.7a2 2 0 012.7.8c1.3 2.3 2.5 4.8 3.6 7.2a2 2 0 01-3.7 1.7c-1-2.4-2.2-4.7-3.4-7a2 2 0 01.8-2.7zm8 18a2 2 0 012.5 1.3l2.2 7.8a2 2 0 01-4 1c-.6-2.7-1.3-5.1-2-7.6a2 2 0 011.3-2.5zm4.8 19.2a2 2 0 012.3 1.6l1.2 7.9a2 2 0 01-4 .5c-.3-2.6-.7-5.2-1.2-7.7a2 2 0 011.7-2.3zm2.6 19.5a2 2 0 012.1 1.8c.3 2.6.5 5.3.6 8a2 2 0 01-4 .2 327 327 0 00-.5-7.8c-.1-1.1.7-2 1.8-2.2zm1.2 19.7a2 2 0 012 2l.2 4a2 2 0 11-4 0l-.1-4c0-1 .8-2 2-2zM176 147.6a2 2 0 01-1.6 2.4l-3.8.8a2 2 0 01-.9-4l3.9-.8a2 2 0 012.4 1.6zm-15.2 3.4a2 2 0 01-1.4 2.5l-7.4 2a2 2 0 11-1.1-3.9l7.5-2a2 2 0 012.4 1.4zm-18.5 5.3a2 2 0 01-1.3 2.5l-7.2 2.6a2 2 0 01-1.4-3.8l7.4-2.6a2 2 0 012.5 1.3zm-18.1 6.7a2 2 0 01-1 2.7l-7 3.2a2 2 0 11-1.7-3.5c2.2-1.2 4.6-2.3 7-3.4a2 2 0 012.7 1zm-17.2 8.7a2 2 0 01-.7 2.8l-6.3 4.2a2 2 0 11-2.3-3.2c2-1.5 4.2-3 6.5-4.4a2 2 0 012.8.6zM91.3 183c.7.8.7 2-.2 2.8a91.2 91.2 0 00-5.4 5.3 2 2 0 01-2.9-2.7c1.8-2 3.7-3.8 5.7-5.5a2 2 0 012.8.1zM78 197a2 2 0 01.4 2.9c-1.4 2-2.8 4.1-4.1 6.3A2 2 0 1171 204c1.3-2.3 2.8-4.5 4.3-6.6a2 2 0 012.8-.4zm-10 16.6a2 2 0 011 2.6l-3 7a2 2 0 01-3.7-1.4l3-7.2a2 2 0 012.7-1zm-6.8 18a2 2 0 011.3 2.5c-.6 2.4-1.3 4.8-1.8 7.4a2 2 0 11-4-1l2-7.5a2 2 0 012.5-1.4zm-4.4 18.8a2 2 0 011.6 2.3l-1.1 7.6a2 2 0 11-4-.6l1.2-7.7a2 2 0 012.3-1.6zm-2.6 19.2c1 0 1.9 1 1.8 2.1l-.7 7.7a2 2 0 01-4-.3l.7-7.7a2 2 0 012.2-1.8zm-1.5 19.2c1.1 0 2 1 1.9 2l-.3 7.8a2 2 0 11-4-.2c0-2.6.2-5.2.3-7.7 0-1.1 1-2 2-2zM52 308c1.1 0 2 1 2 2l-.1 4a2 2 0 01-4-.1v-4c0-1 1-2 2.1-1.9z" fill="#DDE3F0"/><path d="M210.5 96.5c76-42.4 114.5-67 118.5-124" stroke="#DDE3F0" stroke-width="4" stroke-linecap="round" stroke-dasharray="8 12"/><path fill-rule="evenodd" clip-rule="evenodd" d="M68 52.3a26.2 26.2 0 018 0 2 2 0 01-.6 4 22.2 22.2 0 00-6.8 0 2 2 0 01-.7-4zm16.5 5.1a2 2 0 012.8-.4c2.2 1.6 4.1 3.5 5.7 5.7a2 2 0 11-3.2 2.4c-1.4-1.9-3-3.5-4.9-4.9a2 2 0 01-.4-2.8zm-25 0a2 2 0 01-.4 2.8c-1.9 1.4-3.5 3-4.9 4.9a2 2 0 01-3.2-2.4c1.6-2.2 3.5-4.1 5.7-5.7a2 2 0 012.8.4zM48.6 72.3a2 2 0 011.7 2.3 22.2 22.2 0 000 6.8 2 2 0 01-4 .7 26.2 26.2 0 010-8.2 2 2 0 012.3-1.6zm46.8 0a2 2 0 012.3 1.6 26.2 26.2 0 010 8.2 2 2 0 01-4-.7 22.2 22.2 0 000-6.8 2 2 0 011.7-2.3zm-44 18.2a2 2 0 012.8.4c1.4 1.9 3 3.5 4.9 4.9a2 2 0 01-2.4 3.2 26.1 26.1 0 01-5.7-5.7 2 2 0 01.4-2.8zm41.2 0c.9.6 1 1.9.4 2.8a26.1 26.1 0 01-5.7 5.7 2 2 0 11-2.4-3.2c1.9-1.4 3.5-3 4.9-4.9a2 2 0 012.8-.4zm-26.3 10.9a2 2 0 012.3-1.7 22.2 22.2 0 006.8 0 2 2 0 11.7 4 26.2 26.2 0 01-8.2 0 2 2 0 01-1.6-2.3zM372.6 62.3a22.2 22.2 0 016.8 0 2 2 0 11-.6 4 18.1 18.1 0 00-5.6 0 2 2 0 11-.6-4zm-6.7 4.3a2 2 0 01-.5 2.8 18.1 18.1 0 00-4 4 2 2 0 11-3.2-2.3c1.4-1.9 3-3.5 4.9-4.9a2 2 0 012.8.4zm20.2 0a2 2 0 012.8-.4c1.9 1.4 3.5 3 4.9 4.9a2 2 0 11-3.2 2.3 18.1 18.1 0 00-4-4 2 2 0 01-.5-2.8zM356.6 79a2 2 0 011.6 2.3 18.2 18.2 0 000 5.6 2 2 0 11-4 .6 22 22 0 010-6.8 2 2 0 012.4-1.7zm38.8 0a2 2 0 012.3 1.7 22 22 0 010 6.8 2 2 0 11-4-.6 18.2 18.2 0 000-5.6 2 2 0 011.7-2.3zM358.6 94a2 2 0 012.8.5c1.1 1.5 2.5 2.9 4 4a2 2 0 11-2.3 3.2c-1.9-1.4-3.5-3-4.9-4.9a2 2 0 01.4-2.8zm34.8 0c.9.7 1 2 .4 2.8-1.4 1.9-3 3.5-4.9 4.9a2 2 0 11-2.3-3.2c1.5-1.1 2.9-2.5 4-4a2 2 0 012.8-.5zm-22.5 9.3a2 2 0 012.3-1.6 18.2 18.2 0 005.6 0 2 2 0 11.6 4 22 22 0 01-6.8 0 2 2 0 01-1.7-2.4z" fill="#DDE3F0"/><rect x="128" y="60" width="164" height="164" rx="82" fill="#F2F3FF"/><path fill-rule="evenodd" clip-rule="evenodd" d="M144.6 262.3a22 22 0 016.8 0 2 2 0 11-.6 4 18.2 18.2 0 00-5.6 0 2 2 0 11-.6-4zm-6.7 4.3a2 2 0 01-.5 2.8 18.1 18.1 0 00-4 4 2 2 0 11-3.2-2.3c1.4-1.9 3-3.5 4.9-4.9a2 2 0 012.8.4zm20.2 0a2 2 0 012.8-.4c1.9 1.4 3.5 3 4.9 4.9a2 2 0 11-3.2 2.3 18.1 18.1 0 00-4-4 2 2 0 01-.5-2.8zM128.6 279a2 2 0 011.6 2.3 18.2 18.2 0 000 5.6 2 2 0 11-4 .6 22 22 0 010-6.8 2 2 0 012.4-1.7zm38.8 0a2 2 0 012.3 1.7 22 22 0 010 6.8 2 2 0 11-4-.6 18.2 18.2 0 000-5.6 2 2 0 011.7-2.3zM130.6 294a2 2 0 012.8.5c1.1 1.5 2.5 2.9 4 4a2 2 0 11-2.3 3.2c-1.9-1.4-3.5-3-4.9-4.9a2 2 0 01.4-2.8zm34.8 0c.9.7 1 2 .4 2.8-1.4 1.9-3 3.5-4.9 4.9a2 2 0 11-2.3-3.2c1.5-1.1 2.9-2.5 4-4a2 2 0 012.8-.5zm-22.5 9.3a2 2 0 012.3-1.6 18.2 18.2 0 005.6 0 2 2 0 11.6 4 22 22 0 01-6.8 0 2 2 0 01-1.7-2.4z" fill="#DDE3F0"/><rect x="178" y="110" width="64" height="64" rx="32" fill="#21277F"/><path fill-rule="evenodd" clip-rule="evenodd" d="M199 154h22v-4.2l-6.8-2.6a.9.9 0 01-.5-.8v-1c0-.2 0-.5.2-.6 1.1-1.2 1.8-3 2-3.4l.2-.3c.2-.1.5-.5.8-1.5.2-1-.2-1.5-.4-1.7a.6.6 0 01-.2-.5v-4a4.9 4.9 0 00-3.4-4c-1.6-.5-4.4-.5-6 0a4.8 4.8 0 00-3.2 4v4c0 .2 0 .3-.2.5s-.6.7-.4 1.7c.2 1 .6 1.4.8 1.5l.2.3c.2.5.9 2.2 2 3.3l.2.7v.9c0 .4-.2.7-.6 1l-6.7 2.5v4.2z" fill="#A9FAFF"/><path fill="url(#paint0_linear)" d="M-420 220h800v80h-800z"/><path fill="url(#paint1_linear)" d="M-420 0h800v80h-800z"/><g filter="url(#filter0_d)"><circle cx="248" cy="72" r="32" fill="#fff"/><path fill-rule="evenodd" clip-rule="evenodd" d="M242.5 66.3v14.4h-4.9V66.3h4.9zm.3-4.5c0 1.4-1 2.5-2.8 2.5-1.6 0-2.7-1.1-2.7-2.5s1.1-2.5 2.8-2.5c1.6 0 2.7 1.1 2.7 2.5zM260 72.4v8.3h-4.9V73c0-2-.7-3.3-2.4-3.3-1.4 0-2.2.9-2.5 1.8l-.2 1.1v8h-4.8V66.4h4.8v2c.7-1 1.8-2.4 4.4-2.4 3.2 0 5.6 2 5.6 6.5z" fill="#164C94"/></g><g filter="url(#filter1_d)"><circle cx="136" cy="160" r="32" transform="rotate(-90 136 160)" fill="#fff"/></g><path fill-rule="evenodd" clip-rule="evenodd" d="M136.1 158.1v3.7h5.1c-.8 2.4-2 3.7-5 3.7a5.5 5.5 0 01-5.6-5.5c0-3 2.4-5.6 5.5-5.6 1.7 0 2.7.6 3.7 1.4.8-.8.7-.9 2.7-2.7a9.5 9.5 0 00-15.8 6.9c0 5.1 4.2 9.3 9.4 9.3 7.8 0 9.8-6.7 9.1-11.2h-9z" fill="#DD3842"/><g filter="url(#filter2_d)"><circle cx="268" cy="200" r="32" fill="#fff"/><path fill-rule="evenodd" clip-rule="evenodd" d="M265 192.6v3.4h-2.3v4h2.3v11.3h4.7V200h3.2l.4-4h-3.6v-2.8c0-.4.5-1 1-1h2.6V188h-3.5c-5 0-4.8 4-4.8 4.6z" fill="#2368C4"/></g></g><defs><filter id="filter0_d" x="200" y="28" width="96" height="96" filterUnits="userSpaceOnUse" color-interpolation-filters="sRGB"><feFlood flood-opacity="0" result="BackgroundImageFix"/><feColorMatrix in="SourceAlpha" values="0 0 0 0 0 0 0 0 0 0 0 0 0 0 0 0 0 0 127 0"/><feOffset dy="4"/><feGaussianBlur stdDeviation="8"/><feColorMatrix values="0 0 0 0 0.14902 0 0 0 0 0.168627 0 0 0 0 0.2 0 0 0 0.08 0"/><feBlend in2="BackgroundImageFix" result="effect1_dropShadow"/><feBlend in="SourceGraphic" in2="effect1_dropShadow" result="shape"/></filter><filter id="filter1_d" x="88" y="116" width="96" height="96" filterUnits="userSpaceOnUse" color-interpolation-filters="sRGB"><feFlood flood-opacity="0" result="BackgroundImageFix"/><feColorMatrix in="SourceAlpha" values="0 0 0 0 0 0 0 0 0 0 0 0 0 0 0 0 0 0 127 0"/><feOffset dy="4"/><feGaussianBlur stdDeviation="8"/><feColorMatrix values="0 0 0 0 0.14902 0 0 0 0 0.168627 0 0 0 0 0.2 0 0 0 0.08 0"/><feBlend in2="BackgroundImageFix" result="effect1_dropShadow"/><feBlend in="SourceGraphic" in2="effect1_dropShadow" result="shape"/></filter><filter id="filter2_d" x="220" y="156" width="96" height="96" filterUnits="userSpaceOnUse" color-interpolation-filters="sRGB"><feFlood flood-opacity="0" result="BackgroundImageFix"/><feColorMatrix in="SourceAlpha" values="0 0 0 0 0 0 0 0 0 0 0 0 0 0 0 0 0 0 127 0"/><feOffset dy="4"/><feGaussianBlur stdDeviation="8"/><feColorMatrix values="0 0 0 0 0.14902 0 0 0 0 0.168627 0 0 0 0 0.2 0 0 0 0.08 0"/><feBlend in2="BackgroundImageFix" result="effect1_dropShadow"/><feBlend in="SourceGraphic" in2="effect1_dropShadow" result="shape"/></filter><linearGradient id="paint0_linear" x1="-20" y1="220" x2="-20" y2="300" gradientUnits="userSpaceOnUse"><stop stop-color="#fff" stop-opacity="0"/><stop offset="1" stop-color="#fff"/></linearGradient><linearGradient id="paint1_linear" x1="-20" y1="0" x2="-20" y2="80" gradientUnits="userSpaceOnUse"><stop stop-color="#fff"/><stop offset="1" stop-color="#fff" stop-opacity="0"/></linearGradient></defs></svg>