<svg xmlns="http://www.w3.org/2000/svg" width="1120" height="400" viewBox="0 0 1120 400">
  <g fill="none" fill-rule="evenodd">
    <polygon fill="#F2F5FA" fill-rule="nonzero" points="0 0 1120 0 1120 400 0 400"/>
    <g fill="#2196F3" transform="translate(738 128)">
      <path d="M103.576076 85.244375C103.592224 85.251182 113.551056 89.4541562 113.551056 101.519367 113.551056 110.969367 104.101056 120.419367 90.4510563 120.419367 75.7510563 120.419367 67.3510563 112.019367 66.8260563 100.994367L79.4260563 100.994367C79.9510563 104.669367 84.1510563 108.869367 89.9260563 108.869367 96.2260563 108.869367 100.426056 104.669367 100.426056 99.9443667 100.426056 95.2193667 96.7510563 91.5443667 89.9260563 91.5443667L84.1510563 91.5443667 84.1510563 81.0443667 89.4010563 81.0443667C96.2260563 81.0443667 99.3760563 77.8943667 99.3760563 73.1693667 99.3760563 68.4443667 95.7010563 64.7693667 89.9260563 64.7693667 84.1510563 64.7693667 80.4760563 68.4443667 79.9510563 72.1193667L67.3510563 72.1193667C67.8760563 62.1443667 76.8010563 53.2193667 89.9260563 53.2193667 103.051056 53.2193667 111.976056 62.1443667 111.976056 71.5943667 111.976056 81.03775 103.587815 85.2384826 103.576069 85.2443606L103.576076 85.244375zM134.026056 86.8193667C134.026056 100.994367 141.376056 108.344367 148.726056 108.344367 156.076056 108.344367 163.426056 100.994367 163.426056 86.8193667 163.426056 72.6443667 156.076056 65.2943667 148.726056 65.2943667 141.376056 65.2943667 134.026056 72.6443667 134.026056 86.8193667zM176.026056 86.8193667C176.026056 107.819367 163.426056 120.419367 148.726056 120.419367 134.026056 120.419367 121.426056 107.819367 121.426056 86.8193667 121.426056 65.8193667 134.026056 53.2193667 148.726056 53.2193667 163.426056 53.2193667 176.026056 65.8193667 176.026056 86.8193667zM8.14 32.601972L22.44 32.601972 22.44 37.661972 2.86 37.661972 2.86 9.94197205 22 9.94197205 22 15.001972 8.14 15.001972 8.14 20.941972 20.9 20.941972 20.9 26.001972 8.14 26.001972 8.14 32.601972zM34.76 17.201972C39.38 17.201972 42.68 20.501972 42.68 25.121972L42.68 37.661972 38.94 37.661972 38.06 35.681972C38.06 35.681972 35.86 37.881972 32.34 37.881972 27.94 37.881972 25.52 35.461972 25.52 32.161972 25.52 28.201972 28.38 25.341972 37.62 25.341972 37.62 23.141972 36.3 21.821972 34.32 21.821972 31.68 21.821972 31.24 24.021972 31.24 24.021972L26.18 24.021972C26.62 20.281972 29.7 17.201972 34.76 17.201972zM33.22 33.921972C35.86 33.921972 37.62 32.161972 37.62 29.741972L37.62 28.861972C31.68 28.861972 30.58 29.961972 30.58 31.721972 30.58 32.821972 31.68 33.921972 33.22 33.921972zM56.76 17.201972C57.64 17.201972 58.3 17.421972 58.3 17.421972L58.3 22.701972C58.3 22.701972 57.64 22.481972 56.54 22.481972 54.12 22.481972 52.36 24.241972 52.36 26.881972L52.36 37.661972 47.3 37.661972 47.3 17.421972 51.04 17.421972 51.92 19.621972C51.92 19.621972 53.68 17.201972 56.76 17.201972zM71.94 17.201972C76.78 17.201972 80.08 20.501972 80.08 25.781972L80.08 37.661972 75.02 37.661972 75.02 26.441972C75.02 23.801972 73.26 22.041972 70.84 22.041972 68.42 22.041972 66.66 23.801972 66.66 26.441972L66.66 37.661972 61.6 37.661972 61.6 17.421972 65.34 17.421972 66.22 19.401972C66.22 19.401972 68.64 17.201972 71.94 17.201972zM102.74 37.881972C97.9 37.881972 94.6 34.581972 94.6 29.301972L94.6 17.421972 99.66 17.421972 99.66 28.641972C99.66 31.281972 101.42 33.041972 103.84 33.041972 106.26 33.041972 108.02 31.281972 108.02 28.641972L108.02 17.421972 113.08 17.421972 113.08 37.661972 109.34 37.661972 108.46 35.681972C108.46 35.681972 106.04 37.881972 102.74 37.881972zM128.26 17.201972C133.32 17.201972 137.72 21.601972 137.72 27.541972 137.72 33.481972 133.32 37.881972 128.26 37.881972 124.96 37.881972 122.98 35.901972 122.98 35.901972L122.98 44.701972 117.92 44.701972 117.92 17.421972 121.66 17.421972 122.54 19.401972C122.54 19.401972 124.74 17.201972 128.26 17.201972zM122.54 27.541972C122.54 30.841972 124.74 33.041972 127.6 33.041972 130.46 33.041972 132.66 30.841972 132.66 27.541972 132.66 24.241972 130.46 22.041972 127.6 22.041972 124.74 22.041972 122.54 24.241972 122.54 27.541972zM153.56 15.441972L153.56 12.581972 157.96 12.581972 157.96 17.421972 162.36 17.421972 162.36 22.041972 157.96 22.041972 157.96 30.401972C157.96 32.161972 159.06 33.261972 160.82 33.261972 161.7 33.261972 162.14 33.041972 162.14 33.041972L162.14 37.441972C162.14 37.441972 161.04 37.881972 159.72 37.881972 155.76 37.881972 152.9 35.021972 152.9 30.621972L152.9 22.041972 149.82 22.041972 149.82 17.861972 151.14 17.861972C152.68 17.861972 153.56 16.981972 153.56 15.441972zM170.5 27.541972C170.5 30.841972 172.7 33.041972 175.56 33.041972 178.42 33.041972 180.62 30.841972 180.62 27.541972 180.62 24.241972 178.42 22.041972 175.56 22.041972 172.7 22.041972 170.5 24.241972 170.5 27.541972zM185.68 27.541972C185.68 33.261972 181.06 37.881972 175.56 37.881972 170.06 37.881972 165.44 33.261972 165.44 27.541972 165.44 21.821972 170.06 17.201972 175.56 17.201972 181.06 17.201972 185.68 21.821972 185.68 27.541972zM114.844718 154.274648L114.844718 139.439648 112.479718 139.439648 112.479718 134.924648 114.844718 134.924648 114.844718 134.064648C114.844718 129.764648 117.639718 126.969648 121.509718 126.969648 122.799718 126.969648 123.874718 127.399648 123.874718 127.399648L123.874718 131.699648C123.874718 131.699648 123.444718 131.484648 122.584718 131.484648 120.864718 131.484648 119.789718 132.559648 119.789718 134.279648L119.789718 134.924648 123.874718 134.924648 123.874718 139.439648 119.789718 139.439648 119.789718 154.274648 114.844718 154.274648zM136.344718 134.279648C137.204718 134.279648 137.849718 134.494648 137.849718 134.494648L137.849718 139.654648C137.849718 139.654648 137.204718 139.439648 136.129718 139.439648 133.764718 139.439648 132.044718 141.159648 132.044718 143.739648L132.044718 154.274648 127.099718 154.274648 127.099718 134.494648 130.754718 134.494648 131.614718 136.644648C131.614718 136.644648 133.334718 134.279648 136.344718 134.279648zM144.944718 144.384648C144.944718 147.609648 147.094718 149.759648 149.889718 149.759648 152.684718 149.759648 154.834718 147.609648 154.834718 144.384648 154.834718 141.159648 152.684718 139.009648 149.889718 139.009648 147.094718 139.009648 144.944718 141.159648 144.944718 144.384648zM159.779718 144.384648C159.779718 149.974648 155.264718 154.489648 149.889718 154.489648 144.514718 154.489648 139.999718 149.974648 139.999718 144.384648 139.999718 138.794648 144.514718 134.279648 149.889718 134.279648 155.264718 134.279648 159.779718 138.794648 159.779718 144.384648zM172.679718 134.279648C176.764718 134.279648 178.269718 136.859648 178.269718 136.859648 178.269718 136.859648 180.634718 134.279648 184.074718 134.279648 188.374718 134.279648 191.169718 137.074648 191.169718 142.449648L191.169718 154.274648 186.224718 154.274648 186.224718 142.879648C186.224718 140.514648 184.719718 139.009648 182.999718 139.009648 181.279718 139.009648 179.774718 140.514648 179.774718 142.879648L179.774718 154.274648 174.829718 154.274648 174.829718 142.879648C174.829718 140.514648 173.324718 139.009648 171.604718 139.009648 169.884718 139.009648 168.379718 140.514648 168.379718 142.879648L168.379718 154.274648 163.434718 154.274648 163.434718 134.494648 167.089718 134.494648 167.949718 136.429648C167.949718 136.429648 169.884718 134.279648 172.679718 134.279648zM204.284718 148.039648L209.014718 148.039648C209.229718 149.329648 210.304718 150.404648 212.024718 150.404648 213.744718 150.404648 214.819718 149.329648 214.819718 148.254648 214.819718 145.459648 204.714718 147.179648 204.714718 140.299648 204.714718 137.074648 207.509718 134.279648 211.809718 134.279648 216.539718 134.279648 219.119718 136.859648 219.549718 140.299648L214.819718 140.299648C214.604718 139.439648 213.529718 138.364648 212.024718 138.364648 210.519718 138.364648 209.659718 139.224648 209.659718 140.299648 209.659718 143.094648 219.764718 141.374648 219.764718 148.469648 219.764718 151.694648 216.969718 154.489648 212.454718 154.489648 207.294718 154.489648 204.714718 151.909648 204.284718 148.039648zM231.589718 134.279648C236.104718 134.279648 239.329718 137.504648 239.329718 142.019648L239.329718 154.274648 235.674718 154.274648 234.814718 152.339648C234.814718 152.339648 232.664718 154.489648 229.224718 154.489648 224.924718 154.489648 222.559718 152.124648 222.559718 148.899648 222.559718 145.029648 225.354718 142.234648 234.384718 142.234648 234.384718 140.084648 233.094718 138.794648 231.159718 138.794648 228.579718 138.794648 228.149718 140.944648 228.149718 140.944648L223.204718 140.944648C223.634718 137.289648 226.644718 134.279648 231.589718 134.279648zM230.084718 150.619648C232.664718 150.619648 234.384718 148.899648 234.384718 146.534648L234.384718 145.674648C228.579718 145.674648 227.504718 146.749648 227.504718 148.469648 227.504718 149.544648 228.579718 150.619648 230.084718 150.619648zM248.789718 127.184648L248.789718 154.274648 243.844718 154.274648 243.844718 127.184648 248.789718 127.184648zM265.989718 148.254648L271.149718 148.254648C270.074718 151.264648 266.849718 154.489648 262.334718 154.489648 256.959718 154.489648 252.444718 149.974648 252.444718 144.384648 252.444718 138.794648 256.959718 134.279648 262.334718 134.279648 267.494718 134.279648 271.794718 138.364648 271.794718 144.384648 271.794718 145.244648 271.579718 146.319648 271.579718 146.319648L257.819718 146.319648C258.249718 148.254648 259.754718 149.759648 262.334718 149.759648 264.914718 149.759648 265.989718 148.254648 265.989718 148.254648zM262.334718 139.009648C259.754718 139.009648 258.034718 140.729648 257.604718 142.879648L267.064718 142.879648C266.634718 140.729648 264.914718 139.009648 262.334718 139.009648zM274.374718 148.039648L279.104718 148.039648C279.319718 149.329648 280.394718 150.404648 282.114718 150.404648 283.834718 150.404648 284.909718 149.329648 284.909718 148.254648 284.909718 145.459648 274.804718 147.179648 274.804718 140.299648 274.804718 137.074648 277.599718 134.279648 281.899718 134.279648 286.629718 134.279648 289.209718 136.859648 289.639718 140.299648L284.909718 140.299648C284.694718 139.439648 283.619718 138.364648 282.114718 138.364648 280.609718 138.364648 279.749718 139.224648 279.749718 140.299648 279.749718 143.094648 289.854718 141.374648 289.854718 148.469648 289.854718 151.694648 287.059718 154.489648 282.544718 154.489648 277.384718 154.489648 274.804718 151.909648 274.374718 148.039648zM188.114028 67.6924509C184.714028 67.6924509 182.198028 65.1084509 182.198028 61.9124509 182.198028 58.7164509 184.714028 56.1324509 188.114028 56.1324509 191.480028 56.1324509 193.996028 58.6144509 193.996028 61.9124509 193.996028 65.1084509 191.480028 67.6924509 188.114028 67.6924509zM185.020028 76.6684509L200.388028 59.6684509 202.632028 60.9604509 187.264028 77.9944509 185.020028 76.6684509zM188.080028 63.7824509C189.168028 63.7824509 189.916028 62.8984509 189.916028 61.9124509 189.916028 60.8584509 189.168028 60.0424509 188.080028 60.0424509 187.026028 60.0424509 186.278028 60.8584509 186.278028 61.9124509 186.278028 62.9664509 187.026028 63.7824509 188.080028 63.7824509zM200.252028 80.8164509C196.852028 80.8164509 194.336028 78.2324509 194.336028 75.0364509 194.336028 71.8404509 196.852028 69.2564509 200.252028 69.2564509 203.618028 69.2564509 206.134028 71.8404509 206.134028 75.0364509 206.134028 78.2324509 203.618028 80.8164509 200.252028 80.8164509zM200.218028 76.9064509C201.306028 76.9064509 202.054028 76.0224509 202.054028 75.0364509 202.054028 73.9824509 201.306028 73.1664509 200.218028 73.1664509 199.164028 73.1664509 198.416028 73.9824509 198.416028 75.0364509 198.416028 76.0904509 199.164028 76.9064509 200.218028 76.9064509z"/>
    </g>
    <g transform="translate(48 14)">
      <path fill="#F2A17A" fill-rule="nonzero" d="M195.286448,70.743598 L190.073661,61.8644561 C189.204863,60.4167699 187.998199,59.2586209 186.501936,58.5347779 L182.157947,56.3632486 C186.598469,51.3928594 186.598469,48.0631812 184.378208,46.4224702 C182.157947,44.7817592 173.325169,37.5915845 169.415579,35.371799 C165.554255,33.1520135 161.644665,34.2619062 159.47267,35.9026173 C157.590275,37.3020472 137.704457,49.5108673 131.767672,53.178339 C130.754075,53.8056697 129.499145,53.7091573 128.58208,52.9853142 L127.278883,51.9719338 C126.07222,51.0550659 125.830887,49.3660987 126.747951,48.1114374 C129.499145,44.2991971 135.14633,36.1921545 138.428456,29.2432608 C142.868978,19.8333007 136.787393,4.34305854 135.098064,2.12327306 C133.457001,-0.096512412 127.32715,-0.096512412 122.934894,2.12327306 C118.494372,4.34305854 119.604502,23.6937971 119.604502,23.6937971 C119.604502,23.6937971 119.604502,28.1333681 105.221072,43.0445357 C95.278163,53.3713638 85.5765871,78.0302851 80.5568663,92.2176096 C77.9987393,99.4077843 73.8960828,105.922372 68.4902296,111.278811 C62.7947771,116.973043 56.0374606,123.728912 54.4929311,125.224855 C52.2590174,127.45829 34.094707,152.793207 -1.11022302e-16,201.229606 L89.7757767,201.229606 C100.669262,180.637175 108.66542,165.950794 113.76425,157.170463 C128.389014,153.889041 144.220441,146.457585 160.582801,137.095881 L176.124629,129.953963 C179.117154,128.554533 181.047816,125.562648 181.047816,122.281226 L181.047816,109.975893 L183.50941,108.914257 C186.598469,107.611339 188.336065,104.281661 187.756866,101.000239 L186.212337,92.7966841 C185.777938,90.43213 184.040342,88.550138 181.771814,87.8262949 L179.985952,87.2954766 C183.702476,84.9309225 188.142999,82.0838064 193.404052,78.7541282 C196.058712,77.0169048 196.92751,73.4942017 195.286448,70.743598 Z" transform="translate(366.61 185.368)"/>
      <ellipse cx="515.029" cy="106.71" fill="#FFF" fill-rule="nonzero" rx="56.906" ry="56.894"/>
      <ellipse cx="515.029" cy="106.71" stroke="#FFF" stroke-width="3.352" rx="65.16" ry="65.146"/>
      <path fill="#F64238" fill-rule="nonzero" d="M522.993246,100.82301 C533.949752,114.093466 545.051058,130.790114 545.147591,130.741857 C543.216929,133.154668 537.424944,138.655875 536.266547,139.620999 C530.088429,144.736157 514.112202,135.66399 500.597569,119.353393 C487.082936,103.042795 481.14615,85.6705609 487.324268,80.5554031 C488.289599,79.7350476 495.770914,72.3518481 495.770914,72.3518481 C495.770914,72.3518481 511.650608,87.1182471 522.993246,100.82301 Z"/>
      <path fill="#FF753D" fill-rule="nonzero" d="M495.819181,72.3518481 C495.819181,72.3518481 488.337866,79.7350476 487.372535,80.5554031 C484.042143,83.3060068 484.235209,89.6275698 487.227735,97.4450752 L505.858622,82.1961141 C500.16317,76.4053694 495.819181,72.3518481 495.819181,72.3518481 Z"/>
      <path fill="#DB3B32" fill-rule="nonzero" d="M497.170644,114.913822 L506.58262,106.03468 L506.58262,101.981159 L495.577848,112.64578 C496.10878,113.417879 496.639712,114.189979 497.170644,114.913822 Z"/>
      <path fill="#181A24" fill-rule="nonzero" d="M518.794057,114.479516 L506.775687,126.109262 C507.98235,127.315667 509.189014,128.425559 510.347411,129.535452 L520.193787,120.270261 L518.794057,114.479516 Z"/>
      <path fill="#DB3B32" fill-rule="nonzero" d="M498.811706,117.037095 C499.390905,117.809194 500.01837,118.581293 500.645835,119.353393 C502.866096,122.007484 505.134624,124.468551 507.403152,126.736592 L523.910311,110.812044 L516.670329,100.726497 L498.811706,117.037095 Z"/>
      <path fill="#181A24" fill-rule="nonzero" d="M505.424223 124.709832L514.305268 116.361508 514.305268 112.307987 503.541828 122.731327C504.169293 123.406914 504.796758 124.082501 505.424223 124.709832zM544.085727 131.996519L529.460964 118.967343 514.8362 133.25118C523.910311 140.200074 532.212157 142.998934 536.266547 139.620999 537.280144 138.8489 541.624133 134.698866 544.085727 131.996519z"/>
      <path fill="#FFA782" fill-rule="nonzero" d="M374.284016,345.047668 L384.130392,366.666448 C391.302588,376.262992 395.598311,382.906263 397.01756,386.596261 C395.569563,386.596261 363.230977,386.596261 361.782981,386.596261 C355.475996,375.058499 349.378478,361.985596 349.378478,361.985596 L374.284016,345.047668 Z"/>
      <path fill="#252938" fill-rule="nonzero" d="M278.571454,211.957052 C274.951463,224.310641 278.76452,236.374692 280.598649,250.368992 C280.791715,252.009703 282.143179,253.312621 283.784241,253.457389 C285.76317,253.650414 287.597299,252.202728 287.742098,250.224223 L290.445025,220.88445 L278.571454,211.957052 Z"/>
      <ellipse cx="284.432" cy="240.547" fill="#FFA782" fill-rule="nonzero" rx="5.647" ry="8.638" transform="rotate(-36.526 284.432 240.547)"/>
      <ellipse cx="319.059" cy="240.323" fill="#F89D79" fill-rule="nonzero" rx="8.64" ry="5.646" transform="rotate(-64.952 319.06 240.323)"/>
      <path fill="#FFA782" fill-rule="nonzero" d="M321.576947,264.459804 L317.088158,211.764027 L282.867177,211.522746 L285.907969,266.824358 L314.578298,270.926136 C318.439622,271.553466 321.866547,268.368557 321.576947,264.459804 Z"/>
      <path fill="#252938" fill-rule="nonzero" d="M293.58235,211.571002 C293.292751,210.991928 294.499415,204.332571 296.285277,202.547092 C299.133003,199.796488 311.682305,198.686595 319.694552,203.608728 C327.706799,208.530861 319.115353,230.390923 319.115353,230.390923 L293.58235,211.571002 Z"/>
      <path fill="#252938" fill-rule="nonzero" d="M319.115353,230.342666 C317.039892,229.860104 314.723098,228.315906 311.682305,223.876335 C305.262855,229.377542 295.561279,231.452559 284.315173,232.031634 C284.315173,232.031634 273.069068,221.173987 279.778118,209.206448 C286.004502,198.107521 318.487888,210.605878 318.487888,210.605878 C318.487888,210.605878 322.204412,223.104236 319.115353,230.342666 Z"/>
      <path fill="#CFCFCF" fill-rule="nonzero" d="M298.553805,286.416378 C314.916164,286.609403 337.456641,290.180362 345.661954,293.12399 C359.707519,298.142636 374.959748,343.648238 374.959748,343.648238 C365.933904,351.996562 358.693922,354.361116 349.137145,363.192002 L344.648357,353.347736 C345.407273,368.115388 345.970383,379.19823 346.337686,386.596261 C342.717695,386.596261 252.700585,386.596261 251.369652,386.596261 C250.95676,382.60683 250.161563,374.853667 248.984061,363.33677 L218.67267,349.969801 C218.67267,349.969801 232.621702,304.174662 241.551013,294.185627 C245.074471,290.180362 282.191445,286.271609 298.553805,286.416378 Z"/>
      <path fill="#ABABAB" fill-rule="nonzero" d="M297.685007,312.764266 C298.932646,334.649973 298.581104,363.615014 297.790233,386.596261 C298.795137,386.596261 299.290259,386.596261 300.235711,386.596261 C300.887566,363.695075 301.429586,334.535085 299.953534,312.474729 L297.685007,312.764266 Z"/>
      <path fill="#FFF" fill-rule="nonzero" d="M322.976677,286.51289 C321.142548,283.424493 317.812157,281.494245 314.240432,281.397732 L285.47357,280.770402 C281.612247,280.673889 277.992256,282.748906 276.10986,286.175097 L270.80054,299.156016 L283.156776,295.681569 L296.52661,311.992167 L300.532733,311.895655 L316.943359,295.005982 L326.934534,299.059504 L322.976677,286.51289 Z"/>
      <path fill="#ABABAB" fill-rule="nonzero" d="M344.648357,353.347736 L343.634759,328.688814 C343.586493,327.578922 344.358757,326.613797 345.468888,326.420773 C346.482485,326.276004 347.447816,326.806822 347.833949,327.72369 L359.659253,355.760546 L349.571544,367.438548 L344.648357,353.347736 Z"/>
      <path fill="#FFA782" fill-rule="nonzero" d="M311.489239,261.033613 C311.489239,261.033613 313.468167,284.823923 313.082035,286.416378 L300.484466,311.847398 C299.953534,313.874159 297.105808,313.922415 296.478343,311.943911 C292.279154,299.349041 285.521837,288.443138 285.521837,286.995452 L285.183971,250.127711 L311.489239,261.033613 Z"/>
      <path fill="#ABABAB" fill-rule="nonzero" d="M229.532643,362.998977 C235.710761,351.610512 241.261414,339.30518 246.329401,326.32426 C246.667267,325.503905 247.439532,324.92483 248.356596,324.92483 C249.611526,324.92483 250.625124,325.986467 250.528591,327.192872 L248.839262,363.867588 L229.532643,362.998977 Z"/>
      <path fill="#FFF" fill-rule="nonzero" d="M248.935795,363.33677 L219.782801,344.709875 C218.624403,343.986032 217.079874,344.565106 216.693742,345.868024 C215.438811,350.259338 214.521747,354.650653 214.47348,359.283249 C214.47348,360.151861 215.052679,360.92396 215.87321,361.213497 L249.949392,373.953135 L248.935795,363.33677 Z"/>
      <path fill="#0F141F" fill-rule="nonzero" d="M312.261504 270.684855L296.23701 266.969127C295.464746 266.776102 294.740747 267.451689 294.885547 268.272044 294.933814 268.609838 295.175146 268.947631 295.513012 269.0924L312.792436 277.730261 312.261504 270.684855zM307.820982 229.956617L311.875371 239.945651 312.888969 242.454974 312.937235 242.599743 312.985502 242.792768C313.033769 242.937536 313.082035 243.082305 313.082035 243.178817 313.130302 243.468354 313.178568 243.709636 313.178568 243.999173 313.178568 244.578247 313.033769 245.109065 312.792436 245.591628 312.551103 246.07419 312.213237 246.508495 311.778838 246.846289 311.682305 246.942801 311.537506 246.991058 311.440973 247.08757 311.344439 247.135826 311.19964 247.232339 311.103107 247.280595L310.523908 247.570132 308.158847 248.824793C307.869248 248.969562 307.531382 248.87305 307.386583 248.583512 307.241783 248.293975 307.338316 247.956182 307.627915 247.811413L309.94471 246.460239 310.523908 246.122446C310.620441 246.07419 310.716974 246.025933 310.765241 245.977677 310.861774 245.929421 310.910041 245.881165 310.958307 245.832909 311.19964 245.591628 311.440973 245.30209 311.585772 245.012553 311.730572 244.67476 311.778838 244.336966 311.778838 243.999173 311.778838 243.806148 311.730572 243.661379 311.682305 243.516611 311.634039 243.420098 311.634039 243.371842 311.585772 243.27533L311.537506 243.178817 311.489239 243.034049 310.379109 240.572982 305.89032 230.776972C305.648987 230.246154 305.89032 229.618823 306.421252 229.377542 306.952184 229.184518 307.579649 229.377542 307.820982 229.956617 307.820982 229.956617 307.820982 229.956617 307.820982 229.956617zM312.30977 255.0981C310.186042 255.049844 308.110581 254.808563 306.083386 254.326001 304.056191 253.843439 302.028996 253.167852 300.146601 252.347496 299.857001 252.202728 299.712202 251.864934 299.857001 251.575397 300.001801 251.28586 300.2914 251.141091 300.581 251.28586 302.463395 252.009703 304.394057 252.588777 306.372985 252.974827 308.351914 253.360877 310.330842 253.553902 312.358037 253.553902 312.792436 253.553902 313.130302 253.891695 313.130302 254.326001 313.130302 254.760307 312.744169 255.0981 312.30977 255.0981 312.358037 255.0981 312.358037 255.0981 312.30977 255.0981z"/>
      <ellipse cx="316.929" cy="238.676" fill="#0F141F" fill-rule="nonzero" rx="1.11" ry="1.882" transform="rotate(-10.376 316.93 238.676)"/>
      <ellipse cx="297.431" cy="238.825" fill="#0F141F" fill-rule="nonzero" rx="1.11" ry="1.882" transform="rotate(-10.376 297.431 238.825)"/>
      <path fill="#0F141F" fill-rule="nonzero" d="M301.401531 234.444444C300.725799 234.058394 300.050068 233.768857 299.374336 233.575832 298.698604 233.431064 298.022873 233.431064 297.347141 233.624088 295.995678 234.010138 294.789014 235.023518 293.58235 236.085155 293.389284 236.27818 293.051418 236.27818 292.858352 236.036899 292.713552 235.843874 292.665286 235.602593 292.810086 235.409568 293.292751 234.685725 293.823683 234.010138 294.499415 233.431064 295.175146 232.851989 295.947411 232.369427 296.864475 232.07989 297.78154 231.790353 298.795137 231.838609 299.712202 232.128146 300.629266 232.417683 301.401531 232.948502 302.028996 233.527576 302.270329 233.720601 302.270329 234.106651 302.077262 234.299675 301.884196 234.540956 301.594597 234.589213 301.401531 234.444444zM320.032418 234.444444C319.356686 234.058394 318.680955 233.768857 318.005223 233.575832 317.329491 233.431064 316.65376 233.431064 315.978028 233.624088 314.626565 234.010138 313.419901 235.023518 312.213237 236.085155 312.020171 236.27818 311.682305 236.27818 311.489239 236.036899 311.344439 235.843874 311.296173 235.602593 311.440973 235.409568 311.923638 234.685725 312.45457 234.010138 313.130302 233.431064 313.806033 232.851989 314.578298 232.369427 315.495362 232.07989 316.412427 231.790353 317.426024 231.838609 318.343089 232.128146 319.260153 232.417683 320.032418 232.948502 320.659883 233.527576 320.901216 233.720601 320.901216 234.106651 320.708149 234.299675 320.56335 234.540956 320.273751 234.589213 320.032418 234.444444z"/>
      <path fill="#EB7B63" fill-rule="nonzero" d="M386.591986,365.170506 L394.025034,376.896764 C394.2181,377.186301 394.121567,377.572351 393.831968,377.765376 C393.542368,377.958401 393.204502,377.861888 393.011436,377.620607 L384.950923,366.280399 C384.661324,365.846093 384.757857,365.218762 385.192256,364.929225 C385.626655,364.639688 386.25412,364.687944 386.591986,365.170506 C386.543719,365.170506 386.591986,365.170506 386.591986,365.170506 Z"/>
      <path fill="#252938" fill-rule="nonzero" d="M283.253309,229.908361 L284.266907,241.007288 C284.36344,242.261949 285.521837,243.130561 286.728501,242.88928 C287.693832,242.696255 288.41783,241.8759 288.466096,240.910776 L289.141828,227.206013 L283.253309,229.908361 Z"/>
      <path fill="#FFF" fill-rule="nonzero" d="M374.139217,335.299914 C376.262945,339.787742 376.60081,338.91913 377.421342,344.227313 C377.614408,345.433718 376.986943,346.591867 375.925079,347.170941 L351.45394,368.065878 C350.585142,368.451928 349.571544,367.872854 349.378478,366.955986 L345.517154,360.103604 C344.74489,359.428017 344.841423,358.269869 345.710221,357.690794 L369.746961,334.286534 C371.194957,333.080129 373.366952,333.610947 374.139217,335.299914 Z"/>
      <ellipse cx="293.148" cy="339.933" fill="#ABABAB" fill-rule="nonzero" rx="1.786" ry="1.785"/>
      <ellipse cx="292.762" cy="379.647" fill="#ABABAB" fill-rule="nonzero" rx="1.786" ry="1.785"/>
      <path fill="#4B8EF4" fill-rule="nonzero" d="M74.7900946,285.933816 C74.7900946,285.933816 31.205403,323.284119 22.5656911,334.769096 C15.8018137,343.760481 5.25133893,373.93289 0.988798929,386.596261 C1.47262831,386.596261 91.2489869,386.596261 270.317875,386.596261 C234.439742,327.080274 169.263815,293.526125 74.7900946,285.933816 Z"/>
      <path fill="#3D76CC" fill-rule="nonzero" d="M81.3060783,310.013663 L98.05457,298.335661 L91.8281855,290.035593 L74.8383611,285.982072 C74.8383611,285.982072 31.2536695,323.332375 22.6139577,334.817352 C20.1040973,338.291799 18.4791235,341.155001 17.7390365,343.406957 C11.5466322,356.216083 4.38332537,376.71206 1.04743818,386.596261 C1.714543,386.595532 127.69023,386.595532 129.289857,386.596261 C123.447977,353.215918 110.143875,328.511169 82.8988744,320.147466 C78.3135525,318.69978 77.3964881,312.71601 81.3060783,310.013663 Z" opacity=".35"/>
      <path fill="#181A24" fill-rule="nonzero" d="M203.613507 46.0039596C203.613507 46.0039596 215.100946 41.2265952 231.415038 39.778909 247.680864 38.3312228 254.389914 51.263886 254.389914 62.7488631 254.389914 74.2338401 255.355245 97.6863562 254.389914 100.099167 253.424584 102.511977 229.001711 116.361508 229.001711 116.361508L203.613507 46.0039596zM96.3169743 68.0087895C96.3169743 68.0087895 73.3420982 63.2314251 65.6677172 74.7164022 57.9933363 86.2013792 65.1850518 137.932032 76.1898244 161.86711 87.194597 185.802188 92.9383161 186.28475 102.543359 175.282335 112.100135 164.27992 132.70995 129.294171 132.70995 129.294171L96.3169743 68.0087895z"/>
      <path fill="#252938" fill-rule="nonzero" d="M117.409455,146.087331 C100.950563,144.157083 81.6439442,147.438505 72.6181,152.698431 C73.7764971,156.076365 74.9831607,159.164763 76.238091,161.86711 C87.2428636,185.802188 92.9865826,186.28475 102.591625,175.282335 C107.949212,169.105541 116.78199,155.449035 123.49104,144.639645 C122.429176,142.130322 121.029446,146.47338 117.409455,146.087331 Z"/>
      <path fill="#F89D79" fill-rule="nonzero" d="M107.370014,179.577138 C107.370014,179.577138 109.300675,203.994778 109.300675,218.375127 C109.300675,232.755477 91.5868528,269.623218 91.5868528,269.623218 L196.228726,319.037573 C196.228726,319.037573 202.213778,298.335661 205.592436,287.767552 C208.922828,277.247699 208.005763,269.574962 208.005763,269.574962 L247.777398,264.797598 L146.41765,178.901551 L107.370014,179.577138 Z"/>
      <path fill="#E36565" fill-rule="nonzero" d="M179.6733,315.659639 L145.597118,274.738376 C140.722197,269.912755 138.115804,263.301655 138.357136,256.449274 C138.405403,254.567282 138.45367,252.540521 138.45367,250.465504 C138.45367,212.150077 126.821432,193.137132 126.821432,193.137132 L108.190545,192.123751 C108.721477,200.27905 109.252409,210.750647 109.252409,218.423384 C109.252409,232.803733 91.5385862,269.671474 91.5385862,269.671474 L120.884647,296.501925 L123.153174,305.139786 L179.6733,315.659639 Z" opacity=".35"/>
      <path fill="#181A24" fill-rule="nonzero" d="M107.949212 187.925461L109.204142 214.080325 127.593697 196.177273C128.607294 195.212148 128.172895 193.523181 126.821432 193.185388L107.949212 187.925461zM230.787573 250.465504L167.992796 254.519026C167.123998 254.567282 166.496533 255.435894 166.689599 256.304505 169.730392 268.030763 204.434039 291.145486 204.434039 291.145486 209.357226 278.743641 207.957497 269.671474 207.957497 269.671474L247.729131 264.89411 230.787573 250.465504z"/>
      <path fill="#F89D79" fill-rule="nonzero" d="M225.188654,78.0943366 C225.188654,78.0943366 271.669338,167.657855 275.482395,174.84803 C279.295452,182.038204 275.482395,183.48589 270.221342,183.48589 C264.960288,183.48589 247.246466,184.933577 247.246466,184.933577 C247.246466,184.933577 262.595227,239.028784 264.477623,245.736396 C266.408285,252.444009 262.209095,265.087135 247.729131,264.89411 C232.669968,264.701085 166.206934,257.269629 162.007744,253.891695 C158.001621,250.658529 138.550203,213.646019 133.289149,190.676065 C121.801711,197.383678 108.866276,193.571437 102.157226,179.67365 C95.4481765,165.775863 99.2612337,147.583273 111.714003,141.840785 C126.049167,82.3891389 225.188654,78.0943366 225.188654,78.0943366 Z"/>
      <path fill="#181A24" fill-rule="nonzero" d="M150.47204 113.03183C150.47204 113.03183 158.146421 164.27992 158.146421 171.470095 158.146421 176.343972 150.230707 178.322476 145.162719 179.142832 142.845925 179.480625 140.722197 177.888171 140.432598 175.571873 139.370734 167.46483 136.90914 149.754802 134.688879 146.087331 131.792886 141.309966 121.753444 136.966908 111.714003 141.792528 101.674561 146.569893 64.2679874 99.3270672 95.4481765 61.8319952 123.732373 27.8113699 188.361279 31.1893044 196.518325 34.5189826 204.675371 37.8486608 206.075101 46.0039596 206.075101 46.0039596 206.075101 46.0039596 233.393967 44.0737114 235.759027 62.266301 238.172355 80.4588907 235.759027 80.9414527 235.759027 80.9414527 235.759027 80.9414527 200.283116 100.581729 150.47204 113.03183zM194.971339 333.757466C199.877442 337.804991 204.785751 343.293986 209.208369 350.491098 215.215007 360.265953 219.619454 372.528157 221.809995 386.576287 221.32733 386.576287 219.396668 386.576287 218.942134 386.576287 216.810527 372.906109 212.567717 361.447092 206.759565 351.995241 202.510235 345.080129 197.813125 339.827319 193.134258 335.967215 190.637255 333.877149 189.621307 330.502306 190.500146 327.339164L194.539397 316.624763 196.711391 318.089966 193.258806 328.146602C192.697789 330.221849 193.364638 332.412562 194.971339 333.757466z"/>
      <path fill="#407AD1" fill-rule="nonzero" d="M71.6045025,289.31175 L60.5997299,298.335661 L79.5684827,304.850248 C83.4298064,306.153166 87.6772625,305.574092 91.0076542,303.257794 L91.5385862,302.871744 L71.6045025,289.31175 Z"/>
      <path fill="#545B7E" fill-rule="nonzero" d="M94.2415128,262.963862 C110.748672,271.746491 197.14579,316.721275 196.856191,318.072449 L179.6733,339.30518 C175.329311,344.613362 167.847996,346.109305 161.766412,342.876139 C130.537956,326.227748 100.323098,309.241563 72.0389014,291.676304 C69.7221072,290.228618 68.998109,287.188477 70.4943719,284.872179 C76.238091,276.041294 82.3679424,268.70635 88.9804593,263.446424 C90.4767222,262.240019 92.5521837,262.046994 94.2415128,262.963862 Z"/>
      <path fill="#181A24" fill-rule="nonzero" d="M225.912652,149.899571 C226.153985,153.325762 224.416389,154.339142 222.58226,154.435654 C220.748131,154.580423 219.493201,153.808324 219.251869,150.382133 C219.010536,146.955943 220.313733,144.06057 222.147861,143.915802 C223.933724,143.819289 225.623053,146.47338 225.912652,149.899571 Z"/>
      <path fill="#F89D79" fill-rule="nonzero" d="M226.78145,152.553662 L225.429986,152.698431 C224.271589,152.794943 223.209725,151.926332 223.113192,150.768183 C223.016659,149.610034 223.885457,148.548397 225.043854,148.451885 L226.395317,148.307116 C227.553715,148.210604 228.615579,149.079216 228.712112,150.237365 C228.808645,151.395513 227.939847,152.408894 226.78145,152.553662 Z"/>
      <path stroke="#181A24" stroke-linecap="round" stroke-width="1.916" d="M211.722287,156.26939 C211.722287,156.26939 220.410266,152.650175 230.208375,153.084481"/>
      <polygon fill="#FFE4A9" fill-rule="nonzero" points="240.73 137.353 238.124 168.575 232.38 171.47 210.081 171.47 198.98 143.337" opacity=".25"/>
      <path fill="#F0F3FF" fill-rule="nonzero" d="M235.083296,140.24833 L235.083296,146.376868 C235.083296,147.824554 233.780099,148.934447 232.380369,148.741422 C231.318505,148.596654 230.497974,147.728042 230.353174,146.618149 L229.773976,140.63438 C229.677443,139.476231 230.401441,138.414594 231.559838,138.125057 L232.139036,137.980288 C233.587033,137.594239 235.083296,138.704131 235.083296,140.24833 Z"/>
      <path fill="#407AD1" fill-rule="nonzero" d="M135.847276,149.320497 L256.610176,133.154668 C256.996308,133.106411 257.430707,133.299436 257.575507,133.685486 L258.589104,135.66399 C258.878703,136.243065 258.540837,136.966908 257.865106,137.06342 L136.76434,153.084481 L135.847276,149.320497 Z"/>
      <path fill="#407AD1" fill-rule="nonzero" d="M232.042503,173.352087 L214.714813,173.352087 C211.046556,173.352087 207.667897,171.035789 206.412967,167.561342 L197.531923,143.867545 L201.103647,142.516372 L209.936425,166.258425 C210.660423,168.236929 212.542819,169.539847 214.666547,169.539847 L231.994237,169.539847 C234.648897,169.539847 236.869158,167.46483 237.013958,164.762483 L238.558487,137.304701 L242.371544,137.497726 L240.827015,164.955507 C240.633949,169.684616 236.724358,173.352087 232.042503,173.352087 Z"/>
      <path fill="#181A24" fill-rule="nonzero" d="M192.608735,129.583708 L195.697794,132.479081 C197.000991,133.685486 198.931652,133.878511 200.427915,132.913387 C210.515624,126.398799 220.506799,121.138872 230.256641,118.195244 C231.94597,117.664425 232.863035,115.878946 232.23557,114.189979 L229.58091,106.710267 C229.001711,105.117812 227.312382,104.297456 225.719586,104.828275 C212.446285,109.219589 201.34498,115.541152 192.608735,124.034245 C190.967672,125.578443 191.015939,128.087766 192.608735,129.583708 Z"/>
      <path stroke="#181A24" stroke-linecap="round" stroke-width="2.873" d="M208.681495 197.094141C208.681495 197.094141 219.686267 212.439614 243.192076 209.06168M201.731112 200.182538C206.6543 199.169157 210.56389 196.611578 212.735885 191.544677"/>
      <path fill="#E36565" fill-rule="nonzero" d="M125.083836,154.676935 C118.905718,151.154232 111.858802,156.703696 110.845205,165.341557 C109.831607,173.979418 121.174246,182.424254 129.089959,177.888171 C133.820081,175.185823 130.586222,171.518351 127.207564,168.960772 C125.228636,167.513086 124.794237,164.762483 126.097434,162.735722 C127.352364,160.805474 128.80036,156.800209 125.083836,154.676935 Z"/>
      <ellipse cx="520.232" cy="101.776" fill="#FFA436" fill-rule="nonzero" rx="14.528" ry="38.364" transform="rotate(-39.62 520.232 101.776)"/>
      <ellipse cx="520.232" cy="101.776" fill="#F64238" fill-rule="nonzero" rx="6.709" ry="25.721" transform="rotate(-39.62 520.232 101.776)"/>
      <ellipse cx="518.818" cy="102.926" fill="#FF753D" fill-rule="nonzero" rx="4.875" ry="24.756" transform="rotate(-39.62 518.818 102.926)"/>
      <path fill="#3D76CC" fill-rule="nonzero" d="M208.295362,324.828318 C224.5451,338.983472 236.534828,359.572786 244.264548,386.596261 C245.460603,386.596261 269.111211,386.596261 270.589119,386.596261 C252.710556,358.285954 231.94597,337.696639 208.295362,324.828318 Z"/>
      <path fill="#E37865" fill-rule="nonzero" d="M248.935795,253.553902 C251.349122,252.540521 253.086718,250.658529 254.100315,247.907925 C254.534714,246.70152 256.079244,246.411983 256.948041,247.280595 C257.430707,247.763157 257.575507,248.438744 257.38244,249.114331 C255.837911,253.457389 253.32805,255.628918 250.480324,257.028348 C249.708059,257.414398 248.742729,257.221373 248.211796,256.545786 C247.342999,255.580662 247.729131,254.08472 248.935795,253.553902 Z" opacity=".35"/>
      <path fill="#252938" fill-rule="nonzero" d="M205.833769,45.1836041 C205.833769,45.1836041 189.761009,47.9342078 191.160738,59.9017469 C192.560468,71.869286 226.974516,57.102887 228.132913,84.8502054 C206.847366,95.8526204 176.053309,105.696886 176.053309,105.696886 C176.053309,105.696886 177.694372,88.1316274 170.502656,85.2845113 C163.310941,82.4373951 154.719496,88.1798836 148.444845,79.5420228 C142.170194,70.9041619 140.191265,50.0574809 141.253129,44.6045296 C142.36326,38.8620411 150.278973,33.6503709 159.884016,33.3608336 C166.593066,33.1678088 185.417019,31.0445357 196.325259,34.5189826 C201.586312,36.1114374 204.047906,39.1998346 205.833769,45.1836041 Z"/>
      <path fill="#181A24" fill-rule="nonzero" d="M480.373886,342.683114 L470.430977,338.53308 C468.741648,337.857493 466.810986,338.484824 465.942188,340.077279 C465.507789,340.897634 465.36299,341.862758 465.604322,342.73137 L470.237911,359.428017 L480.373886,342.683114 Z"/>
      <ellipse cx="179.673" cy="213.212" fill="#E36565" fill-rule="nonzero" opacity=".35" rx="15.542" ry="15.538"/>
      <path fill="#FFF" fill-rule="nonzero" d="M527.288969 53.6766963L566.674471 3.92454798C567.688068 2.62163041 569.522197 2.23558077 570.970194 3.05593627 572.466457 3.87629177 573.093922 5.7100276 572.466457 7.25422619L546.402521 72.3518481 527.288969 53.6766963zM519.904187 2.04255594L515.994597 25.6880969C515.463665 28.7764941 517.683926 31.6236102 520.772985 31.9614037 524.151643 32.2991971 526.99937 29.5003371 526.70977 26.1224027L524.586042 2.23558077C524.489509 1.02917562 523.427645.0640514963 522.220982.0640514963 521.062584.0640514963 520.097253.884406998 519.904187 2.04255594zM464.349392 95.5148269L398.031157 104.973043C396.293561 105.214324 395.038631 106.710267 395.038631 108.44749 395.038631 110.184714 396.341828 111.680656 398.031157 111.921937L466.376587 121.380153 464.349392 95.5148269zM469.706979 124.227269L420.378568 198.204033C419.171905 199.989513 419.268438 202.305811 420.619901 203.994778 422.30923 206.118051 425.398289 206.504101 427.522017 204.86339L498.61864 149.851315 469.706979 124.227269zM436.065196 74.6198897L434.4724 74.3786087C431.769473 73.9443029 430.080144 71.2419553 430.948942 68.6361202 431.721207 66.2233099 434.375867 64.9686485 436.692661 65.8855165L438.188924 66.4645909C440.360919 67.2849464 441.471049 69.6977567 440.698784 71.869286 440.023053 73.7995342 438.092391 74.9576832 436.065196 74.6198897zM419.027105 64.5343427C418.110041 67.188434 415.262314 68.6843764 412.559388 67.9122771L396.631427 63.42445C393.445835 62.507582 391.611706 59.1296476 392.67357 55.9929942 393.687168 52.904597 397.065826 51.2156298 400.154885 52.3255226L415.793246 57.7302176C418.544439 58.743598 419.992436 61.783739 419.027105 64.5343427zM622.470599 153.374018L621.119136 153.036224C618.802341 152.408894 617.643944 149.899571 618.609275 147.728042 619.526339 145.749537 621.8914 144.880926 623.870329 145.894306L625.125259 146.521637C626.911121 147.438505 627.683386 149.610034 626.766321 151.44377 625.94579 153.036224 624.159928 153.85658 622.470599 153.374018zM608.6181 143.04719C607.556236 145.266975 604.949842 146.280356 602.681315 145.363488L589.311481 140.007049C586.608555 138.945412 585.353624 135.808759 586.560288 133.202924 587.718685 130.597089 590.807744 129.487196 593.365871 130.693601L606.397839 136.870395C608.714633 137.980288 609.728231 140.730892 608.6181 143.04719zM563.488879 127.460435L601.860783 171.856145C603.067447 173.255575 603.16398 175.234079 602.102116 176.730022 600.991986 178.27422 598.916524 178.853295 597.178928 178.032939L539.886538 151.154232 563.488879 127.460435z"/>
      <path fill="#181A24" fill-rule="nonzero" d="M173.881315,260.647564 C171.902386,259.827208 169.971724,258.958597 167.992796,258.138241 C166.062134,257.269629 164.083206,256.401018 162.152544,255.387637 C161.911211,255.242869 161.669878,255.0981 161.428546,255.001588 C161.187213,254.856819 160.897614,254.663794 160.608014,254.470769 C160.366682,254.277745 160.125349,254.08472 159.932283,253.891695 C159.69095,253.69867 159.54615,253.457389 159.304818,253.264364 C158.532553,252.395753 157.856821,251.527141 157.229356,250.610273 C155.974426,248.824793 154.912562,246.942801 153.898964,245.060809 C151.871769,241.296825 150.085907,237.436329 148.348312,233.527576 C146.658982,229.618823 145.01792,225.710071 143.47339,221.704806 C143.328591,221.2705 143.521657,220.836194 143.956056,220.691425 C144.342188,220.546657 144.824854,220.739681 144.969653,221.125731 C146.562449,225.034484 148.300045,228.89498 150.085907,232.707221 C151.871769,236.519461 153.754165,240.331701 155.829626,243.950917 C156.89149,245.784652 157.953354,247.570132 159.160018,249.210843 C159.739217,250.031198 160.414948,250.851554 161.042413,251.527141 C161.23548,251.67191 161.380279,251.864934 161.573345,252.009703 L162.104277,252.444009 C162.297344,252.540521 162.442143,252.637034 162.635209,252.781802 C162.876542,252.878315 163.069608,253.023083 163.310941,253.119596 C165.14507,254.036464 167.123998,254.856819 169.05466,255.628918 C170.985322,256.449274 172.96425,257.221373 174.943179,257.993472 C175.667177,258.28301 176.053309,259.103365 175.76371,259.875465 C175.474111,260.599308 174.653579,260.985357 173.881315,260.647564 C173.881315,260.69582 173.881315,260.69582 173.881315,260.647564 Z"/>
      <ellipse cx="232.67" cy="156.269" fill="#F0F3FF" fill-rule="nonzero" rx="2.413" ry="2.413"/>
      <path fill="#181A24" fill-rule="nonzero" d="M199.80045 121.862715L196.180459 121.187129C195.215128 120.994104 194.539397 120.173748 194.539397 119.208624 194.539397 118.146988 195.311661 117.278376 196.373525 117.181863L201.248447 116.747558C203.179109 116.554533 204.240973 118.967343 202.74471 120.270261L201.489779 121.380153C201.007114 121.814459 200.379649 121.959228 199.80045 121.862715zM89.4148582 67.9122771L85.6983341 64.3413179C84.7330032 63.3761937 84.6364701 62.3145572 85.2156686 61.5424579 85.8431337 60.7221024 87.0015308 60.5290776 88.2564611 61.3011769L94.0967132 65.065161C96.4135074 66.5611033 96.1721747 69.3599633 93.7105808 69.1669385L91.5868528 68.9739136C90.814588 68.9256574 90.0423233 68.5396078 89.4148582 67.9122771z"/>
      <path fill="#181A24" fill-rule="nonzero" d="M93.2761819 65.2099296L91.876452 60.2395404C91.4903197 58.9366228 92.0212517 57.9714987 92.8900495 57.585449 93.8553805 57.1993994 94.965511 57.6337052 95.6412427 58.9366228L98.7785682 65.1616734C100.033498 67.6227399 98.3441693 69.9390378 96.3652409 68.4913516L94.6276452 67.2366902C94.0484466 66.8023844 93.5175146 66.0785413 93.2761819 65.2099296zM206.075101 117.471401L202.792976 115.83069C201.924178 115.396384 201.489779 114.383003 201.731112 113.466136 202.020711 112.452755 203.034309 111.873681 204.047906 112.066706L208.874561 112.983574C210.805223 113.369623 211.143089 115.975458 209.357226 116.795814L207.812697 117.519657C207.281765 117.760938 206.6543 117.760938 206.075101 117.471401z"/>
      <path fill="#E36565" fill-rule="nonzero" d="M435.051598 296.646693L429.838811 311.364836C428.728681 314.50149 425.736155 316.576507 422.405763 316.52825L415.696713 316.431738 419.220171 312.764266C420.045125 311.787087 420.688679 311.063244 421.150833 310.592737 421.612987 310.12223 426.246576 305.473549 435.051598 296.646693zM522.462314 246.653264C529.557497 245.832909 539.114273 253.312621 526.806303 260.888845 527.578568 260.937101 514.6914 260.888845 515.270599 261.371407 515.849797 261.902225 528.061234 262.288275 530.474561 264.218523 535.880414 268.513325 536.025214 278.598872 528.061234 280.625633 532.212157 283.71403 536.025214 296.164131 528.302566 298.383917 532.115624 305.863629 530.860693 308.372952 526.034039 313.053804 519.083656 311.895655 510.250878 302.775232 501.321567 293.075734 507.403152 278.550616 508.320216 268.175532 504.458892 254.326001 508.465016 247.763157 514.884466 246.749776 522.462314 246.653264z" opacity=".35"/>
      <path fill="#FFBC8F" fill-rule="nonzero" d="M542.685997,248.197463 C542.685997,248.197463 548.769203,245.323597 554.516169,244.828389 C552.918505,243.034049 550.746511,239.897395 549.057999,241.314246 C547.641999,242.843849 545.517998,245.138255 542.685997,248.197463 Z"/>
      <path stroke="#E37865" stroke-linecap="round" stroke-linejoin="round" stroke-width="2.214" d="M507.017019 260.985357C507.789284 261.516176 518.311391 261.371407 523.958577 261.274894 526.227105 261.226638 528.3991 260.406283 530.136695 258.91034L550.167312 241.827643M508.754615 273.869764L526.902837 280.28784C529.36443 281.156451 532.115624 281.011683 534.432418 279.805278L547.609185 272.952896M512.519406 290.518155L523.668978 297.467049C525.068708 298.335661 526.70977 298.673454 528.302566 298.383917L546.643854 296.357156"/>
      <path fill="#E37865" fill-rule="nonzero" d="M521.931382 231.018253C522.703647 232.562452 523.041513 234.251419 523.234579 235.89213 523.427645 237.581097 523.475912 239.221808 523.572445 240.814263 523.620711 241.441594 523.138046 241.972412 522.510581 241.972412 521.883116 241.972412 521.352184 241.538106 521.352184 240.910776 521.352184 240.862519 521.352184 240.814263 521.352184 240.717751 521.496983 239.07704 521.738316 237.484585 521.786583 235.89213 521.834849 234.299675 521.786583 232.707221 521.303917 231.211278 521.255651 231.018253 521.352184 230.825229 521.54525 230.776972 521.69005 230.825229 521.883116 230.873485 521.931382 231.018253zM511.119676 287.622783C507.258352 284.872179 506.148222 273.242434 512.760738 275.993037 513.43647 276.282575 513.29167 274.931401 513.870869 274.352326 505.569023 272.711615 506.679154 261.612688 511.650608 262.191762 502.238631 255.532406 506.679154 250.031198 506.679154 250.031198 505.424223 245.639884 501.659433 242.792768 497.267177 239.511346L491.716524 235.650849 490.268528 238.063659C490.123728 238.30494 490.220261 238.594478 490.461594 238.69099 502.431697 244.143941 501.997299 273.676739 489.496263 285.789047 486.455471 288.732676 486.793336 293.751321 490.123728 296.357156 492.295723 298.046123 494.998649 298.962991 497.798109 298.962991 501.852499 298.962991 506.920486 299.445553 509.285547 301.52057L510.540477 301.52057C509.719946 300.700215 510.540477 300.217653 510.009545 299.300785 506.679154 293.751321 508.899415 288.780932 513.339937 292.11061 514.063935 292.641428 514.450068 292.11061 515.415398 292.11061L516.139397 292.11061C516.09113 292.062354 513.339937 289.215238 511.119676 287.622783z"/>
      <path fill="#E37865" fill-rule="nonzero" d="M503.493561,251.141091 C503.686628,250.706785 503.879694,250.320736 504.121027,249.88643 C504.265826,249.645149 504.410626,249.403868 504.555425,249.210843 C504.700225,249.017818 504.845025,248.776537 504.989824,248.583512 C505.61729,247.811413 506.244755,247.08757 506.968753,246.460239 C507.692751,245.784652 508.416749,245.205578 509.189014,244.626503 C509.961279,244.047429 510.78181,243.516611 511.747141,243.130561 C511.988474,243.034049 512.229806,242.937536 512.519406,242.841024 C512.809005,242.744511 512.953805,242.696255 513.195137,242.647999 L514.498334,242.261949 L517.152994,241.538106 L522.414048,240.042164 L521.786583,240.47647 L530.136695,229.811848 C530.281495,229.618823 530.522828,229.618823 530.715894,229.763592 C530.860693,229.908361 530.90896,230.101385 530.812427,230.29441 L523.620711,241.779387 C523.524178,241.972412 523.331112,242.117181 523.138046,242.165437 L523.041513,242.213693 L517.780459,243.709636 L515.125799,244.433479 L513.822602,244.819528 C513.629536,244.867784 513.339937,244.964297 513.195137,245.012553 C513.002071,245.060809 512.857271,245.109065 512.664205,245.205578 C511.940207,245.495115 511.216209,245.977677 510.540477,246.460239 C509.864746,246.942801 509.189014,247.521876 508.561549,248.10095 C507.934084,248.680025 507.354885,249.307355 506.823953,249.982942 C506.58262,250.320736 506.341288,250.658529 506.148222,250.948066 C505.955155,251.28586 505.762089,251.720166 505.569023,252.106215 C505.279424,252.637034 504.603692,252.878315 504.07276,252.588777 C503.541828,252.29924 503.203962,251.67191 503.493561,251.141091 Z"/>
      <path stroke="#E37865" stroke-linecap="round" stroke-linejoin="round" stroke-width="2.214" d="M508.899415,299.783347 C508.899415,299.783347 514.981,305.911885 518.649257,309.820638 C520.579919,311.895655 523.234579,313.053804 526.082305,313.053804 L536.07348,313.053804"/>
      <path fill="#E36565" fill-rule="nonzero" d="M460.150203,338.91913 C460.150203,360.11969 430.257121,376.012067 370.470959,386.596261 L456.626745,386.596261 C464.617461,371.234383 470.699046,359.604637 474.871499,351.707025 L460.150203,338.91913 Z" opacity=".35"/>
      <path fill="#181A24" fill-rule="nonzero" d="M480.373886,342.538345 C475.547231,341.814502 470.913643,338.967386 466.521387,333.369666 C464.494192,332.018492 461.742999,332.597567 460.439802,334.672584 C459.619271,335.927245 459.571004,337.567956 460.198469,338.91913 L471.058442,359.090224 L480.373886,342.538345 Z"/>
      <path fill="#E37865" fill-rule="nonzero" d="M501.514633,213.694275 C502.81783,214.080325 504.651959,213.983813 506.099955,211.233209 C505.762089,214.27335 502.238631,219.87107 502.238631,219.87107 L500.645835,214.948937 C500.404502,214.27335 500.935434,213.501251 501.514633,213.694275 Z"/>
      <ellipse cx="159.981" cy="97.445" fill="#252938" fill-rule="nonzero" rx="5.889" ry="5.887"/>
      <ellipse cx="575.073" cy="95.515" fill="#F2F5FA" fill-rule="nonzero" rx="15.204" ry="15.201"/>
      <ellipse cx="518.794" cy="62.604" fill="#F2F5FA" fill-rule="nonzero" rx="5.551" ry="5.549"/>
      <ellipse cx="488.483" cy="132.286" fill="#F2F5FA" fill-rule="nonzero" rx="8.061" ry="8.059"/>
      <path fill="#FFF" fill-rule="nonzero" d="M505.32769,78.0460804 L506.051688,80.1693534 C506.148222,80.4588907 506.389554,80.7484279 506.72742,80.8449403 L508.851148,81.5687834 C509.816479,81.9065768 509.816479,83.2577506 508.851148,83.5955441 L506.72742,84.3193871 C506.437821,84.4158996 506.148222,84.6571806 506.051688,84.994974 L505.32769,87.1182471 C504.989824,88.0833712 503.638361,88.0833712 503.300495,87.1182471 L502.576497,84.994974 C502.479964,84.7054368 502.238631,84.4158996 501.900765,84.3193871 L499.777037,83.5955441 C498.811706,83.2577506 498.811706,81.9065768 499.777037,81.5687834 L501.900765,80.8449403 C502.190365,80.7484279 502.479964,80.5071469 502.576497,80.1693534 L503.300495,78.0460804 C503.638361,77.0809562 504.989824,77.0809562 505.32769,78.0460804 Z"/>
      <polygon fill="#4B8EF4" fill-rule="nonzero" points="412.028 318.314 358.163 386.596 458.075 386.596 461.646 376.993"/>
      <path fill="#545B7E" fill-rule="nonzero" d="M399.430887,328.785327 L412.028456,313.005547 C413.717785,310.93053 416.806844,310.689249 418.785772,312.522985 L471.685907,362.178621 C472.409905,362.854208 472.554705,364.012357 472.023773,364.880969 L464.638991,376.414202 C464.011526,377.427582 462.660063,377.71712 461.646466,377.041533 L400.444484,335.444683 C398.224223,333.948741 397.789824,330.860344 399.430887,328.785327 Z"/>
      <ellipse cx="165.242" cy="329.702" fill="#FFF" fill-rule="nonzero" rx="3.475" ry="3.474"/>
      <ellipse cx="174.412" cy="319.424" fill="#FFF" fill-rule="nonzero" rx="3.475" ry="3.474"/>
      <ellipse cx="459.426" cy="363.433" fill="#FFF" fill-rule="nonzero" rx="3.475" ry="3.474"/>
    </g>
  </g>
</svg>
