<svg width="600" height="148" viewBox="0 0 600 148" fill="none" xmlns="http://www.w3.org/2000/svg"><path d="M157.7 53.4h60.7v11.4h-23.9v64h-13.1v-64h-23.8l.1-11.4zm58.1 20.8H227v10.6h.2a16.7 16.7 0 015.8-8.1c1.4-1.2 3-2.2 4.8-2.9a14 14 0 015.3-1h2.9l1.6.2v11.6l-2.6-.4-2.6-.2a13.8 13.8 0 00-10.4 4.7 19 19 0 00-3.2 5.8c-.8 2.4-1.2 5-1.2 8v26h-12l.2-54.3zm86.8 54.6h-11.8v-7.6h-.2c-1.5 2.8-3.7 4.9-6.6 6.6a17.4 17.4 0 01-8.9 2.5c-7.1 0-12.3-1.7-15.5-5.3-3.2-3.5-4.8-9-4.8-16V74.1h12v33.5c0 4.8.9 8.2 2.8 10.2 1.8 2 4.4 3 7.7 3 2.5 0 4.6-.4 6.3-1.2 1.7-.8 3.1-1.8 4.1-3.2 1.1-1.3 1.8-2.9 2.3-4.7.5-1.8.7-3.8.7-5.9V74.2h12v54.6h-.1zm20.4-17.5c.4 3.5 1.7 6 4 7.5 2.3 1.4 5.1 2 8.3 2a27.5 27.5 0 007.8-1.2 7 7 0 003.1-2.3c.8-1 1.2-2.2 1.1-3.7a5.4 5.4 0 00-1.7-3.8c-1.1-1-2.4-1.7-4-2.4-1.6-.6-3.5-1.1-5.6-1.5l-6.4-1.4c-2.2-.5-4.4-1.1-6.5-1.8-2.1-.7-3.9-1.6-5.6-3-1.6-1.1-3-2.6-3.9-4.6-1-1.9-1.5-4-1.5-6.9 0-3 .7-5.4 2.2-7.4a16 16 0 015.5-4.8c2.2-1.3 4.7-2.2 7.4-2.7a42.2 42.2 0 0115.7.2c2.5.6 4.9 1.6 6.9 3 2.1 1.3 3.8 3 5.1 5.2 1.4 2 2.2 4.7 2.6 7.7H345c-.6-2.9-1.9-4.8-3.9-5.8A16 16 0 00334 82a17.6 17.6 0 00-6.3 1c-1 .4-1.9 1-2.6 1.7a4 4 0 00-1.1 3c0 1.4.5 2.5 1.5 3.4 1 1 2.3 1.6 4 2.3 1.6.6 3.5 1.1 5.6 1.5l6.5 1.5c2.2.5 4.3 1 6.4 1.8a17.5 17.5 0 019.6 7.4 14 14 0 011.5 6.7c0 3.2-.7 6-2.2 8.3a18.7 18.7 0 01-5.7 5.5c-2.3 1.4-5 2.4-7.8 3.1a35.6 35.6 0 01-18-.2c-2.9-.8-5.5-2-7.6-3.5a16.8 16.8 0 01-5-6 19.4 19.4 0 01-2-8.4h12.1v.1h.1zm39.5-37h9.1V57.7h12V74h10.8v9h-10.8v29.1l.2 3.3c.1 1 .4 1.8.7 2.4a4 4 0 001.7 1.4c.8.3 1.8.5 3.2.5l2.5-.1 2.5-.4v9.3l-3.9.4c-1.3.2-2.5.2-3.9.2-3.2 0-5.7-.3-7.6-.9a11 11 0 01-4.5-2.6 9.4 9.4 0 01-2.2-4.3c-.4-1.7-.6-3.8-.7-6V83.1h-9.1V74v.2zm40.3 0h11.3v7.4h.2c1.7-3.2 4-5.4 7-6.9 3-1.4 6.2-2 9.8-2 4.3 0 8 .6 11.2 2.3a21 21 0 017.9 6.2 26 26 0 014.7 9.2 41.3 41.3 0 01.2 22c-1 3.3-2.4 6.5-4.3 9a21.3 21.3 0 01-17.7 8.8 30.3 30.3 0 01-10.2-2 17.9 17.9 0 01-7.8-6.5h-.2V149h-12V74.2h-.1zm41.9 27.3a24.6 24.6 0 00-3.9-13.3 16 16 0 00-4.7-4.3 12.7 12.7 0 00-6.5-1.6c-5 0-8.8 1.7-11.4 5.2a23.9 23.9 0 00-3.8 14c0 2.9.3 5.4 1 7.7a17 17 0 003 6c1.3 1.7 2.9 3 4.8 4s4 1.6 6.5 1.6c2.8 0 5-.6 6.9-1.7 1.9-1.1 3.4-2.7 4.7-4.4 1.2-1.8 2.1-3.8 2.6-6 .5-2.5.8-4.8.8-7.2zm21.1-48.2h12v11.4h-12V53.4zm0 20.8h12v54.6h-12V74.2zm22.7-20.8h12v75.4h-12V53.4zm48.6 77c-4.3 0-8.2-.8-11.6-2.3a26.3 26.3 0 01-8.6-6 25.8 25.8 0 01-5.3-9 35.9 35.9 0 010-23 24 24 0 0113.9-15c3.4-1.6 7.3-2.4 11.6-2.4s8.2.7 11.6 2.2c3.4 1.5 6.2 3.5 8.6 6 2.3 2.5 4.1 5.6 5.3 9.1a35.3 35.3 0 010 23 24 24 0 01-13.9 15 29.9 29.9 0 01-11.6 2.3zm0-9.6a13.8 13.8 0 0011.7-6.2 19 19 0 002.8-6 27.7 27.7 0 000-14 18 18 0 00-2.8-6.2 14 14 0 00-11.7-6 13.8 13.8 0 00-11.7 6 18 18 0 00-2.8 6.1 27.5 27.5 0 000 14 18 18 0 002.8 6.1c1.3 1.8 2.9 3.4 4.8 4.5a13 13 0 006.9 1.7zm31-46.6h9.1V57.8h12V74H600v9h-10.8v29.1l.2 3.3c.1 1 .4 1.8.7 2.4a4 4 0 001.7 1.4c.8.3 1.8.5 3.2.5l2.5-.1 2.5-.4v9.3l-3.9.4c-1.3.2-2.5.2-3.9.2-3.2 0-5.7-.3-7.6-.9a11 11 0 01-4.5-2.6 9.4 9.4 0 01-2.2-4.3c-.4-1.7-.6-3.8-.7-6V83.1h-9.1V74v.2z" fill="#000"/><path d="M143.7 53.4H88.8L71.9 1l-17 52.4H0l44.4 32.4-17 52.4 44.4-32.4 44.4 32.4-16.9-52.4 44.4-32.4z" fill="#00B67A"/><path d="M103.1 97.7l-3.8-11.9-27.4 20 31.2-8.1z" fill="#005128"/></svg>
